<svg width="239" height="345" viewBox="0 0 239 345" fill="none" xmlns="http://www.w3.org/2000/svg">
<path d="M214.098 79.6188C219.733 80.8957 225.538 81.253 231.288 80.6769C234.125 80.3644 238.486 79.0322 238.097 75.37C237.691 71.5324 232.493 70.8581 229.535 70.5237C224.321 69.9834 219.06 70.8841 214.322 73.1278C212.717 73.8624 214.109 76.2253 215.703 75.4961C218.875 74.0155 222.316 73.2002 225.815 73.1004C227.201 73.062 236.694 73.3306 235.046 76.5268C233.95 78.6758 228.083 78.1715 226.166 78.2099C222.352 78.2113 218.55 77.7977 214.826 76.9763C213.106 76.6036 212.372 79.246 214.098 79.6188Z" fill="#015CCA"/>
<path d="M212.179 77.6729C217.636 107.19 219.019 137.316 216.288 167.21C216.129 168.964 218.868 168.953 219.027 167.21C221.749 137.076 220.326 106.712 214.798 76.9657C214.48 75.2333 211.84 75.9679 212.157 77.6948L212.179 77.6729Z" fill="#015CCA"/>
<path d="M235.247 82.2836C236.78 98.2372 236.58 114.31 234.65 130.221C233.656 138.312 232.204 146.34 230.301 154.266C228.657 161.196 226.499 168.213 221.41 173.454C220.183 174.72 222.116 176.661 223.349 175.395C228.126 170.488 230.58 164.118 232.295 157.599C234.375 149.517 235.956 141.315 237.028 133.039C239.283 116.218 239.604 99.194 237.986 82.3C237.822 80.5567 235.083 80.5402 235.247 82.3V82.2836Z" fill="#015CCA"/>
<path d="M216.387 171.497C217.921 172.943 219.698 174.106 221.635 174.935C221.951 175.106 222.32 175.151 222.668 175.06C223.016 174.969 223.316 174.75 223.509 174.447C223.691 174.133 223.742 173.76 223.651 173.409C223.559 173.058 223.333 172.757 223.021 172.572C221.293 171.849 219.705 170.831 218.327 169.562C217.034 168.361 215.094 170.297 216.387 171.497Z" fill="#015CCA"/>
<path d="M214.716 171.207C213.609 178.496 211.785 185.658 209.271 192.588C208.674 194.232 211.319 194.967 211.917 193.317C214.426 186.386 216.249 179.224 217.356 171.936C217.619 170.209 214.979 169.463 214.716 171.207Z" fill="#015CCA"/>
<path d="M221.387 173.93C219.086 176.123 217.914 179.697 216.347 182.433C214.43 185.782 212.348 189.012 210.141 192.202C209.127 193.65 211.505 195.02 212.502 193.584C214.518 190.689 216.435 187.734 218.21 184.686C219.804 181.945 221.026 178.069 223.326 175.87C224.597 174.648 222.664 172.713 221.387 173.93Z" fill="#015CCA"/>
<path d="M217.686 172.803C215.792 176.39 214.216 180.136 212.974 183.997C212.427 185.68 215.078 186.399 215.615 184.727C216.782 181.091 218.267 177.565 220.052 174.19C220.874 172.627 218.507 171.24 217.686 172.803Z" fill="#015CCA"/>
<path d="M215.68 172.007C215.286 173.929 214.939 175.862 214.639 177.807C214.377 179.528 217.017 180.274 217.28 178.531C217.576 176.59 217.923 174.658 218.321 172.736C218.682 171.014 216.042 170.28 215.68 172.007Z" fill="#015CCA"/>
<path d="M219.504 172.692C218.305 176.08 216.864 179.378 215.192 182.56C214.382 184.122 216.743 185.509 217.559 183.942C219.331 180.537 220.858 177.01 222.128 173.388C222.714 171.716 220.068 171.003 219.487 172.659L219.504 172.692Z" fill="#015CCA"/>
<path d="M207.753 199.554C204.669 195.717 199.87 194.483 195.186 194.001C189.165 193.446 183.101 193.577 177.109 194.39C166.903 195.684 156.013 198.94 150.267 208.205C145.232 216.336 146.027 229.729 157.289 231.67C162.811 232.618 167.752 230.376 172.836 228.583C174.978 227.827 179.448 226.182 180.965 228.939C181.891 230.617 180.828 233.172 181.256 235.041C182.559 240.781 189.056 239.295 193.066 237.667C198.144 235.6 204.077 230.875 209.873 232.218C211.938 232.695 214.195 234.29 214.463 236.549C214.732 238.808 213.444 240.907 214.096 243.199C215.647 248.593 222.993 247.184 227.112 246.779C228.24 246.603 229.378 246.5 230.519 246.472C231.001 246.474 231.479 246.55 231.938 246.697L232.157 246.784C231.779 245.935 231.423 245.989 231.062 246.96C230.174 247.552 229.418 248.884 228.635 249.673C227.583 250.77 226.482 251.822 225.381 252.864C221.475 256.548 217.339 260.123 214.348 264.629C211.741 268.549 210.437 273.719 212.951 278.028C214.009 279.824 215.672 281.185 217.641 281.865C219.021 282.364 224.313 282.414 224.762 284.179C225.014 285.144 222.615 287.167 222.023 287.83L218.588 291.865C216.324 294.533 214.058 297.205 211.79 299.88C210.015 301.974 208.027 304.195 208.082 307.122C208.131 309.458 209.533 311.316 211.122 312.884C213.362 315.077 214.507 316.585 213.899 319.918C213.351 322.977 212.195 325.85 212.037 328.991C211.933 331.801 212.415 334.603 213.452 337.216C214.49 339.83 216.06 342.199 218.062 344.171C220.555 346.671 224.428 342.795 221.935 340.296C220.168 338.566 218.864 336.419 218.144 334.053C217.424 331.686 217.311 329.176 217.816 326.754C218.78 322.067 220.977 317.111 218.216 312.572C217.241 310.965 215.729 309.896 214.491 308.526C212.497 306.333 215.159 304.326 216.682 302.55C220.456 298.115 224.302 293.729 228.011 289.239C230.886 285.758 231.149 281.531 227.019 278.823C223.584 276.591 216.83 278.11 217.076 272.376C217.285 267.524 222.363 263.204 225.606 260.117C229.15 256.74 233.1 253.538 235.959 249.514C238.495 245.956 236.803 241.987 232.568 241.132C230.377 240.693 228.224 241.132 226.055 241.335C224.631 241.455 223.195 241.543 221.766 241.587C221.178 241.659 220.585 241.668 219.996 241.614C219.109 241.247 219.322 241.406 219.448 240.238C220.029 235.924 219.81 232.355 216.189 229.367C212.393 226.242 207.462 225.963 202.866 227.3C197.657 228.819 193.203 232.399 187.879 233.534C186.295 233.874 186.526 233.665 186.58 232.311C186.659 231.4 186.692 230.485 186.679 229.57C186.614 228.471 186.313 227.399 185.796 226.426C185.28 225.454 184.561 224.604 183.688 223.934C179.596 220.722 174.447 222.092 170.02 223.759C165.594 225.425 159.612 228.216 155.23 225.036C150.584 221.626 152.726 214.115 155.432 210.234C158.768 205.415 164.197 202.767 169.735 201.281C175.761 199.637 182.132 199.132 188.361 199.154C193.559 199.154 200.226 198.973 203.814 203.408C206.005 206.15 209.884 202.252 207.687 199.532L207.753 199.554Z" fill="#015CCA"/>
</svg>
