<svg width="541" height="526" viewBox="0 0 541 526" fill="none" xmlns="http://www.w3.org/2000/svg">
<path d="M107.717 206.4L98.9331 209.568L100.805 216.144L106.757 214.512V240H114.437V206.4H107.717ZM132.933 240.672C141.621 240.672 146.613 233.568 146.613 223.2C146.613 212.832 141.621 205.728 132.933 205.728C124.245 205.728 119.253 212.832 119.253 223.2C119.253 233.568 124.245 240.672 132.933 240.672ZM132.933 233.184C128.901 233.184 126.933 229.68 126.933 223.2C126.933 216.72 128.901 213.216 132.933 213.216C136.965 213.216 138.933 216.72 138.933 223.2C138.933 229.68 136.965 233.184 132.933 233.184ZM163.167 240.672C171.855 240.672 176.847 233.568 176.847 223.2C176.847 212.832 171.855 205.728 163.167 205.728C154.479 205.728 149.487 212.832 149.487 223.2C149.487 233.568 154.479 240.672 163.167 240.672ZM163.167 233.184C159.135 233.184 157.167 229.68 157.167 223.2C157.167 216.72 159.135 213.216 163.167 213.216C167.199 213.216 169.167 216.72 169.167 223.2C169.167 229.68 167.199 233.184 163.167 233.184ZM181.161 229.104H199.401V222.192H181.161V229.104ZM224.025 222.48C225.993 220.944 227.241 218.736 227.241 215.712C227.241 209.184 222.249 205.728 216.057 205.728C209.865 205.728 204.873 209.184 204.873 215.712C204.873 218.736 206.121 220.944 208.089 222.48C205.257 224.304 203.721 227.232 203.721 230.544C203.721 236.688 208.137 240.672 216.057 240.672C223.977 240.672 228.393 236.688 228.393 230.544C228.393 227.232 226.857 224.304 224.025 222.48ZM216.057 212.928C218.217 212.928 219.561 214.32 219.561 216.192C219.561 218.064 218.217 219.456 216.057 219.456C213.897 219.456 212.553 218.064 212.553 216.192C212.553 214.32 213.897 212.928 216.057 212.928ZM216.057 233.472C213.369 233.472 211.401 231.984 211.401 229.44C211.401 226.896 213.369 225.408 216.057 225.408C218.745 225.408 220.713 226.896 220.713 229.44C220.713 231.984 218.745 233.472 216.057 233.472ZM244.964 240.672C253.652 240.672 258.644 233.568 258.644 223.2C258.644 212.832 253.652 205.728 244.964 205.728C236.276 205.728 231.284 212.832 231.284 223.2C231.284 233.568 236.276 240.672 244.964 240.672ZM244.964 233.184C240.932 233.184 238.964 229.68 238.964 223.2C238.964 216.72 240.932 213.216 244.964 213.216C248.996 213.216 250.964 216.72 250.964 223.2C250.964 229.68 248.996 233.184 244.964 233.184ZM286.334 240.672C293.87 240.672 298.574 235.92 298.574 229.44C298.574 222.624 293.054 218.976 288.638 218.976C286.142 218.976 283.79 219.696 282.062 221.232C282.734 219.552 283.982 218.16 288.254 216.576C293.342 214.656 296.318 212.88 297.278 208.848L291.326 205.44C289.934 208.848 287.822 209.472 282.686 212.016C275.006 215.808 273.518 219.888 273.518 227.616C273.518 235.008 278.366 240.672 286.334 240.672ZM286.286 234.192C283.358 234.192 281.054 232.176 281.054 229.248C281.054 226.272 283.646 224.592 286.142 224.592C289.166 224.592 291.374 226.656 291.374 229.44C291.374 232.176 289.262 234.192 286.286 234.192ZM319.377 216V218.256C317.793 216.432 315.441 215.328 312.225 215.328C305.937 215.328 300.753 220.848 300.753 228C300.753 235.152 305.937 240.672 312.225 240.672C315.441 240.672 317.793 239.568 319.377 237.744V240H326.577V216H319.377ZM313.665 233.856C310.353 233.856 307.953 231.6 307.953 228C307.953 224.4 310.353 222.144 313.665 222.144C316.977 222.144 319.377 224.4 319.377 228C319.377 231.6 316.977 233.856 313.665 233.856ZM352.739 216H333.155V229.584C333.155 232.56 331.955 233.952 329.699 233.28V240C336.707 240.816 340.355 237.312 340.355 230.064V222.912H345.539V240H352.739V216ZM378.895 216H359.311V229.584C359.311 232.56 358.111 233.952 355.855 233.28V240C362.863 240.816 366.511 237.312 366.511 230.064V222.912H371.695V240H378.895V216ZM395.691 240.672C402.747 240.672 408.411 235.152 408.411 228C408.411 220.848 402.747 215.328 395.691 215.328C388.635 215.328 382.971 220.848 382.971 228C382.971 235.152 388.635 240.672 395.691 240.672ZM395.691 233.664C392.571 233.664 390.171 231.408 390.171 228C390.171 224.592 392.571 222.336 395.691 222.336C398.811 222.336 401.211 224.592 401.211 228C401.211 231.408 398.811 233.664 395.691 233.664ZM430.388 227.712C431.876 226.608 432.644 224.928 432.644 222.864C432.644 218.88 429.812 216 424.484 216H412.484V240H425.444C430.772 240 433.604 237.12 433.604 233.136C433.604 230.688 432.452 228.816 430.388 227.712ZM423.716 221.76C425.012 221.76 425.828 222.288 425.828 223.488C425.828 224.64 425.012 225.12 423.716 225.12H419.204V221.76H423.716ZM424.484 234.048H419.204V230.592H424.484C425.732 230.592 426.596 231.12 426.596 232.272C426.596 233.472 425.732 234.048 424.484 234.048Z" fill="#015CCA"/>
<path d="M188.854 93.6301C152.052 106.447 118.213 126.556 89.3618 152.752C62.1359 177.61 32.4163 211.134 38.6344 250.911C44.2458 286.989 73.3464 313.583 105.812 327.058C143.109 342.525 185.953 346.394 225.999 347.211C302.695 348.767 384.278 333.346 452.197 296.599C481.241 280.912 521.44 252.191 517.333 214.227C515.54 197.448 504.745 183.436 493.284 171.872C479.161 157.754 462.892 145.962 445.082 136.933C359.505 92.7994 260.773 110.974 171.73 132.687C166.371 133.986 167.293 142.683 172.712 141.334C245.335 123.651 322.144 107.825 396.055 127.463C432.896 137.26 469.585 156.286 494.371 185.862C506.499 200.389 512.999 217.639 505.149 235.969C497.602 253.576 482.043 266.998 466.65 277.599C436.91 298.121 401.277 310.884 366.853 320.582C332.523 330.249 297.228 336.079 261.613 337.965C225.604 339.98 189.483 337.821 153.97 331.533C116.921 324.863 78.0074 310.851 57.5471 277.022C47.0179 259.623 43.4849 238.908 50.1032 219.403C57.1804 198.52 72.5695 181.231 88.071 166.049C117.586 137.278 153.057 115.339 191.981 101.781C197.282 99.9235 194.141 91.8044 188.847 93.646L188.854 93.6301Z" fill="#FCD601"/>
</svg>
