<svg width="646" height="390" viewBox="0 0 646 390" fill="none" xmlns="http://www.w3.org/2000/svg">
<path d="M193.857 355.123C175.522 353.263 162.393 338.339 161.046 320.022C159.84 303.667 164.444 286.883 157.689 271.223C144.6 240.864 107.427 242.029 80.4261 245.3C74.073 246.077 74.0127 256.299 80.4261 255.522C98.2992 253.355 118.344 250.636 134.709 260.347C153.447 271.509 151.537 290.521 150.974 309.657C150.572 323.844 152.421 337.378 161.71 348.602C169.847 358.27 181.406 364.286 193.877 365.345C200.311 365.979 200.27 355.757 193.877 355.123H193.857Z" fill="#EA008B"/>
<path d="M485.718 360.909C499.249 363.73 511.854 358.067 520.399 347.191C529.928 335.048 531.255 319.081 529.265 304.26C526.993 287.169 517.685 268.79 521.022 251.352C524.942 231.051 547.158 228.7 563.925 227.719C570.359 227.351 570.399 217.109 563.925 217.497C537.186 219.071 509.019 227.821 510.527 260.592C511.291 277.601 518.569 293.404 519.856 310.331C521.223 328.833 511.472 355.92 488.392 351.116C482.059 349.808 479.365 359.641 485.718 360.97V360.909Z" fill="#EA008B"/>
<path d="M211.691 375.689H196.29C190.902 375.689 186.56 371.866 186.56 367.164V345.78C186.56 341.078 190.902 337.255 196.29 337.255H211.691" fill="#0058AF"/>
<path d="M472.449 375.689H487.849C493.217 375.689 497.58 371.866 497.58 367.164V345.78C497.58 341.078 493.217 337.255 487.849 337.255H472.449" fill="#0058AF"/>
<path d="M467.021 193.68L482.24 193.905C490.865 194.028 497.741 202.532 497.6 212.897V214.717C497.459 225.081 490.342 233.382 481.717 233.259L466.498 233.034L467.021 193.68Z" fill="#0058AF"/>
<path d="M217.119 193.68L201.899 193.905C193.274 194.028 186.398 202.532 186.539 212.897V214.717C186.68 225.082 193.797 233.382 202.422 233.259L217.641 233.034L217.119 193.68Z" fill="#0058AF"/>
<path d="M473.695 389.305V229.518C473.695 138.932 417.724 65.4785 348.664 65.4785H336.601C267.541 65.4785 211.55 138.932 211.55 229.518V389.305H473.695Z" fill="#015CCA"/>
<path d="M435.918 157.25H246.109C239.736 157.25 234.569 162.503 234.569 168.984V215.657C234.569 222.138 239.736 227.391 246.109 227.391H435.918C442.292 227.391 447.458 222.138 447.458 215.657V168.984C447.458 162.503 442.292 157.25 435.918 157.25Z" fill="#02569B"/>
<path d="M293.597 222.097C311.207 222.097 325.483 207.58 325.483 189.673C325.483 171.766 311.207 157.25 293.597 157.25C275.987 157.25 261.711 171.766 261.711 189.673C261.711 207.58 275.987 222.097 293.597 222.097Z" fill="white"/>
<path d="M386.46 222.096C404.07 222.096 418.346 207.58 418.346 189.673C418.346 171.766 404.07 157.25 386.46 157.25C368.85 157.25 354.574 171.766 354.574 189.673C354.574 207.58 368.85 222.096 386.46 222.096Z" fill="white"/>
<path d="M293.597 206.744C301.824 206.744 308.494 199.961 308.494 191.595C308.494 183.229 301.824 176.446 293.597 176.446C285.369 176.446 278.699 183.229 278.699 191.595C278.699 199.961 285.369 206.744 293.597 206.744Z" fill="black"/>
<path d="M386.461 206.744C394.689 206.744 401.359 199.961 401.359 191.595C401.359 183.229 394.689 176.446 386.461 176.446C378.233 176.446 371.563 183.229 371.563 191.595C371.563 199.961 378.233 206.744 386.461 206.744Z" fill="black"/>
<path d="M435.919 169.761H246.13C243.3 169.785 240.505 169.134 237.967 167.86C237.05 167.473 236.252 166.841 235.658 166.032C235.063 165.222 234.694 164.265 234.59 163.26V154.367C234.59 150.769 239.757 147.866 246.13 147.866H435.919C442.292 147.866 447.459 150.769 447.459 154.367V163.26C447.459 166.858 442.292 169.761 435.919 169.761Z" fill="#EA008B"/>
<path d="M340.582 161.788H248.984C247.608 161.808 246.242 161.551 244.963 161.032C243.958 160.561 243.335 159.928 243.335 159.212V155.655C243.335 154.224 245.828 153.059 248.904 153.059H340.501C343.577 153.059 346.07 154.224 346.07 155.655V159.212C346.151 160.664 343.658 161.788 340.582 161.788Z" fill="#EF73C3"/>
<path d="M193.295 208.277C197.916 210.355 202.249 213.042 206.182 216.27C208.755 218.314 211.268 213.817 208.715 211.854C204.42 208.39 199.687 205.53 194.642 203.35C191.646 202.144 190.339 207.07 193.295 208.277Z" fill="#FFD900"/>
<path d="M204.312 198.177C199.828 203.942 198.28 211.139 194.661 217.353C192.973 220.175 197.315 222.73 199.004 219.929C202.442 214.144 203.708 207.132 207.87 201.796C209.881 199.24 206.322 195.663 204.312 198.177V198.177Z" fill="#FFD900"/>
<path d="M475.525 205.824C477.656 206.335 479.827 209.115 481.556 210.566L487.588 215.882C490.04 217.926 493.619 214.43 491.146 212.284L483.527 205.619C481.516 203.861 479.506 201.53 476.872 200.897C473.736 200.12 472.388 204.985 475.545 205.824H475.525Z" fill="#FFD900"/>
<path d="M486.562 199.506C483.882 204.709 480.936 209.765 477.736 214.655C475.947 217.395 480.29 219.97 482.079 217.231C485.283 212.344 488.229 207.287 490.905 202.082C492.413 199.179 488.07 196.583 486.562 199.506Z" fill="#FFD900"/>
<path d="M236.922 219.807V222.792C236.922 223.469 237.187 224.119 237.658 224.599C238.129 225.078 238.768 225.347 239.435 225.347C240.101 225.347 240.741 225.078 241.212 224.599C241.683 224.119 241.948 223.469 241.948 222.792V219.807C241.943 219.131 241.676 218.484 241.206 218.006C240.736 217.528 240.1 217.257 239.435 217.251C238.772 217.262 238.138 217.535 237.669 218.012C237.2 218.489 236.932 219.132 236.922 219.807Z" fill="#FFD900"/>
<path d="M252.664 233.443L253.911 236.918C254.102 237.563 254.531 238.108 255.108 238.439C255.685 238.77 256.365 238.863 257.007 238.697C257.646 238.515 258.189 238.085 258.52 237.501C258.851 236.916 258.943 236.222 258.776 235.569L257.509 232.073C257.421 231.75 257.271 231.447 257.067 231.183C256.864 230.918 256.611 230.697 256.324 230.532C256.036 230.367 255.719 230.261 255.392 230.22C255.064 230.179 254.731 230.205 254.413 230.295C254.095 230.385 253.797 230.537 253.537 230.744C253.277 230.951 253.06 231.208 252.897 231.5C252.735 231.793 252.631 232.115 252.591 232.448C252.551 232.781 252.576 233.119 252.664 233.443V233.443Z" fill="#FFD900"/>
<path d="M271.723 223.528L272.004 226.778C272.004 227.456 272.269 228.106 272.74 228.585C273.212 229.064 273.851 229.334 274.517 229.334C275.184 229.334 275.823 229.064 276.294 228.585C276.766 228.106 277.03 227.456 277.03 226.778L276.749 223.528C276.729 222.856 276.457 222.218 275.99 221.743C275.523 221.268 274.896 220.993 274.236 220.972C273.572 220.983 272.939 221.255 272.47 221.732C272.001 222.209 271.733 222.853 271.723 223.528V223.528Z" fill="#FFD900"/>
<path d="M284.892 234.26L285.193 236.489C285.21 237.158 285.468 237.798 285.917 238.288C286.396 238.764 287.037 239.034 287.706 239.044C288.036 239.045 288.363 238.979 288.667 238.849C288.971 238.719 289.246 238.528 289.476 238.288C289.716 238.057 289.906 237.778 290.034 237.468C290.163 237.158 290.226 236.825 290.22 236.489L289.918 234.26C289.89 233.583 289.626 232.939 289.174 232.441C288.701 231.971 288.066 231.708 287.405 231.708C286.744 231.708 286.109 231.971 285.636 232.441C285.397 232.677 285.207 232.96 285.08 233.273C284.952 233.586 284.888 233.922 284.892 234.26V234.26Z" fill="#FFD900"/>
<path d="M301.619 227.208L302.182 230.192C302.27 230.516 302.42 230.819 302.624 231.083C302.827 231.348 303.08 231.569 303.367 231.734C303.655 231.899 303.972 232.005 304.3 232.046C304.627 232.087 304.96 232.061 305.278 231.971C305.908 231.776 306.44 231.343 306.765 230.761C307.09 230.179 307.184 229.493 307.027 228.843L306.464 225.858C306.286 225.209 305.862 224.658 305.286 224.325C304.71 223.992 304.028 223.904 303.388 224.08C302.755 224.271 302.218 224.702 301.889 225.284C301.559 225.866 301.463 226.555 301.619 227.208V227.208Z" fill="#FFD900"/>
<path d="M358.455 222.792L358.697 224.836C358.717 225.505 358.974 226.144 359.42 226.635C359.899 227.111 360.54 227.382 361.21 227.392C361.874 227.385 362.51 227.114 362.979 226.635C363.214 226.401 363.402 226.121 363.529 225.812C363.657 225.503 363.723 225.171 363.723 224.836L363.481 222.792C363.461 222.123 363.204 221.484 362.758 220.993C362.279 220.517 361.638 220.246 360.968 220.236C360.304 220.243 359.669 220.514 359.199 220.993C358.96 221.224 358.77 221.503 358.642 221.813C358.514 222.123 358.45 222.456 358.455 222.792V222.792Z" fill="#FFD900"/>
<path d="M386.602 226.962L387.064 229.477C387.247 230.127 387.675 230.679 388.254 231.011C388.833 231.344 389.518 231.432 390.16 231.255C390.792 231.056 391.324 230.619 391.649 230.034C391.974 229.449 392.067 228.76 391.909 228.107L391.447 225.613C391.359 225.289 391.209 224.987 391.005 224.722C390.802 224.458 390.549 224.236 390.262 224.071C389.974 223.906 389.657 223.8 389.329 223.759C389.002 223.719 388.669 223.744 388.351 223.834C387.719 224.025 387.183 224.457 386.857 225.04C386.531 225.623 386.44 226.312 386.602 226.962V226.962Z" fill="#FFD900"/>
<path d="M402.686 234.996V236.734C402.691 237.41 402.957 238.057 403.427 238.535C403.898 239.013 404.534 239.284 405.199 239.29C405.86 239.274 406.491 239 406.959 238.524C407.427 238.048 407.696 237.407 407.712 236.734V234.996C407.712 234.319 407.447 233.669 406.976 233.189C406.504 232.71 405.865 232.441 405.199 232.441C404.532 232.441 403.893 232.71 403.422 233.189C402.95 233.669 402.686 234.319 402.686 234.996V234.996Z" fill="#FFD900"/>
<path d="M412.738 219.316L413.04 221.79C413.06 222.459 413.317 223.097 413.763 223.589C414.242 224.065 414.883 224.336 415.553 224.345C416.779 224.345 418.227 223.221 418.066 221.79L417.764 219.316C417.745 218.637 417.48 217.989 417.02 217.497C416.546 217.028 415.912 216.764 415.251 216.761C414.025 216.761 412.557 217.885 412.738 219.316Z" fill="#FFD900"/>
<path d="M433.224 212.754L433.767 215.494C433.95 216.144 434.377 216.695 434.956 217.028C435.536 217.361 436.221 217.449 436.863 217.272C437.498 217.077 438.035 216.642 438.364 216.056C438.693 215.471 438.789 214.779 438.632 214.124L438.069 211.405C437.895 210.752 437.474 210.196 436.897 209.859C436.32 209.522 435.636 209.431 434.993 209.606C434.358 209.801 433.821 210.236 433.492 210.822C433.163 211.407 433.067 212.099 433.224 212.754V212.754Z" fill="#FFD900"/>
<path d="M432.943 232.441L433.124 233.238C433.124 233.402 433.124 233.586 433.224 233.75C433.325 233.913 433.224 234.118 433.224 233.954C433.224 233.79 433.224 233.852 433.224 234.158C433.214 234.288 433.214 234.418 433.224 234.547C433.224 234.874 433.224 235.181 433.224 235.487C433.224 236.165 433.489 236.815 433.96 237.294C434.431 237.773 435.071 238.043 435.737 238.043C436.404 238.043 437.043 237.773 437.514 237.294C437.985 236.815 438.25 236.165 438.25 235.487C438.19 234.006 437.988 232.533 437.647 231.092C437.568 230.759 437.425 230.445 437.225 230.17C437.025 229.895 436.772 229.663 436.482 229.489C436.193 229.314 435.871 229.201 435.538 229.155C435.204 229.11 434.864 229.133 434.54 229.224C434.215 229.314 433.911 229.47 433.647 229.682C433.383 229.894 433.163 230.158 433.001 230.458C432.839 230.758 432.738 231.088 432.703 231.429C432.669 231.77 432.703 232.114 432.802 232.441H432.943Z" fill="#FFD900"/>
<path d="M312.033 233.586C312.338 234.423 312.573 235.285 312.737 236.162C312.911 236.815 313.333 237.371 313.909 237.708C314.486 238.045 315.171 238.136 315.813 237.961C316.448 237.766 316.985 237.331 317.314 236.745C317.643 236.159 317.739 235.468 317.582 234.813C317.428 233.933 317.193 233.071 316.879 232.237C316.686 231.602 316.259 231.069 315.687 230.75C315.115 230.43 314.443 230.35 313.813 230.525C313.184 230.7 312.646 231.118 312.314 231.689C311.982 232.26 311.881 232.941 312.033 233.586V233.586Z" fill="#FFD900"/>
<path d="M377.917 78.1535C376.436 85.8193 372.209 92.6529 366.055 97.3296C358.656 103.217 348.966 111.64 339.135 111.64C323.574 111.64 314.084 86.2696 306.082 75.5981C300.272 67.8499 287.164 75.4754 293.055 83.3257C305.901 100.437 316.657 129.262 342.271 126.727C355.098 125.46 366.175 116.628 376.027 108.819C384.443 102.235 390.268 92.8091 392.452 82.2422C394.764 72.6746 380.229 68.5859 377.917 78.1535V78.1535Z" fill="#0058AF"/>
<path d="M311.852 82.5897C308.032 77.4788 303.428 71.1822 303.629 64.395C303.911 55.3998 315.913 48.633 319.713 59.8974C321.16 64.2723 328.458 65.2127 329.403 59.8974C330.187 55.6247 329.544 47.018 331.916 44.0537C338.792 35.4674 342.753 47.0793 343.818 53.5395C344.783 59.325 353.71 57.8122 353.69 52.1902C353.428 43.2869 356.512 34.6167 362.315 27.9441C365.451 24.5096 371.764 19.4192 376.891 21.4431C380.449 22.8333 382.058 29.1298 382.681 32.4417C385.266 47.607 382.744 63.2156 375.524 76.7429C368.648 89.8267 354.514 106.366 338.571 106.406C323.171 106.406 316.215 87.0056 308.414 76.4771C304.554 71.3049 295.828 76.4771 299.729 81.6289C311.792 97.9837 321.542 121.8 346.191 115.586C367.844 110.127 384.068 87.8642 390.301 67.1753C394.703 52.5786 399.247 17.4975 379.605 11.5893C357.671 4.96557 343.678 34.7518 343.678 52.1902L353.569 50.8205C351.921 41.0076 346.834 27.8215 334.59 29.4365C321.16 31.2151 321.583 47.018 319.753 57.1784H329.444C325.583 45.4847 311.53 38.7792 301.297 47.3246C288.088 58.2619 294.863 76.3953 303.307 87.7415C307.168 92.9137 315.893 87.8437 311.993 82.5897H311.852Z" fill="#FFD900"/>
<path d="M308.575 82.0583C315.29 68.3555 325.765 56.9236 338.732 49.1441L331.293 43.2155C327.272 59.2228 316.516 72.2045 315.391 89.1113C315.109 93.2 321.281 96.1848 323.955 92.7094C338.571 73.8604 352.604 54.2755 369.714 37.6549L361.33 35.3856C362.798 40.1694 356.826 47.6517 354.796 51.5769C352.243 56.5856 349.729 61.6147 347.337 66.7052C342.874 76.1228 338.853 85.7313 335.274 95.5305C333.264 101.193 341.466 104.076 344.462 99.4762C350.911 88.8721 358.193 78.8152 366.235 69.4037C367.281 68.2384 370.659 65.8465 371.061 64.395C370.578 58.446 369.935 57.2807 369.05 60.8583C368.668 62.0645 368.246 63.2706 367.804 64.4768C365.139 71.8691 361.982 79.0682 358.354 86.0243C355.379 91.8507 364.044 97.0229 367.04 91.1761C370.035 85.3292 389.758 51.3929 372.528 51.9449C365.371 52.1902 358.455 62.6369 354.555 67.5229C347.799 76.1057 341.504 85.0525 335.696 94.3244L344.884 98.27C349.806 85.2323 355.451 72.4891 361.792 60.1019C365.813 51.9244 373.976 42.2547 371.02 32.7075C370.774 31.8552 370.315 31.0819 369.689 30.4621C369.063 29.8423 368.291 29.3969 367.446 29.1689C366.602 28.9408 365.714 28.9378 364.868 29.1602C364.022 29.3825 363.247 29.8227 362.617 30.4383C345.487 47.0589 331.454 66.6643 316.858 85.5132L325.443 89.1317C326.468 73.5742 337.204 60.8174 341.004 45.9549C341.236 44.9786 341.185 43.9547 340.857 43.0073C340.528 42.0599 339.937 41.2297 339.154 40.6174C338.371 40.005 337.43 39.6368 336.445 39.5572C335.46 39.4777 334.474 39.6904 333.605 40.1694C319.162 48.8443 307.462 61.5426 299.89 76.7634C296.975 82.6102 305.64 87.7824 308.575 81.9151V82.0583Z" fill="#FFD900"/>
<path d="M78.3761 245.934C64.645 252.754 49.0097 254.51 34.1457 250.902C26.4456 249 17.0567 245.198 12.6538 237.961C5.71762 226.594 21.9824 224.55 29.6222 223.65C38.0612 222.528 46.6305 222.971 54.9139 224.959C58.5126 225.838 65.2477 227.003 66.0921 231.767C67.2582 238.165 57.2662 242.438 53.004 243.808C47.5355 245.566 33.6431 247.079 28.8783 241.947C31.311 244.564 36.0557 242.295 39.4131 242.479C44.7323 242.897 49.9347 244.282 54.7732 246.568L56.1001 236.53C47.1892 237.396 38.247 235.24 30.6676 230.397L32.477 237.389C35.352 231.255 55.135 238.309 59.8194 239.862C65.9916 241.907 68.6455 232.032 62.4934 230.008C52.6421 226.737 29.9237 219.337 23.7918 232.237C23.151 233.415 22.9814 234.799 23.3184 236.101C23.6554 237.404 24.473 238.524 25.6012 239.228C34.729 244.946 45.4156 247.547 56.1001 246.649C62.0108 246.179 62.5939 238.82 57.4471 236.591C48.5608 232.789 24.1134 226.901 17.8407 238.636C12.0908 249.389 31.13 254.316 37.9455 255.154C50.7321 256.789 68.5449 252.476 74.5562 239.433C80.5676 226.39 70.5353 218.58 59.3168 215.555C42.2479 210.975 -17.0811 212.079 4.89336 244.421C21.2586 268.545 60.7845 266.316 83.5229 254.888C89.3332 251.985 84.2467 243.154 78.4566 246.057L78.3761 245.934Z" fill="#EA008B"/>
<path d="M86.5986 237.92C90.2577 229.579 93.0321 220.563 90.6196 211.343C88.8503 204.454 82.8189 195.193 74.7167 196.358C66.6145 197.523 65.1066 207.561 65.6093 214.348C65.9307 218.619 67.1056 222.778 69.0622 226.571C71.0188 230.363 73.716 233.71 76.9885 236.407C79.5619 238.553 84.749 238.349 85.3923 234.158C86.0647 230.656 85.8988 227.041 84.9085 223.618C83.9183 220.195 82.1328 217.065 79.7027 214.491L76.1642 223.221L77.5917 223.957C80.9693 229.558 89.6545 224.427 86.2769 218.784C85.3103 216.953 83.853 215.437 82.0738 214.413C80.2947 213.389 78.2665 212.899 76.2246 212.999C75.2416 213.025 74.2872 213.34 73.4768 213.906C72.6663 214.472 72.0347 215.265 71.6582 216.189C71.2816 217.112 71.1764 218.127 71.3553 219.11C71.5342 220.093 71.9895 221.003 72.666 221.728C73.8995 222.983 74.8216 224.518 75.3565 226.206C75.8914 227.895 76.0235 229.688 75.7421 231.439L84.1458 229.19C80.7513 226.53 78.1826 222.932 76.7473 218.825C76.0637 216.781 74.2543 208.399 76.9684 208.011C80.346 207.54 81.5322 216.188 81.5925 218.58C81.4008 223.512 80.1665 228.344 77.9737 232.747C75.36 238.717 84.0051 243.91 86.6589 237.92H86.5986Z" fill="#EA008B"/>
<path d="M563.202 227.31C587.227 230.826 630.935 243.46 643.3 211.425C655.664 179.39 597.159 183.192 581.256 188.937C570.44 192.862 565.695 203.82 572.551 214.062C579.849 224.938 595.43 228.577 607.594 227.044C614.268 226.185 633.308 221.238 627.578 210.526C621.305 198.791 596.878 204.679 587.991 208.481C582.845 210.669 583.367 218.049 589.318 218.519C599.996 219.434 610.682 216.856 619.817 211.159C620.942 210.451 621.755 209.33 622.089 208.028C622.422 206.726 622.249 205.343 621.607 204.168C615.575 191.329 592.696 198.689 582.905 201.939C576.874 203.984 579.407 213.837 585.579 211.793C590.263 210.239 610.046 203.268 612.921 209.319L614.731 202.328C607.139 207.135 598.198 209.255 589.298 208.359L590.645 218.396C594.65 216.579 598.887 215.347 603.231 214.737C606.709 214.308 614.429 216.352 616.52 213.878C612.298 218.887 599.451 217.619 593.862 216.188C589.632 215.294 585.716 213.26 582.523 210.301C575.587 202.634 582.241 199.118 588.856 197.339C596.722 195.252 604.884 194.56 612.982 195.295C619.455 195.867 635.579 196.89 634.433 206.089C633.348 214.798 620.601 220.522 613.464 222.035C597.903 225.368 581.136 219.766 565.776 217.517C559.443 216.597 556.708 226.451 563.102 227.371L563.202 227.31Z" fill="#EA008B"/>
<path d="M567.543 204.72C565.368 200.31 564.141 195.481 563.944 190.552C563.944 188.201 565.15 179.513 568.548 179.983C571.242 180.371 569.433 188.753 568.769 190.798C567.343 194.909 564.773 198.51 561.371 201.162L569.775 203.411C569.493 201.661 569.625 199.867 570.16 198.178C570.695 196.49 571.617 194.955 572.851 193.701C573.527 192.975 573.982 192.066 574.161 191.083C574.34 190.099 574.235 189.085 573.858 188.161C573.482 187.237 572.85 186.445 572.04 185.879C571.229 185.312 570.275 184.997 569.292 184.971C567.25 184.873 565.223 185.365 563.445 186.389C561.666 187.412 560.208 188.927 559.24 190.757C555.862 196.399 564.547 201.53 567.925 195.929L569.352 195.193L565.814 186.464C563.383 189.036 561.599 192.167 560.612 195.591C559.625 199.015 559.464 202.63 560.144 206.13C560.788 210.321 565.975 210.526 568.528 208.379C571.786 205.69 574.471 202.355 576.42 198.576C578.37 194.798 579.542 190.656 579.867 186.402C580.37 179.635 578.842 169.536 570.76 168.412C562.678 167.288 556.686 176.589 554.857 183.397C552.485 192.535 555.259 201.551 558.878 209.974C561.512 215.964 570.177 210.771 567.563 204.801L567.543 204.72Z" fill="#EA008B"/>
<path d="M419.715 272.306H390.784C380.069 272.306 371.383 281.138 371.383 292.034V308.082C371.383 318.977 380.069 327.81 390.784 327.81H419.715C430.43 327.81 439.116 318.977 439.116 308.082V292.034C439.116 281.138 430.43 272.306 419.715 272.306Z" fill="#039BEF"/>
<path d="M415.392 280.32H395.106C388.322 280.32 382.822 285.912 382.822 292.811V304.586C382.822 311.485 388.322 317.077 395.106 317.077H415.392C422.176 317.077 427.676 311.485 427.676 304.586V292.811C427.676 285.912 422.176 280.32 415.392 280.32Z" fill="#0058AF"/>
<path d="M413.361 285.369H397.157C392.649 285.369 388.994 289.085 388.994 293.669V303.727C388.994 308.311 392.649 312.028 397.157 312.028H413.361C417.869 312.028 421.524 308.311 421.524 303.727V293.669C421.524 289.085 417.869 285.369 413.361 285.369Z" fill="#024F8E"/>
<path d="M135.714 99.1084C126.507 93.3637 121.782 81.8949 127.09 71.5914C132.035 62.0238 145.184 55.8498 151.597 67.6253C157.85 79.0737 156.623 92.546 169.229 99.783C174.858 103.034 179.925 94.2019 174.295 90.9719C162.836 84.3686 165.188 66.4396 156.583 56.9947C149.406 49.083 138.489 49.0012 129.723 54.2961C109.136 66.7462 111.267 95.8374 130.648 107.94C136.177 111.395 141.223 102.563 135.714 99.1084V99.1084Z" fill="#EA008B"/>
<path d="M190.581 110.29L194.602 114.379C195.551 115.309 196.821 115.822 198.139 115.809C199.457 115.795 200.717 115.256 201.648 114.307C202.578 113.358 203.105 112.075 203.115 110.735C203.124 109.395 202.616 108.105 201.699 107.142L197.678 103.053C196.72 102.183 195.471 101.718 194.187 101.755C192.904 101.791 191.682 102.326 190.774 103.25C189.866 104.173 189.34 105.415 189.304 106.721C189.268 108.026 189.725 109.296 190.581 110.27V110.29Z" fill="#EA008B"/>
<path d="M169.873 33.5668C166.958 26.3911 167.681 17.7639 174.617 13.1232C180.91 9.03452 192.209 8.8301 192.41 18.9497C192.41 24.6943 188.872 30.3776 187.766 35.9587C186.755 40.8307 187.334 45.9049 189.415 50.4123C191.988 56.4227 200.653 51.23 198.1 45.2401C193.938 35.4681 204.594 24.1423 202.121 13.5526C200.11 5.00716 192.068 0.386897 183.785 0.264236C179.564 0.225508 175.4 1.25662 171.669 3.26443C167.938 5.27225 164.758 8.1935 162.415 11.7644C160.073 15.3352 158.642 19.4433 158.252 23.7173C157.862 27.9914 158.526 32.2968 160.182 36.2449C162.615 42.2349 172.346 39.6181 169.873 33.5259V33.5668Z" fill="#EA008B"/>
<path d="M198.26 67.1141L199.004 71.7139C199.35 73.0043 200.18 74.1053 201.316 74.7804C202.18 75.2942 203.175 75.5339 204.174 75.4689C205.173 75.404 206.13 75.0373 206.923 74.4158C207.715 73.7943 208.307 72.9464 208.623 71.9806C208.939 71.0148 208.964 69.9752 208.695 68.9949L207.951 64.3951C207.596 63.0884 206.746 61.9784 205.586 61.3094C204.427 60.6404 203.054 60.4671 201.768 60.8277C200.483 61.1883 199.392 62.0531 198.734 63.232C198.076 64.411 197.906 65.8074 198.26 67.1141V67.1141Z" fill="#EA008B"/>
</svg>
