<svg width="160" height="32" viewBox="0 0 160 32" fill="none" xmlns="http://www.w3.org/2000/svg">
<path d="M5.66 24.596C5.444 24.596 5.264 24.524 5.12 24.38C4.976 24.236 4.916 24.056 4.94 23.84L5.66 19.124H1.664C1.424 19.124 1.232 19.052 1.088 18.908C0.944 18.764 0.872 18.572 0.872 18.332V17.828C0.872 17.588 0.944 17.396 1.088 17.252C1.232 17.108 1.424 17.036 1.664 17.036H5.948L6.992 9.98H2.6C2.36 9.98 2.168 9.908 2.024 9.764C1.88 9.62 1.808 9.428 1.808 9.188V8.684C1.808 8.444 1.88 8.252 2.024 8.108C2.168 7.964 2.36 7.892 2.6 7.892H7.316L8.036 3.176C8.084 2.96 8.168 2.78 8.288 2.636C8.432 2.492 8.612 2.42 8.828 2.42H9.476C9.692 2.42 9.872 2.492 10.016 2.636C10.16 2.78 10.22 2.96 10.196 3.176L9.476 7.892H15.488L16.208 3.176C16.256 2.96 16.34 2.78 16.46 2.636C16.604 2.492 16.784 2.42 17 2.42H17.648C17.864 2.42 18.044 2.492 18.188 2.636C18.332 2.78 18.392 2.96 18.368 3.176L17.648 7.892H21.572C21.812 7.892 22.004 7.964 22.148 8.108C22.292 8.252 22.364 8.444 22.364 8.684V9.188C22.364 9.428 22.292 9.62 22.148 9.764C22.004 9.908 21.812 9.98 21.572 9.98H17.36L16.316 17.036H20.636C20.876 17.036 21.068 17.108 21.212 17.252C21.356 17.396 21.428 17.588 21.428 17.828V18.332C21.428 18.572 21.356 18.764 21.212 18.908C21.068 19.052 20.876 19.124 20.636 19.124H15.992L15.308 23.84C15.26 24.056 15.164 24.236 15.02 24.38C14.876 24.524 14.696 24.596 14.48 24.596H13.832C13.616 24.596 13.436 24.524 13.292 24.38C13.148 24.236 13.088 24.056 13.112 23.84L13.832 19.124H7.82L7.136 23.84C7.088 24.056 6.992 24.236 6.848 24.38C6.704 24.524 6.524 24.596 6.308 24.596H5.66ZM14.12 17.036L15.164 9.98H9.188L8.144 17.036H14.12ZM28.4182 26C28.1782 26 27.9862 25.928 27.8422 25.784C27.6982 25.64 27.6262 25.448 27.6262 25.208V1.628C27.6262 1.388 27.6982 1.196 27.8422 1.052C27.9862 0.883999 28.1782 0.799998 28.4182 0.799998H43.3942C43.6582 0.799998 43.8622 0.871999 44.0062 1.016C44.1502 1.16 44.2222 1.364 44.2222 1.628V2.168C44.2222 2.408 44.1382 2.6 43.9702 2.744C43.8262 2.888 43.6342 2.96 43.3942 2.96H29.8942V11.492H37.9222C40.2982 11.492 42.1462 12.14 43.4662 13.436C44.8102 14.732 45.4822 16.472 45.4822 18.656C45.4822 19.808 45.2062 20.948 44.6542 22.076C44.1022 23.204 43.2502 24.14 42.0982 24.884C40.9702 25.628 39.5782 26 37.9222 26H28.4182ZM37.5622 23.84C38.7142 23.84 39.7102 23.612 40.5502 23.156C41.4142 22.676 42.0742 22.028 42.5302 21.212C42.9862 20.396 43.2142 19.508 43.2142 18.548C43.2142 17.036 42.7342 15.848 41.7742 14.984C40.8382 14.096 39.4342 13.652 37.5622 13.652H29.8942V23.84H37.5622ZM56.9243 26C56.6843 26 56.4923 25.928 56.3483 25.784C56.2043 25.64 56.1323 25.448 56.1323 25.208V3.752L49.6883 8.72C49.4963 8.84 49.3283 8.9 49.1843 8.9C48.9443 8.9 48.7403 8.792 48.5723 8.576L48.1763 8.072C48.0563 7.904 47.9963 7.736 47.9963 7.568C47.9963 7.328 48.1043 7.124 48.3203 6.956L55.9883 1.052C56.2283 0.883999 56.5403 0.799998 56.9243 0.799998H57.6083C57.8483 0.799998 58.0403 0.871999 58.1843 1.016C58.3283 1.16 58.4003 1.352 58.4003 1.592V25.208C58.4003 25.448 58.3283 25.64 58.1843 25.784C58.0403 25.928 57.8483 26 57.6083 26H56.9243ZM68.568 26C68.352 26 68.172 25.928 68.028 25.784C67.908 25.616 67.848 25.424 67.848 25.208C67.848 25.064 67.908 24.908 68.028 24.74L73.716 16.748C72.996 16.94 72.216 17.036 71.376 17.036C69.552 17.036 67.992 16.64 66.696 15.848C65.424 15.056 64.464 14.024 63.816 12.752C63.168 11.48 62.844 10.148 62.844 8.756C62.844 7.364 63.168 6.032 63.816 4.76C64.464 3.488 65.424 2.456 66.696 1.664C67.992 0.847998 69.552 0.439999 71.376 0.439999C73.2 0.439999 74.76 0.847998 76.056 1.664C77.352 2.456 78.324 3.488 78.972 4.76C79.62 6.032 79.944 7.364 79.944 8.756C79.944 10.004 79.74 11.108 79.332 12.068C78.924 13.028 78.42 13.94 77.82 14.804L70.404 25.28C70.38 25.328 70.308 25.424 70.188 25.568C70.092 25.688 69.96 25.796 69.792 25.892C69.648 25.964 69.48 26 69.288 26H68.568ZM71.376 14.876C72.504 14.876 73.548 14.624 74.508 14.12C75.468 13.616 76.236 12.896 76.812 11.96C77.388 11.024 77.676 9.956 77.676 8.756C77.676 7.532 77.388 6.452 76.812 5.516C76.236 4.58 75.468 3.86 74.508 3.356C73.548 2.852 72.504 2.6 71.376 2.6C70.248 2.6 69.204 2.852 68.244 3.356C67.284 3.86 66.516 4.58 65.94 5.516C65.388 6.452 65.112 7.532 65.112 8.756C65.112 9.98 65.388 11.06 65.94 11.996C66.516 12.908 67.284 13.616 68.244 14.12C69.204 14.624 70.248 14.876 71.376 14.876ZM83.4456 31.004C83.2056 31.004 83.0136 30.932 82.8696 30.788C82.7256 30.644 82.6536 30.452 82.6536 30.212V24.632C82.6536 24.392 82.7256 24.2 82.8696 24.056C83.0136 23.912 83.2056 23.84 83.4456 23.84H84.2736C86.7216 23.84 87.9456 19.076 87.9456 9.548V1.592C87.9456 1.352 88.0176 1.16 88.1616 1.016C88.3056 0.871999 88.4976 0.799998 88.7376 0.799998H101.554C101.818 0.799998 102.022 0.871999 102.166 1.016C102.31 1.16 102.382 1.364 102.382 1.628V23.84H104.182C104.422 23.84 104.614 23.912 104.758 24.056C104.926 24.2 105.01 24.392 105.01 24.632V30.212C105.01 30.452 104.926 30.644 104.758 30.788C104.614 30.932 104.422 31.004 104.182 31.004H103.534C103.294 31.004 103.102 30.932 102.958 30.788C102.814 30.644 102.742 30.452 102.742 30.212V26H84.9216V30.212C84.9216 30.452 84.8376 30.644 84.6696 30.788C84.5256 30.932 84.3336 31.004 84.0936 31.004H83.4456ZM100.114 23.84V2.96H90.2136V9.836C90.2136 13.58 89.9976 16.58 89.5656 18.836C89.1336 21.092 88.4736 22.76 87.5856 23.84H100.114ZM116.558 26.36C114.83 26.36 113.318 26.072 112.022 25.496C110.75 24.92 109.766 24.164 109.07 23.228C108.374 22.292 108.002 21.284 107.954 20.204C107.954 19.988 108.026 19.82 108.17 19.7C108.314 19.58 108.494 19.52 108.71 19.52H109.214C109.454 19.52 109.658 19.58 109.826 19.7C109.994 19.796 110.114 20.012 110.186 20.348C110.522 21.764 111.278 22.76 112.454 23.336C113.654 23.912 115.022 24.2 116.558 24.2C118.478 24.2 120.014 23.744 121.166 22.832C122.318 21.92 122.894 20.6 122.894 18.872C122.894 15.56 120.902 13.904 116.918 13.904H113.75C113.51 13.904 113.318 13.832 113.174 13.688C113.03 13.544 112.958 13.352 112.958 13.112V12.572C112.958 12.308 113.066 12.02 113.282 11.708L120.698 2.96H109.826C109.586 2.96 109.394 2.888 109.25 2.744C109.106 2.6 109.034 2.408 109.034 2.168V1.628C109.034 1.388 109.106 1.196 109.25 1.052C109.394 0.883999 109.586 0.799998 109.826 0.799998H123.254C123.518 0.799998 123.722 0.871999 123.866 1.016C124.01 1.16 124.082 1.364 124.082 1.628V2.168C124.082 2.384 123.986 2.612 123.794 2.852L116.198 11.744H116.918C119.462 11.744 121.466 12.344 122.93 13.544C124.418 14.744 125.162 16.52 125.162 18.872C125.162 20.408 124.79 21.752 124.046 22.904C123.302 24.032 122.282 24.896 120.986 25.496C119.69 26.072 118.214 26.36 116.558 26.36ZM136.237 26C135.997 26 135.805 25.928 135.661 25.784C135.517 25.64 135.445 25.448 135.445 25.208V3.752L129.001 8.72C128.809 8.84 128.641 8.9 128.497 8.9C128.257 8.9 128.053 8.792 127.885 8.576L127.489 8.072C127.369 7.904 127.309 7.736 127.309 7.568C127.309 7.328 127.417 7.124 127.633 6.956L135.301 1.052C135.541 0.883999 135.853 0.799998 136.237 0.799998H136.921C137.161 0.799998 137.353 0.871999 137.497 1.016C137.641 1.16 137.713 1.352 137.713 1.592V25.208C137.713 25.448 137.641 25.64 137.497 25.784C137.353 25.928 137.161 26 136.921 26H136.237ZM147.881 26C147.665 26 147.485 25.928 147.341 25.784C147.221 25.616 147.161 25.424 147.161 25.208C147.161 25.064 147.221 24.908 147.341 24.74L153.029 16.748C152.309 16.94 151.529 17.036 150.689 17.036C148.865 17.036 147.305 16.64 146.009 15.848C144.737 15.056 143.777 14.024 143.129 12.752C142.481 11.48 142.157 10.148 142.157 8.756C142.157 7.364 142.481 6.032 143.129 4.76C143.777 3.488 144.737 2.456 146.009 1.664C147.305 0.847998 148.865 0.439999 150.689 0.439999C152.513 0.439999 154.073 0.847998 155.369 1.664C156.665 2.456 157.637 3.488 158.285 4.76C158.933 6.032 159.257 7.364 159.257 8.756C159.257 10.004 159.053 11.108 158.645 12.068C158.237 13.028 157.733 13.94 157.133 14.804L149.717 25.28C149.693 25.328 149.621 25.424 149.501 25.568C149.405 25.688 149.273 25.796 149.105 25.892C148.961 25.964 148.793 26 148.601 26H147.881ZM150.689 14.876C151.817 14.876 152.861 14.624 153.821 14.12C154.781 13.616 155.549 12.896 156.125 11.96C156.701 11.024 156.989 9.956 156.989 8.756C156.989 7.532 156.701 6.452 156.125 5.516C155.549 4.58 154.781 3.86 153.821 3.356C152.861 2.852 151.817 2.6 150.689 2.6C149.561 2.6 148.517 2.852 147.557 3.356C146.597 3.86 145.829 4.58 145.253 5.516C144.701 6.452 144.425 7.532 144.425 8.756C144.425 9.98 144.701 11.06 145.253 11.996C145.829 12.908 146.597 13.616 147.557 14.12C148.517 14.624 149.561 14.876 150.689 14.876Z" fill="#015CCA"/>
</svg>
