<svg width="360" height="211" viewBox="0 0 360 211" fill="none" xmlns="http://www.w3.org/2000/svg">
<g clip-path="url(#clip0)">
<path d="M220.343 107.66L219.752 138.686C219.6 146.501 218.636 155.448 221.864 162.841C227.983 176.868 251.881 175.67 264.49 175.957C273.36 176.324 282.244 175.911 291.042 174.725C296.028 173.948 299.121 172.041 300.388 166.943C302.467 158.503 301.386 148.696 301.335 140.138C301.335 129.182 301.335 118.295 302.315 107.39C302.586 104.69 298.36 104.706 298.09 107.39C296.721 121.57 297.262 135.749 297.11 149.979C297.279 153.255 297.194 156.539 296.856 159.803C297.007 161.855 296.618 163.911 295.729 165.768C294.84 167.624 293.48 169.216 291.786 170.387C289.724 170.657 287.662 170.893 285.6 171.062C278.592 171.669 271.555 171.883 264.524 171.703C257.169 171.647 249.828 171.083 242.552 170.015C238.088 169.6 233.805 168.048 230.112 165.508C224.586 161.592 224.214 156.579 223.893 150.029C223.217 136.036 224.349 121.738 224.619 107.829C224.619 107.27 224.397 106.733 224.001 106.337C223.604 105.942 223.067 105.719 222.507 105.719C221.946 105.719 221.409 105.942 221.013 106.337C220.617 106.733 220.394 107.27 220.394 107.829L220.343 107.66Z" fill="#0084DD"/>
<path d="M221.729 117.198C229.064 127.528 247.859 126.212 259.048 126.212C272.248 126.212 288.912 127.562 299.29 117.856L292.225 113.754C289.622 120.81 290.417 127.461 291.414 134.77C292.411 142.079 295.031 157.946 287.476 162.875C286.85 163.256 286.332 163.792 285.974 164.43C285.615 165.069 285.426 165.789 285.426 166.521C285.426 167.253 285.615 167.973 285.974 168.612C286.332 169.25 286.85 169.786 287.476 170.167C288.273 170.747 289.202 171.117 290.18 171.244C291.158 171.371 292.151 171.25 293.07 170.893L290.822 162.757C287.205 163.955 283.757 162.993 280.073 163.297C277.183 163.517 274.394 164.209 271.487 164.327C263.294 164.778 255.079 164.603 246.912 163.803C240.845 163.095 235.402 162.369 232.208 156.849C229.419 152.004 230.062 148.409 230.518 143.024C231.175 135.127 230.76 127.178 229.284 119.392L224.045 124.439C235.081 127.123 244.867 129.402 256.326 129.908C262.022 130.162 267.752 130.432 273.464 130.212C278.146 130.01 285.059 127.714 289.605 128.642L286.664 125.688C289.031 131.377 288.355 140.627 287.425 146.451C286.495 152.274 283.605 156.207 281.611 161.474C281.343 162.55 281.501 163.687 282.052 164.649C282.603 165.611 283.505 166.324 284.569 166.639L285.093 166.842V158.756C278.788 159.617 272.197 157.338 265.808 157.355C259.419 157.372 252.642 158.891 246.05 158.115C239.459 157.338 235.622 156.511 234.101 149.861C232.681 143.919 230.298 134.01 234 128.339L230.349 130.432C234.456 130.584 238.969 132.778 243.16 133.369C247.972 134.018 252.823 134.34 257.678 134.331C262.343 134.331 267.008 134.162 271.673 134.078C276.338 133.993 282.625 132.997 287.07 134.652L284.112 131.698C286.124 139.885 281.256 151.498 277.571 158.604L285.448 160.731C284.484 150.063 289.588 140.053 286.022 129.52C285.756 128.649 285.216 127.886 284.483 127.344C283.749 126.802 282.861 126.51 281.949 126.51C281.037 126.51 280.148 126.802 279.415 127.344C278.682 127.886 278.142 128.649 277.876 129.52C276.182 134.287 274.821 139.166 273.802 144.121C273.312 146.231 271.115 158.453 269.611 158.858L273.718 159.938C274.698 162.763 275.093 161.598 274.901 156.444C275.239 154.469 275.645 152.528 276.118 150.586C276.76 148.004 277.707 145.522 278.214 142.889C278.757 140.75 278.814 138.516 278.381 136.352C277.948 134.188 277.036 132.148 275.712 130.381C275.374 129.838 274.918 129.376 274.379 129.03C273.84 128.683 273.231 128.461 272.595 128.379C271.96 128.296 271.314 128.356 270.704 128.553C270.094 128.751 269.536 129.081 269.07 129.52C261.363 136.154 263.104 150.586 257.611 159.111L265.335 160.124C264.135 151.92 271.267 131.748 261.769 126.735C261.124 126.353 260.388 126.152 259.639 126.152C258.89 126.152 258.154 126.353 257.509 126.735C248.281 133.099 255.819 150.367 247.2 157.237L252.27 156.579C252.997 157.068 255.464 140.323 255.109 137.572C254.585 133.622 252.743 127.866 248.349 126.836C244.867 126.009 242.755 128.187 241.504 131.191C240.509 134.209 239.94 137.351 239.814 140.526C239.56 143.193 240.135 154.283 237.718 155.718H241.994C238.614 154.03 242.501 138.551 242.518 135.698C242.623 134.176 242.373 132.65 241.786 131.241C241.2 129.831 240.293 128.578 239.138 127.579C232.901 122.667 226.901 128.794 227.188 135.378C227.374 139.885 229.436 144.763 230.721 149.067C231.752 152.443 232.309 155.195 235.994 156.461C240.186 157.912 246.135 156.461 250.58 156.275C256.495 155.954 262.512 155.988 268.259 154.452C273.515 153.068 271.284 144.915 266.011 146.316C260.095 147.886 253.69 147.7 247.605 148.004C245.915 148.105 239.374 149.32 238.428 148.308C238.225 148.088 238.056 143.851 237.785 142.872C236.095 137.082 234.405 131.681 233.273 141.589C232.732 146.552 231.786 152.545 233.171 157.423C234.557 162.301 239.932 165.863 244.14 161.609C246.524 159.178 246.895 154.857 247.335 151.734C247.808 148.257 246.878 136.103 249.616 133.841L245.509 134.922C249.921 135.681 241.453 159.33 248.011 163.905C248.816 164.35 249.742 164.526 250.654 164.408C251.567 164.289 252.417 163.882 253.081 163.246C256.597 160.427 258.033 154.351 259.014 150.164C259.639 147.43 260.045 144.628 260.518 141.843C260.805 139.986 261.126 138.129 261.498 136.272C262.529 133.487 262.58 132.744 261.667 134.061H257.425C257.509 134.061 257.695 139.598 257.645 141.1C257.56 143.514 257.171 145.944 256.935 148.341C256.394 153.022 256.445 157.752 257.087 162.419C257.645 166.268 263.053 166.15 264.811 163.415C267.143 159.771 268.888 155.784 269.983 151.599C271.166 147.227 271.402 138.619 274.969 135.563L268.326 134.567C274.833 143.176 260.078 157.372 267.65 165.846C268.18 166.375 268.841 166.754 269.566 166.944C270.291 167.134 271.053 167.128 271.774 166.926C276.388 165.677 278.078 159.668 279.431 155.6C282.084 147.751 282.997 139.479 285.938 131.698H277.791C280.986 141.151 276.101 150.941 276.912 160.664C277.25 164.496 282.693 166.825 284.788 162.791C288.946 154.756 300.777 127.63 285.549 125.807C274.8 124.507 263.729 126.178 252.929 125.807C246.61 125.383 240.345 124.36 234.219 122.751C231.633 122.161 229.555 121.519 227.273 123.291C222.321 127.174 223.588 139.395 224.349 144.543C225.228 150.57 225.853 159.33 231.6 162.875C238.732 167.281 248.788 167.061 256.749 166.437C267.042 165.643 277.233 168.344 287.34 166.977C291.904 166.352 290.721 160.073 287.34 158.824L286.817 158.638L289.757 163.837C291.295 159.786 293.797 156.596 294.912 152.224C296.031 147.64 296.548 142.93 296.45 138.213C296.45 133.031 297.532 122.076 290.924 120.422C287.543 119.595 283.031 121.046 279.667 121.418C273.486 121.98 267.273 122.099 261.076 121.772C249.347 121.214 237.711 119.42 226.36 116.421C225.643 116.243 224.891 116.253 224.179 116.45C223.466 116.647 222.817 117.024 222.293 117.545C221.77 118.067 221.39 118.714 221.19 119.425C220.991 120.136 220.978 120.886 221.155 121.603C223.385 133.251 220.293 144.56 221.949 156.039C223.25 165.019 229.774 168.665 238.056 170.842C247.673 173.358 257.831 172.868 267.684 172.834C271.478 172.824 275.267 172.559 279.025 172.041C283.859 171.416 288.422 172.53 293.138 170.961C298.208 169.273 296.129 161.238 290.89 162.824L291.802 162.943V170.235C309.955 158.419 294.507 132.137 300.456 116.067C301.994 111.881 296.247 109.315 293.391 111.965C285.295 119.375 270.811 117.687 260.636 117.772C255.887 117.772 251.155 117.772 246.439 117.383C242.366 117.08 231.819 116.86 229.031 112.944C225.904 108.555 218.585 112.758 221.729 117.198Z" fill="#0084DD"/>
<path d="M288.661 110.933C291.889 117.888 294.762 125.18 298.565 131.848C300.373 135.038 303.145 138.988 307.201 136.439C311.68 133.603 309.923 126.092 308.486 122.142C307.307 119.161 305.93 116.262 304.362 113.465C303.077 111.085 302.283 108.756 299.596 107.979C299.062 107.852 298.5 107.936 298.027 108.215C297.555 108.494 297.21 108.945 297.065 109.474C296.92 110.002 296.987 110.567 297.251 111.047C297.515 111.527 297.956 111.886 298.48 112.048C300.508 112.638 303.703 121.365 304.396 123.273C304.97 124.792 306.086 127.864 305.765 129.4C304.413 135.224 302.655 130.548 301.759 128.911C298.21 122.446 295.404 115.491 292.311 108.807C291.179 106.342 287.528 108.486 288.661 110.933V110.933Z" fill="#015CCA"/>
<path d="M259.048 93.6327C256.427 92.4954 253.586 91.9538 250.73 92.0473C247.875 92.1407 245.075 92.8667 242.535 94.1729C240.461 95.1493 238.673 96.6435 237.346 98.511C236.72 99.5053 236.215 100.571 235.842 101.684C235.555 104.318 235.47 104.672 235.588 102.782L240.659 98.8993C236.433 100.081 244.833 98.4604 245.408 98.4435C249.549 98.4435 253.707 98.4435 257.848 98.7305C266.055 99.2307 274.195 100.525 282.152 102.596C291.025 104.909 297.752 91.0501 288.659 87.1846C282.355 84.4838 274.833 84.5344 268.935 81.209L262.428 96.6374C270.206 97.5646 277.547 100.732 283.555 105.753C290.45 111.61 302.315 104.065 296.822 95.5233C295.559 93.4679 294.05 91.5746 292.326 89.8854V101.82L293.307 100.942L285.093 103.119C284.593 103.004 284.123 102.783 283.717 102.47C283.31 102.158 282.976 101.761 282.737 101.308C282.497 100.854 282.359 100.354 282.331 99.8426C282.303 99.3308 282.386 98.8191 282.574 98.3422C280.428 98.3422 278.264 98.2241 276.118 98.1903C272.873 98.1903 269.645 98.1903 266.417 98.1903C258.862 98.2747 251.324 98.6292 243.802 99.1525C241.945 99.1515 240.138 99.762 238.663 100.889C237.188 102.017 236.125 103.598 235.64 105.39C235.156 107.181 235.275 109.081 235.981 110.798C236.686 112.514 237.938 113.95 239.543 114.885C245.949 119.29 257.864 123.696 262.715 114.885C267.971 105.364 253.369 96.8399 248.129 106.445L247.707 107.204L252.777 103.322C253.774 103.153 248.94 100.959 248.095 100.368L243.786 115.999C253.926 115.29 264.236 114.918 274.479 115.037C282.524 115.138 291.735 116.725 297.228 109.432C305.341 98.7136 292.614 79.0484 280.326 89.8854C278.767 91.4809 277.893 93.6225 277.893 95.8524C277.893 98.0824 278.767 100.224 280.326 101.82L282.186 104.048L295.453 93.8184C287.427 86.6629 277.503 81.9738 266.873 80.3144C258.084 79.0484 251.374 90.6787 260.4 95.7427C266.721 99.3213 273.633 98.9668 280.107 101.718L286.614 86.2899C274.15 83.1665 261.351 81.5792 248.501 81.5635C237.938 81.5635 225.887 82.4244 222.304 94.3923C219.295 104.52 226.293 113.045 235.825 115.324C240.253 116.37 245.256 116.218 248.805 113.011C250.233 111.59 251.31 109.856 251.949 107.947C252.76 104.447 252.09 104.858 249.938 109.179C250.694 108.916 251.502 108.84 252.294 108.958C253.086 109.076 253.837 109.383 254.484 109.854C264.507 114.024 268.884 97.7008 258.98 93.5821L259.048 93.6327Z" fill="#015CCA"/>
<path d="M152.281 175.166C153.99 170.529 156.26 166.119 159.042 162.033C161.888 157.71 164.434 153.198 166.664 148.529C166.989 147.946 167.076 147.26 166.905 146.615C166.735 145.97 166.322 145.416 165.752 145.069C165.172 144.734 164.484 144.64 163.836 144.808C163.188 144.975 162.632 145.39 162.287 145.963C159.994 150.778 157.374 155.431 154.445 159.889C151.535 164.235 149.163 168.917 147.38 173.832C146.366 176.938 151.25 178.271 152.281 175.182V175.166Z" fill="#015CCA"/>
<path d="M165.567 151.447C172.954 153.552 180.115 156.379 186.947 159.887C189.799 161.212 192.492 162.854 194.976 164.782C195.61 165.298 196.203 165.862 196.75 166.47C197.257 167.078 197.561 167.955 198.085 168.512C198.221 169.238 198.711 169.407 199.556 169.053C200.604 169.458 200.976 169.289 200.705 168.546C200.644 167.769 200.376 167.023 199.928 166.386C198.238 163.482 194.147 162.233 191.291 160.832L180.863 155.667C177.145 153.81 173.426 151.936 169.691 150.13C167.207 148.932 162.931 146.94 160.666 149.522C160.199 150.001 159.938 150.643 159.938 151.312C159.938 151.98 160.199 152.622 160.666 153.101C172.074 161.963 185.933 167.28 196.666 177.037C196.981 177.342 197.371 177.561 197.796 177.672C198.221 177.783 198.668 177.783 199.093 177.671C199.518 177.559 199.907 177.339 200.222 177.033C200.537 176.726 200.768 176.344 200.891 175.923C201.167 175.054 201.229 174.131 201.071 173.233C200.913 172.336 200.54 171.489 199.984 170.766C199.428 170.043 198.705 169.466 197.877 169.082C197.049 168.698 196.141 168.52 195.229 168.563C194.795 168.635 194.365 168.737 193.945 168.867C193.59 168.766 192.508 167.179 192.254 166.976C192.001 166.774 191.19 165.423 190.564 165.086C189.922 163.972 189.415 164.292 189.026 166.048C189.277 166.23 189.489 166.46 189.652 166.723C190.075 167.296 190.465 167.894 190.818 168.512L193.387 172.513L195.077 175.18L195.314 173.205C194.98 173.356 194.615 173.426 194.249 173.408C192.851 173.309 191.526 172.751 190.48 171.821C188.012 169.998 185.781 168.006 183.161 166.369C180.542 164.731 177.77 163.28 175.066 161.744C172.347 160.251 169.742 158.558 167.274 156.68C164.891 154.856 161.933 154.181 159.567 156.409C159.297 156.686 159.094 157.02 158.971 157.386C158.848 157.752 158.81 158.14 158.859 158.523C158.908 158.906 159.042 159.273 159.253 159.597C159.463 159.921 159.744 160.193 160.074 160.393C162.868 161.911 165.397 163.872 167.561 166.2C170.08 168.614 172.632 170.994 175.252 173.323C177.871 175.653 180.525 177.915 183.246 180.075C185.967 182.236 188.316 183.89 191.697 183.755C192.202 183.755 192.696 183.607 193.117 183.328C193.538 183.049 193.868 182.653 194.064 182.188C194.261 181.723 194.316 181.211 194.222 180.715C194.129 180.219 193.891 179.762 193.539 179.4C189.685 175.484 183.128 174.032 180.677 168.867L178.497 172.682C180.491 172.513 181.59 174.37 182.807 175.602C184.586 177.584 186.761 179.173 189.191 180.266C191.621 181.359 194.254 181.932 196.919 181.949L194.722 178.134C195.466 177.695 195.466 177.577 194.722 177.796L193.15 177.999C192.356 178.083 191.578 178.168 190.784 178.218C188.963 178.387 187.129 178.387 185.308 178.218C181.775 177.733 178.275 177.028 174.829 176.108C171.314 175.264 167.933 174.083 164.469 173.036C162.738 172.478 160.97 172.044 159.178 171.736C157.64 171.715 156.105 171.597 154.581 171.382L156.102 172.53C156.643 173.273 155.933 173.509 156.778 172.716C157.228 172.186 157.635 171.622 157.995 171.028L160.209 168.04L164.604 162.081L160.632 162.588C166.82 169.572 173.502 176.105 180.626 182.135L181.742 177.898C178.562 178.722 175.24 178.847 172.007 178.264C168.774 177.681 165.706 176.404 163.015 174.522C162.469 174.232 161.977 173.849 161.561 173.391C161.223 172.834 161.105 173.391 161.561 172.445C162.018 171.5 162.339 170.065 162.846 168.951C163.475 167.627 164.192 166.347 164.992 165.12L160.429 163.263L158.739 168.124C158.608 168.658 158.654 169.219 158.868 169.725C159.083 170.231 159.456 170.654 159.931 170.931C160.406 171.208 160.958 171.324 161.504 171.263C162.051 171.201 162.563 170.965 162.964 170.589L165.787 167.415L161.528 164.951L160.159 172.007C160.036 172.54 160.087 173.1 160.305 173.602C160.523 174.105 160.896 174.525 161.37 174.8C161.845 175.076 162.395 175.192 162.94 175.133C163.485 175.074 163.997 174.842 164.401 174.471C165.704 173.058 166.923 171.57 168.052 170.015L163.319 168.732C163.269 170 163.134 171.263 162.914 172.513C162.525 174.69 165.398 177.172 167.156 174.977L169.15 172.479L164.807 170.757L165.111 173.07C165.263 174.285 166.159 175.788 167.646 175.602C168.626 175.546 169.572 175.225 170.384 174.674L166.666 173.154C167.201 174.61 167.84 176.026 168.576 177.391C168.774 177.721 169.045 178.001 169.368 178.211C169.69 178.422 170.057 178.556 170.439 178.605C170.821 178.654 171.209 178.615 171.574 178.493C171.939 178.37 172.272 178.167 172.547 177.898C171.719 178.64 173.545 178.235 173.9 178.151C174.402 178.024 174.878 177.807 175.302 177.509C175.845 177.113 176.257 176.564 176.486 175.933C176.715 175.301 176.75 174.616 176.587 173.965L172.345 176.412H172.209C171.973 179.67 177.043 179.653 177.28 176.412C177.325 175.746 177.228 175.078 176.994 174.452C176.761 173.827 176.398 173.258 175.928 172.783C174.119 170.69 171.314 173.019 171.702 175.248V175.619L171.956 173.661C172.936 173.256 173.004 173.07 172.159 173.087C171.744 173.02 171.322 173.02 170.908 173.087C170.151 173.253 169.459 173.634 168.914 174.184L172.902 174.69C172.36 173.72 171.891 172.71 171.5 171.669C170.976 170.319 169.201 169.086 167.764 170.167L167.595 170.403L170.13 172.935L169.877 170.757C169.64 168.884 167.105 167.027 165.55 168.968L163.556 171.466L167.781 173.931C168.085 172.257 168.282 170.566 168.373 168.867C168.525 166.099 164.992 165.795 163.657 167.601C162.764 168.743 161.811 169.836 160.801 170.876L165.043 173.34L166.412 166.284C166.852 164.005 163.978 161.777 162.17 163.82L159.347 166.976L163.59 169.441L165.28 164.596C166.277 161.794 162.153 160.326 160.649 162.655C158.623 165.582 157.167 168.863 156.356 172.327C155.68 175.956 158.891 178.016 161.612 179.687C168.1 183.425 175.779 184.531 183.06 182.776C183.485 182.657 183.872 182.429 184.181 182.115C184.491 181.8 184.713 181.411 184.826 180.985C184.939 180.558 184.938 180.11 184.824 179.684C184.71 179.258 184.486 178.869 184.176 178.556C177.051 172.526 170.369 165.994 164.181 159.009C163.903 158.74 163.568 158.538 163.201 158.417C162.834 158.296 162.444 158.259 162.06 158.309C161.677 158.359 161.31 158.496 160.986 158.707C160.663 158.919 160.392 159.201 160.192 159.532L154.666 167.145C153.314 168.985 150.525 171.534 151.285 174.117C152.046 176.699 155.24 176.277 157.471 176.547C160.448 177.018 163.37 177.787 166.192 178.843C171.97 180.777 177.909 182.189 183.939 183.063C186.743 183.426 189.579 183.454 192.39 183.147C194.739 182.894 197.815 183.029 199.15 180.7C199.373 180.311 199.489 179.87 199.487 179.422C199.485 178.975 199.365 178.535 199.139 178.148C198.913 177.761 198.588 177.441 198.199 177.219C197.809 176.997 197.368 176.882 196.919 176.885C193.306 176.861 189.834 175.474 187.201 173.002C184.581 170.47 182.485 167.263 178.378 167.618C177.935 167.622 177.501 167.742 177.118 167.966C176.736 168.189 176.418 168.508 176.196 168.891C175.974 169.275 175.856 169.709 175.854 170.152C175.851 170.594 175.964 171.03 176.181 171.416C178.97 177.29 185.561 178.64 189.838 182.979L191.629 178.657C188.654 178.775 186.102 175.923 183.99 174.15C181.404 171.99 178.919 169.778 176.384 167.516C172.04 163.55 167.933 158.536 162.592 155.954L163.116 159.887C163.116 159.887 171.347 165.44 172.159 165.913C175.539 167.803 178.919 169.542 182.08 171.686C185.24 173.83 187.623 176.75 191.105 177.898C193.792 178.843 198.964 178.708 199.894 175.214C200.35 173.526 198.998 171.939 198.204 170.589L194.823 165.271C193.133 162.689 190.564 159.701 187.184 161.575C186.525 161.922 185.978 162.449 185.607 163.095C185.236 163.74 185.056 164.477 185.088 165.221C185.24 167.145 186.947 168.597 188.164 169.897C189.381 171.196 190.514 173.053 192.238 173.661C193.285 174.049 196.547 172.952 196.108 174.572L200.35 173.458C189.567 163.668 175.776 158.384 164.35 149.522V153.135C163.961 153.59 163.742 153.135 164.215 153.455C164.546 153.56 164.885 153.633 165.229 153.675C165.924 153.902 166.597 154.19 167.24 154.536C168.931 155.38 170.705 156.224 172.446 157.118L182.131 161.912L191.714 166.639C192.984 167.112 194.171 167.784 195.229 168.631C196.108 169.525 195.804 170.909 196.48 172.007C196.814 172.512 197.266 172.929 197.797 173.222C198.328 173.515 198.922 173.675 199.529 173.688C200.135 173.702 200.736 173.568 201.279 173.298C201.823 173.029 202.293 172.632 202.649 172.142C204.339 169.846 203.139 166.791 201.702 164.698C198.423 159.904 192.914 157.169 187.843 154.654C181.136 151.336 174.145 148.624 166.953 146.552C166.325 146.437 165.678 146.561 165.137 146.899C164.597 147.238 164.203 147.767 164.033 148.381C163.863 148.995 163.93 149.651 164.22 150.218C164.511 150.786 165.003 151.224 165.601 151.447H165.567Z" fill="#015CCA"/>
<path d="M163.911 148.646C173.031 150.633 181.948 153.458 190.548 157.086C194.617 158.748 198.57 160.682 202.379 162.876C205.759 164.952 209.562 168.447 208.48 172.886C207.719 176.059 212.621 177.41 213.381 174.236C216.018 163.214 204.018 157.643 195.888 153.98C186.045 149.516 175.765 146.082 165.212 143.734C162.035 143.025 160.666 147.904 163.86 148.613L163.911 148.646Z" fill="#0084DD"/>
<path d="M148.683 177.408C159.652 181.088 169.708 187.536 181.218 189.646C191.139 191.503 202.294 189.832 209.274 181.915C211.421 179.484 207.855 175.889 205.691 178.337C199.117 185.781 188.621 186.388 179.545 184.093C169.252 181.493 160.057 175.889 150.018 172.513C146.925 171.466 145.59 176.362 148.683 177.408Z" fill="#0084DD"/>
<path d="M206.704 183.52C212.315 186.44 217.943 189.344 223.723 191.96C229.504 194.577 235.419 196.349 241.284 198.577C247.149 200.805 252.27 204.08 257.898 206.561C263.432 209.056 269.367 210.548 275.425 210.967C280.275 211.271 287.915 211.879 290.028 206.376C291.718 202.054 290.67 196.518 286.884 193.8C282.114 190.263 277.021 187.182 271.673 184.6C265.963 182.123 259.922 180.491 253.74 179.756C239.306 177.578 225.413 173.493 211.487 169.375C208.36 168.446 207.008 173.325 210.135 174.253C221.205 177.528 232.275 181.005 243.616 183.149C249.177 184.246 254.839 184.837 260.349 186.035C265.663 187.306 270.737 189.427 275.374 192.315C277.605 193.665 279.785 195.1 281.949 196.568C282.971 197.066 283.93 197.683 284.805 198.408C285.437 199.352 285.724 200.485 285.616 201.616C285.718 203.793 285.532 205.295 283.149 205.65C280.34 205.963 277.506 205.963 274.698 205.65C269.159 205.152 263.757 203.648 258.76 201.21C253.858 198.898 249.16 196.146 244.14 194.087C238.242 191.69 232.14 189.968 226.326 187.335C220.512 184.702 214.918 181.866 209.289 178.895C206.399 177.41 203.83 181.782 206.737 183.267L206.704 183.52Z" fill="#0084DD"/>
<path d="M192.762 158.961C194.703 160.081 196.388 161.594 197.71 163.403C199.032 165.211 199.962 167.276 200.439 169.464C200.916 171.652 200.931 173.915 200.482 176.109C200.033 178.303 199.131 180.379 197.832 182.204C196.446 184.213 199.286 187.268 201.297 185.682C204.59 183.17 206.922 179.606 207.903 175.585C208.884 171.565 208.455 167.329 206.689 163.586L202.666 166.641C204.461 168.991 205.577 171.788 205.894 174.727C205.954 176.139 206.345 177.517 207.035 178.751C207.725 179.985 208.694 181.041 209.866 181.833C212.512 183.245 215.299 184.377 218.182 185.209L228.17 189.024C231.213 190.189 232.531 185.294 229.505 184.146L220.159 180.55C217.459 179.797 214.864 178.708 212.435 177.309C210.458 175.908 210.88 172.819 210.289 170.692C209.478 167.88 208.104 165.261 206.249 162.995C205.81 162.55 205.22 162.285 204.595 162.25C203.97 162.216 203.355 162.415 202.869 162.809C202.39 163.186 202.06 163.72 201.94 164.317C201.819 164.914 201.915 165.534 202.21 166.067C203.353 168.642 203.623 171.519 202.98 174.261C202.336 177.003 200.814 179.46 198.644 181.259L202.024 184.72C203.661 182.325 204.788 179.619 205.335 176.771C205.882 173.923 205.837 170.993 205.203 168.163C204.569 165.333 203.359 162.664 201.65 160.32C199.94 157.976 197.766 156.008 195.263 154.538C194.684 154.229 194.008 154.155 193.376 154.334C192.745 154.512 192.207 154.929 191.876 155.495C191.546 156.061 191.448 156.734 191.604 157.371C191.759 158.008 192.156 158.56 192.711 158.91L192.762 158.961Z" fill="#0084DD"/>
<path d="M210.558 177.291C219.094 180.38 226.598 186.001 234.609 190.205C242.723 194.441 251.107 198.14 259.708 201.278C262.784 202.409 264.102 197.514 261.06 196.4C252.386 193.223 243.944 189.449 235.792 185.107C227.849 180.853 220.412 175.485 211.91 172.396C208.834 171.282 207.516 176.177 210.558 177.291V177.291Z" fill="#0084DD"/>
<path d="M223.843 186.086C230.705 192.466 239.223 196.383 247.995 199.404C257.848 202.78 267.956 205.582 277.995 208.384C279.914 209.184 282.06 209.256 284.029 208.587C284.931 208.105 285.69 207.394 286.23 206.525C286.77 205.657 287.072 204.662 287.105 203.641C287.219 201.423 286.766 199.212 285.791 197.217C284.815 195.221 283.348 193.505 281.527 192.23C277.741 189.31 273.077 187.588 268.648 185.748C263.957 183.692 259.115 181.999 254.164 180.684C248.752 179.448 243.22 178.814 237.668 178.794C231.888 178.675 226.141 178.574 220.632 176.565L219.296 181.444C229.527 184.937 239.549 189.012 249.313 193.648C258.356 197.969 267.246 204.046 277.454 205.042C278.126 205.042 278.771 204.775 279.247 204.3C279.722 203.826 279.989 203.182 279.989 202.51C279.732 200.811 279.096 199.192 278.127 197.772C277.159 196.352 275.883 195.168 274.395 194.306C270.897 191.949 267.218 189.872 263.392 188.095C255.55 184.477 247.528 181.26 239.358 178.456C236.587 177.443 235.065 181.613 237.415 183.081C247.771 189.924 258.585 196.049 269.781 201.413C272.248 202.51 275.291 204.35 278.012 204.603C278.59 204.667 279.175 204.585 279.714 204.366C280.253 204.146 280.728 203.796 281.098 203.347C281.467 202.898 281.718 202.364 281.828 201.793C281.939 201.223 281.905 200.634 281.73 200.079C280.819 197.714 279.433 195.56 277.657 193.749C275.803 191.489 273.7 189.445 271.387 187.656L268.327 191.639C271.376 193.723 274.147 196.185 276.575 198.965C277.032 199.489 277.741 200.856 278.265 201.177L278.468 201.565C279.448 200.642 279.516 200.254 278.671 200.4C277.957 200.332 277.238 200.475 276.604 200.811C275.97 201.147 275.449 201.662 275.105 202.291C273.415 205.059 277.758 207.608 279.482 204.839C278.536 205.312 278.333 205.515 278.908 205.464H279.634C280.016 205.441 280.395 205.384 280.767 205.295C281.279 205.148 281.755 204.896 282.165 204.556C282.575 204.216 282.91 203.796 283.15 203.32C283.495 202.362 283.566 201.327 283.354 200.331C283.142 199.335 282.656 198.417 281.95 197.682C278.826 193.647 275.071 190.142 270.829 187.301C268.479 185.698 265.488 189.496 267.753 191.285C269.509 192.643 271.148 194.144 272.654 195.775C273.383 196.561 274.071 197.384 274.716 198.239C275.287 199.257 275.936 200.228 276.66 201.143L278.113 199.455L277.032 199.033L275.595 198.442C274.378 197.936 273.161 197.412 271.944 196.855C269.713 195.842 267.499 194.762 265.319 193.648C256.581 189.158 248.248 183.925 239.967 178.692L238.023 183.317C245.003 185.866 252.001 188.381 258.744 191.538C261.972 193.04 265.15 194.661 268.209 196.467C270.372 197.733 274.581 199.674 274.97 202.561L277.505 200.029C272.55 199.287 267.78 197.621 263.443 195.117C258.896 192.804 254.384 190.458 249.753 188.365C240.286 183.912 230.587 179.968 220.699 176.549C217.606 175.468 216.322 180.313 219.364 181.427C227.578 184.432 236.35 183.419 244.902 184.161C253.775 184.955 262.226 188.314 270.254 191.876C273.787 193.429 277.995 194.965 280.395 198.121C281.007 198.806 281.472 199.609 281.762 200.479C282.053 201.35 282.163 202.271 282.085 203.185C281.849 204.131 281.764 203.962 280.699 203.759C279.634 203.557 278.485 203.135 277.403 202.831C268.699 200.349 259.978 197.885 251.392 195.066C242.806 192.247 234.187 188.652 227.46 182.372C225.077 180.161 221.494 183.723 223.877 185.968L223.843 186.086Z" fill="#0084DD"/>
<path d="M200.197 168.918C200.095 168.682 200.332 169.391 200.332 169.374C200.332 169.357 200.484 170.049 200.45 169.881C200.477 170.33 200.477 170.781 200.45 171.231C200.346 172.139 200.124 173.03 199.791 173.881C199.653 174.252 199.489 174.613 199.301 174.962C199.064 175.434 198.828 175.89 198.574 176.346C198.321 176.801 198.084 177.223 197.813 177.645L197.459 178.219C197.459 178.219 197.002 178.81 197.205 178.557C196.691 179.245 196.011 179.791 195.228 180.144C194.472 180.512 193.67 180.779 192.844 180.937C191.924 181.097 190.99 181.17 190.056 181.156C188.839 181.156 187.622 181.055 186.422 180.971C185.75 180.971 185.105 181.238 184.629 181.712C184.154 182.187 183.887 182.831 183.887 183.503C183.887 184.174 184.154 184.818 184.629 185.293C185.105 185.768 185.75 186.035 186.422 186.035C189.189 186.362 191.99 186.248 194.721 185.697C197.351 185.079 199.686 183.57 201.329 181.427C202.85 179.375 204.037 177.096 204.844 174.675C205.798 171.96 205.683 168.986 204.523 166.353C204.181 165.777 203.626 165.358 202.978 165.188C202.33 165.017 201.64 165.108 201.059 165.441C200.488 165.789 200.075 166.343 199.905 166.988C199.735 167.633 199.821 168.319 200.146 168.902L200.197 168.918Z" fill="#0084DD"/>
<path d="M181.115 184.834C182.923 185.328 184.784 185.606 186.658 185.661C186.993 185.657 187.313 185.522 187.55 185.286C187.787 185.049 187.922 184.73 187.926 184.395C187.913 184.064 187.776 183.749 187.541 183.514C187.306 183.279 186.991 183.142 186.658 183.129C185.779 183.129 184.968 182.978 184.039 182.876H183.413C183.413 182.876 183.008 182.876 183.413 182.876H183.109L181.757 182.674C181.427 182.583 181.075 182.625 180.777 182.792C180.487 182.957 180.275 183.23 180.185 183.551C180.106 183.876 180.155 184.218 180.322 184.507C180.489 184.796 180.761 185.01 181.081 185.104C182.503 185.405 183.963 185.479 185.408 185.324C185.742 185.317 186.062 185.184 186.303 184.952C186.48 184.775 186.601 184.55 186.65 184.305C186.699 184.059 186.674 183.805 186.578 183.574C186.482 183.342 186.32 183.145 186.111 183.006C185.903 182.866 185.658 182.792 185.408 182.792C184.761 182.842 184.111 182.842 183.464 182.792C183.154 182.809 182.844 182.809 182.534 182.792H182.264H181.757L181.081 185.223C182.957 185.526 184.85 185.763 186.743 185.915V183.383H185.425H184.816H184.512C184.85 183.383 184.512 183.383 184.394 183.383C183.543 183.261 182.701 183.08 181.875 182.842C181.55 182.753 181.203 182.796 180.91 182.962C180.617 183.128 180.402 183.404 180.312 183.729C180.222 184.053 180.265 184.4 180.432 184.693C180.598 184.986 180.874 185.201 181.199 185.29L181.115 184.834Z" fill="#0084DD"/>
<path d="M164.062 181.106C168.229 182.866 172.611 184.07 177.093 184.685C181.606 185.174 186.051 183.233 190.614 183.993C192.305 184.246 192.896 181.815 191.29 181.545C186.845 180.802 182.586 182.423 178.158 182.22C173.542 181.771 169.032 180.567 164.806 178.659C163.285 178.051 162.643 180.499 164.13 181.106H164.062Z" fill="#0084DD"/>
<path d="M178.327 151.447C181.386 152.662 183.922 154.958 186.778 156.393C189.787 157.752 192.578 159.549 195.06 161.727C199.488 165.845 202.293 172.581 198.44 178.05C197.493 179.383 199.691 180.649 200.62 179.333C204.778 173.408 202.429 165.727 197.798 160.883C195.23 158.297 192.226 156.182 188.924 154.637C187.168 153.809 185.473 152.856 183.854 151.784C182.314 150.686 180.659 149.758 178.919 149.016C177.398 148.408 176.738 150.856 178.243 151.447H178.327Z" fill="#0084DD"/>
<path d="M149.797 175.956C159.312 182.404 171.245 184.193 182.518 184.041C187.876 183.957 193.453 183.029 197.729 179.568C199.756 178.038 201.256 175.916 202.022 173.497C202.788 171.077 202.782 168.48 202.005 166.064C201.464 164.545 199.014 165.203 199.571 166.739C201.38 171.803 198.405 176.58 194.011 179.011C189.616 181.442 183.87 181.611 178.8 181.442C169.081 181.121 159.245 179.298 151.064 173.762C149.712 172.85 148.445 175.044 149.78 175.939L149.797 175.956Z" fill="#0084DD"/>
<path d="M221.476 109.45C228.49 119.73 246.828 119.494 257.949 120.068C271.724 120.777 291.279 120.068 301.47 109.433C303.346 107.475 300.372 104.487 298.479 106.446C289.775 115.561 272.721 116.27 260.907 115.966C251.493 115.713 231.127 116.118 225.11 107.323C223.589 105.095 219.938 107.205 221.476 109.45Z" fill="#0084DD"/>
<path d="M220.581 91.4408C213.263 112.372 238.158 116.44 252.947 117.453C264.394 118.411 275.92 117.643 287.139 115.174C293.899 113.486 301.522 111.005 303.06 103.257C306.778 84.098 278.755 78.3588 265.572 78.1394C253.606 77.9199 219.026 76.8058 219.786 95.7283C219.905 98.4291 224.13 98.446 224.012 95.7283C223.454 81.6504 253.403 82.41 262.378 82.3594C272.519 82.3594 307.133 86.7988 296.874 104.422C290.654 115.09 268.564 113.908 257.493 113.486C245.341 113.013 217.708 112.203 224.57 92.5718C225.465 89.9891 221.392 88.8919 220.496 91.4408H220.581Z" fill="#056ED6"/>
<path d="M221.156 88.8576C217.488 95.9641 215.747 104.05 222.643 109.637C231.094 116.389 243.212 118.516 253.64 119.191C267.161 120.086 307.725 120.71 302.198 96.9093C301.589 94.2592 297.516 95.3901 298.125 98.0403C302.468 116.811 266.789 115.579 256.547 115.14C249.562 115.036 242.63 113.898 235.978 111.764C232.799 110.684 229.754 109.245 226.902 107.476C220.48 103.374 221.73 96.9937 224.806 91.0351C226.04 88.6213 222.406 86.4944 221.156 88.9082V88.8576Z" fill="#056ED6"/>
<path d="M303.109 99.1183C302.89 97.0827 302.318 95.1007 301.419 93.2609C301.177 92.8723 300.817 92.5719 300.391 92.4041C299.965 92.2363 299.496 92.2102 299.054 92.3296C298.612 92.449 298.22 92.7075 297.937 93.0668C297.653 93.4261 297.494 93.8671 297.481 94.3243C297.582 95.6579 297.735 96.9914 297.937 98.308L302.078 97.7341C299.526 83.7068 281.712 80.5503 269.847 78.7103C267.194 78.2883 266.044 82.3564 268.732 82.7784C278.873 84.3651 295.774 86.8296 298.039 98.9157C298.461 101.228 302.501 100.722 302.197 98.3587C301.994 97.042 301.842 95.7085 301.74 94.375L297.802 95.4384L298.884 99.1689C299.188 101.836 303.43 101.87 303.109 99.1689V99.1183Z" fill="#056ED6"/>
<path d="M47.3403 187.349C50.1378 178.128 53.5539 169.105 57.5657 160.341C59.2333 156.785 61.0361 153.297 62.9741 149.876C64.0642 147.818 65.2777 145.829 66.6079 143.917C67.2483 142.828 68.0916 141.871 69.0924 141.098C71.0981 137.925 73.8699 138.043 77.4079 141.453C77.4157 141.821 77.519 142.18 77.7075 142.496C77.8961 142.812 78.1635 143.074 78.4837 143.256C78.8038 143.438 79.1658 143.534 79.5341 143.534C79.9025 143.535 80.2647 143.44 80.5854 143.259C83.7629 141.453 89.7798 136.186 93.3798 135.967C99.4812 135.612 95.6953 143.529 96.4051 147.04C97.5037 152.442 100.884 152.239 105.38 153.032C112.749 154.349 112.85 158.62 115.081 164.713C116.501 168.562 118.107 172.343 119.814 176.091C124.326 185.932 129.684 195.367 135.025 204.787C135.307 205.27 135.77 205.622 136.312 205.764C136.854 205.907 137.431 205.828 137.915 205.546C138.399 205.264 138.751 204.802 138.894 204.26C139.036 203.719 138.958 203.143 138.676 202.66C131.915 190.844 125.154 179.028 120.185 166.351C117.785 160.223 117.397 149.758 109.436 148.644C105.887 148.154 106.056 149.589 102.946 146.821C99.346 143.681 101.56 142.634 101.256 138.718C101.053 136.389 100.478 133.553 98.3826 132.084C92.822 128.168 82.7657 137.148 78.4896 139.647L81.6671 141.47C80.4502 131.797 69.9375 133.384 64.9347 139.157C54.0671 151.682 48.1685 170.74 43.284 186.269C42.4727 188.869 46.546 189.966 47.3741 187.383L47.3403 187.349Z" fill="#015CCA"/>
</g>
<defs>
<clipPath id="clip0">
<rect width="360" height="211" fill="white"/>
</clipPath>
</defs>
</svg>
