<svg width="353" height="286" viewBox="0 0 353 286" fill="none" xmlns="http://www.w3.org/2000/svg">
<path d="M281.214 162.62C284.636 160.85 288.761 157.584 287.15 154.091C285.412 150.324 278.907 151.419 276.795 147.866C273.199 141.788 287.491 136.238 284.456 129.833C283.44 127.669 280.859 126.854 278.7 125.825C276.541 124.797 274.322 122.633 275.097 120.375C276.434 116.508 283.466 118.859 285.666 115.42C287.524 112.528 284.122 109.222 281.314 107.245C278.506 105.268 275.786 101 278.506 98.9026C280.238 97.5668 282.838 98.5152 284.857 97.6736C288.366 96.2176 287.531 90.634 284.61 88.2096C281.688 85.7851 277.684 85.0905 274.522 82.9866C276.34 80.315 279.375 78.7388 281.588 76.3811C283.801 74.0235 284.977 69.9426 282.624 67.7319C280.619 65.8484 276.735 66.0087 275.866 63.3973C274.422 59.0693 283.814 56.4445 281.976 52.2701C280.933 49.8991 277.076 50.0728 275.839 47.7952C274.856 45.9786 276.113 43.8346 276.909 41.9244C277.905 39.5334 278.125 36.6481 276.768 34.444C275.411 32.24 272.156 31.178 270.083 32.7208C268.319 34.0566 267.503 36.8752 265.31 36.982C262.636 37.1156 262.042 33.3554 260.745 31.011C258.398 26.7699 250.771 27.5447 249.334 32.1732C248.912 33.509 248.912 35.0652 247.997 36.1071C245.898 38.418 242.107 35.7932 240.717 33.0014C239.326 30.2096 237.896 26.5829 234.781 26.3825C228.932 26.0085 228.096 37.9505 222.293 37.1223C216.946 36.3609 217.815 25.6679 212.407 25.5009C206.39 25.3139 208.783 37.5698 203.048 39.4799C199.966 40.5018 197.031 37.5564 195.501 34.6978C193.97 31.8392 192.546 28.4196 189.484 27.4111C187.564 30.5591 185.649 33.7071 183.742 36.8551C182.953 38.1909 182.024 39.5601 180.56 39.9675C177.545 40.7957 175.399 36.9687 175.079 33.8563C174.758 30.7439 174.617 26.9302 171.816 25.5276C167.919 23.5707 164.269 28.4597 162.417 32.4136C160.566 36.3676 156.047 40.8291 152.671 38.0707C150.779 36.5212 150.846 33.6158 149.609 31.512C148.756 30.1915 147.418 29.2577 145.884 28.9106C144.349 28.5636 142.74 28.8309 141.4 29.6552C137.964 31.9795 137.43 37.6232 133.506 38.9657C129.749 40.2547 126.252 36.5746 124.147 33.2218C122.041 29.8689 119.153 25.9217 115.209 26.4092C108.905 27.184 108.11 38.2176 101.779 38.8454C97.7684 39.2462 95.0945 35.1186 92.8617 31.7658C90.629 28.4129 86.4911 24.9866 83.1019 27.1372C79.1845 29.6218 81.1365 36.8752 77.1323 39.2262C73.5426 41.33 69.4915 37.3293 67.3725 33.7427C65.2534 30.1561 61.7639 25.8816 57.88 27.3911C55.1125 28.4664 54.2568 31.8392 53.0134 34.5308C51.7701 37.2225 48.4076 39.7872 46.108 37.9104C45.0785 37.0622 44.771 35.6462 44.283 34.4039C43.0463 31.3183 39.9379 28.8537 36.6222 29.0942C33.5539 29.3146 30.8599 32.3735 31.2744 35.3323C30.3318 32.24 26.3877 30.0626 23.7339 31.9261C20.8794 33.9297 23.5467 39.7671 26.6952 38.2711L27.718 38.939C29.055 41.3233 26.3142 43.9215 23.8341 45.0569C21.3541 46.1923 18.259 47.7284 18.3793 50.4401C18.5665 54.6478 26.1605 55.3291 26.3276 59.5368C26.5214 64.506 16.6145 64.4125 16.3003 69.3749C15.9861 74.3374 25.6591 74.6179 26.1872 79.6071C26.8089 85.4912 14.2481 86.3395 15.4915 92.1234C16.4273 96.5048 24.1149 95.5564 25.98 99.6306C27.4172 102.776 24.2553 106.029 21.3006 107.832C18.3459 109.636 14.7895 111.967 15.0904 115.406C15.5784 121.07 25.6658 121.751 26.1738 127.428C26.7821 134.107 13.4258 135.957 14.8096 142.503C15.4781 145.575 19.0946 146.777 22.0292 147.913C24.9639 149.048 28.1793 151.867 26.9292 154.752C25.7861 157.363 22.1228 157.35 19.616 158.719C15.1438 161.157 15.9928 169.185 20.8794 170.634C22.0292 170.982 23.2993 171.015 24.2954 171.676C27.5977 173.847 24.4893 178.916 21.2605 181.194C18.0317 183.471 14.2748 187.733 16.9421 190.651C18.5197 192.381 21.568 192.201 22.9584 194.071C24.6631 196.348 22.6643 199.494 22.6175 202.339C22.544 206.627 28.2795 209.686 31.8225 207.302C34.7304 205.298 36.161 200.703 39.6705 200.777C45.112 200.877 46.1815 212.131 51.3222 210.401C54.5041 209.319 54.0964 204.149 56.9642 202.386C59.9991 200.543 63.4886 203.889 65.4205 206.868C67.3524 209.847 70.6814 213.273 73.8099 211.603C77.1992 209.786 75.9491 204.049 78.9372 201.638C82.4601 198.806 87.3467 203.315 88.7506 207.609C89.1583 208.871 89.5193 210.227 90.4819 211.136C93.4032 213.901 97.9689 210.181 99.6936 206.554C101.418 202.927 103.705 198.239 107.715 198.659C114.053 199.327 114.748 212.111 120.951 210.641C126.119 209.412 124.327 199.862 129.287 197.951C133.372 196.382 136.567 201.571 138.078 205.679C139.589 209.786 143.727 214.629 147.35 212.178C150.973 209.726 148.627 203.181 152.109 200.683C155.452 198.292 159.697 202.226 161.468 205.926C163.24 209.626 165.546 214.301 169.63 214.014C176.649 213.52 176.509 199.414 183.521 199.922C186.931 200.175 188.669 203.969 190.206 207.015C191.744 210.06 195.173 213.246 198.108 211.503C200.635 209.994 200.24 206.293 201.216 203.522C202.707 199.287 208.509 197.277 212.306 199.675C215.134 201.471 216.424 204.864 218.483 207.509C220.542 210.154 224.626 212.057 227.113 209.813C230.202 207.035 227.681 200.723 231.178 198.459C233.544 196.943 236.746 198.8 238.223 201.191C239.701 203.582 240.282 206.474 242 208.698C243.718 210.922 247.442 212.037 249.227 209.893C251.012 207.749 249.487 203.782 251.6 201.879C254.053 199.641 257.663 202.68 259.688 205.312C261.714 207.943 266.059 210.361 267.797 207.536C268.88 205.779 267.844 203.034 269.442 201.725C271.247 200.249 273.686 202.433 275.933 203.061C279.89 204.216 283.694 198.519 281.107 195.313C279.669 193.53 277.016 192.775 276.187 190.638C274.114 185.295 285.619 181.341 283.005 176.258C281.668 173.68 277.617 173.754 276.033 171.322C273.9 168.137 277.798 164.39 281.214 162.62ZM258.585 183.171H43.6346V55.9703H258.585V183.171Z" fill="#015CCA"/>
<path d="M102.04 129.996C88.0295 138.267 75.1801 149.142 65.2583 162.196C60.3641 168.63 56.5823 175.678 54.3665 183.512C51.9906 191.927 50.9896 200.69 47.884 208.898C46.8562 211.605 51.1586 212.787 52.1731 210.098C55.0829 202.4 56.1551 194.219 58.2285 186.291C60.2877 178.526 63.8679 171.261 68.7554 164.93C78.3123 152.332 90.7791 141.863 104.283 133.895C106.756 132.433 104.518 128.529 102.058 129.996H102.04Z" fill="#EA008B"/>
<path d="M108.859 128.603C100.608 123.636 90.0084 120.988 81.2332 126.244C77.5253 128.464 74.4898 131.917 73.2044 136.099C72.9424 136.964 72.8682 137.863 72.6408 138.732C72.2256 140.327 71.4889 140.178 69.9366 140.317C67.168 140.56 64.3946 140.635 61.6359 140.982C56.7762 141.598 52.0696 143.024 48.3568 146.367C46.8127 147.745 45.5804 149.438 44.7429 151.335C43.8036 153.501 44.0211 155.681 43.4328 157.897C42.2957 162.194 36.2643 162.502 32.8185 163.858C29.1304 165.299 25.5214 167.832 24.9974 172.059C24.7106 174.389 26.2284 176.948 25.6994 179.158C25.2544 181.031 22.9308 181.716 21.334 182.258C17.3789 183.594 13.7996 184.896 10.6702 187.802C4.51516 193.514 1.33629 202.59 0.288203 210.757C-0.206177 214.627 -0.176514 218.755 1.27696 222.426C2.81943 226.33 5.58796 228.387 9.41447 229.768C12.0396 230.711 11.7529 232.391 11.8864 234.845C11.9902 236.976 12.3511 239.072 13.7354 240.771C16.7412 244.462 22.7084 245.018 26.9996 246.121C32.6949 247.581 39.4382 250.413 45.3856 249.101C47.8807 248.585 50.1026 247.172 51.6346 245.127C52.2822 244.211 52.7504 243.179 53.0139 242.087C53.2067 241.302 53.0732 239.569 53.6418 238.948C54.4427 238.068 56.4054 238.724 57.4238 238.689C58.6571 238.653 59.8728 238.385 61.008 237.9C63.1673 236.918 64.9915 235.32 66.2534 233.305C69.5262 228.282 68.6907 222.058 67.8503 216.46L64.8098 219.515C73.2489 220.955 81.6188 213.608 80.3828 204.811C80.1109 202.898 78.6278 199.783 80.4471 198.303C81.9302 197.071 84.323 196.863 86.0484 195.993C89.5091 194.255 90.839 190.941 91.3383 187.295C91.5904 185.482 91.6498 183.619 92.0898 181.831C92.6435 179.57 93.8596 178.582 95.9706 177.747C99.8367 176.212 102.917 174.464 103.688 170.008C104.034 168.021 103.871 165.959 104.301 163.997C104.795 161.657 106.659 161.017 108.424 159.735C110.116 158.603 111.298 156.85 111.717 154.852C111.949 153.704 111.895 152.492 112.162 151.375C112.468 150.073 113.254 149.104 114.05 148.066C117.17 143.993 119.043 138.692 117.293 133.616C116.55 131.398 115.147 129.464 113.275 128.074C111.402 126.683 109.15 125.904 106.822 125.841C103.638 125.802 103.638 130.769 106.822 130.809C110.891 130.863 113.373 134.852 112.982 138.668C112.527 143.049 108.834 145.359 107.594 149.303C107.005 151.171 107.524 153.734 106.17 155.264C105.038 156.526 103.169 157.072 101.933 158.275C99.2089 160.922 99.3473 164.549 98.9913 168.056C98.8133 169.819 98.4129 171.185 96.8111 172.094C95.2093 173.003 93.2664 173.351 91.6498 174.33C88.7477 176.088 87.4821 179.074 86.9976 182.322C86.5922 185.01 86.9581 189.247 84.5999 191.13C82.0439 193.172 78.4498 192.879 76.1954 195.601C72.9523 199.515 76.2597 203.648 75.4687 207.9C74.6975 212.038 70.3222 215.496 66.1051 214.771C64.1276 214.433 62.773 215.868 63.0647 217.826C63.7519 222.376 64.622 227.984 61.275 231.735C59.871 233.31 58.2741 233.856 56.2126 233.757C54.151 233.657 52.0993 233.622 50.4679 235.078C47.467 237.76 49.4099 242.529 45.0297 244.074C42.6616 244.929 40.0315 244.352 37.6683 243.786C34.9937 243.145 32.334 242.425 29.6693 241.744C27.143 241.094 24.6068 240.468 22.0855 239.797C20.2859 239.3 17.8437 238.853 17.0724 236.911C16.4198 235.267 16.8005 233.23 16.5781 231.491C16.3926 229.639 15.508 227.929 14.1061 226.713C12.623 225.461 10.6949 225.222 8.99919 224.383C7.57906 223.601 6.49113 222.326 5.93898 220.796C4.60909 217.627 4.74752 213.797 5.29628 210.469C6.49762 203.206 9.37492 194.751 15.5003 190.196C20.6122 186.401 30.9991 186.813 30.6926 178.18C30.6234 176.153 29.338 173.798 30.1043 171.831C30.7272 170.241 32.685 169.248 34.1533 168.642C37.6634 167.181 41.5097 166.809 44.644 164.464C45.9158 163.537 46.9357 162.304 47.6103 160.878C48.5497 158.841 48.2975 156.685 48.8314 154.569C49.8746 150.426 53.9384 147.867 57.7946 146.76C60.5433 145.965 63.3959 145.726 66.2386 145.533C68.5968 145.369 71.2615 145.508 73.5307 144.753C78.0246 143.263 77.115 137.957 79.3446 134.609C85.5985 125.21 98.2547 128.022 106.367 132.89C109.101 134.535 111.593 130.243 108.839 128.603H108.859Z" fill="#EA008B"/>
<path d="M199.199 111.78C212 73.0021 242.456 41.0433 279.898 25.0138C290.501 20.5006 301.626 17.3237 313.015 15.5564C317.253 14.8885 315.455 8.45672 311.237 9.11793C269.015 15.7501 230.825 41.8448 207.989 77.7642C201.598 87.8417 196.479 98.6703 192.748 110.003C191.411 114.098 197.855 115.848 199.199 111.78V111.78Z" fill="#EA008B"/>
<path d="M223.451 98.0351C226.747 99.8978 230.434 100.963 234.216 101.145C237.998 101.327 241.77 100.621 245.23 99.0836C250.859 96.6391 261.274 88.1034 253.733 82.1057C246.654 76.5155 235.283 79.8216 228.097 83.3414C224.494 85.1113 219.674 87.4623 218.845 91.837C218.016 96.2117 221.827 98.6094 225.59 99.0235C234.334 99.992 249.622 95.644 248.954 84.4634C248.932 83.5847 248.572 82.748 247.95 82.1264C247.328 81.5048 246.491 81.1459 245.611 81.1239C241.614 80.962 237.634 81.7212 233.978 83.3426C230.322 84.9641 227.088 87.4043 224.527 90.4745C222.569 92.8388 223.959 95.8176 226.894 96.1783C232.877 96.913 238.151 93.9075 242.971 90.7416C245.484 89.0919 244.836 84.1495 241.286 84.5235C237.785 84.8484 234.343 85.639 231.052 86.8745C228.264 87.9498 227.509 92.585 231.052 93.3197C233.555 93.9147 236.179 93.7472 238.585 92.8388C242.556 91.3093 240.832 84.8241 236.807 86.4003C235.565 86.9752 234.172 87.1412 232.83 86.8745V93.3197C235.547 92.2225 238.401 91.499 241.313 91.1691L239.628 84.9443C235.718 87.509 231.78 90.0671 226.927 89.466L229.294 95.1631C231.244 92.7344 233.742 90.8022 236.585 89.5251C239.427 88.248 242.532 87.6624 245.645 87.8163L242.302 84.4768C242.516 88.03 238.846 90.0537 235.912 91.109C233.311 92.044 228.311 93.5869 225.644 92.3245C224.935 92.191 225.089 92.1776 226.112 92.2778L227.054 91.6099C227.723 91.2759 228.344 90.8351 228.993 90.4678C230.515 89.603 232.089 88.8313 233.705 88.1569C236.867 86.7678 240.279 86.036 243.733 86.0063C245.259 85.9989 246.776 86.2403 248.225 86.7209C250.11 87.3888 249.388 87.7361 248.225 88.9984C246.458 90.9271 244.262 92.4141 241.814 93.3397C239.393 94.2981 236.788 94.7026 234.19 94.5234C231.592 94.3443 229.067 93.5861 226.8 92.3045C223.07 90.1539 219.694 95.9245 223.424 98.0751L223.451 98.0351Z" fill="#EA008B"/>
<path d="M200.06 77.4096C201.638 70.5971 203.402 62.7159 202.807 55.6696C202.306 49.8456 196.744 46.7866 191.871 50.3999C187.192 53.873 185.855 60.9593 186.396 66.4294C186.931 72.0931 189.331 79.5602 195.982 79.9676C196.709 79.9569 197.414 79.7138 197.992 79.2738C198.571 78.8339 198.993 78.2204 199.198 77.5231C201.764 69.7385 202.896 61.5536 202.54 53.3654C202.46 51.6422 201.069 49.919 199.198 50.0259C188.702 50.627 190.18 67.3912 191.29 74.3373C191.731 77.089 196.25 77.6767 197.399 75.1321C199.692 70.3559 200.617 65.0394 200.073 59.7705C199.766 56.9987 196.597 55.2355 194.365 57.4061C192.289 59.415 190.768 61.9251 189.948 64.6935C189.128 67.4619 189.038 70.3949 189.685 73.2085C190.18 75.5261 193.696 76.6014 195.274 74.6779C196.899 72.7793 198.084 70.5452 198.744 68.1354C199.404 65.7256 199.522 63.1998 199.091 60.7389C198.643 57.7067 194.365 57.7534 192.981 59.9375C191.713 61.899 191.019 64.175 190.975 66.5095C190.808 70.8041 197.493 70.7974 197.66 66.5095C197.691 65.3617 198.061 64.2486 198.723 63.3103L192.613 62.5155C192.795 63.8296 192.702 65.1671 192.339 66.4433C191.977 67.7195 191.353 68.9065 190.507 69.9292L196.096 71.4052C195.738 69.7316 195.823 67.9938 196.341 66.3626C196.859 64.7314 197.793 63.2629 199.051 62.1014L193.348 59.7438C193.888 63.8346 193.287 67.9949 191.61 71.7659L197.72 72.5607C197.234 69.572 197.11 66.5356 197.353 63.5174C197.433 62.4955 197.72 56.785 199.178 56.7048L195.835 53.3654C196.187 60.9513 195.142 68.5373 192.753 75.7465L195.982 73.2954C193.536 73.1417 192.967 65.7548 192.981 64.2253C192.981 63.0966 193.836 55.3223 195.956 55.6496C197.58 55.9034 194.05 73.7696 193.616 75.6397C192.647 79.8274 199.091 81.6106 200.06 77.4163V77.4096Z" fill="#EA008B"/>
<path d="M315.776 9.9917C313.135 20.2305 313.65 32.2994 322.4 39.5327C330.221 46.0046 341.118 44.9961 347.736 37.2685C354.574 29.2538 354.421 16.5037 349.18 7.65406C343.745 -1.54953 331.879 -1.7499 323.43 3.33278C314.646 8.60915 310.916 19.242 317.875 27.6776C324.092 35.2114 337.314 37.0281 342.856 27.7243C346.82 21.0454 346.947 6.45853 337.896 3.62666C327.2 0.287182 319.432 13.4514 323.637 22.3277C325.81 26.9095 330.99 30.3425 336.158 28.8063C341.572 27.2301 342.582 21.2057 340.657 16.5905C338.865 12.316 334.5 7.39359 329.627 10.8399C324.339 14.5801 327.294 20.8584 331.452 23.9106C334.908 26.4687 338.243 20.678 334.794 18.14C334.847 18.1801 333.337 16.3634 333.37 16.3701C332.381 16.1297 333.136 16.6306 333.29 17.038C333.678 18.12 334.52 18.9014 334.801 20.0969C335.616 23.5967 331.913 22.4813 330.469 20.7648C329.616 19.72 329.096 18.4435 328.977 17.1004C328.858 15.7574 329.145 14.4095 329.8 13.231C330.97 11.2273 334.4 8.62919 336.692 10.4926C339.948 13.1642 338.939 21.2858 337.06 24.3514C333.938 29.4542 326.598 27.5106 323.243 23.7236C314.693 14.0725 331.304 2.64485 340.249 7.74757C344.968 10.4191 346.359 17.8328 346.265 22.7685C346.158 28.2319 343.591 33.6352 338.564 36.1665C333.216 38.8381 327.3 36.2266 324.038 31.5647C320.027 25.7874 320.542 18.2536 322.213 11.7683C323.283 7.60731 316.865 5.83071 315.769 9.9917H315.776Z" fill="#EA008B"/>
<path d="M134.589 95.9368C126.835 92.3101 118.672 92.9179 110.336 92.8378C109.374 92.8378 108.404 92.8378 107.449 92.7509C106.996 92.757 106.546 92.6962 106.112 92.5706V93.6192C107.883 92.3836 109.18 90.5402 111.045 89.3246C114.429 87.1303 118.303 85.8043 122.322 85.4642L120.631 79.2394C113.128 84.122 104.033 85.9347 95.2287 84.3021C93.7246 84.0082 89.9944 83.6342 89.9543 81.9243C89.9543 80.5886 93.3435 77.6431 94.266 76.668C97.4209 73.3454 100.919 70.3656 104.701 67.7783C108.291 65.3071 105.229 60.2578 101.359 62.0077C97.6153 63.69 93.7734 65.1443 89.854 66.3624C87.9422 66.9568 86.0169 67.4911 84.085 67.9787C83.216 68.1924 78.7372 68.5731 78.2291 69.2544V70.864L78.57 70.1293C79.2985 69.2934 79.9792 68.417 80.6089 67.5045C81.6963 66.2221 82.8305 64.9799 84.0115 63.7776C86.8197 60.909 89.8704 58.2878 93.1296 55.9432C93.7612 55.5722 94.2532 55.0041 94.53 54.3263C94.8068 53.6485 94.8531 52.8987 94.6617 52.1921C94.4702 51.4855 94.0517 50.8613 93.4706 50.4156C92.8894 49.9698 92.1777 49.7273 91.445 49.7251L84.5129 49.0572L86.8793 54.7544C90.2581 50.9722 94.1245 47.655 98.3772 44.8896C101.974 42.5586 98.6312 36.7746 95.0348 39.119C90.2866 42.1741 85.9641 45.8438 82.1799 50.0324C80.1343 52.3032 81.6584 55.4557 84.5396 55.7362L91.4718 56.4041L89.7872 50.1793C84.9695 53.5808 80.5597 57.5251 76.6448 61.9343C74.0845 64.8596 69.6124 69.5616 72.3197 73.7627C75.2143 78.2509 83.0155 75.1586 87.0264 74.1167C93.0973 72.4965 99.0227 70.3742 104.741 67.7717L101.399 62.001C95.837 65.8214 73.4227 83.0063 87.4943 88.964C99.1727 93.9131 113.565 91.6957 124.06 85.0033C126.641 83.3536 125.879 78.4713 122.376 78.7786C116.83 79.1649 111.484 81.0081 106.88 84.1217C103.571 86.4326 97.9494 90.5669 99.8211 95.2822C101.76 100.151 108.545 99.51 112.73 99.4833C118.953 99.4432 125.491 98.969 131.28 101.674C135.15 103.491 138.553 97.7334 134.656 95.9101L134.589 95.9368Z" fill="#EA008B"/>
<path d="M154.049 90.7335C155.945 87.3784 157.629 83.9074 159.089 80.3411C159.758 78.6713 158.34 76.6677 156.756 76.2335C154.831 75.7059 153.334 76.9014 152.645 78.5645C151.376 81.586 149.92 84.5259 148.286 87.3673C146.161 91.1075 151.936 94.4737 154.062 90.7068L154.049 90.7335Z" fill="#EA008B"/>
<path d="M142.377 69.6824C139.615 68.9101 137.211 67.1942 135.585 64.8334C133.172 61.307 127.376 64.6464 129.816 68.2063C132.375 72.0227 136.197 74.8174 140.612 76.1008C144.75 77.2964 146.521 70.8512 142.39 69.6557L142.377 69.6824Z" fill="#EA008B"/>
<path d="M166.328 67.3444L169.844 57.1857C171.248 53.1182 164.797 51.3683 163.393 55.4091L159.884 65.5678C158.473 69.6353 164.931 71.3851 166.328 67.3444Z" fill="#EA008B"/>
<path d="M147.992 48.564C142.036 48.2844 136.211 46.7191 130.919 43.9756C127.108 41.9719 123.719 47.7692 127.576 49.7395C133.911 53.0314 140.886 54.9092 148.019 55.243C152.324 55.4567 152.31 48.7777 148.019 48.564H147.992Z" fill="#EA008B"/>
<path d="M157.683 44.0745C157.69 42.2192 158.156 40.3943 159.04 38.7628C159.925 37.1312 161.199 35.7437 162.75 34.724C166.334 32.373 162.984 26.589 159.375 28.96C156.839 30.5868 154.746 32.8166 153.284 35.4497C151.822 38.0828 151.037 41.037 150.999 44.0478C150.932 48.349 157.617 48.349 157.683 44.0478V44.0745Z" fill="#EA008B"/>
<path d="M189.23 38.5389L194.304 31.3123C195.34 29.8362 194.571 27.5988 193.101 26.7439C192.331 26.3142 191.426 26.1986 190.573 26.4215C189.721 26.6444 188.988 27.1884 188.528 27.9394L183.461 35.166C182.425 36.6421 183.194 38.8795 184.658 39.7344C185.427 40.1642 186.332 40.2797 187.185 40.0568C188.037 39.8339 188.77 39.2899 189.23 38.5389V38.5389Z" fill="#EA008B"/>
<path d="M145.104 26.1562C140.888 25.7347 136.755 24.6996 132.838 23.0839C128.827 21.4742 127.116 27.9261 131.06 29.5224C135.55 31.3174 140.28 32.4426 145.098 32.8619C149.383 33.2626 149.356 26.577 145.098 26.1829L145.104 26.1562Z" fill="#EA008B"/>
<path d="M161.462 16.6032V12.9899C161.462 12.1042 161.11 11.2548 160.483 10.6285C159.856 10.0022 159.006 9.65039 158.12 9.65039C157.233 9.65039 156.383 10.0022 155.756 10.6285C155.129 11.2548 154.777 12.1042 154.777 12.9899V16.6032C154.777 17.4889 155.129 18.3383 155.756 18.9645C156.383 19.5908 157.233 19.9427 158.12 19.9427C159.006 19.9427 159.856 19.5908 160.483 18.9645C161.11 18.3383 161.462 17.4889 161.462 16.6032V16.6032Z" fill="#EA008B"/>
<path d="M52.3315 100.018C49.8715 101.768 47.4983 103.926 47.7724 107.225C48.0198 110.297 50.56 112.729 53.6885 112.268C60.3733 111.286 60.3733 101.728 55.1859 98.8163C48.6214 95.1095 43.2 101.855 43.0462 107.98C42.8858 114.452 48.6348 120.89 55.4733 118.666C60.5672 116.996 63.8762 110.097 63.7224 105.001C63.4951 97.0864 54.1765 96.8927 48.7885 99.2237C42.5917 101.895 42.6518 109.589 48.9623 112.241C54.0562 114.385 60.3265 112.027 63.0941 107.305C64.6048 104.707 65.1864 100.974 62.5927 98.8831C59.8787 96.699 56.1953 98.1751 53.5481 99.7647C50.7739 101.434 48.481 104.26 49.1696 107.686C49.8848 111.239 52.9064 113.376 56.4426 112.628C60.6474 111.747 58.8692 105.281 54.6645 106.19C55.1124 106.597 55.4934 106.671 55.8009 106.404C56.105 106.033 56.4889 105.736 56.924 105.535C57.3912 105.262 57.8733 105.014 58.3679 104.794C59.5979 104.54 59.3973 103.854 57.7662 102.737C57.5189 102.877 56.8905 104.58 56.5229 104.934C56.067 105.373 55.5375 105.727 54.9586 105.983C54.1923 106.328 53.3486 106.466 52.512 106.384C52.0411 106.32 51.5871 106.166 51.175 105.929C50.5533 105.261 50.4397 105.181 50.8207 105.615C51.6964 104.594 55.9747 103.679 56.8838 104.854C57.666 105.869 55.9814 109.296 55.3864 110.297C54.4305 111.927 53 113.136 51.1951 111.76C49.564 110.524 49.0024 106.744 50.5266 105.148C51.5761 104.046 51.5092 104.727 52.3181 105.201C52.1242 106.27 52.8395 106.811 54.4506 106.844C54.8208 106.436 55.246 106.081 55.714 105.789C59.1901 103.318 55.8544 97.5272 52.3716 100.018H52.3315Z" fill="#EA008B"/>
<path d="M49.659 65.5339C47.5265 69.5412 48.322 75.6725 53.4493 76.848C58.5765 78.0235 62.8615 72.2662 61.2505 67.5375C59.5659 62.6085 53.5228 60.5046 48.8367 62.1944C44.037 63.9309 41.3163 70.1423 44.906 74.3634C48.4958 78.5845 54.8731 76.9949 57.5537 72.6937C59.9335 68.88 60.0539 60.9788 53.7768 61.2861C48.9571 61.5198 44.1908 67.6377 44.6587 72.2729C45.1935 77.5293 50.7285 79.8068 55.0135 76.9482C57.1192 75.5389 59.3653 72.9408 59.967 70.4095C60.6355 67.6845 58.8506 64.8259 55.8692 64.866C53.1351 64.906 50.2472 67.591 48.6161 69.5412C46.7243 71.8188 45.6882 74.7375 46.8179 77.6228C48.3688 81.5834 54.8397 79.8602 53.2621 75.8462C52.6738 74.3367 54.218 73.1746 55.3544 72.2863C55.7792 72.0598 56.18 71.7913 56.551 71.4848C55.1249 68.4437 54.0442 67.6355 53.3089 69.0603C53.1988 69.2537 53.0783 69.441 52.9479 69.6214C52.4933 70.2893 51.7045 70.7702 51.2901 71.398C51.2901 71.3646 50.5681 71.8922 50.9892 71.6451C51.4104 71.398 51.1363 72.0124 51.3235 71.7987C51.5107 71.585 51.6176 70.5164 51.9184 70.1156C52.3529 69.5412 53.7233 68.7798 53.9239 68.1453C54.0843 67.6978 52.7607 66.9899 52.4933 67.1435C52.4599 67.1435 52.1591 68.5995 52.1524 68.6195C51.9452 69.1004 50.6817 70.9305 49.9865 70.0288C49.1175 68.9201 51.8048 68.2322 52.3463 68.2455C53.0691 68.2479 53.772 68.482 54.3517 68.9134C54.6107 69.1067 54.8231 69.3554 54.9734 69.6414C55.0269 69.7616 54.7729 70.149 54.7862 70.1624C54.9132 70.4095 53.964 70.2692 54.9199 70.4162C55.8759 70.5631 54.9199 70.5164 55.1338 70.2425C55.3478 69.9687 55.2609 69.214 55.4347 68.9067C57.4401 65.1131 51.6845 61.7335 49.6656 65.5673L49.659 65.5339Z" fill="#EA008B"/>
<path d="M135.089 162.726C138.853 159.339 144.027 156.915 149.194 157.109C156.668 157.396 151.113 163.54 147.931 165.791C143.82 168.69 139.448 171.181 135.544 174.374C132.422 176.925 128.19 180.672 127.729 184.96C127.301 189.034 130.296 192.307 133.986 193.582C136.174 194.248 138.491 194.374 140.738 193.95C143.138 193.616 146.333 192.407 148.686 193.489C151.534 194.825 149.087 196.534 147.55 197.817C145.19 199.82 142.757 201.684 140.357 203.621L125.978 215.222C123.925 216.879 125.256 220.145 127.455 220.806C132.037 222.186 136.81 222.826 141.593 222.703L138.251 219.363C138.552 225.494 131.306 228.493 127.615 232.227C124.2 235.68 121.639 241.036 125.008 245.424C131.593 253.987 146.4 246.981 152.523 241.611C155.772 238.779 151.026 234.077 147.797 236.889C144.606 239.717 140.681 241.587 136.473 242.285C135.009 242.512 132.462 242.853 131.125 241.965C129.18 240.682 130.704 238.732 131.967 237.35C137.161 231.679 145.39 228.38 144.943 219.363C144.929 218.482 144.572 217.64 143.948 217.017C143.324 216.394 142.482 216.037 141.6 216.024C137.417 216.141 133.243 215.58 129.24 214.361L130.711 219.944L144.08 209.171C147.804 206.165 153.185 203.113 155.685 198.905C156.66 197.311 157.015 195.415 156.682 193.576C156.349 191.738 155.352 190.086 153.88 188.934C150.424 186.042 146.112 186.262 141.928 187.004C139.969 187.351 136.66 188.339 135.002 186.67C133.344 185 136.339 182.749 137.476 181.62C141.019 178.08 145.357 175.529 149.508 172.777C155.251 168.97 164.549 160.582 157.49 153.408C150.284 146.115 136.526 152.453 130.39 157.984C127.181 160.862 131.921 165.578 135.116 162.706L135.089 162.726Z" fill="#EA008B"/>
<path d="M166.261 227.499L162.037 224.159C158.694 221.541 153.941 226.163 157.31 228.881C163.154 233.586 169.386 237.786 175.941 241.438C179.711 243.521 183.087 237.757 179.317 235.667C173.241 232.327 167.46 228.478 162.037 224.159L157.31 228.881L161.535 232.221C164.878 234.845 169.644 230.15 166.261 227.492V227.499Z" fill="#EA008B"/>
<path d="M164.029 211.583C168.388 216.749 174.009 220.702 180.347 223.058C184.358 224.601 186.102 218.149 182.125 216.619C176.901 214.572 172.296 211.21 168.755 206.861C165.994 203.555 161.288 208.297 164.022 211.583H164.029Z" fill="#EA008B"/>
<path d="M163.193 198.345C168.756 198.788 174.252 199.852 179.578 201.517C183.695 202.793 185.46 196.348 181.356 195.079C175.448 193.27 169.356 192.125 163.193 191.666C158.901 191.339 158.928 198.018 163.193 198.345Z" fill="#EA008B"/>
<path d="M163.187 186.864C167.783 186.996 172.342 187.735 176.744 189.062C180.875 190.284 182.647 183.839 178.522 182.616C173.537 181.149 168.382 180.336 163.187 180.199C158.882 180.085 158.889 186.764 163.187 186.878V186.864Z" fill="#EA008B"/>
<path d="M163.909 174.593C167.489 174.588 171.064 174.849 174.605 175.374C176.403 175.655 178.181 174.92 178.716 173.043C179.17 171.467 178.168 169.21 176.383 168.936C172.267 168.285 168.109 167.944 163.942 167.914C159.637 167.914 159.631 174.593 163.942 174.593H163.909Z" fill="#EA008B"/>
<path d="M166.809 163.013C169.784 163.384 172.801 163.21 175.713 162.499C179.898 161.524 178.127 155.079 173.935 156.06C171.597 156.589 169.181 156.681 166.809 156.334C165.018 156.094 163.467 158.037 163.467 159.674C163.467 161.677 165.011 162.773 166.809 163.013V163.013Z" fill="#EA008B"/>
<path d="M160.913 154.07C164.542 155.137 168.377 155.3 172.084 154.544C176.308 153.723 174.517 147.284 170.312 148.099C167.772 148.57 165.155 148.409 162.691 147.631C158.56 146.396 156.795 152.834 160.913 154.07Z" fill="#EA008B"/>
<path d="M117.068 170.566C115.246 176.358 111.815 181.514 107.174 185.433C103.906 188.245 108.652 192.954 111.901 190.155C117.366 185.43 121.392 179.265 123.519 172.363C124.809 168.249 118.358 166.492 117.068 170.586V170.566Z" fill="#EA008B"/>
<path d="M116.973 190.623L107.454 208.656C105.449 212.457 111.218 215.836 113.23 212.029L122.749 193.996C124.755 190.196 118.986 186.816 116.973 190.623Z" fill="#EA008B"/>
<path d="M106.513 225.374L102.843 239.099C101.733 243.254 108.19 245.03 109.287 240.869L112.963 227.131C114.073 222.976 107.616 221.2 106.519 225.354L106.513 225.374Z" fill="#EA008B"/>
<path d="M112.871 250.828C112.165 256.274 113.603 261.782 116.882 266.189C119.429 269.596 125.238 266.27 122.658 262.85C121.349 261.162 120.397 259.226 119.86 257.159C119.323 255.093 119.213 252.938 119.536 250.828C119.777 249.024 117.825 247.488 116.194 247.488C114.188 247.488 113.085 249.044 112.851 250.828H112.871Z" fill="#EA008B"/>
<path d="M126.265 262.642C129.075 266.452 132.17 270.044 135.523 273.388C138.585 276.42 143.311 271.698 140.249 268.666C137.277 265.745 134.531 262.604 132.034 259.269C130.964 257.826 129.139 257.092 127.461 258.073C126.037 258.908 125.182 261.186 126.265 262.642V262.642Z" fill="#EA008B"/>
<path d="M140.552 260.413C144.372 265.226 149.008 269.334 154.249 272.548C157.912 274.819 161.275 269.042 157.591 266.784C152.861 263.845 148.684 260.1 145.251 255.717C142.577 252.378 137.898 257.106 140.525 260.439L140.552 260.413Z" fill="#EA008B"/>
<path d="M152.898 262.269C156.532 264.92 160.838 266.501 165.326 266.831C169.611 267.218 169.584 260.539 165.326 260.152C162.028 259.81 158.892 258.551 156.274 256.518C154.817 255.436 152.551 256.298 151.702 257.721C150.686 259.41 151.455 261.214 152.898 262.289V262.269Z" fill="#EA008B"/>
<path d="M160.807 253.627C164.966 255.592 169.445 256.798 174.03 257.186C178.314 257.547 178.294 250.861 174.03 250.508C170.616 250.203 167.282 249.298 164.183 247.836C160.306 246.033 156.91 251.783 160.807 253.6V253.627Z" fill="#EA008B"/>
<path d="M150.003 145.575C153.346 146.569 156.805 147.12 160.291 147.212C164.589 147.338 164.589 140.659 160.291 140.533C157.405 140.444 154.544 139.975 151.781 139.137C147.65 137.894 145.885 144.34 150.003 145.575V145.575Z" fill="#EA008B"/>
<path d="M136.459 144.773C137.036 145.773 137.877 146.596 138.889 147.152C139.902 147.707 141.047 147.975 142.202 147.926C143.084 147.901 143.927 147.552 144.568 146.944C145.193 146.318 145.544 145.47 145.544 144.586C145.47 142.897 144.073 141.093 142.202 141.247C141.979 141.265 141.755 141.265 141.533 141.247L142.422 141.361C142.308 141.361 141.861 141.314 141.794 141.207C141.887 141.361 142.603 141.561 142.008 141.26C141.413 140.96 142.603 141.781 142.175 141.381C141.947 141.127 142.014 141.234 142.382 141.688C142.322 141.594 142.262 141.501 142.208 141.407C141.99 141.022 141.697 140.684 141.347 140.413C140.997 140.142 140.597 139.943 140.169 139.828C139.741 139.713 139.295 139.684 138.856 139.742C138.417 139.801 137.994 139.947 137.611 140.17C137.229 140.394 136.895 140.691 136.629 141.045C136.362 141.398 136.169 141.801 136.06 142.23C135.951 142.659 135.928 143.105 135.993 143.543C136.058 143.981 136.21 144.401 136.439 144.78L136.459 144.773Z" fill="#EA008B"/>
<path d="M188.945 154.023C203.114 162.039 214.899 173.669 223.097 187.725C232.536 203.935 235.07 221.58 236.534 240.001C236.875 244.255 243.56 244.289 243.219 240.001C242.37 229.315 241.514 218.461 238.747 208.042C236.522 199.752 233.2 191.796 228.866 184.385C220.092 169.328 207.482 156.861 192.321 148.252C188.57 146.135 185.201 151.906 188.978 154.023H188.945Z" fill="#EA008B"/>
<path d="M237.596 259.416C237.382 254.62 242.603 253.191 246.253 255.181C250.391 257.432 251.935 262.448 252.269 266.85C252.563 271.017 251.761 275.145 247.89 277.336C246.385 278.167 244.718 278.661 243.003 278.786C241.288 278.911 239.566 278.662 237.957 278.057C234.287 276.628 231.112 273.201 230.938 269.14C230.784 265.494 233.211 261.794 237.121 261.827C240.383 261.827 243.138 264.979 241.319 268.165C239.935 270.57 239.982 268.459 240.116 266.703C240.196 265.26 241.306 261.426 242.228 261.239L239.655 260.905L240.176 261.286L238.639 259.282C239.628 262.228 236.994 267.424 235.657 269.922H241.426C241.153 269.383 241.01 268.787 241.01 268.182C241.01 267.577 241.153 266.981 241.426 266.442L235.296 263.864C235.341 264.106 235.298 264.355 235.176 264.568C235.053 264.781 234.859 264.943 234.628 265.026C231.285 267.765 236.065 272.467 239.361 269.748C240.633 268.715 241.488 267.256 241.767 265.641C242.436 262.194 237.395 259.403 235.657 263.069C234.837 264.649 234.409 266.402 234.409 268.182C234.409 269.962 234.837 271.715 235.657 273.295C236.733 275.552 240.303 275.392 241.426 273.295C243.325 269.748 249.675 255.035 241.346 254.674C237.91 254.527 235.63 258.574 234.568 261.273C233.291 264.499 232.903 268.399 234.153 271.699C236.827 278.832 245.21 276.193 247.63 270.363C248.219 268.971 248.512 267.472 248.49 265.96C248.468 264.449 248.132 262.959 247.504 261.584C246.875 260.21 245.968 258.981 244.839 257.975C243.71 256.969 242.384 256.209 240.945 255.743C237.853 254.774 234.508 255.023 231.593 256.439C228.679 257.854 226.417 260.329 225.269 263.357C222.595 270.076 225.349 277.382 230.931 281.664C233.463 283.596 236.451 284.842 239.606 285.28C242.761 285.719 245.976 285.336 248.94 284.168C255.551 281.55 258.927 275.612 258.967 268.626C259.001 260.344 255.464 251.087 246.988 248.242C239.354 245.677 230.51 250.914 230.898 259.416C231.091 263.697 237.776 263.717 237.582 259.416H237.596Z" fill="#EA008B"/>
<path d="M244.26 212.009C247.897 219.122 255.571 230.576 265.13 227.885C275.398 224.986 270.726 212.216 266.033 206.512C261.173 200.581 249.595 194.376 243.973 202.992C238.191 211.888 250.257 220.063 257.891 220.711C259.776 220.872 261.12 219.048 261.233 217.372C261.391 215.04 261.069 212.7 260.287 210.497C259.505 208.294 258.28 206.274 256.688 204.562C256.061 203.936 255.211 203.584 254.324 203.584C253.438 203.584 252.588 203.936 251.961 204.562C249.555 207.407 248.98 211.034 251.112 214.239C252.63 216.51 256.52 216.39 257.222 213.445C258.225 209.257 257.042 204.929 253.586 202.204C251.32 200.414 248.051 201.489 247.884 204.562C247.744 206.839 248.13 209.119 249.013 211.223C249.897 213.328 251.253 215.201 252.977 216.697C256.206 219.522 260.952 214.814 257.704 211.975C256.612 211.092 255.755 209.953 255.208 208.66C254.661 207.367 254.442 205.96 254.568 204.562L248.86 206.926C250.437 208.175 251.266 209.598 250.778 211.668L256.888 210.873C256.763 210.789 256.657 210.678 256.578 210.55C256.499 210.421 256.448 210.277 256.429 210.127C256.41 209.977 256.424 209.825 256.468 209.681C256.513 209.537 256.587 209.403 256.688 209.29H251.961C252.936 210.376 253.672 211.654 254.122 213.041C254.572 214.428 254.726 215.895 254.575 217.345L257.918 214.006C255.513 213.816 253.248 212.802 251.507 211.134C249.876 209.557 247.997 206.498 251.246 205.537C255.578 204.248 260.605 209.791 262.51 213.037C263.573 214.84 264.983 217.499 264.683 219.636C264.315 222.267 261.494 221.74 259.742 220.758C255.384 218.3 252.235 212.937 250.043 208.636C248.084 204.809 242.315 208.182 244.267 212.009H244.26Z" fill="#EA008B"/>
<path d="M205.629 215.977C203.938 220.959 202.547 227.264 203.69 232.534C204.553 236.541 208.122 239.4 212.227 237.877C217.087 236.087 218.912 229.936 219.533 225.347C220.055 221.46 220.389 215.008 216.278 212.738C206.999 207.621 201.571 226.944 203.009 233.008C203.964 236.969 208.229 239.246 211.699 236.641C215.83 233.542 215.71 226.576 215.609 221.988C215.61 221.254 215.368 220.54 214.922 219.957C214.475 219.374 213.849 218.954 213.139 218.762C212.43 218.571 211.677 218.618 210.998 218.897C210.318 219.176 209.749 219.671 209.379 220.305C208.448 221.752 207.849 223.387 207.625 225.092C207.401 226.798 207.557 228.532 208.082 230.17C208.911 232.841 212.762 233.509 214.192 230.964C216.383 227.141 218.083 223.057 219.253 218.809L212.688 217.92C212.644 221.164 212.211 224.391 211.398 227.531C210.322 231.699 216.746 233.476 217.842 229.308C218.802 225.586 219.316 221.763 219.373 217.92C219.433 214.147 213.805 213.399 212.808 217.032C211.807 220.724 210.343 224.274 208.45 227.598L214.553 228.4C214.271 227.62 214.18 226.784 214.29 225.962C214.399 225.14 214.705 224.356 215.182 223.678L208.951 221.995C208.951 223.237 208.951 224.466 208.891 225.708C208.818 226.837 208.223 228.633 208.356 229.715L208.129 230.57C209.165 231.659 209.613 231.779 209.466 230.938C209.78 230.443 209.553 228.814 209.66 228.126C210.004 225.852 210.713 223.649 211.759 221.601C212.113 220.933 213.183 219.857 213.296 219.223C213.998 218.715 213.838 218.522 212.802 218.662C212.948 219.23 213.031 219.812 213.049 220.398C213.229 222.618 213.016 224.851 212.421 226.997C212.129 228.16 211.694 229.282 211.124 230.337C210.736 231.004 210.516 231.485 210.235 231.212C209.399 230.41 210.168 226.276 210.288 225.2C210.616 222.67 211.214 220.183 212.073 217.78C213.457 213.699 206.999 211.949 205.629 216.004V215.977Z" fill="#EA008B"/>
<path d="M207.434 139.002C217.174 135.496 228.431 137.199 237.91 140.865C246.928 144.359 254.709 151.158 257.182 160.742C258.252 164.903 264.703 163.14 263.627 158.965C260.739 147.778 251.982 139.596 241.567 135.188C230.637 130.566 217.047 128.463 205.662 132.564C201.651 134.006 203.376 140.465 207.44 139.002H207.434Z" fill="#EA008B"/>
<path d="M225.556 145.695C221.512 144.76 219.152 148.794 220.115 152.374C221.077 155.954 224.079 159.721 227.562 161.11C236.7 164.744 238.384 150.664 233.638 145.795C231.065 143.124 226.86 142.763 224.159 145.468C221.953 147.679 221.071 151.579 221.331 154.612C221.639 158.185 224.126 161.685 228.17 160.656C229.083 160.362 229.913 159.856 230.591 159.179C231.27 158.502 231.778 157.674 232.074 156.762C232.682 155.066 232.308 153.263 232.823 151.579C234.093 147.398 227.876 145.862 226.379 149.803C225.543 151.987 224.941 155.213 226.379 157.243C226.737 157.763 227.222 158.182 227.788 158.461C228.355 158.739 228.984 158.868 229.614 158.834C230.244 158.801 230.856 158.606 231.39 158.269C231.923 157.932 232.361 157.464 232.662 156.909C232.962 156.398 233.12 155.816 233.12 155.223C233.12 154.63 232.962 154.048 232.662 153.536L232.529 153.329C230.202 149.736 224.413 153.076 226.753 156.702L226.887 156.909V153.536L226.74 153.804L228.745 152.267L228.458 152.341L231.706 153.196C232.375 153.91 232.094 154.345 232.321 153.109C232.437 152.585 232.601 152.073 232.809 151.579L226.365 149.803C226.071 150.758 226.278 154.238 225.583 154.552L227.268 154.097L228.123 154.886C228.065 154.771 228.028 154.646 228.016 154.518C228.016 154.518 227.976 153.416 227.97 153.53C227.999 152.792 228.127 152.062 228.351 151.359C228.498 150.905 229.019 150.29 228.665 150.257C228.892 150.257 229.26 151.326 229.333 151.653C229.499 152.614 229.535 153.594 229.44 154.565C229.44 154.692 229.44 155.754 229.28 155.707L229.948 154.939L229.5 154.665C228.999 153.83 227.929 153.222 227.375 152.334C227.134 151.953 226.98 151.446 226.706 151.099C225.977 150.177 227.515 151.319 225.128 152.04H223.35L223.745 152.134C227.929 153.102 229.714 146.664 225.523 145.689L225.556 145.695Z" fill="#EA008B"/>
<path d="M233.291 127.368C238.185 128.002 253.5 128.75 251.34 119.814C250.491 116.347 246.741 114.938 243.533 115.486C239.889 116.107 236.574 118.224 233.746 120.495C231.988 121.911 232.777 124.696 234.414 125.738C237.128 127.468 240.564 128.784 243.633 127.074C246.053 125.738 247.751 122.893 246.868 120.088C245.184 114.744 237.195 115.967 236.801 121.39C236.487 125.685 243.172 125.664 243.486 121.39C243.379 122.833 238.305 120.295 237.79 119.967L238.459 125.21C239.735 124.174 241.15 123.322 242.664 122.679C243.245 122.439 244.335 122.378 244.776 122.011C245.311 122.011 245.444 121.697 245.17 121.036C245.485 120.101 245.291 119.881 244.595 120.368C243.091 120.201 241.18 120.942 239.602 121.003C237.493 121.065 235.382 120.953 233.291 120.669C229.033 120.114 229.08 126.8 233.291 127.348V127.368Z" fill="#EA008B"/>
<path d="M260.925 174.16C259.995 177.139 259.991 180.328 260.912 183.309C261.834 186.29 263.637 188.922 266.086 190.858C271.133 194.865 278.292 195.58 284.255 193.356C294.911 189.348 307.338 173.138 295.927 163.387C286.254 155.125 271.193 160.455 265.451 170.734C262.777 175.443 260.825 183.29 266.473 186.657C271.48 189.635 278.386 188.093 282.737 184.653C285.258 182.683 287.818 179.57 287.932 176.224C288.045 172.878 285.512 170.34 282.323 169.719C275.852 168.463 270.003 175.73 272.516 181.788C273.412 183.952 276.22 185.301 278.098 183.264C280.879 180.258 284.843 172.377 279.435 169.712C278.422 169.256 277.292 169.127 276.201 169.342C275.111 169.558 274.115 170.107 273.352 170.914C271.347 173.052 271.701 176.03 272.684 178.535C274.208 182.509 280.672 180.786 279.128 176.765C278.967 175.496 278.145 175.2 276.661 175.877L275.13 173.873C275.799 175.483 274.402 177.406 273.365 178.548L278.954 180.018C278.736 179.65 278.62 179.23 278.62 178.802C278.62 178.374 278.736 177.955 278.954 177.587C279.094 177.333 280.558 175.67 280.959 176.217C281.715 177.286 278.185 179.797 277.543 180.165C275.979 181.11 274.17 181.575 272.343 181.501C269.702 181.347 269.261 180.465 269.769 177.994C271.333 170.353 280.037 164.169 287.818 166.473C298.975 169.812 291.461 181.721 284.87 185.715C281.033 188.039 275.986 188.841 271.868 186.69C269.95 185.737 268.441 184.125 267.617 182.15C266.793 180.175 266.709 177.969 267.382 175.937C268.719 171.843 262.275 170.093 260.938 174.16H260.925Z" fill="#EA008B"/>
</svg>
