<svg width="279" height="277" viewBox="0 0 279 277" fill="none" xmlns="http://www.w3.org/2000/svg">
<g clip-path="url(#clip0)">
<path d="M0.00897775 134.454C3.24236 178.545 6.46716 222.645 8.832 266.796C8.83867 267.265 8.99504 267.719 9.27821 268.093C9.56138 268.466 9.95649 268.739 10.4057 268.872C31.7323 272.618 53.3169 274.314 74.9015 275.434C95.8755 276.519 117.417 278.603 138.228 274.848C140.945 274.357 139.793 270.206 137.084 270.697C116.703 274.374 95.4369 272.196 74.9015 271.128C53.678 270.026 32.4719 268.398 11.5236 264.721L13.1059 266.796C10.7411 222.645 7.51628 178.545 4.2829 134.454C4.08511 131.706 -0.214606 131.689 -0.0168195 134.454H0.00897775Z" fill="#015CCA"/>
<path d="M15.8134 169.063L18.1438 185.425C18.7974 190.023 18.7028 195.759 20.3797 200.116C21.4718 202.949 23.8194 203.561 26.6142 203.638C32.0749 203.819 37.6301 203.388 43.0822 203.147C43.6469 203.13 44.1837 202.898 44.5832 202.498C44.9827 202.097 45.2148 201.56 45.232 200.994C46.4789 188.886 42.7124 176.925 44.2173 164.826C44.3635 163.577 43.0994 162.785 42.0674 162.673C38.0639 162.206 34.0168 162.264 30.0282 162.845C27.9925 163.134 25.9806 163.571 24.0086 164.154C22.8821 164.49 19.8035 166.229 18.7974 165.876L20.3023 167.383L20.2335 166.936C19.8379 164.206 15.693 165.36 16.0885 168.081L16.1573 168.529C16.251 168.889 16.439 169.218 16.7021 169.482C16.9651 169.745 17.2936 169.933 17.6536 170.027C20.6032 170.957 24.5332 168.356 27.3796 167.668C32.1972 166.58 37.1665 166.335 42.0674 166.944L39.9176 164.791C38.4127 176.891 42.1792 188.852 40.9323 200.96L43.0822 198.807C38.6965 198.996 34.3021 199.151 29.9078 199.238C29.0479 199.238 26.5197 199.668 25.6081 199.281C23.5185 198.419 23.699 194.234 23.4411 192.391L19.9497 167.857C19.5627 165.127 15.4178 166.29 15.8048 169.002L15.8134 169.063Z" fill="#015CCA"/>
<path d="M25.8679 232.591L29.3764 249.943C29.9354 252.733 29.858 258.21 33.487 258.985C34.9661 259.295 36.4366 258.494 37.7867 258.124C41.0201 257.22 43.7031 257.581 46.9365 258.046C49.8775 258.46 52.1649 258.133 53.0077 254.852C54.16 250.348 53.2399 244.655 53.2485 240.014C53.2485 236.957 53.5666 233.702 53.2485 230.653C53.2974 229.543 52.9667 228.449 52.3111 227.553C49.9033 225.012 43.5053 226.287 40.4353 226.252C37.9759 226.252 35.3358 225.899 32.9022 226.382C32.0423 226.563 28.6885 228.965 28.2413 228.836C25.6615 227.889 24.5092 232.048 27.0976 232.987C29.0583 233.693 29.9612 232.823 31.6037 231.893C35.2412 229.852 39.6442 230.55 43.8235 230.593C44.7952 230.593 48.2436 230.128 48.9831 230.636C49.4217 230.929 48.9831 234.89 48.9831 235.742V248.505C48.9831 249.96 49.6969 253 48.1232 253.878C47.5556 254.197 44.821 253.25 43.8837 253.189C42.4487 253.092 41.0074 253.147 39.584 253.353C38.724 253.482 35.697 254.74 34.9661 254.498C33.7364 254.085 32.8678 245.56 32.5152 243.837L30.0128 231.445C29.4624 228.733 25.3175 229.878 25.8679 232.591Z" fill="#015CCA"/>
<path d="M4.23853 134.659L71.1593 49.0684C72.8792 46.9155 69.8264 43.8412 68.1237 46.0286L1.19432 131.61C-0.525566 133.772 2.52724 136.838 4.23853 134.659Z" fill="#015CCA"/>
<path d="M68.8294 49.1195C90.993 80.4197 112.337 112.283 132.861 144.708C134.331 147.042 138.02 144.88 136.567 142.529C116.049 110.127 94.708 78.2639 72.5444 46.9408C70.9535 44.6931 67.2214 46.846 68.8294 49.1109V49.1195Z" fill="#015CCA"/>
<path d="M2.19349 135.812C22.7289 143.416 44.7349 142.624 66.2765 142.374C77.1992 142.103 88.1281 142.525 98.9973 143.64C110.899 145.018 122.706 147.085 134.719 147.025C137.48 147.025 137.488 142.719 134.719 142.719C123.248 142.796 111.974 140.902 100.623 139.533C89.7226 138.319 78.7548 137.824 67.79 138.051C46.1022 138.267 23.9931 139.326 3.29422 131.662C0.714385 130.697 -0.429341 134.857 2.15049 135.812H2.19349Z" fill="#015CCA"/>
<path d="M133.051 145.423L134.96 272.013C135.003 274.777 139.303 274.786 139.26 272.013L137.351 145.423C137.308 142.65 133.008 142.641 133.051 145.423Z" fill="#015CCA"/>
<path d="M65.5613 167.512C66.1719 177.769 65.4925 187.922 65.6645 198.161C65.8021 206.359 76.6546 204.267 82.3646 204.516C85.2454 204.646 90.3535 206.015 92.7957 204.112C95.2379 202.209 94.6016 197.274 94.5156 194.639C94.2232 184.245 93.8964 173.851 93.5955 163.456C93.5823 162.89 93.3516 162.35 92.9513 161.949C92.5509 161.548 92.0117 161.317 91.4456 161.304C82.7172 160.735 73.7652 160.528 66.0515 165.265C63.6952 166.712 65.8537 170.432 68.2185 168.985C75.2615 164.679 83.4997 165.093 91.437 165.609L89.2871 163.456L89.9665 186.432C90.0611 189.713 90.2073 192.994 90.2503 196.275C90.2933 199.203 90.0697 199.926 87.1201 200.4C85.6496 200.641 83.8179 200.254 82.3388 200.193C79.0968 200.047 75.0895 200.555 72.0195 199.737C69.6374 199.1 69.9728 198.221 70.0674 195.982C70.1448 194.303 70.2136 192.632 70.2652 190.953C70.4888 183.134 70.334 175.306 69.8696 167.495C69.7062 164.74 65.4065 164.722 65.5699 167.495L65.5613 167.512Z" fill="#015CCA"/>
<path d="M89.9497 224.754C89.7003 232.66 89.7605 240.565 90.2248 248.462C90.4312 251.907 90.4226 255.515 91.0848 258.882C91.3944 260.535 91.8415 261.724 93.4324 262.482C95.6425 263.532 99.0651 263.11 101.404 263.145C104.577 263.188 107.759 263.145 110.924 263.438C114.088 263.73 117.356 265.479 120.495 265.634C121.206 265.7 121.919 265.522 122.516 265.129C123.113 264.737 123.558 264.152 123.78 263.472C124.924 260.716 124.115 256.281 124.141 253.405C124.141 250.012 124.141 246.625 124.141 243.243C124.141 239.288 124.084 235.338 123.969 231.394C123.909 228.81 124.442 224.927 123.376 222.472C121.656 218.408 113.985 218.967 110.262 218.606C103.528 217.96 96.8206 218.235 90.4312 220.604C87.8514 221.559 88.9693 225.727 91.575 224.754C96.5918 222.983 101.922 222.277 107.226 222.679C110.081 222.834 112.927 223.187 115.757 223.592C119.463 224.126 119.48 224.324 119.583 228.01C119.727 233.366 119.813 238.725 119.841 244.087C119.841 246.912 119.841 249.737 119.841 252.553C119.841 254.137 120.581 260.966 119.549 262.025L121.639 261.474C117.502 260.69 113.762 259.295 109.479 259.02C106.168 258.805 96.8034 260.398 95.1781 256.901C94.2752 254.964 94.731 251.433 94.5934 249.297C94.4386 246.766 94.3211 244.228 94.2408 241.685C94.0602 236.036 94.086 230.395 94.2408 224.746C94.3268 221.973 90.0271 221.973 89.9411 224.746L89.9497 224.754Z" fill="#015CCA"/>
<path d="M93.6987 78.5714C102.475 68.6855 112.025 59.5167 122.257 51.1521L118.878 50.7129C122.746 57.5893 128.389 63.2972 135.217 67.2385L134.778 63.8542C130.092 69.1331 124.055 73.258 118.568 77.6327L100.604 92.014C98.4456 93.7364 101.507 96.7762 103.648 95.0625L121.604 80.6726C127.099 76.2807 133.127 72.1471 137.822 66.8941C138.049 66.6579 138.22 66.3738 138.322 66.0627C138.425 65.7516 138.456 65.4214 138.414 65.0965C138.372 64.7717 138.257 64.4604 138.079 64.1858C137.901 63.9111 137.663 63.6801 137.384 63.5097C131.202 59.9444 126.1 54.7694 122.619 48.5342C122.449 48.2544 122.218 48.0164 121.944 47.8379C121.669 47.6593 121.358 47.5447 121.034 47.5026C120.71 47.4604 120.38 47.4918 120.069 47.5943C119.759 47.6968 119.475 47.868 119.239 48.095C109.013 56.4643 99.4665 65.6328 90.6889 75.5143C88.8573 77.581 91.8843 80.6382 93.7245 78.5628L93.6987 78.5714Z" fill="#015CCA"/>
<path d="M80.3611 60.4274L87.8856 45.6327L89.7689 41.9383C89.9667 41.5508 91.4888 39.3549 90.3966 39.8113C91.42 39.3549 97.0612 42.3947 98.3081 42.8942C98.9273 43.144 101.688 43.8243 101.903 44.341C102.376 45.4691 99.641 48.2076 99.0477 48.9395L94.232 54.8815L88.8745 61.4952L86.1915 64.7934C85.6841 65.4135 83.6117 67.308 84.3598 67.2047L86.9999 68.7117L86.9483 68.4189L85.452 71.0627H85.6669C88.3672 70.4599 87.2234 66.3091 84.5232 66.9033L84.3082 66.955C83.7662 67.1175 83.3074 67.4828 83.0272 67.9751C82.747 68.4674 82.6668 69.0488 82.8033 69.5987L82.8549 69.8915C83.0785 71.1402 84.4458 71.5535 85.5036 71.3985C87.963 71.0455 89.9581 66.9808 91.377 65.2326L99.9764 54.6576C102.556 51.5058 110.167 45.2796 104.973 41.2322C102.204 39.0707 97.9555 38.1837 94.7307 36.9264C92.4519 36.0652 90.0698 34.5324 87.963 36.47C85.5551 38.6832 84.1706 43.5573 82.6915 46.4508L76.6719 58.2917C75.4164 60.7546 79.1228 62.942 80.3783 60.4618L80.3611 60.4274Z" fill="#015CCA"/>
<path d="M112.867 108.713L145.855 93.3587C148.357 92.1961 151.264 90.2068 153.947 89.6299C156.157 89.1476 156.389 89.3629 157.223 91.4814C157.834 93.0228 158.427 94.5643 159.029 96.1058L162.039 103.856C163.114 106.612 165.358 110.272 165.633 113.191L166.682 111.297C163.922 113.019 159.304 113.63 156.183 114.569L145.7 117.721C139.113 119.702 131.399 123.31 124.468 123.241C121.707 123.241 121.699 127.547 124.468 127.547C131.906 127.624 139.792 123.99 146.826 121.872L158.109 118.479C161.48 117.462 165.848 116.894 168.832 115.034C169.157 114.845 169.427 114.574 169.614 114.247C169.802 113.921 169.9 113.55 169.899 113.174C169.615 110.134 167.861 107.077 166.751 104.235L162.537 93.4448C160.706 88.7429 159.519 83.2056 153.276 85.2552C146.336 87.52 139.517 91.5847 132.912 94.6676L110.657 105.002C108.155 106.173 110.33 109.884 112.833 108.722L112.867 108.713Z" fill="#015CCA"/>
<path d="M108.293 35.0581C106.375 30.1581 104.974 24.3109 108.224 19.6348C109.205 18.2225 109.359 17.99 111.234 17.9125C113.307 17.8608 113.642 18.5669 114.923 20.0051C116.755 22.1013 118.439 24.3227 119.963 26.6532C121.382 28.7803 124.262 27.3594 123.893 24.9912C123.248 20.5132 122.302 14.3903 126.404 11.2127C131.649 7.19104 134.005 13.3139 134.427 17.6799C134.693 20.4012 138.95 20.4615 138.727 17.6799C138.364 14.6353 138.912 11.5515 140.3 8.81863L141.332 7.31161L145.107 9.12004C145.684 9.92091 145.503 12.4441 145.512 13.4258C145.512 15.4754 148.513 16.4657 149.519 14.5109C151.308 11.006 153.182 7.00159 156.897 5.21038C158.832 4.27172 161.61 3.72919 163.321 5.51179C163.67 5.85393 163.937 6.27039 164.103 6.73024C164.27 7.1901 164.33 7.68151 164.28 8.168C164.231 8.65449 164.072 9.12354 163.817 9.54031C163.562 9.95709 163.216 10.3109 162.805 10.5754C160.389 11.936 162.556 15.6562 164.972 14.2956C170.312 11.2902 169.332 3.22972 163.931 0.835704C155.392 -2.93617 149.106 5.88209 145.804 12.3322L149.811 13.4258C149.811 8.6464 147.971 1.16294 141.487 2.44606C135.407 3.65169 134.04 12.7197 134.427 17.6799H138.727C138.099 11.1868 134.865 3.35028 126.842 6.09737C118.303 9.0167 118.69 18.7995 119.748 26.1107L123.678 24.4486C120.35 19.4453 114.442 8.94781 107.476 14.1148C100.511 19.2817 101.336 28.918 104.148 36.1001C105.154 38.6836 109.308 37.5382 108.293 34.9548V35.0581Z" fill="#015CCA"/>
<path d="M140.635 49.1892C141.305 60.4876 154.471 65.1378 163.673 60.4875C169.314 57.6199 185.489 39.1997 173.992 34.7217C169.176 32.8444 165.762 38.5022 165.865 42.6616C165.97 45.0455 166.876 47.3238 168.438 49.1265C169.999 50.9291 172.123 52.15 174.465 52.5907C186.143 55.0709 194.673 42.3774 191.483 31.923C190.898 30.0026 188.637 29.9681 187.553 31.4063C181.749 39.0878 192.713 46.4593 199.635 45.9512C208.527 45.2967 213.773 36.2029 211.15 27.9702C210.996 27.4837 210.675 27.0671 210.245 26.7937C209.814 26.5203 209.301 26.4076 208.796 26.4755C208.291 26.5434 207.826 26.7874 207.483 27.1648C207.139 27.5421 206.94 28.0285 206.919 28.5386C206.532 35.4279 213.635 39.2514 219.724 39.3203C227.721 39.3978 234.979 34.9628 239.305 28.3836C240.835 26.0671 237.112 23.9056 235.59 26.2135C234.145 28.4685 232.245 30.3953 230.012 31.8697C227.778 33.3441 225.26 34.3332 222.622 34.7734C218.322 35.4623 210.901 34.2911 211.219 28.5386L206.996 29.1156C208.501 33.8261 206.67 39.4495 201.665 41.1718C197.821 42.4635 186.857 39.4495 191.268 33.585L187.338 33.0769C189.23 39.2772 186.022 46.8554 179.298 48.3366C175.858 49.1117 171.653 47.9577 170.449 44.2633C169.727 42.0588 172.1 35.7982 173.218 41.5421C173.45 42.7305 172.04 44.7542 171.498 45.7617C168.815 51.0665 164.524 56.4057 158.478 57.818C152.674 59.213 145.244 55.622 144.857 49.2064C144.694 46.4507 140.394 46.4335 140.557 49.2064L140.635 49.1892Z" fill="#015CCA"/>
<path d="M185.971 102.839C186.358 99.515 187.245 96.269 188.603 93.2112C189.463 91.3511 191.561 86.1325 193.857 85.788C200.152 84.8321 199.017 101.142 198.922 104.837C198.879 107.239 202.577 107.799 203.144 105.414C204.091 101.326 205.535 97.3691 207.444 93.6332C209.164 90.2488 212.002 84.2724 216.086 83.4457C221.246 82.4037 224.557 88.4232 224.686 92.6687C224.815 96.9142 223.121 101.28 221.607 105.216L225.83 105.784C226.275 101.772 227.654 97.9199 229.854 94.5374C230.628 93.349 232.623 90.0249 234.154 89.6891C235.943 89.3102 238.006 91.0583 238.6 92.5739C238.987 93.6906 239.255 94.8453 239.399 96.0186C239.991 100.071 239.668 104.204 238.453 108.115C237.239 112.025 235.164 115.614 232.382 118.615L236.054 120.14C236.052 114.225 238.125 108.498 241.911 103.958C244.989 100.299 253.7 92.9701 258.697 96.6903C263.28 100.135 261.784 109.074 260.416 113.724C258.676 119.746 255.2 125.12 250.424 129.173L254.019 131.266C255.618 126.131 258.177 121.347 261.56 117.169C263.1 115.301 264.801 113.572 266.642 112.002C267.502 111.27 268.775 109.832 269.97 109.616C275.259 108.686 274.666 112.243 274.27 114.783C272.731 124.842 266.359 133.634 257.708 138.801C255.334 140.213 257.493 143.968 259.883 142.512C266.266 138.758 271.449 133.262 274.829 126.667C277.34 121.698 281.107 112.536 277.486 107.274C273.316 101.246 265.808 106.766 262.128 110.253C256.435 115.734 252.219 122.569 249.874 130.12C249.177 132.308 251.946 133.565 253.468 132.213C259.8 126.756 264.025 119.252 265.413 111.003C266.419 104.845 266.384 95.4072 259.72 92.2984C253.055 89.1896 244.482 94.9507 240.044 99.5752C234.728 105.101 231.744 112.467 231.712 120.14C231.723 120.561 231.855 120.969 232.093 121.317C232.331 121.664 232.665 121.934 233.053 122.096C233.442 122.257 233.869 122.302 234.282 122.225C234.696 122.149 235.078 121.954 235.384 121.664C239.87 116.839 242.761 110.747 243.665 104.217C244.379 98.9637 244.215 91.8678 240.603 87.5878C236.992 83.3079 232.15 85.056 228.839 88.7935C224.684 93.556 222.116 99.4988 221.495 105.793C221.186 108.376 224.935 108.454 225.718 106.37C227.885 100.669 230.232 94.1154 228.212 88.0098C226.776 83.704 222.871 79.7944 218.253 79.1743C212.922 78.4682 209.362 82.4123 206.644 86.4597C203.044 91.8908 200.449 97.926 198.982 104.277L203.204 104.845C203.308 99.0412 204.615 80.733 194.837 81.1119C186.04 81.4306 182.488 96.1477 181.654 102.822C181.31 105.56 185.619 105.534 185.954 102.822L185.971 102.839Z" fill="#015CCA"/>
</g>
<defs>
<clipPath id="clip0">
<rect width="279" height="277" fill="white"/>
</clipPath>
</defs>
</svg>
