<svg width="234" height="196" viewBox="0 0 234 196" fill="none" xmlns="http://www.w3.org/2000/svg">
<g clip-path="url(#clip0)">
<path d="M7.0476 179.158C51.8462 176.907 96.8189 179.027 141.385 172.944L134.685 169.14L137.151 186.896L140.95 180.203C118.979 184.646 95.1076 185.038 72.788 183.557C67.4511 183.194 62.1576 182.105 56.8351 181.989C51.5127 181.873 46.3352 182.875 41.0563 183.31C30.0053 184.21 18.5917 183.005 7.52619 182.613L12.7616 186.606C12.4498 184.649 12.4498 182.654 12.7616 180.697L7.32315 186.141C17.9971 184.689 28.642 187.187 39.316 185.938C43.6668 185.43 47.8725 184.37 52.1943 183.876C58.2999 183.179 63.9704 184.297 69.96 185.328C90.6843 188.885 112.453 185.139 133.206 183.267C140.124 182.642 140.196 171.753 133.206 172.378C111.235 174.352 89.3066 177.532 67.4076 173.83C57.8648 172.218 49.7434 173.423 40.3022 174.86C29.3237 176.53 18.3161 173.8 7.32315 175.238C5.89685 175.288 4.54267 175.878 3.53349 176.888C2.52431 177.899 1.93514 179.254 1.88466 180.682C1.65631 183.621 1.7927 186.576 2.29074 189.48C2.6533 191.876 5.35079 193.4 7.54068 193.488C19.0413 193.909 30.9044 195.172 42.347 194.068C47.6405 193.56 52.8179 192.616 58.1694 192.907C63.9704 193.197 69.583 194.359 75.3405 194.576C98.0226 195.593 121.546 195.201 143.851 190.686C146.998 190.061 148.028 186.736 147.651 183.992L145.2 166.222C144.75 163.057 141.081 162.07 138.499 162.418C94.9916 168.385 50.8456 166.048 7.06212 168.225C0.0863481 168.574 0.0428399 179.463 7.06212 179.114L7.0476 179.158Z" fill="#039BEF"/>
<path d="M214.232 152.691C214.406 152.851 214.914 153.461 214.334 152.691C213.565 151.704 214.334 152.808 214.334 152.793C214.334 152.779 213.913 151.486 214.073 152.212C214.073 152.459 214.189 152.706 214.232 152.967L214.044 151.515C214.08 151.858 214.08 152.204 214.044 152.546L214.232 151.094C214.19 151.434 214.102 151.766 213.971 152.082C213.779 152.783 213.728 153.515 213.823 154.235C213.917 154.956 214.155 155.65 214.522 156.278C215.057 157.207 215.856 157.957 216.817 158.433C217.777 158.908 218.857 159.088 219.92 158.95C220.983 158.812 221.981 158.362 222.788 157.656C223.596 156.95 224.176 156.021 224.456 154.985C225.036 153.252 225.108 151.389 224.664 149.616C224.219 147.844 223.276 146.235 221.948 144.982C221.442 144.477 220.842 144.076 220.181 143.803C219.521 143.53 218.814 143.39 218.099 143.391C217.385 143.391 216.677 143.533 216.018 143.807C215.358 144.081 214.759 144.483 214.254 144.989C213.749 145.496 213.349 146.096 213.076 146.757C212.803 147.418 212.663 148.127 212.664 148.842C212.665 149.557 212.806 150.265 213.08 150.926C213.354 151.586 213.755 152.186 214.261 152.691H214.232Z" fill="#039BEF"/>
<path d="M183.88 102.602C183.88 100.918 183.952 99.2197 183.996 97.521C184.112 92.0185 176.585 90.2617 173.844 94.7625C172.483 97.025 171.249 99.3612 170.146 101.76L180.08 105.942L181.342 99.6262C181.893 96.8967 180.588 93.5429 177.542 92.9331V93.0348L172.249 102.123C178.978 104.635 186.026 98.0872 192.175 95.9675C200.462 93.2112 208.248 89.1321 215.234 83.8881C219.962 80.3601 217.41 72.3459 211.043 73.9284C200.715 76.5233 191.12 81.4554 182.995 88.3453C178.238 92.3233 184.445 100.178 189.594 96.8967C202.53 88.7276 215.708 80.9844 229.128 73.667L220.948 68.9631C220.658 77.5871 220.354 86.1965 220.18 94.8205C220.18 97.9275 219.629 101.499 220.948 104.403C223.051 109.034 229.491 107.089 230.883 103.111C232.188 99.4084 231.767 94.2108 232.014 90.3779H221.035C222.326 103.706 217.091 116.177 215.234 129.2C214.234 136.039 224.661 139.029 225.734 132.104L228.997 110.834L219.063 112.127C220.876 115.785 217.105 124.743 216.322 128.649C215.201 134.098 214.089 139.542 212.987 144.982C211.536 151.791 221.833 154.753 223.472 147.886C225.212 140.578 227.189 133.348 229.403 126.195L218.73 124.743C218.091 131.364 218.396 139 216.54 145.403C214.785 151.428 208.737 153.301 203.618 156.147L165.925 177.024L173.916 183.166C177.861 161.388 181.893 139.407 181.008 117.237C180.733 110.152 180.472 106.784 187.317 103.532C191.74 101.412 196.294 99.6407 200.688 97.4629C210.189 92.7223 219.229 87.1086 227.692 80.694L219.701 74.5382C213.422 93.1799 214.364 112.911 210.449 131.988C209.54 136.7 208.195 141.318 206.431 145.781C204.183 151.269 200.63 151.109 195.525 153.04C187.546 156.209 180.242 160.87 174.003 166.774L183.097 169.17C180.291 152.847 180.139 136.178 182.647 119.807C183.184 116.468 183.242 111.677 185.896 109.237C188.55 106.798 192.842 105.579 195.815 103.996L218.149 92.2072L210.159 86.0659C206.881 99.9456 204.227 113.956 202.298 128.082C201.457 134.253 201.95 142.456 198.948 148.002C195.627 154.143 186.273 151.457 180.428 153.316L187.302 158.571C187.05 147.254 187.861 135.938 189.724 124.772C190.13 122.086 190.435 119.342 191.03 116.7C191.769 113.39 191.566 113.549 194.438 111.299C198.788 107.873 204.053 105.143 208.723 102.167L200.732 96.1127C196.265 116.439 192.422 136.886 189.202 157.453H199.702C197.28 146.811 199.209 136.169 200.616 125.513C201.631 117.861 203.966 108.265 198.89 101.789C196.192 98.3631 190.913 100.701 189.797 104.185C187.085 112.62 186.896 121.535 185.577 130.217C184.117 139.394 182.048 148.464 179.384 157.366H189.869L189.405 154.709C188.187 147.828 177.702 150.746 178.905 157.613L179.384 160.27C180.37 165.802 188.448 165.076 189.869 160.27C192.53 151.366 194.603 142.296 196.076 133.12C197.44 124.409 197.527 115.48 200.282 107.089L191.189 109.484C192.378 110.936 190.391 120.301 190.174 122.13C189.652 126.558 188.927 130.957 188.405 135.385C187.218 143.687 187.487 152.133 189.202 160.343C190.348 165.337 198.846 165.729 199.702 160.343C202.902 139.765 206.741 119.313 211.217 98.9874C212.189 94.6318 207.447 90.1456 203.241 92.846C197.338 96.6063 190.638 99.9891 185.228 104.461C180.878 107.974 180.733 112.707 179.877 117.949C177.702 131.451 175.947 144.982 176.425 158.687C176.438 159.522 176.64 160.343 177.016 161.087C177.391 161.832 177.932 162.482 178.595 162.987C179.259 163.492 180.029 163.839 180.846 164.002C181.664 164.165 182.508 164.14 183.314 163.929C190.188 161.751 197.556 164.248 203.618 159.297C208.781 155.101 210.536 148.8 211.377 142.441C213.528 124.504 216.607 106.69 220.6 89.0712C220.851 88.0334 220.795 86.9452 220.44 85.9385C220.085 84.9318 219.445 84.0499 218.599 83.3998C217.753 82.7497 216.737 82.3592 215.674 82.2758C214.611 82.1924 213.546 82.4196 212.609 82.9299L185.33 97.3322C176.904 101.789 174.264 104.751 172.582 114.304C169.261 133.442 169.261 153.009 172.582 172.146C173.307 176.415 178.949 177.082 181.675 174.556C185.786 170.684 190.449 167.444 195.511 164.945C199.557 162.956 203.995 162.23 208.085 160.43C215.553 157.134 217.99 146.811 219.846 139.596C225.096 119.154 223.399 97.5936 230.172 77.4709C231.622 73.2315 226.01 68.4549 222.181 71.3151C212.699 78.5073 202.492 84.6871 191.726 89.7536C184.155 93.2961 172.292 96.2288 169.972 105.477C168.724 110.442 170.16 116.279 170.233 121.448C170.289 127.884 170.018 134.319 169.421 140.728C168.217 154.042 165.795 167.21 163.417 180.364C162.59 184.937 167.028 188.944 171.407 186.505C186.911 177.881 203.139 169.954 218.135 160.459C229.853 153.04 228.359 136.953 229.52 124.758C230.114 118.457 220.571 117.673 218.831 123.306C216.617 130.478 214.64 137.703 212.9 144.982L223.385 147.886L228.388 123.364C229.578 117.484 231.129 112.243 228.388 106.639C226.43 102.661 219.15 103.314 218.439 107.931C217.357 115.035 216.264 122.13 215.162 129.215L225.662 132.119C227.721 118.152 233.29 104.722 231.912 90.4069C231.245 83.4816 221.5 83.3219 221.035 90.4069C220.847 93.3106 221.224 97.5936 220.296 100.236L230.23 98.9438C231.898 102.602 230.694 101.252 230.897 99.0599C231.1 96.8677 230.897 94.8496 230.999 92.7734C231.187 84.8463 231.448 76.9192 231.724 68.9921C231.869 64.7382 227.025 62.3717 223.544 64.2881C210.115 71.6441 196.932 79.4116 183.996 87.5903L190.58 95.9965C197.326 90.4003 205.264 86.4269 213.784 84.3817L209.593 74.4365C203.801 78.9993 197.306 82.5887 190.362 85.0641C187.578 86.0078 184.793 86.937 182.11 88.142C180.66 88.7808 176.498 92.1056 175.106 91.5829C169.798 89.6084 166.274 97.0273 169.812 100.686C171.049 102.112 172.739 103.066 174.598 103.386L170.798 96.6934L169.537 103.009C168.405 108.657 176.715 113.172 179.471 107.205C180.58 104.813 181.814 102.482 183.169 100.221L173.017 97.4774C173.017 99.1761 173.017 100.875 172.901 102.559C172.756 109.571 183.633 109.571 183.778 102.559L183.88 102.602Z" fill="#039BEF"/>
<path d="M148.521 95.3144C154.882 94.4095 161.353 94.6356 167.636 95.9823C169.898 96.534 170.87 93.0786 168.607 92.4833C162.015 91.014 155.214 90.7289 148.521 91.6412C146.244 91.9316 146.215 95.5757 148.521 95.2709V95.3144Z" fill="#015CCA"/>
<path d="M144.881 94.2986C146.694 109.195 141.981 124.439 141.908 139.437C141.908 155.131 143.75 170.739 145.186 186.331C145.403 188.64 149.029 188.654 148.811 186.331C147.361 170.739 145.476 155.131 145.534 139.437C145.534 124.425 150.32 109.253 148.507 94.2986C148.231 92.0192 144.591 91.9901 144.881 94.2986Z" fill="#015CCA"/>
<path d="M167.085 95.0668C166.882 110.413 167.085 125.773 166.809 141.12C166.533 156.466 164.286 171.87 162.56 187.158C162.284 189.481 165.924 189.466 166.185 187.158C167.911 171.87 170.174 156.538 170.435 141.12C170.696 125.701 170.507 110.413 170.71 95.0668C170.71 94.5854 170.519 94.1238 170.179 93.7835C169.839 93.4432 169.378 93.252 168.897 93.252C168.417 93.252 167.956 93.4432 167.616 93.7835C167.276 94.1238 167.085 94.5854 167.085 95.0668Z" fill="#015CCA"/>
<path d="M147.072 189.394C150.683 189.583 154.323 189.902 157.963 189.844C160.371 189.844 163.764 189.989 165.432 188.029C167.1 186.069 164.403 183.674 162.865 185.46C161.662 186.839 156.557 186.229 154.932 186.171C152.307 186.069 149.682 185.895 147.072 185.764C144.737 185.634 144.752 189.263 147.072 189.394V189.394Z" fill="#015CCA"/>
<path d="M170.057 95.0085C179.861 91.6112 188.287 84.4826 197.38 79.5318C201.963 77.0491 206.618 74.6971 211.361 72.5338C216.741 70.0657 224.21 65.4779 230.127 64.9262C232.433 64.7084 232.447 61.0787 230.127 61.2965C225.863 61.703 221.106 64.418 217.075 66.0731C212.115 68.1347 207.232 70.3706 202.427 72.7807C196.993 75.5101 191.676 78.4477 186.474 81.5934C180.76 85.0633 175.423 89.3028 169.071 91.5096C166.866 92.2645 167.809 95.778 170.028 95.0085H170.057Z" fill="#015CCA"/>
<path d="M154.569 93.0921C158.354 89.898 163.271 88.5478 167.302 85.6731C171.653 82.5952 175.757 79.314 180.253 76.4684C190.04 70.3228 200.528 65.3753 211.492 61.7321C213.696 60.9916 212.754 57.4927 210.535 58.2331C199.263 61.9597 188.483 67.0343 178.426 73.3469C173.625 76.3812 169.304 80.0835 164.576 83.205C160.472 85.9199 155.802 87.3282 152.002 90.4642C150.218 91.9161 152.8 94.5294 154.569 93.0195V93.0921Z" fill="#015CCA"/>
<path d="M211.013 61.7617C215.625 61.2245 219.874 62.5021 224.283 63.6781C226.618 64.3024 229.257 65.6091 230.94 63.3587C232.39 61.5004 229.199 59.6855 227.807 61.5294L227.546 61.8924L229.112 60.9922C226.096 61.1374 222.572 59.3516 219.642 58.7128C216.795 58.0258 213.853 57.8294 210.94 58.1321C208.649 58.3934 208.62 62.023 210.94 61.7617H211.013Z" fill="#015CCA"/>
<path d="M165.664 189.582C178.398 183.775 190.493 176.951 202.704 170.084C208.172 167.021 214.031 164.959 219.614 162.157C222.935 160.502 226.967 158.803 228.055 155.014C228.165 154.555 228.092 154.072 227.852 153.667C227.613 153.261 227.225 152.964 226.771 152.84C226.317 152.715 225.832 152.773 225.419 153C225.007 153.226 224.698 153.605 224.56 154.056C223.385 158.135 213.349 160.966 210.057 162.418C204.961 164.745 200.003 167.363 195.206 170.258C185.006 176.162 174.555 181.558 163.852 186.446C161.734 187.419 163.576 190.555 165.693 189.582H165.664Z" fill="#015CCA"/>
<path d="M228.576 64.5204C230.581 79.7944 230.907 95.2425 229.547 110.588C228.17 125.484 223.848 140.031 223.384 155C223.311 157.337 226.937 157.323 227.01 155C227.474 140.046 231.795 125.484 233.173 110.588C234.533 95.2425 234.207 79.7944 232.201 64.5204C231.911 62.2265 228.286 62.1975 228.576 64.5204Z" fill="#015CCA"/>
<path d="M176.482 113.419C177.258 120.024 177.592 126.674 177.483 133.323C177.41 136.866 175.438 143.414 177.686 146.39C177.898 146.725 178.208 146.986 178.575 147.137C178.941 147.287 179.345 147.321 179.731 147.232C184.662 146.129 189.477 141.425 193.189 138.057C194.93 136.503 192.363 133.948 190.622 135.501C187.417 138.405 183.095 142.761 178.774 143.733L180.818 144.561C179.76 143.109 180.934 138.536 181.007 136.808C181.109 134.47 181.152 132.118 181.138 129.781C181.085 124.303 180.741 118.831 180.108 113.39C179.847 111.096 176.221 111.067 176.482 113.39V113.419Z" fill="#015CCA"/>
<path d="M179.499 129.811L184.488 125.731C185.947 124.82 187.044 123.429 187.591 121.797C188.084 119.518 184.589 118.545 184.096 120.824C183.821 122.102 181.964 123.118 181.022 123.902L176.932 127.241C175.133 128.693 177.715 131.278 179.499 129.811V129.811Z" fill="#015CCA"/>
<path d="M178.471 117.774C181.543 114.456 184.786 111.302 188.187 108.323C189.957 106.769 187.375 104.214 185.635 105.753C182.233 108.736 178.985 111.89 175.904 115.204C174.308 116.918 176.875 119.487 178.471 117.774Z" fill="#015CCA"/>
<path d="M191.942 103.779C193.073 113.111 193.668 122.501 193.726 131.901C193.726 132.383 193.917 132.844 194.257 133.185C194.597 133.525 195.058 133.716 195.539 133.716C196.02 133.716 196.481 133.525 196.821 133.185C197.161 132.844 197.352 132.383 197.352 131.901V131.219C197.352 130.738 197.161 130.276 196.821 129.936C196.481 129.595 196.02 129.404 195.539 129.404C195.058 129.404 194.597 129.595 194.257 129.936C193.917 130.276 193.726 130.738 193.726 131.219V131.901H197.352C197.294 122.501 196.698 113.111 195.568 103.779C195.278 101.5 191.652 101.471 191.942 103.779Z" fill="#015CCA"/>
<path d="M195.437 105.143L201.644 101.238C203.617 100.004 201.804 96.8822 199.817 98.1017L193.61 102.007C191.637 103.241 193.465 106.363 195.437 105.143Z" fill="#015CCA"/>
<path d="M209.519 110.138C211.9 110.531 214.088 111.688 215.755 113.433C216.74 115.264 217.295 117.294 217.38 119.371C217.556 121.65 217.449 123.943 217.061 126.195C216.582 128.939 215.61 132.888 213.174 134.427C210.737 135.966 207.3 135.545 204.588 135.327L206.401 137.142L206.111 137.708C207.663 135.966 205.11 133.353 203.544 135.139C203.264 135.385 203.047 135.696 202.913 136.045C202.779 136.394 202.732 136.771 202.775 137.142C202.793 137.618 202.99 138.069 203.326 138.405C203.662 138.742 204.113 138.939 204.588 138.957C209.563 139.349 215.074 139.233 218.061 134.529C221.049 129.825 221.658 122.507 220.744 117.107C219.976 112.504 217.394 107.858 212.42 107.016C209.519 106.523 205.429 107.524 206.024 111.096C206.401 113.404 209.896 112.432 209.519 110.138V110.138Z" fill="#015CCA"/>
<path d="M217.961 123.466C214.817 124.306 211.595 124.817 208.345 124.991C206.025 125.121 206.01 128.751 208.345 128.62C211.917 128.433 215.46 127.878 218.918 126.965C219.368 126.826 219.746 126.518 219.973 126.104C220.199 125.691 220.256 125.206 220.132 124.751C220.008 124.297 219.712 123.909 219.306 123.669C218.901 123.429 218.418 123.356 217.961 123.466V123.466Z" fill="#015CCA"/>
<path d="M142.721 160.039C137.921 162.245 130.206 160.358 124.956 161.04C119.706 161.723 114.456 162.768 109.075 163.073C97.8067 163.741 86.4512 163.436 75.1681 163.668C51.4998 164.133 27.8508 165.101 4.22121 166.572C1.91529 166.717 1.90079 170.347 4.22121 170.202C29.7458 168.585 55.285 167.564 80.8386 167.138C92.3392 166.949 104.043 167.457 115.427 166.107C121.112 165.439 126.725 163.915 132.483 164.162C136.935 164.365 140.372 165.033 144.549 163.102C146.666 162.129 144.824 159.008 142.721 159.98V160.039Z" fill="#015CCA"/>
<path d="M0.146125 168.924C0.929154 177.029 1.19073 185.176 0.929258 193.315C0.929258 195.652 4.4824 195.652 4.55492 193.315C4.81639 185.176 4.55481 177.029 3.77178 168.924C3.55424 166.615 -0.0714143 166.586 0.146125 168.924Z" fill="#015CCA"/>
<path d="M2.34919 195.811C14.5459 194.359 27.1922 196.435 39.5049 195.898C51.5421 195.39 63.4778 194.751 75.5295 195.317C100.039 196.45 123.823 196.058 148.043 191.31C150.32 190.86 149.362 187.361 147.071 187.811C122.184 192.704 97.994 192.544 72.803 191.557C60.7658 191.093 48.8156 191.949 36.8074 192.385C25.3939 192.791 13.7192 190.846 2.40719 192.181C0.115774 192.457 0.0867692 196.087 2.40719 195.811H2.34919Z" fill="#015CCA"/>
<path d="M2.61116 168.486C12.0862 161.614 21.5903 154.796 31.1233 148.03C33.0087 146.694 31.1233 143.544 29.296 144.894C19.7533 151.669 10.2492 158.488 0.783839 165.35C-1.087 166.701 0.783831 169.851 2.61116 168.486Z" fill="#015CCA"/>
<path d="M30.0786 147.785C67.4244 144.927 104.905 144.253 142.329 145.766C144.664 145.839 144.649 142.209 142.329 142.137C104.905 140.624 67.4244 141.298 30.0786 144.155C27.7727 144.344 27.7582 147.973 30.0786 147.785Z" fill="#015CCA"/>
<path d="M7.84583 176.269L8.70148 183.151C8.70461 184.967 9.10559 186.761 9.87619 188.406C9.99613 188.612 10.1554 188.792 10.345 188.937C10.5346 189.081 10.7507 189.187 10.981 189.247C11.2113 189.308 11.4512 189.323 11.6872 189.29C11.9232 189.258 12.1505 189.18 12.3562 189.06C13.7622 187.922 14.7309 186.331 15.0972 184.559C15.3582 183.76 17.6206 178.127 17.287 178.025L16.0253 176.762C16.5156 178.422 16.8172 180.131 16.9245 181.858L17.7801 187.317C18.1282 189.626 21.6233 188.639 21.2753 186.359L19.97 177.938C19.6945 176.196 19.2739 174.047 16.997 174.439C15.1407 174.759 14.285 176.661 13.6324 178.2C13.1393 179.361 12.6607 180.537 12.1821 181.728C11.7035 182.918 11.428 185.27 10.5143 185.938L12.9943 186.591C12.1386 185.241 12.2981 183.005 12.0951 181.437L11.457 176.283C11.1814 174.004 7.55579 173.975 7.83134 176.283L7.84583 176.269Z" fill="#015CCA"/>
<path d="M26.8445 174.208C22.0296 175.079 19.6656 182.455 21.7105 186.549C22.2356 187.549 23.0238 188.387 23.99 188.972C24.9562 189.556 26.0636 189.865 27.1925 189.865C28.3214 189.865 29.4288 189.556 30.395 188.972C31.3612 188.387 32.1494 187.549 32.6745 186.549C32.9168 186.133 32.9842 185.638 32.8618 185.172C32.7394 184.707 32.4373 184.309 32.0219 184.066C31.6065 183.824 31.1118 183.756 30.6467 183.879C30.1817 184.001 29.7843 184.304 29.5419 184.72C29.2892 185.279 28.8449 185.729 28.2895 185.988C27.734 186.248 27.1041 186.3 26.5137 186.135C25.9232 185.97 25.4112 185.599 25.0702 185.09C24.7292 184.58 24.5818 183.964 24.6545 183.355C24.6545 181.279 25.5392 178.056 27.8016 177.649C30.064 177.243 29.1214 173.729 26.8445 174.15V174.208Z" fill="#015CCA"/>
<path d="M34.5313 176.56C34.8503 178.302 35.1549 180.044 35.4159 181.801C35.887 183.645 36.1017 185.546 36.0541 187.449L37.3158 186.171H37.0982L38.8676 186.65L38.708 186.505C37.0257 184.894 34.4588 187.449 36.1411 189.075L36.3006 189.206C36.5258 189.432 36.8064 189.595 37.1142 189.679C37.4221 189.763 37.7466 189.765 38.0554 189.685L38.2875 189.612C38.5905 189.527 38.8661 189.365 39.0873 189.141C39.3086 188.917 39.4677 188.639 39.5492 188.335C39.7104 186.252 39.5589 184.158 39.0996 182.121C38.7951 179.914 38.4325 177.765 38.0264 175.529C37.6203 173.293 34.0962 174.208 34.5313 176.487V176.56Z" fill="#015CCA"/>
<path d="M28.3532 172.262C28.3532 174.237 30.021 174.89 31.7468 174.992C34.4878 175.151 37.2578 175.108 39.9988 175.166C40.4796 175.166 40.9407 174.975 41.2807 174.634C41.6207 174.294 41.8117 173.832 41.8117 173.351C41.8117 172.87 41.6207 172.408 41.2807 172.068C40.9407 171.727 40.4796 171.536 39.9988 171.536L35.648 171.449C34.9374 171.449 31.8629 171.783 31.4278 171.347L31.9499 172.625V172.262C31.9499 171.781 31.7589 171.319 31.4189 170.979C31.079 170.638 30.6178 170.447 30.137 170.447C29.6563 170.447 29.1952 170.638 28.8552 170.979C28.5152 171.319 28.3242 171.781 28.3242 172.262H28.3532Z" fill="#015CCA"/>
<path d="M42.7676 175.848C37.2276 188.74 54.9788 197.03 62.8103 186.214C66.0298 181.757 65.5223 175.877 60.7944 172.755C54.9933 168.908 48.1916 171.725 42.8981 175.107C40.9403 176.356 42.7531 179.463 44.7255 178.243C47.626 176.385 50.8456 174.469 54.3987 174.483C58.7495 174.483 62.5637 177.938 60.7654 182.439C57.1107 191.571 41.6654 187.535 45.9002 177.677C46.8139 175.557 43.6958 173.699 42.7676 175.848V175.848Z" fill="#015CCA"/>
<path d="M65.3046 173.554C66.7548 178.941 68.3936 184.211 72.1063 188.523C72.365 188.766 72.6886 188.93 73.038 188.994C73.3875 189.058 73.748 189.019 74.076 188.883C74.404 188.746 74.6856 188.517 74.8868 188.224C75.0879 187.931 75.2001 187.586 75.2099 187.231C75.17 186.552 75.0333 185.882 74.8038 185.242C74.0062 183.064 70.453 184.007 71.3087 186.2L71.5842 187.231L74.6733 185.953C71.3957 182.149 70.0759 177.329 68.7997 172.581C68.6709 172.117 68.3632 171.724 67.9443 171.487C67.5255 171.25 67.0298 171.189 66.5663 171.318C66.1028 171.447 65.7095 171.755 65.4729 172.175C65.2363 172.594 65.1757 173.09 65.3046 173.554V173.554Z" fill="#015CCA"/>
<path d="M67.6684 175.385C68.8195 174.908 70.0775 174.751 71.3101 174.93C72.5427 175.109 73.7045 175.617 74.6732 176.401C75.0792 176.735 76.1234 177.635 75.9204 178.187C75.8334 178.462 73.919 178.796 73.7015 178.855L69.1186 180.176L70.0758 183.675L71.3811 183.239C73.571 182.499 72.6283 178.985 70.4094 179.74L69.1186 180.176C68.6687 180.315 68.2904 180.623 68.0638 181.036C67.8371 181.449 67.7799 181.935 67.9043 182.389C68.0287 182.844 68.3248 183.232 68.7301 183.472C69.1354 183.712 69.618 183.785 70.0758 183.675C72.5703 182.963 76.1524 182.6 78.2408 180.989C80.3292 179.377 79.6911 176.706 78.2408 174.876C76.7403 173.153 74.7208 171.965 72.4868 171.491C70.2528 171.017 67.9254 171.283 65.8556 172.249C63.7237 173.178 65.5655 176.299 67.6829 175.385H67.6684Z" fill="#015CCA"/>
<path d="M79.7348 175.34C82.9398 179.507 83.4764 187.928 88.8859 190.062C89.195 190.155 89.5237 190.161 89.8358 190.079C90.148 189.997 90.4315 189.83 90.6552 189.597C92.1925 187.797 92.3375 185.01 92.7581 182.745C93.3237 179.71 93.7443 176.661 94.1069 173.598L90.7277 174.513C92.9611 177.416 93.7878 180.886 95.0785 184.255C95.7021 185.808 96.5288 188.843 98.5012 189.133C98.7693 189.203 99.05 189.212 99.3219 189.158C99.5938 189.104 99.8499 188.988 100.071 188.82C100.291 188.653 100.471 188.437 100.596 188.189C100.721 187.941 100.788 187.668 100.793 187.391V187.173C100.789 186.693 100.597 186.233 100.257 185.894C99.9183 185.554 99.4594 185.362 98.9797 185.358H98.8347C96.5143 185.518 96.4998 189.147 98.8347 188.988H98.9797L97.1669 187.173V187.463L99.4584 185.707C98.9363 185.634 97.312 179.783 96.9494 178.796C96.2104 176.638 95.1546 174.602 93.8168 172.756C93.6038 172.431 93.2938 172.182 92.9309 172.044C92.5681 171.906 92.1709 171.886 91.7962 171.988C91.4215 172.089 91.0884 172.307 90.8445 172.609C90.6005 172.911 90.4581 173.283 90.4377 173.671C90.1476 176.197 89.7851 178.694 89.3355 181.191C89.06 182.745 89.0745 185.91 88.0448 187.1L89.7996 186.636C87.8562 185.866 86.6815 181.395 86.0144 179.71C85.2467 177.527 84.1724 175.464 82.8238 173.584C81.3735 171.769 78.2555 173.584 79.6912 175.413L79.7348 175.34Z" fill="#015CCA"/>
<path d="M104.869 173.148C107.47 178.133 110.124 183.074 112.831 187.972C113.861 189.845 116.544 188.524 116.138 186.52L115.964 185.62C115.5 183.34 112.004 184.299 112.469 186.593L112.643 187.478L115.964 186.026C113.237 181.119 110.598 176.168 108.002 171.203C106.929 169.127 103.796 170.956 104.869 173.032V173.148Z" fill="#015CCA"/>
<path d="M101.576 171.681C101.134 173.285 101.074 174.971 101.401 176.603C101.729 178.234 102.434 179.766 103.461 181.075C105.579 183.427 108.233 182.527 110.046 180.305L107.145 178.113C105.695 180.93 104.245 183.703 102.794 186.461C101.678 188.508 104.796 190.338 105.927 188.29C107.377 185.532 108.827 182.759 110.278 179.942C111.133 178.215 108.827 176.066 107.377 177.75C104.999 180.654 104.68 173.946 104.984 172.639C105.492 170.36 101.997 169.387 101.475 171.681H101.576Z" fill="#015CCA"/>
<path d="M123.329 170.041C124.48 173.991 125.865 177.87 127.477 181.656C128.347 183.586 130.175 186.998 132.8 186.664C135.164 186.345 136.005 182.759 136.411 180.857C136.936 177.261 137.193 173.631 137.179 169.997L133.626 170.476C135.618 175.732 137.711 180.944 139.906 186.113C140.82 188.261 143.938 186.403 143.039 184.283C140.965 179.391 139.007 174.469 137.122 169.504C136.991 169.093 136.719 168.741 136.355 168.511C135.991 168.281 135.557 168.187 135.13 168.246C134.703 168.305 134.311 168.513 134.023 168.834C133.734 169.154 133.568 169.566 133.554 169.997C133.467 171.449 133.554 183.383 131.712 183.282C132.075 183.282 130.682 179.957 130.61 179.797C130.015 178.49 129.537 177.126 129.058 175.79C128.246 173.54 127.608 171.246 126.825 168.966C126.041 166.687 122.633 167.689 123.329 169.939V170.041Z" fill="#015CCA"/>
<path d="M18.4619 9.46558C24.1526 48.7135 26.4332 88.3814 25.2781 128.024C25.2781 128.505 25.4691 128.967 25.8091 129.307C26.149 129.647 26.6101 129.839 27.0909 129.839C27.5717 129.839 28.0328 129.647 28.3728 129.307C28.7128 128.967 28.9038 128.505 28.9038 128.024C30.037 88.0541 27.7128 48.0613 21.957 8.49284C21.6234 6.19891 18.1283 7.17165 18.4619 9.46558Z" fill="#015CCA"/>
<path d="M28.0485 130.84C66.7222 132.234 105.396 132.471 144.07 131.552C144.55 131.552 145.011 131.36 145.351 131.02C145.691 130.68 145.882 130.218 145.882 129.737C145.882 129.255 145.691 128.794 145.351 128.453C145.011 128.113 144.55 127.922 144.07 127.922C105.396 128.832 66.7222 128.595 28.0485 127.211C25.7136 127.123 25.7281 130.753 28.0485 130.84Z" fill="#015CCA"/>
<path d="M19.5918 10.5258C31.4839 4.38451 46.0011 5.29918 59.0099 4.82007C72.8744 4.32644 86.7341 3.98284 100.589 3.78926C127.844 3.43113 155.095 3.65375 182.34 4.45711C182.821 4.45711 183.282 4.26591 183.622 3.92557C183.962 3.58522 184.153 3.12361 184.153 2.64229C184.153 2.16097 183.962 1.69937 183.622 1.35903C183.282 1.01868 182.821 0.827476 182.34 0.827476C153.19 -0.0339558 124.03 -0.227527 94.8604 0.246744C80.5222 0.498399 66.1839 0.904912 51.8456 1.46629C40.2435 1.93089 28.3804 1.90185 17.7644 7.38985C15.6906 8.4497 17.5179 11.5857 19.5918 10.5258V10.5258Z" fill="#015CCA"/>
<path d="M181.312 4.44186C178.527 27.6715 176.42 50.9931 174.989 74.4066C174.844 76.7441 178.469 76.7296 178.614 74.4066C180.055 51.0318 182.163 27.7102 184.937 4.44186C185.213 2.1189 181.573 2.13342 181.312 4.44186Z" fill="#015CCA"/>
<path d="M29.803 45.6173L55.4291 78.284C56.5168 79.7358 59.1273 78.1678 58.4602 76.5127L57.7786 74.8431C56.8939 72.7089 53.4278 73.6381 54.2689 75.8013L54.9651 77.4855L57.9961 75.7142L32.37 43.062C30.9197 41.2182 28.3672 43.8025 29.803 45.6173V45.6173Z" fill="#015CCA"/>
<path d="M43.7246 58.06C45.2476 48.5034 48.7983 39.3844 54.1375 31.3169C55.4282 29.3569 52.2811 27.5421 51.0049 29.4876C45.4969 37.8122 41.8236 47.216 40.2295 57.0728C39.8669 59.3667 43.362 60.354 43.7246 58.0455V58.06Z" fill="#015CCA"/>
<path d="M42.0153 56.7959C50.8424 56.116 59.7164 57.2018 68.12 59.9899C68.4273 60.0768 68.7522 60.0795 69.0609 59.9978C69.3696 59.9161 69.6507 59.7529 69.8749 59.5254C70.4993 58.9074 70.8539 58.0669 70.861 57.1879C71.0351 54.8649 67.4094 54.8649 67.2354 57.1879C67.5834 52.542 45.2929 52.9194 42.0153 53.1663C39.6949 53.3405 39.6804 56.9701 42.0153 56.7959V56.7959Z" fill="#015CCA"/>
<path d="M63.4485 39.8534C62.9426 39.9418 62.4609 40.1354 62.0345 40.4219C61.608 40.7084 61.2464 41.0812 60.973 41.5164C60.6996 41.9516 60.5205 42.4393 60.4473 42.9482C60.3741 43.457 60.4084 43.9756 60.5479 44.4703C61.1716 46.7787 63.811 48.0273 65.8849 48.6661C71.1494 50.2922 77.487 48.4774 79.3434 42.8587C83.4766 30.1696 61.9402 29.1823 59.3152 39.8244C58.7641 42.0893 62.2157 43.062 62.8103 40.7826C63.9416 36.1657 74.7895 33.3636 76.0658 39.171C76.2884 40.4885 76.018 41.842 75.3063 42.9724C74.5946 44.1028 73.4915 44.9307 72.2081 45.2979C70.76 45.728 69.2242 45.768 67.7558 45.414C67.0074 45.2418 66.2785 44.9936 65.5804 44.6736C65.2672 44.5975 64.9827 44.4323 64.7614 44.1978C64.5401 43.9633 64.3913 43.6697 64.3331 43.3524C66.6245 42.9604 65.6529 39.4614 63.3759 39.8534H63.4485Z" fill="#015CCA"/>
<path d="M77.4589 27.6146L84.0576 43.585C84.9278 45.7047 88.4084 44.7755 87.5528 42.6123L80.9541 26.6419C80.0694 24.5222 76.6033 25.4514 77.4589 27.6146V27.6146Z" fill="#015CCA"/>
<path d="M83.9554 37.5301C86.6934 35.3869 89.6489 33.5377 92.7731 32.0131C94.8759 30.9822 93.0341 27.8462 90.9457 28.8771C87.5567 30.5575 84.3576 32.5969 81.403 34.9603C79.5756 36.4122 82.1571 38.9674 83.9554 37.5301Z" fill="#015CCA"/>
<path d="M85.8846 23.1716C89.005 29.4274 90.9982 36.1854 91.7727 43.1346C92.0192 45.4285 95.6594 45.4576 95.3984 43.1346C94.5701 35.5556 92.4098 28.1828 89.0172 21.3568C87.9875 19.2661 84.855 21.0955 85.8846 23.1861V23.1716Z" fill="#015CCA"/>
<path d="M98.7768 19.6145L99.8645 29.7775C100.039 31.4326 100.227 33.1022 100.3 34.7718C100.343 35.6133 100.343 36.4565 100.3 37.298C99.531 40.1001 99.531 40.9422 100.3 39.8388L102.504 40.1292L102.315 39.9404L102.794 41.7117L102.867 41.4213L101.112 42.757H101.3C103.621 42.9603 103.606 39.3306 101.3 39.1274H101.112C100.716 39.1292 100.331 39.2607 100.017 39.5019C99.7027 39.7431 99.4759 40.0807 99.3714 40.4631C99.2355 40.8478 99.2167 41.2643 99.3174 41.6597C99.4181 42.0551 99.6337 42.4118 99.937 42.6844C100.22 42.9654 100.588 43.1459 100.983 43.1984C101.379 43.2508 101.78 43.1723 102.127 42.9748C104.563 41.4503 103.998 37.1674 103.882 34.7718C103.635 29.6903 102.896 24.6089 102.359 19.5419C102.127 17.248 98.5013 17.2189 98.7333 19.5419L98.7768 19.6145Z" fill="#015CCA"/>
<path d="M105.899 19.9328L100.098 27.7583C99.1839 29.0069 97.6031 30.4878 98.2122 32.2009C98.8213 33.9141 100.866 34.0303 102.418 34.3206C105.202 34.8578 108.118 35.6128 109.858 38.0083C111.207 39.8812 114.354 38.0084 112.99 36.179C111.751 34.4043 110.037 33.0155 108.045 32.1719C106.983 31.7167 105.881 31.3619 104.753 31.1121C103.868 30.9088 101.736 30.9378 101.156 30.2119L101.62 31.9832C101.91 30.4297 104.1 28.4116 105.043 27.1485L109.017 21.7621C110.467 19.8892 107.262 18.0744 105.899 19.9328V19.9328Z" fill="#015CCA"/>
<path d="M110.712 20.5725C114.38 24.9183 117.565 29.65 120.211 34.6845C121.299 36.7461 124.432 34.9168 123.344 32.8551C120.538 27.5493 117.158 22.5685 113.265 18.0027C111.814 16.2169 109.204 18.8012 110.712 20.5725V20.5725Z" fill="#015CCA"/>
<path d="M123.519 18.8164C122.197 26.74 119.806 34.4472 116.412 41.7267C115.426 43.8318 118.559 45.6757 119.545 43.556C123.097 36.0035 125.61 28.0034 127.014 19.7747C127.405 17.4953 123.91 16.508 123.519 18.8164Z" fill="#015CCA"/>
<path d="M128.797 21.6766C129.451 25.6112 129.781 29.593 129.783 33.5818C129.783 36.7323 130.276 43.0333 128.536 45.5886L131.436 45.2111L131.262 45.0079V47.5631L131.422 47.4324C133.162 45.879 130.595 43.3237 128.855 44.8627L128.695 45.0079C128.366 45.3513 128.182 45.8091 128.182 46.2855C128.182 46.7618 128.366 47.2197 128.695 47.5631L128.87 47.7809C129.067 47.9851 129.308 48.1405 129.576 48.235C129.843 48.3295 130.129 48.3603 130.41 48.3251C130.692 48.2899 130.961 48.1895 131.197 48.0321C131.433 47.8746 131.629 47.6644 131.77 47.4179C133.67 44.6594 133.394 38.7068 133.496 35.4982C133.606 30.5481 133.241 25.5989 132.408 20.7184C132.031 18.4244 128.55 19.3972 128.913 21.6766H128.797Z" fill="#015CCA"/>
<path d="M130.075 21.6331C132.022 21.9991 133.917 22.6038 135.717 23.4334C136.007 23.5786 137.254 24.0868 137.442 24.4352C137.935 25.437 136.587 26.3226 135.992 26.7001C133.976 27.8761 130.104 28.3842 130.191 31.3896C130.202 31.8674 130.397 32.3226 130.734 32.6606C131.072 32.9986 131.527 33.1933 132.004 33.2044H132.236C132.554 33.209 132.867 33.1278 133.142 32.9694C133.418 32.8111 133.646 32.5813 133.802 32.3042L133.976 32.101C134.177 31.7524 134.257 31.3473 134.205 30.9483C134.153 30.5494 133.97 30.1789 133.686 29.8942L133.57 29.778C131.931 28.0939 129.379 30.6637 131.003 32.3333L131.119 32.4639L130.844 30.2571L130.67 30.4749L132.236 29.5748H132.004L133.817 31.3896V30.9395L133.28 32.2317C134.658 30.5475 137.355 30.4314 139.009 29.0521C139.713 28.5097 140.281 27.8096 140.666 27.0077C141.052 26.2059 141.244 25.3248 141.228 24.4352C140.865 20.2248 134.382 18.802 131.076 18.1342C128.799 17.6696 127.827 21.1685 130.104 21.6331H130.075Z" fill="#015CCA"/>
<path d="M154.323 23.4037C153.452 20.2968 149.972 20.1516 148 22.3584C144.939 25.7702 142.648 32.5214 143.359 37.0511C143.939 40.7388 146.535 44.5863 150.407 45.3267C155.28 46.2849 158.731 42.3504 161.385 38.8805C162.836 37.0366 159.66 35.2218 158.253 37.0511C156.846 38.8805 155.106 41.3051 152.742 41.7551C149.218 42.4375 147.1 38.8514 146.854 35.9477C146.856 33.3626 147.499 30.8185 148.725 28.5433C149.029 27.9045 151.016 25.1169 150.827 24.4345C150.964 24.8985 151.279 25.2892 151.703 25.5207C152.128 25.7521 152.626 25.8053 153.09 25.6686C153.553 25.5319 153.944 25.2165 154.175 24.7918C154.406 24.367 154.459 23.8677 154.323 23.4037V23.4037Z" fill="#015CCA"/>
<path d="M67.3059 86.0653C67.5528 87.4 68.1885 88.6318 69.133 89.6057C70.0774 90.5796 71.2885 91.2522 72.6139 91.5388C72.9983 91.6402 73.4052 91.6145 73.7737 91.4653C74.1423 91.3162 74.4528 91.0516 74.6587 90.7112C74.9712 90.0264 75.1376 89.2838 75.1472 88.5309C75.1569 87.7781 75.0096 87.0315 74.7148 86.3388C74.4201 85.6462 73.9843 85.0226 73.4352 84.5081C72.8862 83.9935 72.236 83.5992 71.5262 83.3503C71.1402 83.2477 70.7313 83.2745 70.3621 83.4266C69.9928 83.5787 69.6834 83.8476 69.4813 84.1924C69.141 84.9052 69.029 85.7058 69.1607 86.4848C69.2923 87.2637 69.6612 87.9829 70.2169 88.5439C70.7725 89.105 71.4877 89.4804 72.2647 89.6188C73.0416 89.7573 73.8423 89.652 74.5572 89.3174C76.6311 88.2431 74.8038 85.1071 72.7299 86.1815C73.049 86.0072 72.8604 86.3411 72.7299 86.0943C72.5994 85.8475 73.1505 86.5154 72.7299 86.0072C72.8314 86.1234 72.4978 85.8765 72.6574 86.0072C72.3963 85.8911 72.7444 85.7749 72.5849 86.0072L70.54 86.8348C70.9088 87.0123 71.2061 87.3105 71.3828 87.6801C71.5594 88.0496 71.6049 88.4684 71.5117 88.8674L73.5565 88.0253C72.8465 87.8987 72.1953 87.5491 71.6972 87.0269C71.1991 86.5048 70.8801 85.8374 70.7865 85.1216C70.7245 84.8923 70.6177 84.6776 70.4724 84.4899C70.327 84.3021 70.146 84.145 69.9397 84.0276C69.7335 83.9102 69.5061 83.8348 69.2706 83.8058C69.0351 83.7767 68.7962 83.7947 68.5676 83.8585C68.1097 83.9971 67.7221 84.3061 67.4848 84.722C67.2474 85.1379 67.1782 85.6289 67.2914 86.0943L67.3059 86.0653Z" fill="#015CCA"/>
<path d="M80.0104 78.0657C79.6713 78.6324 79.453 79.2631 79.369 79.9183C79.285 80.5734 79.3373 81.2389 79.5225 81.8729C79.7077 82.5069 80.0219 83.0957 80.4453 83.6023C80.8687 84.1089 81.3921 84.5224 81.9828 84.8169C82.3307 85.0097 82.7313 85.0855 83.1256 85.0332C83.5198 84.981 83.8869 84.8033 84.1727 84.5265C84.9357 83.6415 85.3445 82.5051 85.3204 81.3364C85.2963 80.1676 84.841 79.0491 84.0422 78.1964C83.8451 77.9922 83.6033 77.8367 83.3359 77.7423C83.0684 77.6478 82.7827 77.617 82.5013 77.6522C82.2199 77.6874 81.9505 77.7877 81.7145 77.9452C81.4785 78.1026 81.2824 78.3129 81.1416 78.5594C80.272 79.8262 79.6744 81.2598 79.3868 82.7697C79.2741 83.2332 79.3438 83.7223 79.5813 84.1358C79.8189 84.5493 80.2062 84.8555 80.6631 84.9911C81.1246 85.116 81.6166 85.0533 82.0322 84.8167C82.4478 84.5802 82.7532 84.1889 82.882 83.728C83.1119 82.5254 83.6074 81.3895 84.3322 80.4032L81.4317 80.7662C81.5808 80.9229 81.6743 81.1243 81.6979 81.3394C81.7215 81.5545 81.6738 81.7714 81.5622 81.9567L83.7666 81.6808C83.5676 81.5972 83.3819 81.4847 83.2155 81.3469C83.1196 81.2151 83.037 81.0741 82.969 80.9259C82.8925 80.7598 82.8629 80.576 82.8833 80.3943C82.9038 80.2126 82.9735 80.0399 83.085 79.8951C84.3467 77.9206 81.1996 76.0912 79.9669 78.0657H80.0104Z" fill="#015CCA"/>
<path d="M69.5826 102.093C72.8457 103.197 80.9526 106.173 84.0852 103.415C85.782 101.963 85.1149 99.2622 85.8835 97.4038C86.8117 95.1535 86.3476 95.3567 88.784 95.4729C90.1038 95.4729 90.1038 96.0827 91.467 95.8358C95.4118 95.1244 94.1645 91.6255 95.5423 88.9976C96.2674 87.5458 97.9932 86.8779 98.6313 85.1212C99.3036 82.8423 99.467 80.4433 99.1099 78.0942C98.8924 75.7858 95.2667 75.7712 95.4843 78.0942C95.7598 81.0995 95.6438 83.3209 93.7149 85.8616C93.1928 86.544 92.5257 86.6892 92.1052 87.5022C91.2205 89.2154 91.9021 91.2044 89.0741 91.6835C88.1749 91.8287 86.9712 90.7689 85.8545 90.9431C83.4326 91.3206 82.954 93.4548 82.4899 95.5164C82.0403 97.8684 82.4899 99.9591 80.2855 100.583C77.6315 101.309 73.0342 99.4509 70.4382 98.5943C68.2193 97.8394 67.2766 101.353 69.481 102.093H69.5826Z" fill="#015CCA"/>
<path d="M58.3723 106.159C58.49 108.093 58.49 110.033 58.3723 111.967C58.2272 113.839 58.1982 113.999 56.2984 113.593C55.1104 113.306 53.9612 112.877 52.8758 112.315C49.1541 110.255 45.5605 107.972 42.1148 105.477C40.157 104.185 38.3441 107.321 40.2875 108.613C45.3924 111.967 51.1645 117.063 57.5601 117.411C63.3612 117.73 62.172 110.152 62.0124 106.203C61.9109 103.88 58.2853 103.865 58.3868 106.203L58.3723 106.159Z" fill="#015CCA"/>
<path d="M40.2885 105.636C39.0658 106.315 37.6987 106.692 36.3011 106.735C34.9035 106.778 33.516 106.486 32.254 105.883C30.1656 104.896 28.3238 108.017 30.4267 109.019C32.2514 109.921 34.2666 110.37 36.3014 110.327C38.3362 110.284 40.3307 109.751 42.1158 108.772C44.1752 107.669 42.3478 104.533 40.2885 105.636V105.636Z" fill="#015CCA"/>
<path d="M41.8544 108.904C42.854 105.581 43.2037 102.096 42.8841 98.6396C42.6665 96.3456 39.0409 96.3166 39.2584 98.6396C39.5639 101.766 39.2585 104.922 38.3592 107.931C38.2304 108.395 38.2909 108.892 38.5276 109.311C38.7642 109.73 39.1575 110.038 39.621 110.167C40.0845 110.296 40.5802 110.236 40.999 109.999C41.4178 109.762 41.7255 109.368 41.8544 108.904V108.904Z" fill="#015CCA"/>
<path d="M105.303 78.3414C109.378 85.0054 117.166 93.3245 126.099 89.9562C134.525 86.8057 132.147 71.0822 131.9 64.3601C131.894 64.0835 131.825 63.812 131.699 63.5658C131.573 63.3195 131.393 63.1048 131.173 62.9374C130.953 62.7701 130.698 62.6545 130.427 62.5992C130.157 62.5439 129.877 62.5502 129.609 62.6179C127.259 63.2857 118.775 61.8484 120.487 57.5799L118.746 58.9011H119.153C121.473 59.1479 121.458 55.5183 119.153 55.2715H118.746C118.349 55.2749 117.964 55.4068 117.647 55.6475C117.331 55.8882 117.101 56.2249 116.992 56.6072C114.091 63.6922 125.693 67.5106 130.566 66.1168L128.217 64.4036C128.449 69.7029 129.362 76.7008 127.738 81.8259C123.808 94.1811 111.785 81.942 108.421 76.5266C107.202 74.5376 104.07 76.3524 105.288 78.3559L105.303 78.3414Z" fill="#015CCA"/>
<path d="M130.204 65.188C131.928 63.7242 133.333 61.9209 134.331 59.8902C135.329 57.8596 135.898 55.645 136.005 53.3844C136.15 51.0469 132.524 51.0614 132.379 53.3844C132.268 55.1658 131.79 56.9049 130.973 58.4918C130.157 60.0786 129.021 61.4787 127.637 62.6037C125.853 64.0555 128.42 66.6543 130.204 65.1734V65.188Z" fill="#015CCA"/>
</g>
<defs>
<clipPath id="clip0">
<rect width="234" height="196" fill="white"/>
</clipPath>
</defs>
</svg>
