<svg width="490" height="94" viewBox="0 0 490 94" fill="none" xmlns="http://www.w3.org/2000/svg">
<g clip-path="url(#clip0)">
<path d="M21.2282 25.0753C22.0944 32.8866 22.9645 40.6998 23.8383 48.5149C24.2486 52.2344 24.6646 55.9558 25.0864 59.6791C25.4283 62.711 25.2858 66.3925 26.5795 69.2192C28.9388 74.3824 37.4416 74.1715 42.1945 74.3482C48.8509 74.5989 56.1455 73.9948 62.4542 71.7096C64.5514 70.9516 66.5973 69.8745 68.005 68.1021C70.0167 65.5604 70.1079 62.067 70.427 58.9839C71.2144 51.3439 71.2354 43.6443 70.4897 36.0001C69.5095 25.9016 66.2725 13.8427 54.168 13.1132C46.7993 12.6687 38.9917 15.6322 31.9422 17.3418C27.3033 18.4816 20.4417 20.2711 20.5842 26.2493C20.6298 28.0786 23.4793 28.0843 23.4337 26.2493C23.314 21.3311 31.264 20.4363 34.7517 19.5929C40.1657 18.2822 45.745 16.4243 51.3185 16.0026C56.8009 15.5923 61.474 17.5242 64.2152 22.4196C66.5973 26.6881 67.2698 31.7544 67.7143 36.5472C68.2537 42.371 68.349 48.2274 67.9993 54.0657C67.8662 57.0083 67.5618 59.9406 67.0874 62.8478C66.4834 66.2101 64.4431 67.9768 61.2916 69.1166C55.9232 70.9744 49.9679 71.5842 44.3202 71.5671C41.4075 71.5647 38.4988 71.3475 35.618 70.9174C32.1587 70.3874 29.258 69.8289 28.6368 65.9195C26.494 52.4415 25.5651 38.6558 24.0777 25.0981C23.8782 23.2915 21.023 23.2744 21.2282 25.0981V25.0753Z" fill="#015CCA"/>
<path d="M39.6533 39.1225C33.8062 43.864 29.6859 52.8512 35.0486 59.3992C39.8072 65.2121 49.9057 68.5175 56.3967 63.662C62.6371 58.9832 63.0132 50.2183 58.7846 44.0748C54.556 37.9314 45.791 33.6173 39.2829 39.0655C37.8752 40.2394 39.8984 42.2455 41.2946 41.0772C46.6573 36.5921 54.1286 41.5844 57.0122 46.588C59.9586 51.7171 59.2918 59.0459 53.6442 62.0663C48.31 64.9158 40.7532 61.9523 37.1971 57.5072C32.8659 52.1046 37.0603 44.8613 41.665 41.1285C43.0898 39.9887 41.0666 37.9713 39.6533 39.1167V39.1225Z" fill="#015CCA"/>
<path d="M55.792 27.7302C55.5673 27.9348 55.3857 28.1823 55.2581 28.4581C55.1304 28.7339 55.0591 29.0324 55.0485 29.3361C55.0379 29.6399 55.0881 29.9426 55.1962 30.2267C55.3043 30.5107 55.4681 30.7702 55.678 30.99C56.1331 31.4174 56.7091 31.6938 57.3272 31.7815C57.9453 31.8692 58.5755 31.764 59.1315 31.4801C60.0929 31.0084 60.8292 30.1762 61.1803 29.1645C61.5314 28.1528 61.4689 27.0434 61.0065 26.0776C60.0263 24.2083 57.456 23.7638 55.735 24.858C55.2786 25.1644 54.8997 25.5727 54.6283 26.0507C54.3569 26.5286 54.2003 27.0632 54.1711 27.6121C54.1418 28.161 54.2405 28.7092 54.4595 29.2133C54.6785 29.7175 55.0118 30.1638 55.4329 30.517C55.8986 30.8956 56.4463 31.1601 57.0323 31.2895C57.6183 31.4189 58.2264 31.4096 58.8082 31.2623C59.39 31.1151 59.9293 30.834 60.3832 30.4414C60.8371 30.0488 61.193 29.5556 61.4225 29.0011C62.2318 26.9039 60.9837 24.2995 58.6186 24.1399C56.1282 23.9747 53.615 26.7215 54.8516 29.1436C56.0883 31.5656 60.0548 31.0926 60.4252 28.2603C60.4741 27.9313 60.457 27.5958 60.3748 27.2735C60.2926 26.9512 60.1469 26.6486 59.9463 26.3833C59.7457 26.1179 59.4942 25.8953 59.2066 25.7283C58.9189 25.5613 58.6009 25.4534 58.271 25.4108C57.9375 25.3631 57.5976 25.392 57.277 25.4954C56.9564 25.5988 56.6635 25.7739 56.4207 26.0073C56.1779 26.2408 55.9915 26.5266 55.8756 26.8429C55.7598 27.1592 55.7175 27.4977 55.7521 27.8328C55.7771 28.162 55.8799 28.4806 56.052 28.7623C56.2242 29.0441 56.4607 29.2809 56.7422 29.4534C57.0238 29.6258 57.3422 29.729 57.6714 29.7544C58.0006 29.7798 58.3311 29.7267 58.6357 29.5995C58.9373 29.4567 59.2009 29.2445 59.4047 28.9803C59.6086 28.7161 59.7471 28.4075 59.8088 28.0795C59.8705 27.7515 59.8537 27.4136 59.7597 27.0934C59.6658 26.7732 59.4974 26.4798 59.2683 26.2371C59.0453 26.0208 58.7584 25.8824 58.4504 25.8423C58.1423 25.8023 57.8295 25.8628 57.5586 26.0149C57.2163 26.231 56.9424 26.5398 56.7688 26.9055C56.5952 27.2712 56.529 27.6787 56.578 28.0805C56.6269 28.4823 56.789 28.862 57.0454 29.1753C57.3017 29.4886 57.6418 29.7227 58.026 29.8502C58.3901 29.9467 58.7776 29.8962 59.1048 29.7096C59.4321 29.5231 59.673 29.2154 59.7755 28.8529C59.8677 28.4897 59.816 28.1049 59.6312 27.7789C59.4465 27.4529 59.1429 27.2109 58.7839 27.1034L58.6186 27.035L59.2512 27.4054C59.3068 27.492 59.3443 27.5889 59.3615 27.6904C59.3787 27.7918 59.3752 27.8957 59.3513 27.9957C59.3273 28.0958 59.2834 28.19 59.2221 28.2727C59.1609 28.3553 59.0835 28.4248 58.9948 28.4768L57.2851 28.2545L57.4048 28.3799L57.04 27.753C57.2053 27.565 57.2281 27.4111 57.1141 27.2914L57.741 26.921C58.5958 27.0179 58.7611 27.3028 58.2368 27.7701C58.1513 28.2374 58.0031 28.34 57.8037 28.1064C57.7319 28.0604 57.6667 28.0048 57.6099 27.9411C57.57 27.8955 57.4276 28.0323 57.3934 27.8157C57.3193 27.3655 58.3451 26.8013 58.687 27.0749C59.4963 27.7302 58.157 29.0353 57.3478 28.3799C56.5385 27.7245 57.4447 26.7842 58.2425 27.166C58.4262 27.2843 58.5564 27.4697 58.6054 27.6826C58.6544 27.8955 58.6182 28.1192 58.5047 28.3058C58.4241 28.4961 58.299 28.6642 58.1399 28.7959C58.0658 28.8529 57.912 28.8814 57.8607 28.9384H57.7239C57.5529 29.1436 57.5928 29.4057 57.8436 29.7192C59.2398 28.5281 57.211 26.5164 55.8262 27.7017L55.792 27.7302Z" fill="#015CCA"/>
<path d="M51.7415 0.0251477C32.4734 -0.482057 13.2168 9.02945 4.486 26.7075C-3.60647 43.109 -0.7855 63.5625 13.3136 75.8152C21.0984 82.5741 31.0601 84.8536 41.0218 86.3126C51.542 87.8684 62.5751 88.3528 72.6338 84.3407C76.8783 82.7004 80.7298 80.1846 83.9376 76.9571C87.1455 73.7296 89.6377 69.8628 91.2521 65.6084C94.6316 56.8833 94.9735 46.9729 93.3892 37.8261C91.6397 27.7276 86.9665 17.8799 79.2616 10.9557C71.1116 3.74363 60.4694 -0.00413428 49.5987 0.50956C47.775 0.595044 47.7636 3.44451 49.5987 3.35902C68.1259 2.50988 83.7296 14.6429 89.0865 32.1044C93.9933 48.0899 92.1697 69.951 76.4691 79.3371C68.0461 84.3692 57.9989 85.1842 48.419 84.3749C38.8391 83.5657 28.1024 82.1239 19.7648 77.0689C4.94762 68.0874 -0.580343 49.2582 4.85073 33.2385C11.5527 13.4803 31.5217 2.36742 51.7415 2.90312C53.5765 2.94871 53.5765 0.0992441 51.7415 0.0536528V0.0251477Z" fill="#015CCA"/>
</g>
<path d="M139.508 65.068C135.908 65.068 133.064 64.144 130.976 62.296C128.912 60.448 127.688 57.772 127.304 54.268C127.232 53.572 127.196 52.528 127.196 51.136C127.196 49.72 127.232 48.712 127.304 48.112C127.712 44.656 128.96 41.98 131.048 40.084C133.136 38.164 135.956 37.204 139.508 37.204C143.588 37.204 146.684 38.14 148.796 40.012C150.932 41.86 152.084 44.56 152.252 48.112C152.3 49.12 152.324 49.888 152.324 50.416C152.324 51.592 152.3 52.42 152.252 52.9C152.036 56.404 150.488 58.156 147.608 58.156C146.6 58.156 145.784 57.928 145.16 57.472C144.56 57.016 144.104 56.536 143.792 56.032C142.808 57.688 141.308 58.516 139.292 58.516C137.468 58.516 136.028 57.88 134.972 56.608C133.916 55.312 133.388 53.5 133.388 51.172C133.388 48.844 133.916 47.032 134.972 45.736C136.052 44.44 137.492 43.792 139.292 43.792C140.204 43.792 140.948 43.96 141.524 44.296C142.1 44.632 142.592 45.052 143 45.556V44.872C143 44.632 143.072 44.44 143.216 44.296C143.36 44.152 143.552 44.08 143.792 44.08H144.404C144.644 44.08 144.836 44.152 144.98 44.296C145.124 44.44 145.196 44.632 145.196 44.872V52.72C145.196 53.8 145.412 54.628 145.844 55.204C146.3 55.78 146.888 56.068 147.608 56.068C148.544 56.068 149.18 55.72 149.516 55.024C149.852 54.304 150.032 53.524 150.056 52.684C150.104 52.204 150.128 51.436 150.128 50.38C150.128 49.468 150.104 48.772 150.056 48.292C149.84 45.316 148.892 43.072 147.212 41.56C145.556 40.048 142.988 39.292 139.508 39.292C136.604 39.292 134.288 40.072 132.56 41.632C130.856 43.192 129.836 45.412 129.5 48.292C129.428 48.892 129.392 49.84 129.392 51.136C129.392 52.408 129.428 53.392 129.5 54.088C129.812 56.92 130.82 59.116 132.524 60.676C134.252 62.212 136.58 62.98 139.508 62.98C141.14 62.98 142.484 62.836 143.54 62.548C144.62 62.26 145.34 61.996 145.7 61.756C146.084 61.516 146.684 61.084 147.5 60.46C147.524 60.436 147.608 60.364 147.752 60.244C147.92 60.1 148.124 60.028 148.364 60.028H149.3C149.516 60.028 149.696 60.1 149.84 60.244C149.984 60.388 150.056 60.568 150.056 60.784C150.056 60.952 149.996 61.12 149.876 61.288C148.748 62.44 147.38 63.352 145.772 64.024C144.164 64.72 142.076 65.068 139.508 65.068ZM139.292 56.428C140.636 56.428 141.584 55.972 142.136 55.06C142.712 54.124 143 52.828 143 51.172C143 49.516 142.712 48.22 142.136 47.284C141.584 46.348 140.636 45.88 139.292 45.88C137.996 45.88 137.048 46.36 136.448 47.32C135.872 48.256 135.584 49.54 135.584 51.172C135.584 52.684 135.884 53.944 136.484 54.952C137.084 55.936 138.02 56.428 139.292 56.428ZM164.426 61.36C161.834 61.36 159.914 60.52 158.666 58.84C157.442 57.136 156.794 55.072 156.722 52.648L156.686 51.64L156.722 50.632C156.794 48.208 157.442 46.156 158.666 44.476C159.914 42.772 161.834 41.92 164.426 41.92C167.042 41.92 169.058 42.868 170.474 44.764V36.232C170.474 35.992 170.546 35.8 170.69 35.656C170.834 35.512 171.026 35.44 171.266 35.44H171.878C172.118 35.44 172.31 35.512 172.454 35.656C172.598 35.8 172.67 35.992 172.67 36.232V60.208C172.67 60.448 172.598 60.64 172.454 60.784C172.31 60.928 172.118 61 171.878 61H171.266C171.026 61 170.834 60.928 170.69 60.784C170.546 60.64 170.474 60.448 170.474 60.208V58.516C169.082 60.412 167.066 61.36 164.426 61.36ZM164.642 59.272C166.538 59.272 167.966 58.648 168.926 57.4C169.886 56.128 170.402 54.64 170.474 52.936C170.498 52.696 170.51 52.228 170.51 51.532C170.51 50.836 170.498 50.368 170.474 50.128C170.45 49.096 170.222 48.124 169.79 47.212C169.358 46.276 168.71 45.508 167.846 44.908C166.982 44.308 165.914 44.008 164.642 44.008C162.698 44.008 161.27 44.632 160.358 45.88C159.47 47.104 158.99 48.688 158.918 50.632L158.882 51.64C158.882 53.872 159.314 55.708 160.178 57.148C161.042 58.564 162.53 59.272 164.642 59.272ZM183.581 61.36C182.429 61.36 181.361 61.12 180.377 60.64C179.393 60.16 178.601 59.512 178.001 58.696C177.425 57.88 177.137 56.98 177.137 55.996C177.137 54.412 177.773 53.116 179.045 52.108C180.341 51.1 182.081 50.452 184.265 50.164L189.953 49.372V48.112C189.953 46.792 189.545 45.784 188.729 45.088C187.937 44.368 186.713 44.008 185.057 44.008C183.833 44.008 182.825 44.248 182.033 44.728C181.265 45.208 180.773 45.784 180.557 46.456C180.461 46.744 180.341 46.948 180.197 47.068C180.077 47.164 179.909 47.212 179.693 47.212H179.189C178.973 47.212 178.781 47.14 178.613 46.996C178.469 46.828 178.397 46.636 178.397 46.42C178.397 45.892 178.637 45.28 179.117 44.584C179.597 43.864 180.341 43.24 181.349 42.712C182.357 42.184 183.593 41.92 185.057 41.92C187.625 41.92 189.449 42.532 190.529 43.756C191.609 44.98 192.149 46.468 192.149 48.22V60.208C192.149 60.448 192.077 60.64 191.933 60.784C191.789 60.928 191.597 61 191.357 61H190.745C190.505 61 190.313 60.928 190.169 60.784C190.025 60.64 189.953 60.448 189.953 60.208V58.516C189.425 59.308 188.645 59.98 187.613 60.532C186.605 61.084 185.261 61.36 183.581 61.36ZM183.941 59.272C185.693 59.272 187.133 58.696 188.261 57.544C189.389 56.392 189.953 54.736 189.953 52.576V51.352L185.309 52C183.341 52.264 181.853 52.72 180.845 53.368C179.837 54.016 179.333 54.832 179.333 55.816C179.333 56.92 179.789 57.772 180.701 58.372C181.637 58.972 182.717 59.272 183.941 59.272ZM203.782 61.36C202.222 61.36 200.902 61.096 199.822 60.568C198.766 60.04 197.962 59.44 197.41 58.768C196.882 58.096 196.618 57.556 196.618 57.148C196.618 56.932 196.702 56.764 196.87 56.644C197.038 56.5 197.218 56.428 197.41 56.428H197.95C198.118 56.428 198.25 56.464 198.346 56.536C198.466 56.584 198.598 56.704 198.742 56.896C199.27 57.64 199.906 58.228 200.65 58.66C201.418 59.068 202.462 59.272 203.782 59.272C205.27 59.272 206.47 58.996 207.382 58.444C208.294 57.868 208.75 57.052 208.75 55.996C208.75 55.348 208.558 54.82 208.174 54.412C207.814 54.004 207.214 53.656 206.374 53.368C205.558 53.056 204.334 52.708 202.702 52.324C200.566 51.844 199.102 51.184 198.31 50.344C197.542 49.504 197.158 48.436 197.158 47.14C197.158 46.252 197.398 45.412 197.878 44.62C198.382 43.828 199.114 43.18 200.074 42.676C201.058 42.172 202.234 41.92 203.602 41.92C205.042 41.92 206.254 42.172 207.238 42.676C208.246 43.156 208.99 43.72 209.47 44.368C209.974 45.016 210.226 45.544 210.226 45.952C210.226 46.168 210.142 46.348 209.974 46.492C209.83 46.612 209.65 46.672 209.434 46.672H208.894C208.558 46.672 208.294 46.516 208.102 46.204C207.622 45.484 207.07 44.944 206.446 44.584C205.846 44.2 204.898 44.008 203.602 44.008C202.21 44.008 201.154 44.296 200.434 44.872C199.714 45.448 199.354 46.204 199.354 47.14C199.354 47.716 199.498 48.196 199.786 48.58C200.074 48.964 200.614 49.324 201.406 49.66C202.198 49.972 203.35 50.296 204.862 50.632C207.094 51.136 208.666 51.808 209.578 52.648C210.49 53.488 210.946 54.604 210.946 55.996C210.946 56.98 210.67 57.88 210.118 58.696C209.566 59.512 208.75 60.16 207.67 60.64C206.59 61.12 205.294 61.36 203.782 61.36ZM216.389 61C216.149 61 215.957 60.928 215.813 60.784C215.669 60.64 215.597 60.448 215.597 60.208V36.232C215.597 35.992 215.669 35.8 215.813 35.656C215.957 35.512 216.149 35.44 216.389 35.44H217.001C217.241 35.44 217.433 35.512 217.577 35.656C217.721 35.8 217.793 35.992 217.793 36.232V44.764C218.513 43.828 219.329 43.12 220.241 42.64C221.177 42.16 222.377 41.92 223.841 41.92C226.193 41.92 228.005 42.676 229.277 44.188C230.549 45.676 231.185 47.608 231.185 49.984V60.208C231.185 60.448 231.113 60.64 230.969 60.784C230.825 60.928 230.633 61 230.393 61H229.781C229.541 61 229.349 60.928 229.205 60.784C229.061 60.64 228.989 60.448 228.989 60.208V50.164C228.989 48.22 228.509 46.708 227.549 45.628C226.613 44.548 225.257 44.008 223.481 44.008C221.753 44.008 220.373 44.56 219.341 45.664C218.309 46.744 217.793 48.244 217.793 50.164V60.208C217.793 60.448 217.721 60.64 217.577 60.784C217.433 60.928 217.241 61 217.001 61H216.389ZM241.87 61.36C240.718 61.36 239.65 61.12 238.666 60.64C237.682 60.16 236.89 59.512 236.29 58.696C235.714 57.88 235.426 56.98 235.426 55.996C235.426 54.412 236.062 53.116 237.334 52.108C238.63 51.1 240.37 50.452 242.554 50.164L248.242 49.372V48.112C248.242 46.792 247.834 45.784 247.018 45.088C246.226 44.368 245.002 44.008 243.346 44.008C242.122 44.008 241.114 44.248 240.322 44.728C239.554 45.208 239.062 45.784 238.846 46.456C238.75 46.744 238.63 46.948 238.486 47.068C238.366 47.164 238.198 47.212 237.982 47.212H237.478C237.262 47.212 237.07 47.14 236.902 46.996C236.758 46.828 236.686 46.636 236.686 46.42C236.686 45.892 236.926 45.28 237.406 44.584C237.886 43.864 238.63 43.24 239.638 42.712C240.646 42.184 241.882 41.92 243.346 41.92C245.914 41.92 247.738 42.532 248.818 43.756C249.898 44.98 250.438 46.468 250.438 48.22V60.208C250.438 60.448 250.366 60.64 250.222 60.784C250.078 60.928 249.886 61 249.646 61H249.034C248.794 61 248.602 60.928 248.458 60.784C248.314 60.64 248.242 60.448 248.242 60.208V58.516C247.714 59.308 246.934 59.98 245.902 60.532C244.894 61.084 243.55 61.36 241.87 61.36ZM242.23 59.272C243.982 59.272 245.422 58.696 246.55 57.544C247.678 56.392 248.242 54.736 248.242 52.576V51.352L243.598 52C241.63 52.264 240.142 52.72 239.134 53.368C238.126 54.016 237.622 54.832 237.622 55.816C237.622 56.92 238.078 57.772 238.99 58.372C239.926 58.972 241.006 59.272 242.23 59.272ZM256.635 61C256.395 61 256.203 60.928 256.059 60.784C255.915 60.64 255.843 60.448 255.843 60.208V58.48C255.843 58.24 255.915 58.048 256.059 57.904C256.203 57.736 256.395 57.652 256.635 57.652H258.363C258.603 57.652 258.795 57.736 258.939 57.904C259.107 58.048 259.191 58.24 259.191 58.48V60.208C259.191 60.448 259.107 60.64 258.939 60.784C258.795 60.928 258.603 61 258.363 61H256.635ZM271.235 61.36C268.955 61.36 267.119 60.616 265.727 59.128C264.335 57.616 263.543 55.6 263.351 53.08L263.315 51.64L263.351 50.2C263.543 47.704 264.323 45.7 265.691 44.188C267.083 42.676 268.931 41.92 271.235 41.92C273.731 41.92 275.675 42.748 277.067 44.404C278.483 46.06 279.191 48.328 279.191 51.208V51.748C279.191 51.988 279.107 52.18 278.939 52.324C278.795 52.468 278.603 52.54 278.363 52.54H265.547V52.9C265.595 54.028 265.847 55.084 266.303 56.068C266.783 57.028 267.443 57.808 268.283 58.408C269.123 58.984 270.107 59.272 271.235 59.272C272.555 59.272 273.623 59.02 274.439 58.516C275.279 57.988 275.879 57.46 276.239 56.932C276.455 56.644 276.611 56.464 276.707 56.392C276.827 56.32 277.031 56.284 277.319 56.284H277.895C278.111 56.284 278.291 56.344 278.435 56.464C278.579 56.584 278.651 56.74 278.651 56.932C278.651 57.436 278.327 58.048 277.679 58.768C277.055 59.464 276.179 60.076 275.051 60.604C273.923 61.108 272.651 61.36 271.235 61.36ZM276.995 50.524V50.38C276.995 48.532 276.467 47.008 275.411 45.808C274.379 44.608 272.987 44.008 271.235 44.008C269.483 44.008 268.091 44.608 267.059 45.808C266.051 47.008 265.547 48.532 265.547 50.38V50.524H276.995ZM284.731 61C284.491 61 284.299 60.928 284.155 60.784C284.011 60.64 283.939 60.448 283.939 60.208V43.108C283.939 42.868 284.011 42.676 284.155 42.532C284.299 42.364 284.491 42.28 284.731 42.28H285.307C285.547 42.28 285.739 42.364 285.883 42.532C286.051 42.676 286.135 42.868 286.135 43.108V44.764C286.999 43.108 288.631 42.28 291.031 42.28H292.363C292.603 42.28 292.795 42.352 292.939 42.496C293.083 42.64 293.155 42.832 293.155 43.072V43.576C293.155 43.816 293.083 44.008 292.939 44.152C292.795 44.296 292.603 44.368 292.363 44.368H290.815C289.375 44.368 288.235 44.788 287.395 45.628C286.555 46.468 286.135 47.608 286.135 49.048V60.208C286.135 60.448 286.051 60.64 285.883 60.784C285.739 60.928 285.547 61 285.307 61H284.731ZM301.214 61.36C300.062 61.36 298.994 61.12 298.01 60.64C297.026 60.16 296.234 59.512 295.634 58.696C295.058 57.88 294.77 56.98 294.77 55.996C294.77 54.412 295.406 53.116 296.678 52.108C297.974 51.1 299.714 50.452 301.898 50.164L307.586 49.372V48.112C307.586 46.792 307.178 45.784 306.362 45.088C305.57 44.368 304.346 44.008 302.69 44.008C301.466 44.008 300.458 44.248 299.666 44.728C298.898 45.208 298.406 45.784 298.19 46.456C298.094 46.744 297.974 46.948 297.83 47.068C297.71 47.164 297.542 47.212 297.326 47.212H296.822C296.606 47.212 296.414 47.14 296.246 46.996C296.102 46.828 296.03 46.636 296.03 46.42C296.03 45.892 296.27 45.28 296.75 44.584C297.23 43.864 297.974 43.24 298.982 42.712C299.99 42.184 301.226 41.92 302.69 41.92C305.258 41.92 307.082 42.532 308.162 43.756C309.242 44.98 309.782 46.468 309.782 48.22V60.208C309.782 60.448 309.71 60.64 309.566 60.784C309.422 60.928 309.23 61 308.99 61H308.378C308.138 61 307.946 60.928 307.802 60.784C307.658 60.64 307.586 60.448 307.586 60.208V58.516C307.058 59.308 306.278 59.98 305.246 60.532C304.238 61.084 302.894 61.36 301.214 61.36ZM301.574 59.272C303.326 59.272 304.766 58.696 305.894 57.544C307.022 56.392 307.586 54.736 307.586 52.576V51.352L302.942 52C300.974 52.264 299.486 52.72 298.478 53.368C297.47 54.016 296.966 54.832 296.966 55.816C296.966 56.92 297.422 57.772 298.334 58.372C299.27 58.972 300.35 59.272 301.574 59.272ZM316.303 61C316.063 61 315.871 60.928 315.727 60.784C315.583 60.64 315.511 60.448 315.511 60.208V36.232C315.511 35.992 315.583 35.8 315.727 35.656C315.871 35.512 316.063 35.44 316.303 35.44H316.915C317.155 35.44 317.347 35.512 317.491 35.656C317.635 35.8 317.707 35.992 317.707 36.232V60.208C317.707 60.448 317.635 60.64 317.491 60.784C317.347 60.928 317.155 61 316.915 61H316.303ZM328.601 61.36C327.449 61.36 326.381 61.12 325.397 60.64C324.413 60.16 323.621 59.512 323.021 58.696C322.445 57.88 322.157 56.98 322.157 55.996C322.157 54.412 322.793 53.116 324.065 52.108C325.361 51.1 327.101 50.452 329.285 50.164L334.973 49.372V48.112C334.973 46.792 334.565 45.784 333.749 45.088C332.957 44.368 331.733 44.008 330.077 44.008C328.853 44.008 327.845 44.248 327.053 44.728C326.285 45.208 325.793 45.784 325.577 46.456C325.481 46.744 325.361 46.948 325.217 47.068C325.097 47.164 324.929 47.212 324.713 47.212H324.209C323.993 47.212 323.801 47.14 323.633 46.996C323.489 46.828 323.417 46.636 323.417 46.42C323.417 45.892 323.657 45.28 324.137 44.584C324.617 43.864 325.361 43.24 326.369 42.712C327.377 42.184 328.613 41.92 330.077 41.92C332.645 41.92 334.469 42.532 335.549 43.756C336.629 44.98 337.169 46.468 337.169 48.22V60.208C337.169 60.448 337.097 60.64 336.953 60.784C336.809 60.928 336.617 61 336.377 61H335.765C335.525 61 335.333 60.928 335.189 60.784C335.045 60.64 334.973 60.448 334.973 60.208V58.516C334.445 59.308 333.665 59.98 332.633 60.532C331.625 61.084 330.281 61.36 328.601 61.36ZM328.961 59.272C330.713 59.272 332.153 58.696 333.281 57.544C334.409 56.392 334.973 54.736 334.973 52.576V51.352L330.329 52C328.361 52.264 326.873 52.72 325.865 53.368C324.857 54.016 324.353 54.832 324.353 55.816C324.353 56.92 324.809 57.772 325.721 58.372C326.657 58.972 327.737 59.272 328.961 59.272ZM348.801 61.36C347.241 61.36 345.921 61.096 344.841 60.568C343.785 60.04 342.981 59.44 342.429 58.768C341.901 58.096 341.637 57.556 341.637 57.148C341.637 56.932 341.721 56.764 341.889 56.644C342.057 56.5 342.237 56.428 342.429 56.428H342.969C343.137 56.428 343.269 56.464 343.365 56.536C343.485 56.584 343.617 56.704 343.761 56.896C344.289 57.64 344.925 58.228 345.669 58.66C346.437 59.068 347.481 59.272 348.801 59.272C350.289 59.272 351.489 58.996 352.401 58.444C353.313 57.868 353.769 57.052 353.769 55.996C353.769 55.348 353.577 54.82 353.193 54.412C352.833 54.004 352.233 53.656 351.393 53.368C350.577 53.056 349.353 52.708 347.721 52.324C345.585 51.844 344.121 51.184 343.329 50.344C342.561 49.504 342.177 48.436 342.177 47.14C342.177 46.252 342.417 45.412 342.897 44.62C343.401 43.828 344.133 43.18 345.093 42.676C346.077 42.172 347.253 41.92 348.621 41.92C350.061 41.92 351.273 42.172 352.257 42.676C353.265 43.156 354.009 43.72 354.489 44.368C354.993 45.016 355.245 45.544 355.245 45.952C355.245 46.168 355.161 46.348 354.993 46.492C354.849 46.612 354.669 46.672 354.453 46.672H353.913C353.577 46.672 353.313 46.516 353.121 46.204C352.641 45.484 352.089 44.944 351.465 44.584C350.865 44.2 349.917 44.008 348.621 44.008C347.229 44.008 346.173 44.296 345.453 44.872C344.733 45.448 344.373 46.204 344.373 47.14C344.373 47.716 344.517 48.196 344.805 48.58C345.093 48.964 345.633 49.324 346.425 49.66C347.217 49.972 348.369 50.296 349.881 50.632C352.113 51.136 353.685 51.808 354.597 52.648C355.509 53.488 355.965 54.604 355.965 55.996C355.965 56.98 355.689 57.88 355.137 58.696C354.585 59.512 353.769 60.16 352.689 60.64C351.609 61.12 350.313 61.36 348.801 61.36ZM361.408 61C361.168 61 360.976 60.928 360.832 60.784C360.688 60.64 360.616 60.448 360.616 60.208V36.232C360.616 35.992 360.688 35.8 360.832 35.656C360.976 35.512 361.168 35.44 361.408 35.44H362.02C362.26 35.44 362.452 35.512 362.596 35.656C362.74 35.8 362.812 35.992 362.812 36.232V44.764C363.532 43.828 364.348 43.12 365.26 42.64C366.196 42.16 367.396 41.92 368.86 41.92C371.212 41.92 373.024 42.676 374.296 44.188C375.568 45.676 376.204 47.608 376.204 49.984V60.208C376.204 60.448 376.132 60.64 375.988 60.784C375.844 60.928 375.652 61 375.412 61H374.8C374.56 61 374.368 60.928 374.224 60.784C374.08 60.64 374.008 60.448 374.008 60.208V50.164C374.008 48.22 373.528 46.708 372.568 45.628C371.632 44.548 370.276 44.008 368.5 44.008C366.772 44.008 365.392 44.56 364.36 45.664C363.328 46.744 362.812 48.244 362.812 50.164V60.208C362.812 60.448 362.74 60.64 362.596 60.784C362.452 60.928 362.26 61 362.02 61H361.408Z" fill="#015CCA"/>
<defs>
<clipPath id="clip0">
<rect width="94.3001" height="87.45" fill="white"/>
</clipPath>
</defs>
</svg>
