<svg width="146" height="156" viewBox="0 0 146 156" fill="none" xmlns="http://www.w3.org/2000/svg">
<path d="M130.079 102.419C124.264 112.777 117.02 123.257 106.53 129.334C101.399 132.306 94.8772 134.546 88.8756 133.559C82.8741 132.571 79.2718 127.614 75.2852 123.538C68.0394 116.15 58.393 113.909 48.6904 111.49C43.7595 110.264 38.783 108.918 34.2772 106.535C29.2063 103.793 24.9328 99.7821 21.8743 94.8942C8.72841 74.232 17.835 47.2999 33.0358 30.4249C41.3068 21.2373 52.1997 14.8516 64.773 14.5216C71.0597 14.3566 77.2955 15.4658 83.3398 17.171C89.1485 18.8205 95.0423 20.8476 100.418 23.6225C106.889 26.9704 111.503 31.8037 113.629 38.8948C115.803 46.1851 116.185 53.9933 117.722 61.4368C120.827 76.5066 125.839 91.1195 132.636 104.922C133.282 106.235 135.249 105.092 134.603 103.78C127.9 90.1588 122.963 75.7379 119.91 60.8668C117.317 48.1869 117.927 33.0939 106.432 24.6581C101.532 21.062 95.6486 18.877 89.955 16.8961C83.8082 14.7474 77.4675 13.0777 70.9785 12.4725C58.2531 11.257 46.4022 15.2316 36.7431 23.5748C19.113 38.811 7.31281 66.2484 16.3033 88.9763C20.4986 99.5745 28.5463 107.401 39.2801 111.168C49.6439 114.815 61.8232 115.294 70.6809 122.409C75.0525 125.928 78.1257 130.93 83.0237 133.821C88.1284 136.837 94.3221 136.371 99.8022 134.729C111.534 131.214 120.323 121.778 126.947 111.889C128.759 109.192 130.425 106.402 132.013 103.571C132.732 102.296 130.769 101.146 130.052 102.426L130.079 102.419Z" fill="#FFD900"/>
<path d="M103.682 118.659C93.7246 109.829 87.9544 97.4425 78.7543 87.9146C70.1694 79.0749 59.7273 72.2551 48.1841 67.9489C47.8935 67.8716 47.5843 67.9112 47.3226 68.0591C47.0609 68.207 46.8674 68.4514 46.7836 68.7402C45.7304 71.8915 48.312 74.2712 50.6885 75.9239C54.6005 78.6598 58.6304 81.2001 62.6008 83.836C65.547 85.7954 69.0241 88.9702 72.8112 88.8502C75.6721 88.7667 77.2491 86.2306 76.8938 83.5717C76.4725 80.4644 74.3267 77.542 72.4138 75.1653C70.0947 72.2838 67.2916 69.8282 64.1302 67.9088C61.8352 66.5123 58.5505 64.5713 55.7715 65.7719C53.0849 66.9483 53.5643 70.0262 55.2522 71.8503C58.0355 74.8546 62.21 77.1216 65.7799 79.0206C69.786 81.1313 73.9998 82.8212 78.3538 84.0632C78.5217 84.107 78.6972 84.1125 78.8675 84.0793C79.0377 84.046 79.1983 83.9748 79.3373 83.8709C79.4762 83.7671 79.59 83.6332 79.6702 83.4794C79.7504 83.3255 79.7949 83.1555 79.8004 82.9821C80.9721 71.8865 75.163 60.7666 65.4449 55.3172C64.6551 54.8708 63.4219 55.6182 63.7755 56.5885C65.2943 60.8088 68.0484 64.4739 71.6791 67.1064C74.0784 68.8284 80.1109 72.475 83.0315 70.2022C84.507 69.0524 84.2873 66.7484 84.2233 65.0904C84.1362 62.7387 83.7239 60.4104 82.9981 58.1718C81.4659 53.4494 78.6248 49.2589 74.8054 46.088C73.8916 45.3307 72.2288 46.3227 73.0182 47.4655L114.975 108.212C115.797 109.407 117.776 108.276 116.942 107.069C102.956 86.8191 88.9715 66.57 74.9892 46.322L73.2019 47.6995C76.0639 50.0472 78.3505 53.0192 79.8864 56.3877C81.2431 59.3856 82.6808 63.8913 81.935 67.1923C81.4071 69.5328 78.5124 68.0915 76.967 67.472C74.4377 66.4315 72.1528 64.8753 70.258 62.9026C68.3632 60.9298 66.9001 58.5838 65.9619 56.0141L64.2881 57.2866C68.7431 59.8225 72.3649 63.5996 74.7122 68.1577C77.0596 72.7158 78.0312 77.8583 77.5087 82.9585L78.9541 81.873C72.4616 80.0212 66.314 77.1235 60.7528 73.2938C60.1265 72.8609 59.5066 72.4168 58.902 71.9594C57.5917 70.9816 56.8512 70.6869 56.8221 69.0009C56.3993 67.9766 56.6463 67.5384 57.5631 67.6865C58.046 67.6945 58.5257 67.7679 58.9889 67.9047C59.723 68.1318 60.4322 68.4325 61.1059 68.8022C64.0104 70.2876 66.6471 72.247 68.9074 74.5999C71.058 76.8247 73.397 79.6775 74.3587 82.6758C75.0131 84.7009 74.4447 86.8874 71.8206 86.4759C69.9503 86.1769 68.2562 84.8483 66.7237 83.8302L57.0355 77.3849C54.7856 75.8919 47.8226 72.7485 48.9618 69.3159L47.5613 70.1072C59.2062 74.4717 69.6807 81.479 78.1608 90.5781C86.8301 99.9115 92.4757 111.752 102.069 120.254C103.16 121.219 104.776 119.618 103.677 118.641L103.682 118.659Z" fill="#FFD900"/>
<path d="M89.3565 130.953C93.0051 124.035 98.1293 118.004 104.367 113.286C110.604 108.569 117.801 105.28 125.45 103.654C126.885 103.352 126.303 101.153 124.872 101.453C116.931 103.153 109.459 106.572 102.982 111.472C96.5045 116.371 91.1798 122.631 87.3822 129.811C86.7016 131.105 88.665 132.259 89.3433 130.957L89.3565 130.953Z" fill="#FFD900"/>
<path d="M94.3224 137.576L102.354 141.741C103.989 142.596 105.956 144.088 107.917 143.55C109.641 143.059 110.977 141.146 112.09 139.851C113.466 138.248 114.743 136.558 115.971 134.842C121.081 127.694 125.491 119.544 133.428 115.135L132.054 114.955C133.814 117.071 130.366 120.574 129.216 122.052L124.537 128.066L115.452 139.74C114.943 140.4 115.06 141.381 115.951 141.641C118.111 142.273 119.605 140.404 120.93 138.969C122.76 136.982 124.448 134.869 126.175 132.797C129.75 128.503 133.635 124.194 139.063 122.297L137.636 121.181C137.54 123.412 136.06 125.118 134.747 126.795C133.183 128.791 131.608 130.781 130.044 132.773L120.91 144.37C120.722 144.568 120.611 144.826 120.597 145.098C120.583 145.37 120.667 145.638 120.833 145.854C120.999 146.07 121.237 146.22 121.504 146.275C121.771 146.331 122.049 146.29 122.288 146.158C129.307 143.161 133.103 134.571 140.915 133.323L139.8 131.423L129.848 143.664C129.679 143.843 129.571 144.072 129.542 144.316C129.513 144.561 129.564 144.809 129.686 145.023C129.809 145.237 129.997 145.405 130.223 145.504C130.449 145.602 130.701 145.625 130.941 145.569C133.872 144.966 136.613 143.662 138.929 141.767L137.143 141.536C137.365 141.945 137.485 142.401 137.494 142.866C137.502 143.332 137.398 143.792 137.191 144.209C136.608 145.567 138.827 146.155 139.384 144.823C139.689 144.115 139.823 143.345 139.775 142.575C139.727 141.806 139.499 141.058 139.109 140.393C139.02 140.245 138.898 140.119 138.753 140.024C138.608 139.929 138.444 139.868 138.272 139.846C138.1 139.823 137.926 139.839 137.761 139.893C137.597 139.947 137.446 140.037 137.321 140.157C135.295 141.774 132.908 142.875 130.363 143.368L131.456 145.274L141.408 133.033C141.578 132.854 141.685 132.625 141.714 132.381C141.743 132.136 141.693 131.888 141.57 131.674C141.447 131.46 141.259 131.292 141.033 131.193C140.807 131.095 140.555 131.072 140.315 131.128C132.137 132.435 128.358 141.105 121.123 144.196L122.501 145.985L133.29 132.277C135.8 129.087 139.706 125.534 139.888 121.215C139.888 121.04 139.848 120.868 139.772 120.712C139.695 120.555 139.584 120.418 139.447 120.311C139.309 120.203 139.149 120.129 138.978 120.093C138.808 120.057 138.631 120.06 138.462 120.103C133.896 121.697 130.271 124.725 127.065 128.272C125.334 130.185 123.721 132.209 122.063 134.187C121.197 135.224 118.032 139.895 116.544 139.458L117.043 141.359L129.429 125.44C131.838 122.346 137.031 117.411 133.656 113.353C133.479 113.176 133.248 113.062 133 113.03C132.751 112.997 132.499 113.048 132.282 113.173C125.629 116.864 121.252 123.1 117.07 129.251C114.855 132.51 112.674 135.789 110.038 138.753C109.059 139.858 108.545 140.642 107.055 140.859C105.385 141.11 104.174 140.134 102.689 139.367L95.4639 135.62C94.1683 134.948 93.0136 136.908 94.3159 137.587L94.3224 137.576Z" fill="#FFD900"/>
<path d="M92.7507 84.2086C91.6987 80.4014 92.768 76.1121 95.9338 73.5914C99.0996 71.0706 104.316 70.5375 107.526 73.1802C111.091 76.1156 108.009 81.0137 106.325 84.1095C104.404 87.6441 102.802 91.57 104.117 95.5904C105.024 98.3631 109.428 97.2249 108.516 94.4346C106.759 89.0719 112.472 83.9859 113.468 78.8973C114.522 73.4924 111.364 69.0998 106.245 67.5139C95.3426 64.1633 85.4064 74.6918 88.3603 85.3621C89.1389 88.1826 93.5404 87.0356 92.7595 84.2063L92.7507 84.2086Z" fill="#056ED6"/>
<path d="M107.894 106.261L107.909 109.004C107.902 109.608 108.134 110.189 108.556 110.621C108.977 111.053 109.553 111.3 110.156 111.307C110.759 111.315 111.34 111.082 111.772 110.661C112.204 110.24 112.45 109.664 112.458 109.061L112.442 106.317C112.446 106.019 112.391 105.722 112.28 105.445C112.169 105.167 112.004 104.914 111.796 104.7C111.587 104.487 111.339 104.316 111.064 104.198C110.79 104.08 110.495 104.018 110.196 104.014C109.897 104.01 109.601 104.066 109.324 104.176C109.046 104.287 108.793 104.452 108.58 104.66C108.366 104.869 108.195 105.118 108.078 105.392C107.96 105.667 107.898 105.962 107.894 106.261V106.261Z" fill="#056ED6"/>
<path d="M33.1449 85.7921C29.319 83.8851 26.7233 79.8766 27.3492 75.5108C27.9063 71.6525 31.3908 67.105 35.6806 67.3047C39.6468 67.4906 40.9684 72.6102 42.0584 75.6312C43.3848 79.3193 45.1841 83.1607 48.9848 84.8109C51.6388 85.9625 53.9638 82.049 51.2776 80.8823C46.3889 78.7606 46.2096 72.0282 43.7022 67.9259C40.7266 63.0621 35.439 61.445 30.3159 64.1412C20.028 69.5541 20.6531 84.6423 30.8521 89.7207C33.4649 91.0196 35.7731 87.0964 33.1449 85.7921V85.7921Z" fill="#056ED6"/>
<path d="M59.4877 89.1169L61.5352 90.9313C62.4251 91.7231 63.8898 91.8746 64.7523 90.9329C65.5451 90.066 65.7034 88.5565 64.7489 87.7158L62.7014 85.9014C61.8127 85.114 60.3479 84.9625 59.4854 85.9042C58.6971 86.77 58.5376 88.2751 59.4889 89.1213L59.4877 89.1169Z" fill="#056ED6"/>
<path d="M88.1004 42.7923C88.1814 41.4684 88.6734 40.2029 89.5079 39.1723C90.3424 38.1417 91.4777 37.3975 92.7555 37.0434C95.4008 36.3719 100.247 37.9545 99.5966 41.4232C99.153 43.798 96.6318 45.2461 95.0993 46.8954C93.789 48.2982 92.9148 49.8217 92.8345 51.7717C92.7727 53.237 95.0458 53.2608 95.1087 51.7999C95.261 48.1373 99.8752 46.4217 101.345 43.3162C102.727 40.4315 101.338 37.4891 98.7466 35.8787C93.1252 32.3827 86.3199 36.4807 85.8087 42.7687C85.6848 44.2126 87.9657 44.2485 88.0829 42.7969L88.1004 42.7923Z" fill="#056ED6"/>
<path d="M92.8383 58.7156L92.3111 60.2891C92.2322 60.5793 92.2705 60.8889 92.4177 61.1512C92.5649 61.4136 92.8093 61.6075 93.0981 61.6913C93.3881 61.7667 93.696 61.7268 93.9573 61.5801C94.2186 61.4334 94.4129 61.1912 94.4997 60.9044L95.0326 59.3529C95.111 59.0623 95.0719 58.7524 94.9239 58.4903C94.7758 58.2281 94.5306 58.0347 94.2413 57.9519C93.9512 57.8765 93.6433 57.9163 93.382 58.063C93.1208 58.2097 92.9264 58.4519 92.8397 58.7388L92.8383 58.7156Z" fill="#056ED6"/>
<path d="M47.8969 103.977C45.4694 103.957 43.2439 102.377 43.0682 99.7933C42.9115 97.4069 44.7402 94.7012 47.2864 96.1587C49.8327 97.6162 51.1142 100.328 54.361 100.228C55.8224 100.187 55.8501 97.9124 54.3844 97.9541C51.4055 98.0357 49.8436 94.4001 47.0932 93.5796C44.8012 92.8927 42.6956 94.1327 41.5902 96.1545C38.9992 100.881 42.7394 106.203 47.8593 106.269C49.3202 106.28 49.3457 103.997 47.8827 103.995L47.8969 103.977Z" fill="#056ED6"/>
<path d="M59.6919 99.7383L60.9457 100.053C61.2365 100.135 61.5478 100.097 61.8109 99.9493C62.0741 99.8012 62.2676 99.5546 62.349 99.2637C62.4303 98.9728 62.3928 98.6615 62.2447 98.3982C62.0966 98.1349 61.85 97.9413 61.5592 97.8598L60.3022 97.5502C60.1558 97.5007 60.0009 97.4815 59.8469 97.4938C59.6928 97.5061 59.5429 97.5497 59.4063 97.6219C59.2697 97.6941 59.1492 97.7934 59.0523 97.9137C58.9553 98.0341 58.8839 98.1729 58.8424 98.3218C58.8008 98.4707 58.7901 98.6265 58.8108 98.7797C58.8314 98.9329 58.8831 99.0802 58.9626 99.2128C59.0421 99.3453 59.1478 99.4603 59.2732 99.5507C59.3986 99.641 59.5411 99.7049 59.6919 99.7383V99.7383Z" fill="#056ED6"/>
<path d="M50.6027 48.297C47.5467 43.0733 47.4997 36.3251 50.8916 31.228C54.2835 26.1308 60.9032 23.2061 66.9331 24.4446C70.3749 25.14 73.1999 27.2112 74.117 30.7198C74.9807 34.0073 74.2337 37.5721 73.4217 40.7823C72.0119 46.3889 70.2454 52.6068 73.6734 57.8505C74.4602 59.0551 76.447 57.9357 75.6445 56.7069C70.8747 49.4352 77.2705 40.4674 76.6886 32.6317C76.1816 25.708 70.5417 21.7653 63.8496 21.8909C57.6132 22.0145 51.4955 25.4896 48.3813 30.9277C45.118 36.6215 45.3369 43.8091 48.6239 49.4286C49.365 50.6923 51.3328 49.5543 50.5905 48.2862L50.6027 48.297Z" fill="#015CCA"/>
<path d="M82.7601 71.5684L83.7395 75.2959C84.1106 76.7086 86.3114 76.1351 85.9391 74.718L84.9597 70.9905C84.5874 69.5734 82.3867 70.1469 82.7601 71.5684Z" fill="#015CCA"/>
<path d="M74.9974 111.398C72.169 110.424 69.9609 107.729 70.6627 104.619C71.2782 101.86 74.601 98.5404 77.6066 100.028C79.7744 101.119 80.556 104.094 81.731 106.025C82.9061 107.955 84.4663 109.437 86.6896 110.095C88.801 110.721 89.7112 107.419 87.6088 106.809C84.0646 105.76 83.4461 100.846 81.0381 98.4112C78.3265 95.6798 74.4275 95.7679 71.3729 97.9066C64.6228 102.644 66.641 112.116 74.0793 114.687C76.1489 115.405 77.0657 112.11 74.9974 111.398V111.398Z" fill="#0084DD"/>
<path d="M94.3957 112.113L95.9681 113.139C96.3602 113.364 96.8247 113.425 97.2615 113.31C97.6984 113.195 98.0727 112.914 98.304 112.526C98.5223 112.132 98.5802 111.669 98.4659 111.234C98.3515 110.799 98.0736 110.424 97.6901 110.189L96.1133 109.163C95.7219 108.939 95.2582 108.878 94.8221 108.992C94.386 109.107 94.0124 109.388 93.7817 109.776C93.5635 110.17 93.5055 110.632 93.6199 111.068C93.7343 111.503 94.0122 111.877 94.3957 112.113Z" fill="#0084DD"/>
</svg>
