<svg width="174" height="1054" viewBox="0 0 174 1054" fill="none" xmlns="http://www.w3.org/2000/svg">
<path d="M47.2389 64.1575C38.7024 62.2104 37.5349 78.7332 39.8126 83.7587C43.9851 93.0307 59.1823 92.5671 66.1493 87.041C73.1163 81.5148 74.4752 70.4996 66.8575 64.788C62.5646 61.8842 57.504 60.2305 52.2728 60.0222C46.5307 59.744 42.5305 62.0991 38.6642 66.0676C36.5587 68.2372 39.9465 71.5381 42.0519 69.3499C46.8752 64.3987 51.9091 63.7866 58.3784 65.9378C64.8478 68.0889 69.8625 73.3554 66.0345 80.1611C62.9146 85.7244 55.8137 87.3377 49.8802 85.7244C45.7843 84.6488 43.564 82.4049 43.4875 78.3067C43.4875 77.9358 44.8273 68.3856 45.9182 68.6267C48.9232 69.3128 50.2056 64.9178 47.2006 64.1575H47.2389Z" fill="#015CCA"/>
<path d="M57.4558 88.0539C58.3698 86.4494 59.6612 85.111 61.2094 84.1637C62.1853 83.7552 63.8932 83.6968 64.2685 84.9806L67.1588 81.9851C63.8492 81.3626 60.4436 81.5761 57.2306 82.6076C54.3591 83.5412 55.5602 88.2096 58.4692 87.2954C60.1131 86.8017 61.709 86.1505 63.2363 85.3502L59.9707 82.5492C59.7489 83.3303 59.2806 84.0116 58.6409 84.4841C58.0012 84.9567 57.227 85.1932 56.4423 85.1557L57.5308 89.649L61.2844 87.9178C64.0245 86.6534 61.641 82.4714 58.9009 83.7357L55.1473 85.4669C52.9139 86.4784 54.1714 89.9796 56.3297 89.9991C58.1429 90.0267 59.9147 89.4364 61.3727 88.3189C62.8308 87.2014 63.8943 85.6185 64.3999 83.8135C64.506 83.3498 64.4803 82.864 64.3261 82.415C64.1718 81.966 63.8955 81.5728 63.5304 81.2829C63.1654 80.9929 62.7272 80.8187 62.2688 80.7811C61.8103 80.7435 61.3511 80.8441 60.9466 81.0709C59.7811 81.6928 58.5621 82.2007 57.3056 82.5881L58.5443 87.2759C60.9608 86.4398 63.5374 86.2262 66.0515 86.6534C66.4502 86.7587 66.8685 86.7544 67.2651 86.6408C67.6617 86.5272 68.0228 86.3083 68.3128 86.0058C68.6028 85.7033 68.8116 85.3276 68.9186 84.9158C69.0256 84.5041 69.0271 84.0705 68.923 83.658C68.4338 82.1452 67.4488 80.8576 66.1392 80.0191C64.8295 79.1805 63.2779 78.8438 61.7536 79.0674C58 79.4564 55.5602 82.6659 53.477 85.5836C51.6002 88.1123 55.7479 90.5243 57.5121 88.0345L57.4558 88.0539Z" fill="#015CCA"/>
<path d="M97.7058 71.8454C91.666 76.927 89.4581 90.0204 95.8811 95.6212C103.344 102.168 115.716 101.296 121.847 93.5255C127.321 86.6265 128.033 72.9582 120.022 67.5613C112.012 62.1645 100.297 65.8736 95.2425 73.3105C93.5637 75.7586 97.5051 78.0768 99.1656 75.6473C102.541 70.6955 111.483 67.6911 116.975 71.048C122.869 74.6459 122.267 84.9017 118.909 89.8535C115.077 95.5471 108.399 96.4187 102.487 94.119C94.9505 91.1888 95.4067 79.8758 101.027 75.1651C103.289 73.3105 100.06 70.0093 97.7971 71.8824L97.7058 71.8454Z" fill="#015CCA"/>
<path d="M93.7464 85.3846C95.6353 87.7654 96.5123 90.7691 96.1943 93.7683L100.862 93.1363L97.7882 85.2544C97.6868 84.662 97.357 84.1305 96.8668 83.7696C96.3767 83.4087 95.7638 83.246 95.1547 83.3152C94.5456 83.3844 93.987 83.6802 93.5942 84.1414C93.2014 84.6027 93.0045 85.1941 93.0442 85.7935C92.8396 88.1289 93.3482 90.4712 94.5054 92.5228C94.7766 92.9507 95.1814 93.2817 95.6597 93.4664C96.1381 93.6512 96.6645 93.6799 97.1608 93.5484C97.6572 93.417 98.097 93.1323 98.4151 92.7366C98.7333 92.3409 98.9127 91.8552 98.9268 91.3517L99.0407 87.0948C99.0407 84.0462 94.6193 84.1763 94.2967 87.0948C94.1648 88.3932 94.3135 89.7043 94.7331 90.9427C95.6819 93.7683 100.274 92.56 99.3063 89.6973C99.0199 88.8602 98.9291 87.9708 99.0407 87.0948H94.3726L94.2587 91.3703L98.6801 90.1806C97.9483 88.8439 97.663 87.316 97.8642 85.8121L93.215 86.4255L96.2891 94.326C96.4479 94.8601 96.797 95.3207 97.273 95.6241C97.7491 95.9274 98.3204 96.0535 98.8832 95.9792C99.446 95.9049 99.9629 95.6354 100.34 95.2194C100.717 94.8035 100.929 94.2688 100.938 93.7126C101.282 89.8869 100.182 86.0705 97.8452 82.9865C95.9476 80.6071 91.9057 82.9865 93.7464 85.3288V85.3846Z" fill="#015CCA"/>
<path d="M33.0279 104.441C22.9433 96.8473 15.9951 85.8366 13.4945 73.4865C10.9939 61.1363 13.1138 48.3007 19.4542 37.4018C19.6311 37.0889 19.7347 36.7401 19.7571 36.3816C19.7795 36.0231 19.7202 35.6643 19.5835 35.3319C19.4469 34.9996 19.2365 34.7024 18.9682 34.4627C18.6999 34.223 18.3806 34.0469 18.0343 33.9479C15.3023 33.1772 12.9055 31.5215 11.2224 29.2419C9.53917 26.9623 8.66541 24.1888 8.73902 21.3592C8.73902 20.7335 8.4897 20.1334 8.04591 19.6909C7.60212 19.2485 7.00021 19 6.3726 19C5.74499 19 5.14308 19.2485 4.69929 19.6909C4.2555 20.1334 4.00619 20.7335 4.00619 21.3592C3.90256 25.2272 5.10353 29.0181 7.41687 32.1251C9.73021 35.2321 13.0222 37.4756 16.7659 38.4965L15.3461 35.0237C8.40938 47.0084 6.13113 61.1163 8.94429 74.666C11.7574 88.2156 19.4659 100.263 30.6047 108.517C33.0279 110.405 35.3943 106.272 33.009 104.441H33.0279Z" fill="#015CCA"/>
<path d="M18.0371 38.96C20.5368 38.4876 22.7946 37.1755 24.428 35.246C26.0614 33.3164 26.97 30.8879 27 28.3719C27 27.7428 26.7472 27.1396 26.2973 26.6948C25.8474 26.25 25.2372 26 24.6009 26C23.9647 26 23.3544 26.25 22.9045 26.6948C22.4546 27.1396 22.2018 27.7428 22.2018 28.3719C22.1683 29.8555 21.5981 31.2782 20.5945 32.3817C19.591 33.4853 18.2206 34.1968 16.732 34.3871C13.6995 34.8994 14.9854 39.4724 17.9987 38.96H18.0371Z" fill="#015CCA"/>
<path d="M104.303 125.918C120.405 132.809 137.739 121.373 148.026 109.491C153.882 102.743 158.286 94.8996 160.972 86.4327C163.658 77.9658 164.571 69.0514 163.655 60.228C163.352 57.2667 158.616 57.248 158.919 60.228C160.453 74.2525 157.006 88.367 149.163 100.178C140.998 112.508 122.83 128.823 106.633 121.895C103.867 120.721 101.442 124.726 104.246 125.918H104.303Z" fill="#015CCA"/>
<path d="M161.767 57.8272C160.276 57.0214 152.324 50.8077 155.803 49.1603C158.606 47.7815 156.101 43.9137 153.298 45.2925C144.969 49.3573 154.471 59.0806 159.262 61.695C159.831 61.9942 160.51 62.0774 161.147 61.9263C161.785 61.7752 162.329 61.4022 162.661 60.8893C162.994 60.3764 163.086 59.7656 162.918 59.1913C162.75 58.6171 162.336 58.1264 161.767 57.8272Z" fill="#015CCA"/>
<path d="M159.727 62.8004C168.374 64.4818 171.256 55.1854 171.986 48.3048C172.293 45.2124 167.49 45.2511 167.182 48.3048C166.875 51.3585 165.684 59.0509 161.015 58.1425C157.998 57.5434 156.691 62.2012 159.727 62.8004Z" fill="#015CCA"/>
<path d="M43.5867 12.1411C41.5629 10.2289 50.0022 5.08506 51.6819 9.75084C52.8355 13.0207 51.4998 17.8777 50.5688 21.0519C50.4155 21.6556 50.5167 22.2919 50.8511 22.8263C51.1855 23.3607 51.7269 23.7511 52.3605 23.9151C52.9942 24.0791 53.6706 24.0037 54.2465 23.7049C54.8224 23.4061 55.2526 22.9073 55.4462 22.314C57.045 16.8643 59.6557 2.88597 49.82 3.0007C43.4855 3.0007 33.751 9.13886 40.0248 15.5256C42.251 17.782 45.8129 14.3975 43.6069 12.1411H43.5867Z" fill="#015CCA"/>
<path d="M55.0819 36.0451L55.4626 37.2561C55.6335 37.8435 56.0086 38.3429 56.5143 38.6564C56.7831 38.8276 57.0835 38.9381 57.3958 38.9804C57.7082 39.0228 58.0256 38.9962 58.3275 38.9024C58.8909 38.7264 59.3741 38.3432 59.6874 37.8238C59.8454 37.5405 59.9462 37.2266 59.9836 36.9012C60.021 36.5758 59.9943 36.2458 59.905 35.9315L59.5242 34.7394C59.3556 34.1514 58.9884 33.6472 58.4907 33.3203C58.2177 33.1594 57.917 33.0566 57.6058 33.0177C57.2946 32.9787 56.9791 33.0043 56.6775 33.0932C56.3965 33.1712 56.1332 33.3068 55.9028 33.492C55.6725 33.6772 55.4797 33.9082 55.3357 34.1718C55.1672 34.4505 55.0589 34.7641 55.0182 35.0909C54.9775 35.4176 55.0054 35.7497 55.1 36.064L55.0819 36.0451Z" fill="#015CCA"/>
<path d="M89.4779 6.10055C90.9648 5.13518 93.2734 3.65003 94.995 4.85674C95.4977 5.37901 95.8443 6.01918 95.9991 6.71107C96.1539 7.40295 96.1112 8.12147 95.8754 8.79246C95.0537 11.8185 91.6886 14.0277 89.3996 16.0698C87.1106 18.1119 90.5735 21.3979 92.8625 19.3558C97.1471 15.5315 102.332 11.2615 100.688 5.04234C99.0449 -1.17685 91.9234 -0.991138 87.1106 2.09061C84.5085 3.74288 86.954 7.77138 89.5757 6.10055H89.4779Z" fill="#015CCA"/>
<path d="M86.6039 31.6165L85.7413 32.3357C85.2775 32.7501 85.0141 33.293 85.0018 33.8596C84.9874 34.1436 85.058 34.426 85.2072 34.6815C85.3081 34.9457 85.4926 35.1824 85.7413 35.3665C86.2283 35.7681 86.8842 35.9954 87.5693 36C88.2455 35.9842 88.8902 35.7582 89.3768 35.3665L90.2395 34.6473C90.7164 34.2455 90.9887 33.7057 90.9994 33.1405C91.0075 32.8551 90.9298 32.5725 90.7735 32.3185C90.6674 32.0515 90.4839 31.8104 90.2395 31.6165C90.003 31.4182 89.7212 31.2614 89.4107 31.1556C89.1002 31.0497 88.7674 30.9968 88.432 31.0001C87.7502 31.0019 87.0955 31.2227 86.6039 31.6165Z" fill="#015CCA"/>
<path d="M123.177 18.3546C125.009 17.875 127.646 17.0119 128.873 19.0068C129.424 20.045 129.629 21.2454 129.457 22.4192C129.284 23.5929 128.744 24.6733 127.921 25.4901C126.122 26.5344 124.164 27.2418 122.133 27.5808C119.99 28.233 117.81 28.7893 115.631 29.3072C112.773 29.9978 113.982 34.6204 116.858 33.9299C122.884 32.5105 133.342 31.3021 133.91 23.0349C134.12 21.4595 133.961 19.8544 133.447 18.3575C132.934 16.8606 132.081 15.5168 130.961 14.4416C128.287 12.3508 124.899 12.9263 121.803 13.7319C121.218 13.9023 120.721 14.3092 120.422 14.8632C120.123 15.4171 120.047 16.0728 120.21 16.6858C120.372 17.2988 120.761 17.8191 121.29 18.132C121.819 18.445 122.445 18.525 123.03 18.3546H123.177Z" fill="#015CCA"/>
<path d="M111.5 45C112.163 45 112.799 44.7367 113.268 44.2678C113.737 43.799 114 43.163 114 42.5C114 41.837 113.737 41.2011 113.268 40.7323C112.799 40.2635 112.163 40 111.5 40C110.837 40 110.201 40.2635 109.732 40.7323C109.263 41.2011 109 41.837 109 42.5C109 43.163 109.263 43.799 109.732 44.2678C110.201 44.7367 110.837 45 111.5 45Z" fill="#015CCA"/>
<path d="M53.4729 109.608C58.0933 102.459 57.0666 113.775 63.9116 112.15C65.813 111.711 68.3799 108.423 70.1482 108.576C73.6848 108.882 70.8137 109.34 72.7531 111.367C74.6925 113.393 74.6545 115.667 78.2292 115.629C79.4461 115.629 80.9482 114.043 81.9369 114.043C84.2946 114.043 81.5566 114.329 83.3249 114.884C85.0932 115.438 85.7967 116.317 87.7742 116.795C89.3904 117.197 87.6601 115.839 89.2383 116.413C89.7326 116.585 90.7404 118.019 91.4249 118.324C92.4519 118.864 93.614 119.088 94.7667 118.969C95.9194 118.85 97.012 118.393 97.9086 117.655C100.457 115.992 98.0798 111.921 95.5129 113.527C93.7256 114.062 92.6228 113.527 92.1474 112.055C91.8796 111.604 91.4728 111.254 90.9889 111.057C90.5049 110.861 89.9704 110.828 89.4664 110.965C85.8157 112.418 89.1812 110.965 86.5002 109.837C85.3935 109.277 84.2424 108.81 83.0587 108.442C82.2031 108.213 81.1573 109.379 80.4538 109.226C73.1524 107.716 78.5524 106.875 75.7003 104.332C74.3503 103.185 74.1221 102.421 72.3348 102.268C69.1214 101.943 65.5658 107.907 62.9609 107.276C60.8694 106.779 61.0595 102.153 59.3863 100.892C54.975 97.6996 51.4764 103.854 49.3659 107.142C47.7687 109.78 51.8187 112.284 53.4729 109.608Z" fill="#015CCA"/>
<path d="M24.6655 159.745L19.0087 182.269L23.6473 182.878C23.944 178.904 24.6321 174.966 25.7026 171.114C26.2698 169.096 26.9431 167.106 27.7202 165.152L29.1721 161.822C29.7378 159.763 30.7372 160.031 32.1703 162.681C34.9232 165.134 34.6781 165.51 34.697 168.84C34.697 170.631 34.697 172.242 34.4707 173.943C34.0385 178.136 33.1086 182.268 31.6989 186.262C30.7561 189.001 35.3004 190.183 36.2432 187.443C38.6567 180.443 44.9169 157.381 32.6794 155.125C27.8899 154.248 25.7592 158.133 24.1753 161.75C21.2834 168.488 19.5393 175.62 19.0087 182.878C18.7825 185.402 23.0251 185.904 23.6285 183.469L29.2853 160.927C29.983 158.133 25.5141 156.934 24.741 159.745H24.6655Z" fill="#015CCA"/>
<path d="M22.2064 177.19C27.1833 176.904 32.1813 177.162 37.086 177.958C40.0061 178.448 41.2708 174.509 38.3135 174.018C33.015 173.125 27.6103 172.818 22.225 173.103C19.2677 173.25 19.2491 177.337 22.225 177.19H22.2064Z" fill="#015CCA"/>
<path d="M44.019 181.256L53.4107 186.681C53.6814 186.836 53.9806 186.937 54.2912 186.979C54.6017 187.02 54.9176 187.001 55.2207 186.923C55.5238 186.845 55.8082 186.709 56.0577 186.523C56.3072 186.337 56.517 186.105 56.6749 185.839C56.8328 185.574 56.9359 185.281 56.9782 184.976C57.0205 184.672 57.0012 184.362 56.9214 184.065C56.8417 183.768 56.703 183.489 56.5133 183.245C56.3236 183 56.0866 182.795 55.8159 182.64L46.4242 177.233C45.8841 176.977 45.2656 176.93 44.6917 177.101C44.1178 177.272 43.6308 177.649 43.3275 178.156C43.0242 178.663 42.9269 179.264 43.0551 179.838C43.1833 180.413 43.5274 180.919 44.019 181.256Z" fill="#015CCA"/>
<path d="M69.0151 187.226C66.6478 192.946 63.4647 198.232 59.5812 202.891C57.7119 205.151 60.7866 208.54 62.6734 206.224C66.8306 201.286 70.2438 195.676 72.7887 189.598C73.9242 186.868 70.1681 184.458 69.0151 187.226Z" fill="#015CCA"/>
<path d="M71.952 187.751C79.9081 186.053 79.0084 196.953 76.4681 201.102C73.9546 204.905 70.736 208.114 67.0125 210.53C64.6487 212.19 66.8538 216.282 69.2353 214.604C75.5331 210.116 82.9423 203.289 82.9952 194.483C83.0422 192.828 82.7437 191.183 82.1216 189.667C81.4994 188.151 80.5692 186.803 79.3985 185.719C78.2278 184.636 76.846 183.845 75.3535 183.403C73.8609 182.962 72.2952 182.882 70.7701 183.168C68.0004 183.772 69.1647 188.316 71.952 187.732V187.751Z" fill="#015CCA"/>
<path d="M65.7539 200.479C67.703 200.772 69.5263 201.576 71.018 202.798C72.5096 204.021 73.6101 205.613 74.1951 207.396C75.1092 210.211 79.7965 209.016 78.8824 206.164C78.0768 203.616 76.5486 201.326 74.4638 199.542C72.379 197.758 69.8174 196.548 67.057 196.044C63.984 195.511 62.6809 199.945 65.7539 200.479Z" fill="#015CCA"/>
<path d="M77.579 218.851L82.3953 224.298C84.2636 226.416 87.2802 223.265 85.412 221.165L80.6128 215.7C78.7445 213.582 75.7279 216.75 77.579 218.851Z" fill="#015CCA"/>
<path d="M97.998 226.768C91.4999 233.86 84.1362 240.188 76.0632 245.617C73.553 247.309 75.9473 251.281 78.4961 249.589C86.9344 243.962 94.6297 237.386 101.416 230.005C103.347 227.798 100.045 224.488 97.998 226.768Z" fill="#015CCA"/>
<path d="M97.0408 235.184C100.325 237.018 101.402 239.493 100.289 242.518C99.7429 244.148 98.9626 245.687 97.9741 247.083C96.6751 248.998 95.1963 250.779 93.5589 252.4C90.1861 255.764 86.3309 258.584 82.1261 260.761C79.5596 262.117 81.839 266.078 84.3876 264.721C92.5718 260.357 102.694 252.584 104.812 242.811C105.979 237.403 101.6 226.402 94.7793 231.169C92.4102 232.819 94.6537 236.798 97.0408 235.111V235.184Z" fill="#015CCA"/>
<path d="M83.1389 240.544C85.1078 244.896 87.5235 249.056 90.3511 252.963C92.1102 255.402 96.3516 253.092 94.573 250.634C91.7723 246.724 89.3829 242.565 87.4389 238.215C86.2075 235.48 82.0052 237.846 83.217 240.544H83.1389Z" fill="#015CCA"/>
<path d="M4.38088 296.114C13.9097 291.628 25.7445 297.66 29.2892 307.068C34.7016 321.377 11.1654 323.13 2.26548 321.98C-0.764682 321.603 -0.745624 326.316 2.26548 326.693C14.5386 328.277 39.9615 324.054 34.1489 306.37C29.9372 293.551 14.348 286.179 1.96056 292.042C-0.802797 293.343 1.61752 297.415 4.38088 296.114Z" fill="#015CCA"/>
<path d="M3.55124 350.833C13.0939 349.137 28.763 361.554 26.9689 371.672C26.0338 376.948 22.1213 380.566 17.5217 382.978C16.5484 383.505 4.60094 389.101 3.72301 386.369C2.84509 383.637 -1.81173 384.73 -0.876552 387.632C1.45186 394.848 9.18142 391.4 14.5062 389.403C21.6441 386.727 28.8393 382.375 31.2822 374.763C36.0345 359.971 16.1476 343.767 2.29161 346.254C-0.72387 346.801 0.554847 351.342 3.55124 350.795V350.833Z" fill="#015CCA"/>
<path d="M21.5817 366.002L21.8824 377.686C21.8906 378.248 22.0884 378.787 22.4399 379.207C22.7913 379.626 23.2731 379.898 23.7976 379.973C24.3221 380.048 24.8546 379.921 25.2982 379.615C25.7418 379.309 26.0672 378.844 26.2152 378.305C27.0011 374.972 27.199 371.512 26.7988 368.102C26.5689 366.077 23.7393 364.558 22.6782 366.921C20.9925 370.532 20.3409 374.587 20.8036 378.587C21.0865 380.931 24.6943 382.075 25.1541 379.205C26.017 373.685 26.3253 368.084 26.0737 362.495C26.0737 361.873 25.8408 361.277 25.4262 360.837C25.0116 360.397 24.4494 360.15 23.8631 360.15C23.2768 360.15 22.7145 360.397 22.2999 360.837C21.8854 361.277 21.6525 361.873 21.6525 362.495L20.6444 372.004C20.3261 374.986 24.7473 374.967 25.0656 372.004C25.4381 368.554 25.2768 365.064 24.5881 361.67C24.1283 359.269 21.0512 359.625 20.3261 361.67C18.2682 368.265 18.6153 375.438 21.2988 381.775C22.4306 384.532 26.2328 382.15 25.1187 379.412C23.0203 374.176 22.8312 368.301 24.5881 362.926H20.3261C20.8918 365.914 20.9993 368.979 20.6444 372.004H25.0656L26.0737 362.495H21.7232C21.9921 367.666 21.7372 372.854 20.9627 377.968L25.2955 378.587C24.8296 375.396 25.273 372.131 26.5689 369.209L22.4483 368.027C22.8312 371.018 22.6873 374.058 22.0238 376.992L26.3743 377.611L26.0737 365.927C26.0737 365.305 25.8408 364.709 25.4262 364.269C25.0116 363.83 24.4494 363.583 23.8631 363.583C23.2768 363.583 22.7145 363.83 22.2999 364.269C21.8854 364.709 21.6525 365.305 21.6525 365.927L21.5817 366.002Z" fill="#015CCA"/>
<path d="M26.4771 305.415C24.8826 309.512 23.6364 313.753 22.7535 318.088L27.0268 319.336C27.8419 314.891 28.1456 310.355 27.9311 305.831C27.9179 305.319 27.7503 304.825 27.453 304.422C27.1558 304.019 26.7447 303.73 26.2809 303.596C25.8171 303.462 25.3253 303.491 24.8783 303.679C24.4313 303.867 24.0531 304.204 23.7997 304.639C21.3337 308.728 20.4503 313.678 21.335 318.447C21.4748 318.936 21.7579 319.363 22.1425 319.667C22.5272 319.97 22.9931 320.134 23.4716 320.134C23.9502 320.134 24.4161 319.97 24.8007 319.667C25.1854 319.363 25.4684 318.936 25.6083 318.447C26.462 314.147 26.6714 309.729 26.2289 305.358C26.2247 304.791 26.0293 304.244 25.6783 303.817C25.3273 303.391 24.8442 303.113 24.3172 303.035C23.7902 302.957 23.2545 303.084 22.8078 303.392C22.3612 303.701 22.0336 304.17 21.8846 304.715C21.1039 307.474 20.9459 310.39 21.4236 313.227C21.796 315.742 24.9699 315.213 25.6969 313.227C26.5901 310.495 26.8159 307.566 26.353 304.715L22.0797 305.963C22.2614 307.179 22.0946 308.425 21.6009 309.538C20.4129 312.281 24.2429 314.683 25.431 311.922C26.4314 309.68 26.7536 307.161 26.353 304.715C25.9097 301.708 21.6541 302.994 22.0797 305.963C22.3278 307.983 22.1024 310.037 21.4236 311.941H25.6792C25.3877 309.931 25.5457 307.877 26.1402 305.945L21.7783 305.32C22.2017 309.269 22.0461 313.264 21.3172 317.161H25.6792C25.0875 313.618 25.8125 309.968 27.7006 306.985L23.5691 305.793C23.7914 309.896 23.5413 314.012 22.8244 318.05C22.2747 321.001 26.4771 322.287 27.0977 319.299C27.9832 314.964 29.2294 310.723 30.8214 306.626C31.9207 303.826 27.6297 302.597 26.5481 305.377L26.4771 305.415Z" fill="#015CCA"/>
<path d="M16.6895 387.097C20.874 391.339 24.2353 396.306 26.6059 401.752C27.8599 404.561 32.0078 402.134 30.7731 399.345C28.2086 393.534 24.5929 388.237 20.1043 383.715C17.9435 381.518 14.5288 384.881 16.6895 387.097Z" fill="#015CCA"/>
<path d="M29.5434 375.411C34.0617 376.945 38.8236 377.819 43.6484 377.997C46.7936 378.121 46.7741 373.721 43.6484 373.598C39.2971 373.403 35.0092 372.577 30.95 371.152C28.0196 370.149 26.7302 374.407 29.6411 375.411H29.5434Z" fill="#015CCA"/>
<path d="M28.7958 363.98C33.7913 362.436 38.2103 359.348 41.4591 355.13C43.2838 352.771 40.0541 349.469 38.2477 351.79C35.5254 355.374 31.8062 358.008 27.5915 359.338C24.7997 360.225 25.9857 364.773 28.7958 363.886V363.98Z" fill="#015CCA"/>
<path d="M27.5414 324.117L36.0577 334.21C37.9629 336.541 41.3732 333.195 39.4108 330.883L30.9517 320.79C29.0465 318.459 25.6362 321.805 27.5795 324.117H27.5414Z" fill="#015CCA"/>
<path d="M32.338 310.932C36.4537 311.173 40.5782 310.594 44.3992 309.239C47.2349 308.206 45.9919 304.158 43.0979 305.157C39.7006 306.407 36.0187 306.958 32.338 306.766C29.211 306.614 29.2304 310.848 32.338 311V310.932Z" fill="#015CCA"/>
<path d="M30.5747 299.734L39.8137 295.216C42.51 293.893 40.1343 289.945 37.4191 291.267L28.199 295.767C25.4838 297.089 27.8596 301.056 30.5747 299.734Z" fill="#015CCA"/>
<path d="M23.0905 303.047L22.2862 304.745C22.142 305 22.0499 305.282 22.0154 305.574C21.9809 305.865 22.0046 306.161 22.0851 306.443C22.2306 306.976 22.5726 307.432 23.0403 307.717C23.5212 307.996 24.0913 308.073 24.6274 307.93C25.1635 307.787 25.6226 307.436 25.9056 306.953L26.7099 305.255C26.9962 304.738 27.0743 304.13 26.9277 303.557C26.7766 303.022 26.4287 302.566 25.9558 302.283C25.4749 302.004 24.9048 301.927 24.3687 302.07C23.8326 302.213 23.3735 302.564 23.0905 303.047Z" fill="#015CCA"/>
<path d="M2.22311 424.227C17.2575 422.824 34.7821 423.142 45.9325 435.037C57.0828 446.933 58.0306 465.299 57.0828 480.749C56.897 483.76 61.5429 483.741 61.7288 480.749C62.7509 464.009 61.3571 444.539 49.2218 431.727C37.0865 418.915 18.5584 418.036 2.22311 419.551C-0.731736 419.831 -0.75032 424.507 2.22311 424.227Z" fill="#015CCA"/>
<path d="M-2.75583 274.691C9.67342 279.94 29.4997 276.138 37.275 264.322C45.8261 251.337 37.8993 229.078 31.051 217.151C30.7349 216.619 30.2164 216.233 29.6098 216.076C29.0031 215.92 28.3578 216.006 27.816 216.316C27.2741 216.626 26.88 217.134 26.7203 217.729C26.5606 218.324 26.6485 218.957 26.9646 219.488C32.5077 229.189 36.821 241.487 35.4021 252.877C34.2103 262.485 28.7997 267.234 19.9838 270.48C13.504 273.208 6.1875 273.314 -0.372136 270.777C-3.13419 269.608 -5.55572 273.596 -2.75583 274.765V274.691Z" fill="#015CCA"/>
<path d="M27.7148 214.33C24.8204 214.661 21.8947 214.105 19.3129 212.735C17.4663 211.496 15.8044 208.982 16.7646 206.599C17.9279 203.859 13.9578 201.457 12.7944 204.234C12.0239 206.03 11.8074 208.02 12.1733 209.943C12.5393 211.866 13.4705 213.632 14.8441 215.006C18.1311 218.496 23.2092 219.115 27.7702 218.984C30.7432 218.89 30.7432 214.199 27.7702 214.293L27.7148 214.33Z" fill="#015CCA"/>
<path d="M29.8303 217.961C31.4945 217.436 33.0401 216.565 34.374 215.4C35.7079 214.235 36.8026 212.801 37.5924 211.183C38.3822 209.565 38.8507 207.796 38.9697 205.984C39.0888 204.172 38.8559 202.353 38.2852 200.637C37.2905 197.75 32.7591 199.001 33.8459 201.908C34.2364 203.01 34.4103 204.182 34.3572 205.356C34.3041 206.53 34.025 207.68 33.5366 208.738C33.0483 209.797 32.3607 210.741 31.5149 211.516C30.6692 212.29 29.6828 212.878 28.6146 213.245C25.7778 214.15 26.9936 218.788 29.8303 217.884V217.961Z" fill="#015CCA"/>
<path d="M55.4128 479.234C51.0928 481.282 47.7591 484.885 46.1161 489.283C44.4732 493.681 44.6497 498.529 46.6084 502.803C47.8312 505.497 51.876 503.169 50.672 500.494C49.335 497.273 49.3286 493.674 50.6541 490.449C51.9796 487.224 54.5342 484.624 57.7832 483.193C60.5299 481.947 58.1407 478.006 55.4128 479.234Z" fill="#015CCA"/>
<path d="M56.7013 483.324C61.0032 484.002 64.8762 486.177 67.5502 489.418C70.2242 492.659 71.5033 496.728 71.1331 500.816C70.8823 503.737 75.7058 503.719 75.9566 500.816C76.2935 495.757 74.6597 490.757 71.3608 486.749C68.0619 482.742 63.3238 480.002 58.0326 479.041C54.9841 478.533 53.6914 482.888 56.7399 483.414L56.7013 483.324Z" fill="#015CCA"/>
<path d="M53.1418 370.051L57.5587 372.717C58.0881 372.998 58.7126 373.073 59.3001 372.928C59.8875 372.782 60.3917 372.427 60.7058 371.938C60.9991 371.439 61.0767 370.853 60.9224 370.301C60.7682 369.75 60.394 369.276 59.8776 368.977L55.4607 366.293C54.9347 366.007 54.3102 365.926 53.7216 366.069C53.1331 366.211 52.6275 366.566 52.3137 367.055C52.1613 367.301 52.0619 367.572 52.0211 367.854C51.9803 368.136 51.9988 368.422 52.0757 368.697C52.1527 368.972 52.2864 369.23 52.4693 369.456C52.6522 369.683 52.8808 369.873 53.1418 370.016V370.051Z" fill="#015CCA"/>
<path d="M72.6915 383.937C78.501 389.254 85.1679 393.591 92.4219 396.773C95.1524 397.983 97.5275 394.022 94.7783 392.83C87.9003 389.806 81.5808 385.686 76.0765 380.636C73.8697 378.619 70.4659 381.865 72.7663 383.882L72.6915 383.937Z" fill="#015CCA"/>
<path d="M66.6571 347.914L71.1298 349.917C71.7106 350.085 72.3277 349.996 72.8504 349.671C73.3731 349.346 73.7603 348.809 73.9298 348.175C74.0763 347.532 73.9916 346.853 73.6934 346.278C73.3951 345.703 72.9065 345.277 72.3298 345.09L67.8753 343.087C67.2944 342.914 66.675 343 66.1511 343.326C65.6272 343.652 65.2407 344.192 65.0753 344.83C64.9232 345.47 65.0033 346.149 65.2986 346.725C65.5939 347.301 66.0812 347.727 66.6571 347.914Z" fill="#015CCA"/>
<path d="M93.6326 357.74L128.099 369.856C130.992 370.863 132.248 366.286 129.374 365.26L94.8887 353.144C91.9959 352.137 90.7588 356.714 93.6326 357.74Z" fill="#015CCA"/>
<path d="M72.2978 318H77.7022C78.3116 318 78.8961 317.789 79.327 317.414C79.7579 317.039 80 316.53 80 316C80 315.47 79.7579 314.961 79.327 314.586C78.8961 314.211 78.3116 314 77.7022 314H72.2978C71.6884 314 71.1039 314.211 70.673 314.586C70.2421 314.961 70 315.47 70 316C70 316.53 70.2421 317.039 70.673 317.414C71.1039 317.789 71.6884 318 72.2978 318Z" fill="#015CCA"/>
<path d="M95.2997 312.767C107.351 305.666 120.125 299.923 133.396 295.639C136.21 294.72 135.014 290.204 132.182 291.122C118.521 295.514 105.376 301.421 92.982 308.738C92.5082 309.075 92.1766 309.582 92.0531 310.157C91.9296 310.732 92.0233 311.334 92.3156 311.842C92.6078 312.35 93.0772 312.727 93.6302 312.899C94.1832 313.07 94.7793 313.023 95.2997 312.767Z" fill="#015CCA"/>
<path d="M23.0285 614.354C50.1568 589.205 77.8884 564.704 106.223 540.852C108.518 538.999 105.216 535.662 102.94 537.571C74.5922 561.411 46.8544 585.918 19.7261 611.092C17.5244 613.131 20.8269 616.394 23.0285 614.354Z" fill="#015CCA"/>
<path d="M25.1204 608.264C28.2159 618.138 41.9982 627.29 50.7504 618.385C57.9548 611.041 58.876 591.54 46.273 590.018C43.3249 589.675 43.3617 594.432 46.273 594.774C55.2278 595.859 51.0083 614.276 45.1306 616.445C38.4237 618.899 31.5694 613.344 29.561 606.932C28.6581 604.04 24.2176 605.276 25.1204 608.206V608.264Z" fill="#015CCA"/>
<path d="M62.4094 577.29C68.7321 586.733 81.7404 590.433 91.1957 583.187C102.867 574.283 99.6769 560.85 93.1059 549.904C92.752 549.458 92.2525 549.153 91.6965 549.044C91.1405 548.935 90.5643 549.029 90.0708 549.31C89.5772 549.59 89.1985 550.038 89.0021 550.574C88.8058 551.11 88.8047 551.699 88.999 552.236C93.8318 560.291 97.6903 569.793 90.0687 577.656C83.1348 584.825 71.8456 582.686 66.5353 574.746C64.8353 572.183 60.6902 574.592 62.4094 577.174V577.29Z" fill="#015CCA"/>
<path d="M64.8524 637.11C61.9844 624.884 80.5897 629.655 86.3993 622.983C93.073 615.379 90.683 605.818 101.364 601.271C103.424 600.395 104.729 600.917 106.88 599.407C110.741 596.742 111.715 592.679 116.605 591.077C122.121 589.213 125.798 588.393 126 581.33C126 580.712 125.758 580.119 125.327 579.682C124.896 579.245 124.311 579 123.702 579C123.092 579 122.508 579.245 122.077 579.682C121.646 580.119 121.404 580.712 121.404 581.33C121.294 586.921 113.884 586.082 110.777 588.244C106.457 591.244 106.126 595.009 100.445 596.612C94.1209 598.382 91.2529 600.712 88.5871 607.235C87.7046 609.322 87.1899 611.559 86.3809 613.683C84.5425 618.659 83.3842 620.336 77.832 621.138C74.4676 621.604 70.4782 621.362 67.2057 622.871C64.4883 624.257 62.3321 626.56 61.1075 629.383C59.8829 632.205 59.6664 635.373 60.4952 638.34C61.1939 641.247 65.6246 640.017 64.926 637.11H64.8524Z" fill="#015CCA"/>
<path d="M90.9646 562.803L90.0348 568.98C89.7826 570.625 90.9331 572.851 92.446 572.048C93.1981 571.756 93.8545 571.159 94.3154 570.348C94.7762 569.537 95.0163 568.557 94.9991 567.556C94.9991 566.891 94.7916 566.253 94.4221 565.783C94.0527 565.313 93.5516 565.049 93.0292 565.049C92.5067 565.049 92.0056 565.313 91.6362 565.783C91.2667 566.253 91.0592 566.891 91.0592 567.556L90.8543 575.578C90.8543 578.807 94.7155 578.807 94.7943 575.578L94.9991 567.556H91.0592L91.4059 567.215L93.8329 570.304L94.7312 564.147C95.1883 560.998 91.4059 559.634 90.9331 562.803H90.9646Z" fill="#015CCA"/>
<path d="M47.7069 600.151C48.0869 603.504 47.8691 606.907 47.0658 610.168L51.1096 610.767V603.508C51.1096 602.906 50.8931 602.329 50.5078 601.904C50.1224 601.478 49.5998 601.239 49.0548 601.239C48.5098 601.239 47.9872 601.478 47.6018 601.904C47.2165 602.329 47 602.906 47 603.508V607.464H51.1096V603.09H47V606.43C47 607.031 47.2165 607.608 47.6018 608.034C47.9872 608.459 48.5098 608.698 49.0548 608.698C49.5998 608.698 50.1224 608.459 50.5078 608.034C50.8931 607.608 51.1096 607.031 51.1096 606.43V603.09C51.1096 602.489 50.8931 601.912 50.5078 601.486C50.1224 601.061 49.5998 600.822 49.0548 600.822C48.5098 600.822 47.9872 601.061 47.6018 601.486C47.2165 601.912 47 602.489 47 603.09V607.464C47 608.066 47.2165 608.643 47.6018 609.068C47.9872 609.493 48.5098 609.732 49.0548 609.732C49.5998 609.732 50.1224 609.493 50.5078 609.068C50.8931 608.643 51.1096 608.066 51.1096 607.464V603.508H47V610.767C47.0077 611.31 47.1916 611.832 47.5182 612.238C47.8449 612.644 48.2927 612.907 48.7803 612.98C49.2678 613.052 49.7627 612.929 50.1751 612.633C50.5874 612.337 50.8899 611.887 51.0274 611.366C51.9539 607.721 52.222 603.91 51.8165 600.151C51.4877 597.301 47.3781 597.265 47.7069 600.151Z" fill="#015CCA"/>
<path d="M1.89973 595.312C3.61016 593.459 2.70796 592.625 3.49739 590.587L3.15906 588.845C4.08612 587.893 5.25438 587.201 6.54309 586.843C7.83181 586.485 9.19422 586.472 10.4895 586.807C14.0052 586.757 17.5176 587.043 20.9777 587.659C21.6008 587.659 22.1984 587.415 22.639 586.981C23.0796 586.546 23.3272 585.957 23.3272 585.343C22.1383 576.336 20.1701 567.445 17.444 558.769L13.9855 561.382L33.8153 569.721C34.1741 569.915 34.5774 570.015 34.9866 570.011C35.3957 570.007 35.797 569.899 36.1518 569.698C36.5066 569.497 36.803 569.209 37.0127 568.863C37.2223 568.517 37.3381 568.123 37.349 567.72C36.9389 557.827 37.253 547.918 38.2888 538.07L34.7551 540.071C42.1904 543.554 49.3197 547.638 56.0698 552.283C56.4274 552.47 56.8276 552.564 57.2323 552.555C57.637 552.546 58.0326 552.435 58.3813 552.232C58.7301 552.029 59.0204 551.742 59.2244 551.397C59.4285 551.053 59.5396 550.662 59.547 550.263C59.5176 543.213 60.2549 536.181 61.7461 529.286L58.8516 530.917C63.5919 532.687 68.1964 534.793 72.629 537.217C72.987 537.417 73.3915 537.521 73.8027 537.52C74.2139 537.518 74.6177 537.411 74.9743 537.209C75.3309 537.007 75.6279 536.717 75.8363 536.368C76.0447 536.018 76.1572 535.621 76.1627 535.216L77.2152 516.314L73.6816 518.316C77.0766 520.508 80.2268 523.049 83.0796 525.895C83.526 526.291 84.1093 526.503 84.7095 526.488C85.3097 526.473 85.8814 526.232 86.3071 525.815C86.7329 525.398 86.9804 524.835 86.9989 524.244C87.0174 523.652 86.8054 523.076 86.4065 522.633C83.2751 519.5 79.809 516.711 76.0687 514.313C75.7102 514.109 75.3037 514.001 74.8898 514C74.4758 513.999 74.0688 514.105 73.7094 514.308C73.35 514.51 73.0507 514.802 72.8414 515.154C72.632 515.506 72.5199 515.906 72.5162 516.314L71.4637 535.16L74.9973 533.159C70.2018 530.559 65.2275 528.292 60.1109 526.377C59.5078 526.217 58.8653 526.299 58.3233 526.605C57.7812 526.91 57.3834 527.414 57.2163 528.007C55.6368 535.316 54.8617 542.772 54.9044 550.245L58.438 548.243C51.6906 543.595 44.5609 539.51 37.1234 536.031C36.7646 535.837 36.3613 535.738 35.9521 535.742C35.543 535.746 35.1417 535.853 34.7869 536.054C34.4321 536.255 34.1357 536.543 33.9261 536.889C33.7164 537.236 33.6006 537.629 33.5898 538.033C32.5543 547.881 32.2402 557.79 32.65 567.683L36.1836 565.681L16.3162 557.379C14.587 556.657 12.1999 557.88 12.8766 560.011C15.5182 568.278 17.4362 576.753 18.6094 585.343L20.9964 583.026C16.2035 582.507 4.08006 579.561 -0.0550526 583.026C-3.21278 585.713 0.452439 589.92 -1.42716 591.977C-3.30676 594.034 -0.130237 597.536 1.89973 595.257V595.312Z" fill="#015CCA"/>
<path d="M108.667 488.029C111.583 478.113 115.606 468.552 120.662 459.523L116.267 458.343L120.53 493.685C120.718 495.202 122.416 496.907 124.075 495.708L151.799 474.75L148.574 471.547C144.179 480.4 138.734 488.7 132.355 496.27C132.004 496.639 131.782 497.112 131.723 497.617C131.664 498.121 131.77 498.632 132.027 499.072C132.283 499.511 132.676 499.857 133.146 500.058C133.616 500.258 134.139 500.303 134.637 500.184L166.434 492.917L163.53 490.052C161.644 496.045 155.42 500.858 151.196 505.222L138.39 518.426C138.035 518.797 137.812 519.272 137.752 519.779C137.693 520.287 137.801 520.8 138.06 521.241C138.32 521.683 138.717 522.029 139.191 522.227C139.665 522.425 140.192 522.465 140.691 522.341C151.24 520.255 161.745 518.008 172.205 515.598L169.546 512.171C161.342 523.764 150.347 532.51 139.182 541.145C136.787 543.017 140.144 546.295 142.501 544.46C154.043 535.545 165.133 526.498 173.62 514.493C174.865 512.714 172.809 510.635 170.961 511.047C160.475 513.469 149.963 515.717 139.427 517.789L141.785 521.741C147.757 515.573 153.729 509.411 159.701 503.256C163.304 499.51 166.623 496.345 168.132 491.288C168.232 490.889 168.227 490.472 168.116 490.076C168.006 489.68 167.794 489.32 167.502 489.029C167.209 488.739 166.846 488.529 166.447 488.419C166.049 488.309 165.629 488.304 165.227 488.404L133.392 495.67L135.693 499.585C142.105 491.475 148.272 483.365 152.667 473.926C153.515 472.053 151.535 469.15 149.442 470.723L121.718 491.681L125.263 493.704L121.039 458.362C120.775 456.227 117.889 454.935 116.645 457.164C111.351 466.543 107.132 476.481 104.065 486.793C103.922 487.384 104.017 488.007 104.328 488.531C104.64 489.054 105.144 489.437 105.735 489.597C106.325 489.758 106.956 489.684 107.492 489.391C108.029 489.099 108.43 488.61 108.61 488.029H108.667Z" fill="#015CCA"/>
<path d="M-6.27235 646.534C-7.22983 647.727 -7.72403 649.231 -7.66289 650.764C-7.60174 652.297 -6.98941 653.756 -5.93999 654.868L-2.65332 661.342L3.90154 674.364C4.16543 674.792 4.55932 675.123 5.02476 675.308C5.4902 675.493 6.00239 675.522 6.48536 675.39C6.96833 675.259 7.39633 674.974 7.70588 674.578C8.01542 674.182 8.19001 673.696 8.20375 673.192C8.26301 666.814 10.2465 660.605 13.8908 655.389L9.58858 654.217C10.9806 665.323 11.6713 676.508 11.6566 687.702C11.6787 688.253 11.8929 688.779 12.2615 689.186C12.6301 689.594 13.1295 689.857 13.6719 689.931C14.2143 690.004 14.765 689.882 15.2271 689.587C15.6893 689.292 16.0334 688.842 16.1988 688.316L22.6244 671.09L18.3961 671.648L32.0782 703.794C33.0938 706.194 36.1589 704.594 36.3804 702.622L39.981 671.797C40.3318 668.82 35.7157 668.857 35.3649 671.797L31.7643 702.622L36.0665 701.45L22.3844 669.285C21.5166 667.258 18.7839 668.206 18.1745 669.843L11.7489 687.07L16.2727 687.702C16.2874 676.508 15.5967 665.323 14.2047 654.217C14.1909 653.713 14.0164 653.227 13.7068 652.831C13.3973 652.435 12.9693 652.15 12.4863 652.019C12.0033 651.887 11.4911 651.916 11.0257 652.101C10.5602 652.286 10.1664 652.617 9.90247 653.045C5.83116 658.947 3.6237 665.949 3.56918 673.136L7.87139 671.964L-0.326808 655.761C-2.17325 652.04 -3.61347 647.501 -6.56778 644.599C-6.94355 644.26 -7.41877 644.052 -7.92171 644.009C-8.42466 643.965 -8.92804 644.087 -9.3559 644.357L-9.87291 644.748C-10.3037 645.014 -10.6383 645.413 -10.8277 645.885C-11.0172 646.357 -11.0514 646.878 -10.9254 647.371L-10.7407 647.855C-9.65133 650.608 -5.20141 649.399 -6.29081 646.627L-6.27235 646.534Z" fill="#015CCA"/>
<path d="M88.3404 664.413L100.867 687.178C103.596 692.084 106.552 693.849 102.497 699.09C99.6381 702.283 96.5609 705.282 93.2866 708.066C91.1262 710.184 94.4237 713.399 96.641 711.337L105.074 703.569C107.31 701.506 103.956 698.235 101.739 700.279L93.2866 708.066L96.641 711.337C101.17 706.932 111.063 701.078 109.907 694.035C109.187 689.594 104.619 684.242 102.44 680.283L92.3959 662.146C90.9556 659.526 86.8622 661.867 88.3025 664.487L88.3404 664.413Z" fill="#015CCA"/>
<path d="M114.57 632.012L129.562 649.611C134.341 655.226 139.176 663.301 145.06 667.742C151.788 672.77 158.291 661.374 162.339 657.263L158.591 654.474C156.389 657.772 153.58 660.641 150.307 662.934C147.909 664.677 150.307 668.66 152.669 666.898C156.565 664.132 159.934 660.715 162.62 656.805C164.138 654.621 160.746 652.162 158.872 654.015C157.372 655.538 150.532 664.31 148.79 664.237C146.166 664.145 140.862 655.924 139.157 653.923L117.887 628.764C116.013 626.506 112.659 629.755 114.57 632.012Z" fill="#015CCA"/>
<path d="M104.697 169.81C108.851 155.22 129.757 163.165 122.074 176.437C119.816 180.334 115.794 183.026 113.935 187.224C112.247 190.989 111.773 196.467 114.485 199.988C118.469 205.146 127.765 200.214 128.865 206.972C129.643 212.3 125.754 215.802 131.521 219.604C134.082 221.28 136.453 217.195 133.911 215.538C128.315 211.773 139.014 200.477 128.391 198.068C123.345 196.957 117.521 202.473 117.578 191.159C117.578 187.393 122.13 184.193 124.084 181.539C126.399 178.395 128.561 175.477 128.884 171.448C130.345 153.112 104.697 152.321 100.087 168.549C100.003 168.847 99.9797 169.158 100.018 169.465C100.055 169.772 100.154 170.068 100.307 170.338C100.46 170.607 100.665 170.844 100.911 171.034C101.156 171.225 101.437 171.365 101.737 171.448C102.343 171.615 102.992 171.537 103.54 171.23C103.811 171.077 104.049 170.874 104.241 170.63C104.433 170.387 104.575 170.108 104.659 169.81H104.697Z" fill="#015CCA"/>
<path d="M71.41 960.77C76.8089 966.381 81.4967 972.64 85.3683 979.406C86.9352 982.155 91.2909 979.771 89.7071 977.011C85.6386 969.857 80.7028 963.239 75.0115 957.307C74.5558 956.857 73.9424 956.604 73.3012 956.601C72.6601 956.599 72.0414 956.846 71.5761 957.292C71.1109 957.737 70.8355 958.346 70.8083 958.989C70.7811 959.632 71.0043 960.259 71.4305 960.736L71.41 960.77Z" fill="#015CCA"/>
<path d="M86.9223 956.766L69.5703 983.742C67.7841 986.516 72.0955 989.109 73.8816 986.335L91.2336 959.359C93.0198 956.584 88.6979 954.009 86.9223 956.766Z" fill="#015CCA"/>
<path d="M98.6413 955.168C97.2294 962.614 96.9187 970.238 97.7189 977.8C98.1423 981.077 103.222 981.11 102.831 977.899C102.037 970.779 102.285 963.596 103.567 956.572C104.164 953.389 99.1787 951.926 98.6413 955.168Z" fill="#015CCA"/>
<path d="M102.561 955.023C103.01 960.005 104.047 966.14 109.66 967.608C110.652 967.901 111.696 967.974 112.723 967.823C113.75 967.673 114.735 967.301 115.61 966.735C116.91 964.975 118.001 963.07 118.862 961.058L116.396 958.538L117.945 979.422C118.183 982.627 123.193 982.697 122.949 979.464L121.393 958.553C121.39 957.89 121.133 957.257 120.676 956.784C120.219 956.312 119.596 956.036 118.937 956.016C118.007 956.046 117.101 956.335 116.318 956.85C115.536 957.365 114.909 958.085 114.505 958.933C113.539 960.307 113.968 963.038 111.022 962.75C108.075 962.462 107.758 957.183 107.565 955.065C107.289 951.884 102.247 951.866 102.561 955.023Z" fill="#015CCA"/>
<path d="M38.1463 1021.83C39.0936 1026.9 39.1809 1032.07 38.4048 1037.11C37.9154 1040.26 42.8811 1041.76 43.3732 1038.57C44.2841 1032.66 44.1794 1026.61 43.0635 1020.66C42.5482 1017.49 37.514 1018.61 38.0929 1021.79L38.1463 1021.83Z" fill="#015CCA"/>
<path d="M58.7284 1014.94C47.7398 1018.7 36.9236 1022.9 26.2798 1027.51C23.2914 1028.81 25.7638 1033.23 28.714 1031.95C38.9877 1027.51 49.4139 1023.46 59.9927 1019.82C63.0099 1018.75 61.8083 1013.88 58.7284 1014.94Z" fill="#015CCA"/>
<path d="M64.5469 1021.44L48.9118 1041.41C46.9155 1043.98 51.0936 1046.44 53.0689 1043.91L68.7041 1023.94C70.7108 1021.36 66.5327 1018.89 64.5469 1021.44Z" fill="#015CCA"/>
<path d="M63.8449 1022.38C61.8443 1026.31 60.259 1032.35 65.4283 1034.87C70.5977 1037.39 76.5856 1030.56 80.0856 1028.03L76.1245 1024.87L62.9976 1048.66C61.4224 1051.52 65.8418 1054.2 67.4274 1051.32L80.449 1027.59C80.7532 1027.06 80.8554 1026.45 80.7369 1025.84C80.6185 1025.24 80.2873 1024.7 79.8035 1024.32C79.3197 1023.93 78.7154 1023.73 78.1004 1023.74C77.4855 1023.76 76.9007 1023.99 76.4524 1024.4L71.3078 1028.14L68.6457 1030.04C68.2552 1029.76 67.9303 1029.4 67.6941 1028.98C67.4579 1028.57 67.316 1028.1 67.2787 1027.63C67.2413 1027.16 67.3092 1026.68 67.4777 1026.24C67.6463 1025.8 67.9112 1025.4 68.2538 1025.08C69.7018 1022.19 65.2929 1019.49 63.8241 1022.41L63.8449 1022.38Z" fill="#015CCA"/>
<path d="M71.41 960.77C76.8089 966.381 81.4967 972.64 85.3683 979.406C86.9352 982.155 91.2909 979.771 89.7071 977.011C85.6386 969.857 80.7028 963.239 75.0115 957.307C74.5558 956.857 73.9424 956.604 73.3012 956.601C72.6601 956.599 72.0414 956.846 71.5761 957.292C71.1109 957.737 70.8355 958.346 70.8083 958.989C70.7811 959.632 71.0043 960.259 71.4305 960.736L71.41 960.77Z" fill="#015CCA"/>
<path d="M86.9223 956.766L69.5703 983.742C67.7841 986.516 72.0955 989.109 73.8816 986.335L91.2336 959.359C93.0198 956.584 88.6979 954.009 86.9223 956.766Z" fill="#015CCA"/>
<path d="M98.6413 955.168C97.2294 962.614 96.9187 970.238 97.7189 977.8C98.1423 981.077 103.222 981.11 102.831 977.899C102.037 970.779 102.285 963.596 103.567 956.572C104.164 953.389 99.1787 951.926 98.6413 955.168Z" fill="#015CCA"/>
<path d="M58.7284 1014.94C47.7398 1018.7 36.9236 1022.9 26.2798 1027.51C23.2914 1028.81 25.7638 1033.23 28.714 1031.95C38.9877 1027.51 49.4139 1023.46 59.9927 1019.82C63.0099 1018.75 61.8083 1013.88 58.7284 1014.94Z" fill="#015CCA"/>
<path d="M64.5469 1021.44L48.9118 1041.41C46.9155 1043.98 51.0936 1046.44 53.0689 1043.91L68.7041 1023.94C70.7108 1021.36 66.5327 1018.89 64.5469 1021.44Z" fill="#015CCA"/>
<path d="M63.8449 1022.38C61.8443 1026.31 60.259 1032.35 65.4283 1034.87C70.5977 1037.39 76.5856 1030.56 80.0856 1028.03L76.1245 1024.87L62.9976 1048.66C61.4224 1051.52 65.8418 1054.2 67.4274 1051.32L80.449 1027.59C80.7532 1027.06 80.8554 1026.45 80.7369 1025.84C80.6185 1025.24 80.2873 1024.7 79.8035 1024.32C79.3197 1023.93 78.7154 1023.73 78.1004 1023.74C77.4855 1023.76 76.9007 1023.99 76.4524 1024.4L71.3078 1028.14L68.6457 1030.04C68.2552 1029.76 67.9303 1029.4 67.6941 1028.98C67.4579 1028.57 67.316 1028.1 67.2787 1027.63C67.2413 1027.16 67.3092 1026.68 67.4777 1026.24C67.6463 1025.8 67.9112 1025.4 68.2538 1025.08C69.7018 1022.19 65.2929 1019.49 63.8241 1022.41L63.8449 1022.38Z" fill="#015CCA"/>
<path d="M42.7659 946.809C32.7236 945.909 28.8697 934.36 33.8028 926.587C35.9097 923.453 38.8457 920.961 42.2856 919.387C45.7256 917.814 49.5352 917.221 53.2926 917.673C73.1128 920.571 61.551 948.719 54.4598 958.138C52.2575 960.971 57.1245 963.715 59.2166 960.905C66.5941 951.09 72.4301 936.27 68.5762 923.887C65.3609 913.743 54.5479 910.34 44.88 912.733C35.2122 915.126 26.7556 922.789 26.0509 932.779C25.6916 937.573 27.2466 942.314 30.3773 945.97C33.5081 949.625 37.9608 951.9 42.7659 952.298C46.3115 952.627 46.2895 947.138 42.7659 946.809Z" fill="#015CCA"/>
<path d="M48.0296 983.366C48.0296 983.673 48.0296 983.651 48.0296 983.366V983.783C48.0296 983.409 48.0296 983.387 48.0296 983.783L47.8975 984.2C48.0589 983.878 48.0589 983.878 47.8975 984.2C47.7433 984.441 47.7653 984.441 47.8975 984.2C47.8138 984.313 47.7177 984.416 47.6112 984.507C47.8974 984.31 47.8974 984.31 47.6112 984.507C47.2117 984.643 46.8488 984.868 46.5504 985.165C46.2521 985.463 46.0263 985.824 45.8905 986.223C45.7548 986.621 45.7127 987.045 45.7674 987.462C45.8222 987.879 45.9724 988.278 46.2065 988.628C46.4405 988.978 46.7521 989.27 47.1172 989.481C47.4823 989.692 47.8911 989.816 48.3121 989.844C48.7331 989.872 49.1549 989.804 49.5451 989.644C49.9352 989.483 50.2832 989.236 50.5622 988.92C51.7096 988.195 52.5993 987.129 53.1052 985.872C53.6111 984.615 53.7076 983.231 53.381 981.916C53.1851 981.219 52.7224 980.625 52.0923 980.264C51.4623 979.903 50.7151 979.802 50.0116 979.984C49.3131 980.189 48.7212 980.656 48.36 981.286C47.9987 981.916 47.8961 982.662 48.0736 983.366H48.0296Z" fill="#015CCA"/>
<path d="M55.1597 817.676L29.3922 808.48L29.1539 812.81L59.9496 800.918C60.2853 800.795 60.5888 800.598 60.8374 800.342C61.086 800.085 61.2733 799.775 61.3852 799.436C61.4972 799.096 61.531 798.735 61.484 798.38C61.437 798.025 61.3105 797.685 61.114 797.385C55.748 788.557 51.7227 778.983 49.1705 768.976L45.9669 771.835C55.17 775.398 63.8126 780.275 71.6256 786.315C72.0192 786.632 72.5037 786.814 73.0076 786.835C73.5116 786.856 74.0085 786.714 74.4251 786.43C74.8417 786.147 75.156 785.737 75.3218 785.261C75.4875 784.784 75.496 784.267 75.3458 783.784C73.1795 777.58 93.0497 762.906 96.5887 759.909L92.9865 757.536C91.5119 766.606 89.1693 775.512 85.9911 784.129C85.7863 784.593 85.7362 785.11 85.8483 785.604C85.9604 786.099 86.2287 786.545 86.6134 786.876C86.9981 787.206 87.4787 787.404 87.9839 787.44C88.4891 787.476 88.992 787.348 89.418 787.075C101.341 780.935 113.69 775.66 126.371 771.289L123.832 767.558C116.639 777.45 108.115 786.298 98.4999 793.852C98.1337 794.121 97.8524 794.488 97.6894 794.912C97.5263 795.336 97.4882 795.799 97.5798 796.244C97.6714 796.69 97.8888 797.1 98.206 797.427C98.5233 797.753 98.9272 797.981 99.3698 798.085C107.16 799.613 114.568 802.691 121.155 807.137L122.51 803.021C111.541 802.601 100.633 804.755 90.6585 809.312C89.4101 809.867 88.4177 811.561 89.4836 812.829L103.782 829.896L106.143 826.297C97.4249 824.417 89.1746 820.782 81.8941 815.614C80.4212 814.578 77.7137 815.378 78.0585 817.544C79.0893 824.204 91.8368 839.224 84.117 844.34L87.3633 844.963C82.6561 836.384 77.1391 828.275 70.8882 820.747C70.6218 820.375 70.2536 820.089 69.8283 819.922C69.403 819.756 68.9389 819.717 68.4924 819.809C68.046 819.902 67.6363 820.122 67.3134 820.444C66.9904 820.766 66.768 821.175 66.6731 821.621C64.3595 830.286 60.9039 838.601 56.3972 846.347L60.8349 847.858C61.7092 841.941 65.9122 830.361 62.7916 824.579C59.9828 819.355 49.8222 816.37 44.9735 813.757C42.3199 812.346 40.3129 816.565 42.9665 817.976C47.3877 820.359 55.6468 822.939 57.7801 827.536C60.1361 832.592 57.0922 841.594 56.2641 846.981C56.0656 847.57 56.109 848.214 56.3847 848.772C56.6605 849.33 57.1461 849.756 57.7346 849.956C58.3231 850.156 58.9663 850.115 59.5227 849.84C60.0792 849.566 60.5033 849.081 60.7018 848.492C65.3461 840.388 68.9067 831.706 71.2925 822.669L67.0515 823.538C73.3025 831.066 78.8194 839.175 83.5266 847.754C83.8821 848.259 84.4198 848.607 85.0257 848.723C85.6316 848.839 86.2583 848.715 86.773 848.377C99.4901 839.951 84.2189 826.898 82.7426 817.393L78.8916 819.333C86.8146 824.938 95.7788 828.891 105.25 830.959C105.702 831.031 106.166 830.972 106.584 830.787C107.002 830.602 107.358 830.299 107.608 829.916C107.858 829.533 107.992 829.085 107.993 828.627C107.995 828.169 107.864 827.719 107.616 827.333L93.3084 810.386L92.1286 813.929C101.746 809.529 112.262 807.438 122.842 807.824C123.298 807.782 123.732 807.607 124.089 807.321C124.447 807.035 124.713 806.65 124.856 806.215C124.998 805.779 125.01 805.31 124.89 804.867C124.77 804.424 124.524 804.025 124.181 803.719C116.97 798.773 108.847 795.32 100.29 793.563L101.186 797.801C111.137 789.991 119.955 780.836 127.39 770.596C127.705 770.203 127.886 769.718 127.905 769.214C127.924 768.709 127.781 768.212 127.497 767.794C127.213 767.376 126.802 767.06 126.326 766.893C125.85 766.726 125.333 766.716 124.851 766.865C111.758 771.341 99.0073 776.76 86.7002 783.081L90.1271 786.027C93.4703 777.057 95.9494 767.786 97.5307 758.34C97.8219 756.511 95.5464 754.593 93.9025 755.961C86.8865 761.694 80.3449 767.985 74.3414 774.773C71.5668 777.997 69.3642 780.9 70.8671 785.2L74.5874 782.669C66.4675 776.371 57.4864 771.275 47.9213 767.538C47.5048 767.355 47.0447 767.295 46.5957 767.365C46.1468 767.436 45.7278 767.634 45.3888 767.936C45.0497 768.238 44.8047 768.632 44.683 769.07C44.5613 769.508 44.568 769.973 44.7023 770.408C47.3815 780.813 51.5944 790.764 57.2021 799.933L58.3771 796.416L27.5968 808.297C25.8109 808.991 25.2926 811.88 27.348 812.611L53.1 821.818C55.9099 822.828 57.9008 818.552 55.107 817.599L55.1597 817.676Z" fill="#015CCA"/>
</svg>
