<svg width="297" height="1254" viewBox="0 0 297 1254" fill="none" xmlns="http://www.w3.org/2000/svg">
<path d="M190.141 357.638C214.619 322.585 233.465 282.098 239.71 237.534C246.121 191.886 238.426 143.114 214.415 102.312C211.856 97.9685 206.111 102.296 208.67 106.64C256.632 187.996 231.659 284.853 184.481 352.466C181.776 356.337 187.481 361.509 190.194 357.619L190.141 357.638Z" fill="#EA008B"/>
<path d="M212.461 105.155C230.49 92.7308 248.822 62.3801 235.354 40.5844C218.394 13.1445 193.826 58.9545 190.602 73.8636C188.286 84.513 192.543 95.1624 205.353 94.0619C217.147 93.0325 226.927 81.8507 230.722 71.432C232.931 65.3974 236.067 45.9623 223.453 50.7368C213.085 54.677 208.649 71.2368 207.687 80.8212C207.223 85.5247 213.779 86.4122 215.989 83.0576C221.258 75.2024 223.861 65.8716 223.418 56.4342C223.395 55.2645 222.918 54.149 222.088 53.3217C221.257 52.4944 220.138 52.0197 218.964 51.9969C206.35 51.9969 202.467 71.3255 200.649 80.8567C199.581 86.4299 208.168 88.826 209.236 83.2173C210.02 79.0641 213.245 60.8892 218.964 60.8714L214.51 56.4342C214.942 64.315 212.757 72.1182 208.292 78.6381L216.594 80.8745C217.004 76.1651 218.323 71.5788 220.478 67.3675C221.173 66.0541 225.092 58.7415 226.696 59.3805L223.578 56.2922C225.36 62.4156 222.367 70.1896 218.892 75.1771C215.579 79.8983 200.275 92.0208 198.44 80.6437C197.55 75.0351 202.11 66.1073 204.551 61.3506C207.409 55.7612 211.096 50.6332 215.49 46.1398C230.081 31.3017 231.185 58.9368 228.869 67.9532C225.7 79.9978 218.281 90.5016 207.972 97.5407C203.286 100.789 207.74 108.474 212.461 105.208V105.155Z" fill="#EA008B"/>
<path d="M196.881 94.9285C192.631 94.7988 188.458 93.739 184.644 91.8207C182.963 90.9249 181.462 89.713 180.221 88.2486C179.714 87.5877 177.092 83.4262 177.774 82.8904C179.172 81.6759 185.291 86.7126 186.357 87.8199C189.058 90.6903 190.817 94.3482 191.392 98.2863L196.776 92.803C195.312 92.3223 193.986 91.4786 192.919 90.3473C191.851 89.2161 191.074 87.8323 190.657 86.3197C190.408 85.4896 189.93 84.7505 189.281 84.1906C188.632 83.6308 187.838 83.274 186.995 83.1628C186.152 83.0517 185.296 83.1909 184.529 83.5638C183.762 83.9368 183.116 84.5277 182.668 85.2659C181.673 86.8052 181.142 88.6094 181.142 90.4544C181.142 92.2993 181.673 94.1035 182.668 95.6429C185.64 100.501 193.157 96.0358 190.22 91.142V89.7667L182.231 88.6951C183.097 91.6758 184.666 94.3939 186.799 96.6111C188.933 98.8282 191.566 100.477 194.468 101.412C197.965 102.609 200.377 99.0007 199.835 95.9108C198.558 88.7253 194.54 82.3522 188.665 78.1931C183.84 74.7281 175.256 71.2989 170.851 77.1929C166.445 83.0869 170.746 91.3028 174.994 95.625C180.798 101.537 188.979 103.323 196.811 103.984C202.405 104.43 202.388 95.5 196.811 95.0535L196.881 94.9285Z" fill="#EA008B"/>
<path d="M165 363H177.869C182.354 363 186 359.732 186 355.672V337.327C186 333.268 182.354 330 177.869 330H165" fill="#0058AF"/>
<path d="M160.437 206L173.159 206.181C180.368 206.289 186.116 213.81 185.998 222.993V224.602C185.881 233.768 179.931 241.107 172.722 240.999L160 240.8L160.437 206Z" fill="#0058AF"/>
<path d="M166 374.929V236.847C166 158.499 116.447 95 55.329 95H44.6533C-16.4649 95 -66 158.499 -66 236.847V375L166 374.929Z" fill="#015CCA"/>
<path d="M131.809 175H-35.8091C-41.4374 175 -46 179.569 -46 185.205V225.795C-46 231.431 -41.4374 236 -35.8091 236H131.809C137.437 236 142 231.431 142 225.795V185.205C142 179.569 137.437 175 131.809 175Z" fill="#02569B"/>
<path d="M134.374 249H-34.3741C-51.8406 249 -66 263.013 -66 280.299V336.701C-66 353.987 -51.8406 368 -34.3741 368H134.374C151.841 368 166 353.987 166 336.701V280.299C166 263.013 151.841 249 134.374 249Z" fill="#039BEF"/>
<path d="M146 265V324.176C146 341.192 131.278 355 113.128 355H-13.1105C-31.2784 355 -46 341.192 -46 324.176V265" fill="#0058AF"/>
<path d="M85 265V293.009C85 294.067 84.5813 295.083 83.8361 295.831C83.0908 296.579 82.08 297 81.026 297H-29.026C-30.08 297 -31.0908 296.579 -31.836 295.831C-32.5813 295.083 -33 294.067 -33 293.009V265" fill="white"/>
<path d="M124.998 265V290.826C125.043 292.416 124.42 293.957 123.265 295.114C122.11 296.271 120.516 296.949 118.833 297H103.167C101.484 296.949 99.8904 296.271 98.7352 295.114C97.5799 293.957 96.9569 292.416 97.0023 290.826V265" fill="white"/>
<path d="M-16 355C-16 330.207 12.8662 310 48.4911 310C84.1159 310 113 330.136 113 355" fill="#EA008B"/>
<path d="M70.577 321H27.423C24.428 321 22 323.239 22 326C22 328.761 24.428 331 27.423 331H70.577C73.572 331 76 328.761 76 326C76 323.239 73.572 321 70.577 321Z" fill="#EF73C3"/>
<path d="M7 231C22.464 231 35 218.464 35 203C35 187.536 22.464 175 7 175C-8.46397 175 -21 187.536 -21 203C-21 218.464 -8.46397 231 7 231Z" fill="white"/>
<path d="M88.5 231C104.24 231 117 218.464 117 203C117 187.536 104.24 175 88.5 175C72.7599 175 60 187.536 60 203C60 218.464 72.7599 231 88.5 231Z" fill="white"/>
<path d="M7.5 217C14.4036 217 20 211.404 20 204.5C20 197.596 14.4036 192 7.5 192C0.596444 192 -5 197.596 -5 204.5C-5 211.404 0.596444 217 7.5 217Z" fill="black"/>
<path d="M89 217C96.1797 217 102 211.404 102 204.5C102 197.596 96.1797 192 89 192C81.8203 192 76 197.596 76 204.5C76 211.404 81.8203 217 89 217Z" fill="black"/>
<path d="M131.809 167H-35.8091C-41.4374 167 -46 171.513 -46 177.081V190.919C-46 196.487 -41.4374 201 -35.8091 201H131.809C137.437 201 142 196.487 142 190.919V177.081C142 171.513 137.437 167 131.809 167Z" fill="#EA008B"/>
<path d="M39.5127 175H-30.5127C-33.5433 175 -36 177.462 -36 180.5C-36 183.538 -33.5433 186 -30.5127 186H39.5127C42.5432 186 45 183.538 45 180.5C45 177.462 42.5432 175 39.5127 175Z" fill="#EF73C3"/>
<path d="M167.561 216.466C169.448 216.94 171.336 219.419 172.853 220.694L178.146 225.45C180.298 227.273 183.438 224.138 181.268 222.225L174.582 216.284C172.818 214.735 171.054 212.64 168.76 212.075C165.99 211.382 164.808 215.719 167.578 216.466H167.561Z" fill="#FFD900"/>
<path d="M177.647 212.073C175.149 216.465 172.394 220.731 169.396 224.852C167.724 227.16 171.783 229.313 173.456 227.022C176.454 222.901 179.208 218.635 181.707 214.243C183.117 211.797 179.057 209.627 177.647 212.073Z" fill="#FFD900"/>
<path d="M5.00038 245.437L5.28335 247.562C5.30997 248.208 5.5573 248.823 5.98138 249.298C6.19791 249.525 6.45666 249.704 6.742 249.824C7.02733 249.945 7.33334 250.005 7.64159 250C8.26285 250.001 8.85947 249.749 9.3018 249.298C9.52609 249.073 9.70364 248.803 9.82365 248.504C9.94367 248.206 10.0036 247.886 9.99983 247.562L9.71685 245.437C9.69758 244.799 9.45641 244.19 9.03765 243.721C8.58808 243.267 7.98707 243.009 7.35862 243C6.73508 243.006 6.13883 243.265 5.69841 243.721C5.47283 243.941 5.29423 244.208 5.17402 244.503C5.05382 244.799 4.99467 245.117 5.00038 245.437Z" fill="#FFD900"/>
<path d="M11.0662 236.2L11.5724 239.153C11.7369 239.796 12.121 240.341 12.6419 240.67C13.1628 241 13.7786 241.086 14.3562 240.912C14.9262 240.719 15.4078 240.288 15.7007 239.708C15.9937 239.128 16.0754 238.443 15.9289 237.798L15.4228 234.866C15.2661 234.22 14.887 233.67 14.3686 233.337C13.8501 233.003 13.2347 232.913 12.657 233.086C12.0862 233.279 11.6031 233.71 11.3072 234.289C11.0114 234.868 10.9251 235.552 11.0662 236.2Z" fill="#FFD900"/>
<path d="M65 231.499L65.229 233.499C65.249 234.16 65.4925 234.791 65.916 235.28C66.3726 235.74 66.9809 235.998 67.6143 236C68.2427 236.001 68.8461 235.742 69.2935 235.28C69.5222 235.05 69.7031 234.774 69.8246 234.467C69.9461 234.161 70.0057 233.831 69.9996 233.499L69.7706 231.499C69.7473 230.839 69.5043 230.209 69.0837 229.718C68.6313 229.258 68.0255 229 67.3948 229C66.7642 229 66.1584 229.258 65.706 229.718C65.2549 230.19 65.001 230.831 65 231.499Z" fill="#FFD900"/>
<path d="M74 242.835C74.0732 243.961 74.3936 245.066 74.9452 246.094C75.2408 246.512 75.7204 246.815 76.2804 246.939C76.8404 247.063 77.4359 246.997 77.9383 246.755C78.4262 246.499 78.7793 246.097 78.9257 245.631C79.072 245.164 79.0006 244.668 78.726 244.245C78.901 244.568 78.726 244.068 78.726 244.039C78.6572 243.875 78.5988 243.709 78.5509 243.54C78.5509 243.378 78.4634 243.202 78.4459 243.041C78.4459 243.364 78.4459 242.938 78.4459 242.835C78.4459 242.348 78.2154 241.882 77.8051 241.537C77.3947 241.193 76.8382 241 76.2579 241C75.6777 241 75.1211 241.193 74.7108 241.537C74.3005 241.882 74.07 242.348 74.07 242.835H74Z" fill="#FFD900"/>
<path d="M89.0674 234.552L89.4909 236.522C89.5718 236.777 89.7093 237.016 89.8955 237.225C90.0818 237.434 90.3133 237.609 90.5766 237.739C90.8399 237.869 91.13 237.953 91.4303 237.985C91.7305 238.017 92.0349 237.997 92.3263 237.926C92.9055 237.775 93.3958 237.434 93.6944 236.974C93.993 236.513 94.0767 235.97 93.9282 235.456L93.5047 233.471C93.337 232.961 92.9485 232.528 92.4222 232.266C91.8959 232.003 91.2734 231.932 90.6877 232.066C90.1063 232.221 89.6143 232.564 89.3129 233.026C89.0116 233.489 88.9237 234.035 89.0674 234.552Z" fill="#FFD900"/>
<path d="M103 243.232V244.768C103 245.36 103.263 245.928 103.732 246.346C104.201 246.765 104.837 247 105.5 247C106.163 247 106.799 246.765 107.268 246.346C107.737 245.928 108 245.36 108 244.768V243.232C108 242.64 107.737 242.072 107.268 241.654C106.799 241.235 106.163 241 105.5 241C104.837 241 104.201 241.235 103.732 241.654C103.263 242.072 103 242.64 103 243.232Z" fill="#FFD900"/>
<path d="M111.014 228.016L111.296 229.984C111.313 230.515 111.561 231.021 111.99 231.403C112.428 231.781 113.021 231.995 113.641 232C114.785 232 116.155 231.097 115.986 229.984L115.704 228.016C115.687 227.485 115.439 226.979 115.01 226.597C114.572 226.219 113.979 226.005 113.359 226C112.215 226 110.845 226.903 111.014 228.016Z" fill="#FFD900"/>
<path d="M-2.87421 236.831L-2.38432 239.27C-2.23835 239.853 -1.87106 240.355 -1.36181 240.668C-0.85256 240.98 -0.242233 241.077 0.337364 240.938C0.908945 240.767 1.39351 240.38 1.69073 239.858C1.98796 239.336 2.0751 238.718 1.9341 238.133L1.44416 235.675C1.27906 235.092 0.89344 234.597 0.370587 234.299C-0.152265 234 -0.770326 233.922 -1.35007 234.08C-1.92223 234.255 -2.40559 234.646 -2.69962 235.172C-2.99364 235.698 -3.07568 236.318 -2.92864 236.904L-2.87421 236.831Z" fill="#FFD900"/>
<path d="M120.194 241.911L120.357 242.633C120.357 242.8 120.357 242.948 120.448 243.114C120.539 243.281 120.448 243.429 120.448 243.281C120.448 243.133 120.448 243.281 120.448 243.466C120.448 243.651 120.448 243.706 120.448 243.836C120.448 243.965 120.448 244.391 120.448 244.687C120.462 245.296 120.707 245.876 121.13 246.307C121.554 246.738 122.125 246.986 122.724 247C123.326 246.995 123.902 246.75 124.328 246.317C124.754 245.884 124.995 245.299 125 244.687C124.964 243.338 124.781 241.998 124.454 240.69C124.292 240.103 123.909 239.604 123.387 239.302C122.865 239.001 122.248 238.921 121.668 239.08C121.095 239.253 120.609 239.643 120.31 240.17C120.012 240.697 119.925 241.321 120.066 241.911H120.194Z" fill="#FFD900"/>
<path d="M23.0384 240.44C23.3154 241.107 23.5233 241.796 23.6593 242.499C23.7351 242.759 23.8663 243.002 24.0452 243.215C24.2242 243.428 24.4473 243.606 24.7016 243.738C24.9559 243.87 25.2363 243.955 25.5264 243.986C25.8164 244.018 26.1103 243.996 26.391 243.921C26.9466 243.765 27.4162 243.419 27.7032 242.954C27.9903 242.489 28.073 241.94 27.9344 241.42C27.7983 240.714 27.5964 240.019 27.3312 239.345C27.1368 238.861 26.7522 238.461 26.2535 238.226C25.7549 237.991 25.1786 237.937 24.6387 238.075C24.0988 238.212 23.6348 238.532 23.3384 238.97C23.042 239.408 22.935 239.932 23.0384 240.44Z" fill="#FFD900"/>
<path d="M81.8436 106.069C80.5292 112.821 76.7668 118.84 71.2877 122.956C64.7037 128.141 56.0801 135.558 47.3312 135.558C33.4834 135.558 25.0386 113.216 17.9179 103.818C12.7473 97.0132 1.08213 103.818 6.32429 110.642C17.7569 125.692 27.3287 151.095 50.1223 148.862C61.537 147.746 71.395 139.969 80.1618 133.073C87.6574 127.281 92.843 118.978 94.779 109.669C96.8365 101.226 83.9011 97.6253 81.8436 106.069Z" fill="#0058AF"/>
<path d="M23.777 110.458C20.4237 106.021 16.3822 100.572 16.5587 94.679C16.8058 86.8694 27.342 80.9945 30.6776 90.7565C31.9483 94.5547 38.3547 95.3889 39.2019 90.7565C39.8725 87.0469 39.3078 79.5924 41.4079 77.0187C47.4438 69.5642 50.9029 79.6278 51.856 85.2543C52.6855 90.2595 60.5215 88.9638 60.5215 84.0651C60.2677 76.34 62.9715 68.8116 68.0751 63.0325C70.8283 60.033 76.3699 55.6135 80.888 57.3706C83.9941 58.5953 85.4236 64.062 85.9531 66.9196C88.2223 80.0918 86.0088 93.6487 79.6702 105.399C73.6344 116.759 61.2274 131.118 47.232 131.153C33.7132 131.153 27.6067 114.292 20.7591 105.151C17.3705 100.66 9.71101 105.151 13.1348 109.641C23.8123 123.841 32.2836 144.518 53.9208 139.122C72.9284 134.383 87.1709 115.055 92.642 97.0751C96.507 84.4023 100.496 53.945 83.2705 48.8156C63.9982 43.0827 51.7148 68.9252 51.7324 84.0651L60.3979 82.8937C58.9507 74.3741 54.4856 62.926 43.7376 64.3282C31.9483 65.8724 32.3189 79.5746 30.7129 88.3958H39.2371C35.831 78.2612 23.4946 72.4218 14.529 79.8408C2.93389 89.3543 8.86383 105.08 16.2939 114.948C19.6825 119.439 27.342 114.948 23.9181 110.458H23.777Z" fill="#FFD900"/>
<path d="M21.1278 108.817C26.9802 96.9453 36.1192 87.0413 47.4374 80.3051L41.0003 75.3142C37.4924 89.1719 28.0911 100.41 27.1089 115.047C26.8633 118.586 32.248 121.188 34.5983 118.179C47.3322 101.861 59.575 84.8889 74.5188 70.5003L67.1872 68.5535C68.4676 72.6772 63.2583 79.1724 61.4868 82.5704C59.2593 86.8888 57.0843 91.2602 54.9795 95.6494C51.0857 103.826 47.5427 112.126 44.4557 120.621C42.7017 125.524 49.8755 128.002 52.4713 124.019C58.1067 114.845 64.4587 106.14 71.4669 97.9855C72.3965 96.9944 75.3257 94.9061 75.6765 93.6495C75.2555 88.517 74.6708 87.4964 73.9225 90.5877C73.5892 91.6496 73.2209 92.6938 72.835 93.7203C70.5098 100.126 67.7556 106.364 64.5913 112.392C61.9954 117.436 69.5551 121.913 72.1685 116.852C74.7819 111.79 91.9533 82.305 76.8691 82.8182C70.625 83.0306 64.5913 92.092 61.1886 96.3219C55.3003 103.764 49.8141 111.521 44.7539 119.56L52.7695 122.975C57.0597 111.681 61.9847 100.643 67.5205 89.9152C71.0284 82.8359 78.1496 74.4824 75.5712 66.1996C75.3539 65.4632 74.9524 64.7956 74.4053 64.261C73.8582 63.7265 73.184 63.343 72.4475 63.1474C71.7111 62.9519 70.9372 62.9508 70.2002 63.1444C69.4632 63.338 68.788 63.7197 68.2396 64.2528C53.2957 78.6237 41.053 95.5963 28.3191 111.914L35.8086 115.047C36.7206 101.596 46.0869 90.5346 49.3843 77.668C49.5909 76.8226 49.5487 75.9347 49.2628 75.1131C48.977 74.2916 48.4599 73.5719 47.7749 73.0423C47.09 72.5126 46.2668 72.196 45.4063 72.1312C44.5457 72.0663 43.685 72.2561 42.9297 72.6772C30.3294 80.18 20.1222 91.1672 13.5156 104.339C10.9723 109.419 18.532 113.896 21.0928 108.817H21.1278Z" fill="#FFD900"/>
<path d="M30 461.051C30 428.99 21.0457 403 9.99999 403C-1.0457 403 -10 428.99 -10 461.051V1174.95C-10 1207.01 -1.0457 1233 9.99999 1233C21.0457 1233 30 1207.01 30 1174.95V461.051Z" fill="#0058AF"/>
<path d="M110 461.051C110 428.99 101.046 403 90 403C78.9543 403 70 428.99 70 461.051V1174.95C70 1207.01 78.9543 1233 90 1233C101.046 1233 110 1207.01 110 1174.95V461.051Z" fill="#0058AF"/>
<path d="M42 375H-21V424H42V375Z" fill="#0058AF"/>
<path d="M42 375H-21V424H42V375Z" fill="#025193"/>
<path d="M121 375H59V424H121V375Z" fill="#0058AF"/>
<path d="M121 375H59V424H121V375Z" fill="#025193"/>
<path d="M85.8521 1198.22C100.041 1196.13 114.359 1197.79 128.181 1203.14C134.995 1205.81 141.643 1209.39 148.05 1213.85C149.93 1215.18 151.775 1216.56 153.603 1218.03C156.636 1219.5 156.814 1222.92 154.188 1228.36C152.787 1238.8 151.758 1239.67 145.105 1243.01C132.385 1249.4 117.785 1245.19 105.154 1240.29C97.7366 1237.62 90.5239 1233.76 83.6345 1228.77C80.3171 1226.27 73.9482 1221.46 73.6999 1214.88L78.7736 1199.38C80.8477 1197.66 83.0968 1196.48 85.4262 1195.91C98.4654 1191.96 113.35 1196.2 125.573 1203.38C129.511 1205.72 152.68 1219.04 142.763 1233.09C138.31 1239.42 124.047 1234.89 118.92 1233.55C112.114 1231.77 105.46 1228.82 99.0864 1224.75C97.3142 1223.69 95.5792 1222.49 93.8884 1221.16C94.4207 1214.8 96.4608 1212.02 99.9911 1212.76C102.705 1211.45 106.573 1212.11 109.358 1212.08C124.664 1212.1 139.808 1216.89 153.869 1226.16L153.407 1220.72C148.085 1227.22 136.749 1225.62 130.345 1225.15C122.546 1224.51 114.814 1222.59 107.282 1219.42V1225.97C116.396 1223.55 125.723 1223.71 134.798 1226.46C137.583 1227.3 138.789 1220.75 135.986 1219.91C126.13 1216.97 116.007 1216.81 106.112 1219.42C103.876 1219.99 104.107 1225.15 106.112 1225.97C115.616 1229.98 125.42 1232.08 135.277 1232.22C142.479 1232.22 150.853 1232.77 156.689 1225.62C156.942 1225.25 157.136 1224.8 157.253 1224.29C157.371 1223.79 157.409 1223.25 157.366 1222.73C157.323 1222.2 157.199 1221.69 157.005 1221.25C156.81 1220.81 156.55 1220.44 156.246 1220.18C139.572 1209.01 121.426 1203.98 103.255 1205.47C98.5897 1205.91 89.684 1205.2 86.7745 1212.43C83.4926 1220.59 88.8324 1224.69 93.1433 1227.87C106.431 1237.66 125.963 1246.9 140.794 1241.25C145.336 1239.53 149.664 1235.16 150.604 1227.65C151.758 1218.87 147.553 1213.63 143.189 1209.22C128.679 1194.92 111.724 1187.54 94.4739 1188.02C84.1844 1188.27 65.628 1194.19 69.5309 1216.65C73.0789 1237.11 96.1414 1244.07 107.158 1247.96C121.847 1253.18 139.268 1257.07 153.07 1245.24C158.109 1240.89 164.406 1232.79 162.721 1222.76C161.142 1213.38 152.52 1209.36 147.571 1206.1C128.131 1193.43 106.936 1188.4 85.9053 1191.45C83.0845 1191.85 83.0668 1198.65 85.9053 1198.24L85.8521 1198.22Z" fill="#FFD900"/>
<path d="M-1.51928 1191.84C-20.1318 1189.11 -38.9004 1192.87 -56.4708 1202.84C-65.2715 1207.87 -85.4075 1218.01 -75.1635 1237.63C-65.9052 1255.34 -47.9342 1255.45 -34.8563 1252.67C-20.5816 1249.62 0.89213 1243.9 11.2594 1226.47C20.0601 1211.63 11.9458 1194.15 1.24415 1190.22C-14.2451 1184.56 -32.4625 1190.38 -46.7373 1200.31C-54.7635 1205.8 -73.9314 1220.43 -62.4553 1237.44C-52.7745 1251.79 -29.6111 1241.15 -18.8039 1235.41C-14.0339 1232.85 -3.33226 1228.67 -1.55452 1220.51C0.223225 1212.35 -5.49718 1208.86 -9.42229 1207.73C-30.0511 1201.79 -52.2465 1208.47 -71.2736 1221.09C-71.5724 1221.35 -71.8274 1221.73 -72.0182 1222.17C-72.2091 1222.62 -72.3307 1223.13 -72.3734 1223.66C-72.4161 1224.2 -72.3787 1224.74 -72.2642 1225.25C-72.1497 1225.75 -71.9612 1226.21 -71.7137 1226.58C-65.9228 1233.81 -57.6325 1233.26 -50.4688 1233.26C-40.7323 1233.13 -31.0478 1231.03 -21.6553 1227.02C-19.6663 1226.2 -19.4375 1220.98 -21.6553 1220.4C-31.4725 1217.75 -41.5174 1217.91 -51.296 1220.89C-54.0595 1221.72 -52.8978 1228.34 -50.1168 1227.52C-41.1131 1224.74 -31.8595 1224.58 -22.817 1227.02V1220.4C-30.2901 1223.6 -37.9613 1225.53 -45.6988 1226.17C-52.1937 1226.67 -63.3002 1228.29 -68.5806 1221.72L-69.0383 1227.22C-55.0952 1217.81 -40.0653 1212.96 -24.8764 1212.98C-21.7716 1212.71 -18.6574 1212.94 -15.5828 1213.67C-12.0625 1212.9 -10.0443 1215.72 -9.52795 1222.13L-12.2033 1224.14C-16.8853 1230.05 -27.0413 1232.55 -32.9026 1234.25C-37.7606 1235.66 -53.5666 1240.63 -58.0198 1234.25C-67.5773 1220.51 -46.4381 1207.62 -42.3369 1205.03C-29.9279 1197.2 -14.4387 1192.36 -1.13205 1196.62C4.14837 1198.33 12.5794 1203.17 10.5025 1215.86C9.42877 1222.46 5.22203 1226.12 1.70175 1229.11C-4.94309 1234.36 -11.9701 1238.34 -19.2263 1240.96C-31.7409 1246.16 -46.3324 1250.8 -59.1111 1244.97C-61.9977 1243.68 -66.1516 1242.03 -68.211 1238.46C-77.2581 1223.12 -70.288 1220.04 -64.6907 1215.89C-57.9064 1210.91 -50.834 1206.94 -43.569 1204.05C-29.8375 1198.65 -15.6149 1196.96 -1.51928 1199.07C1.29694 1199.48 1.27934 1192.58 -1.51928 1192.2V1191.84Z" fill="#FFD900"/>
</svg>
