<svg width="784" height="493" viewBox="0 0 784 493" fill="none" xmlns="http://www.w3.org/2000/svg">
<path d="M176 139.479L175.809 124.311C175.694 115.715 167.744 108.862 158.036 109.002L156.335 109.002C146.646 109.162 138.887 116.236 139.001 124.832L139.211 140L176 139.479Z" fill="#0058AF"/>
<path d="M160.11 113.575C158.13 117.897 155.57 121.949 152.498 125.629C150.545 128.04 154.84 130.394 156.714 128.002C160.008 123.973 162.733 119.54 164.815 114.818C165.986 112.012 161.262 110.788 160.11 113.575Z" fill="#FFD900"/>
<path d="M169.211 123.182C163.88 119.063 157.268 117.64 151.542 114.315C151.002 114.006 150.36 113.92 149.756 114.076C149.152 114.232 148.636 114.617 148.321 115.146C148.006 115.675 147.919 116.305 148.078 116.898C148.237 117.49 148.629 117.997 149.169 118.305C154.481 121.483 160.942 122.647 165.877 126.453C168.232 128.3 171.528 125.03 169.211 123.182Z" fill="#FFD900"/>
<path d="M22.0305 380.583C98.6935 403.492 195.17 419.677 313.559 421.691C434.814 423.769 576.606 410.137 710.006 379.58C724.211 376.323 717.036 370.527 702.831 373.784C436.765 434.806 189.046 418.006 41.1416 373.859C32.6778 371.327 13.528 378.101 22.0398 380.639L22.0305 380.583Z" fill="#EA008B"/>
<path d="M710.845 380.461C723.269 398.49 753.62 416.822 775.416 403.354C802.856 386.394 757.045 361.826 742.136 358.602C731.487 356.286 720.838 360.543 721.938 373.353C722.967 385.147 734.149 394.927 744.568 398.722C750.603 400.931 770.038 404.067 765.263 391.453C761.323 381.085 744.763 376.649 735.179 375.687C730.475 375.223 729.588 381.779 732.942 383.989C740.798 389.258 750.128 391.861 759.566 391.418C760.736 391.395 761.851 390.918 762.678 390.088C763.506 389.257 763.98 388.138 764.003 386.964C764.003 374.35 744.674 370.467 735.143 368.649C729.57 367.581 727.174 376.168 732.783 377.236C736.936 378.02 755.111 381.245 755.129 386.964L759.566 382.51C751.685 382.942 743.882 380.757 737.362 376.292L735.126 384.594C739.835 385.004 744.421 386.323 748.632 388.478C749.946 389.173 757.258 393.092 756.62 394.696L759.708 391.578C753.584 393.36 745.81 390.367 740.823 386.892C736.102 383.579 723.979 368.275 735.356 366.44C740.965 365.55 749.893 370.11 754.649 372.551C760.239 375.409 765.367 379.096 769.86 383.49C784.698 398.081 757.063 399.185 748.047 396.869C736.002 393.7 725.498 386.281 718.459 375.972C715.211 371.286 707.526 375.74 710.792 380.461L710.845 380.461Z" fill="#EA008B"/>
<path d="M721.072 364.881C721.201 360.631 722.261 356.458 724.179 352.644C725.075 350.963 726.287 349.462 727.751 348.221C728.412 347.714 732.574 345.092 733.11 345.774C734.324 347.172 729.287 353.291 728.18 354.357C725.31 357.058 721.652 358.817 717.714 359.392L723.197 364.776C723.678 363.312 724.521 361.986 725.653 360.919C726.784 359.851 728.168 359.074 729.68 358.657C730.51 358.408 731.25 357.93 731.809 357.281C732.369 356.632 732.726 355.838 732.837 354.995C732.948 354.152 732.809 353.296 732.436 352.529C732.063 351.762 731.472 351.116 730.734 350.668C729.195 349.673 727.391 349.142 725.546 349.142C723.701 349.142 721.896 349.673 720.357 350.668C715.499 353.64 719.964 361.157 724.858 358.22L726.233 358.22L727.305 350.231C724.324 351.097 721.606 352.666 719.389 354.799C717.172 356.933 715.523 359.566 714.588 362.468C713.391 365.965 716.999 368.377 720.089 367.835C727.275 366.558 733.648 362.54 737.807 356.665C741.272 351.84 744.701 343.256 738.807 338.851C732.913 334.445 724.697 338.746 720.375 342.994C714.463 348.798 712.677 356.979 712.016 364.811C711.57 370.405 720.5 370.388 720.947 364.811L721.072 364.881Z" fill="#EA008B"/>
<path d="M21.4977 112.337C82.8208 89.4279 159.993 73.2426 254.693 71.2291C351.685 69.1505 465.105 82.7829 571.813 113.34C583.176 116.597 577.437 122.393 566.074 119.136C353.246 58.1136 155.094 74.9143 36.7848 119.061C30.0145 121.593 14.6965 114.819 21.5051 112.28L21.4977 112.337Z" fill="#EA008B"/>
<path d="M572.483 112.459C582.421 94.4296 606.699 76.0975 624.133 89.566C646.083 106.526 609.439 131.094 597.513 134.318C588.995 136.634 580.476 132.377 581.356 119.567C582.18 107.773 591.124 97.9927 599.458 94.198C604.285 91.9889 619.831 88.8533 616.012 101.467C612.861 111.835 599.614 116.271 591.948 117.233C588.185 117.697 587.475 111.14 590.159 108.931C596.442 103.662 603.906 101.059 611.455 101.502C612.391 101.525 613.283 102.002 613.945 102.832C614.606 103.662 614.986 104.782 615.004 105.956C615.004 118.57 599.543 122.453 591.919 124.27C587.461 125.339 585.545 116.752 590.031 115.683C593.353 114.9 607.891 111.675 607.906 105.956L611.455 110.41C605.151 109.978 598.909 112.163 593.694 116.628L591.905 108.326C595.672 107.916 599.341 106.597 602.709 104.442C603.76 103.747 609.609 99.8276 609.098 98.2242L611.569 101.342C606.67 99.5604 600.452 102.553 596.462 106.027C592.686 109.341 582.989 124.645 592.09 126.48C596.576 127.37 603.717 122.81 607.522 120.369C611.993 117.511 616.095 113.823 619.69 109.43C631.559 94.8394 609.453 93.7348 602.241 96.0508C592.606 99.2202 584.204 106.639 578.574 116.948C575.975 121.634 569.828 117.18 572.44 112.459L572.483 112.459Z" fill="#EA008B"/>
<path d="M580.664 128.039C580.767 132.289 581.615 136.462 583.149 140.276C583.866 141.957 584.835 143.458 586.007 144.699C586.535 145.206 589.864 147.828 590.293 147.146C591.264 145.748 587.235 139.629 586.35 138.563C584.054 135.862 581.128 134.103 577.978 133.528L582.364 128.144C582.748 129.608 583.423 130.933 584.328 132.001C585.233 133.069 586.34 133.846 587.55 134.262C588.214 134.512 588.805 134.989 589.253 135.639C589.701 136.288 589.986 137.082 590.075 137.925C590.164 138.767 590.052 139.624 589.754 140.391C589.456 141.158 588.983 141.804 588.393 142.252C587.161 143.247 585.718 143.778 584.242 143.778C582.767 143.778 581.323 143.247 580.092 142.252C576.206 139.28 579.778 131.763 583.692 134.7L584.792 134.7L585.65 142.689C583.265 141.823 581.091 140.254 579.318 138.121C577.544 135.987 576.225 133.354 575.477 130.452C574.52 126.955 577.406 124.543 579.878 125.085C585.625 126.362 590.723 130.38 594.05 136.255C596.822 141.08 599.565 149.664 594.85 154.069C590.136 158.474 583.564 154.174 580.106 149.926C575.377 144.122 573.949 135.941 573.42 128.109C573.063 122.515 580.206 122.532 580.563 128.109L580.664 128.039Z" fill="#EA008B"/>
<path d="M12 359L12 371.869C12 376.354 15.2684 380 19.3275 380L37.6726 380C41.7317 380 45 376.354 45 371.869L45 359" fill="#0058AF"/>
<path d="M45 130L45 117.131C45 112.646 41.7316 109 37.6725 109L19.3274 109C15.2683 109 12 112.646 12 117.131L12 130" fill="#0058AF"/>
<path d="M169 354.437L168.819 367.159C168.711 374.368 161.19 380.116 152.007 379.998L150.398 379.998C141.232 379.881 133.893 373.931 134.001 366.722L134.2 354L169 354.437Z" fill="#0058AF"/>
<path d="M0.0706991 360L138.153 360C216.501 360 280 310.447 280 249.329L280 238.653C280 177.535 216.501 128 138.153 128L0 128L0.0706991 360Z" fill="#015CCA"/>
<path d="M200 325.809L200 158.191C200 152.563 195.431 148 189.795 148L149.205 148C143.569 148 139 152.563 139 158.191L139 325.809C139 331.437 143.569 336 149.205 336L189.795 336C195.431 336 200 331.437 200 325.809Z" fill="#02569B"/>
<path d="M126 328.374L126 159.626C126 142.159 111.987 128 94.7009 128L38.2991 128C21.0131 128 7 142.159 7 159.626L6.99999 328.374C6.99999 345.841 21.0131 360 38.2991 360L94.7009 360C111.987 360 126 345.841 126 328.374Z" fill="#039BEF"/>
<path d="M110 340L50.8236 340C33.8084 340 20 325.278 20 307.128L20 180.89C20 162.722 33.8084 148 50.8236 148L110 148" fill="#0058AF"/>
<path d="M110 279L81.9911 279C80.9326 279 79.9175 278.581 79.169 277.836C78.4205 277.091 78 276.08 78 275.026L78 164.974C78 163.92 78.4205 162.909 79.169 162.164C79.9175 161.419 80.9326 161 81.9911 161L110 161" fill="white"/>
<path d="M110 318.998L84.1736 318.998C82.5842 319.043 81.0426 318.42 79.8857 317.265C78.7288 316.11 78.0509 314.516 78 312.833L78 297.167C78.0509 295.484 78.7288 293.89 79.8857 292.735C81.0426 291.58 82.5842 290.957 84.1736 291.002L110 291.002" fill="white"/>
<path d="M20 178C44.7934 178 65 206.866 65 242.491C65 278.116 44.8642 307 20 307" fill="#EA008B"/>
<path d="M54 264.577L54 221.423C54 218.428 51.7614 216 49 216C46.2386 216 44 218.428 44 221.423L44 264.577C44 267.572 46.2386 270 49 270C51.7614 270 54 267.572 54 264.577Z" fill="#EF73C3"/>
<path d="M144 201C144 216.464 156.536 229 172 229C187.464 229 200 216.464 200 201C200 185.536 187.464 173 172 173C156.536 173 144 185.536 144 201Z" fill="white"/>
<path d="M144 282.5C144 298.24 156.536 311 172 311C187.464 311 200 298.24 200 282.5C200 266.76 187.464 254 172 254C156.536 254 144 266.76 144 282.5Z" fill="white"/>
<path d="M158 201.5C158 208.404 163.596 214 170.5 214C177.404 214 183 208.404 183 201.5C183 194.596 177.404 189 170.5 189C163.596 189 158 194.596 158 201.5Z" fill="black"/>
<path d="M158 283C158 290.18 163.596 296 170.5 296C177.404 296 183 290.18 183 283C183 275.82 177.404 270 170.5 270C163.596 270 158 275.82 158 283Z" fill="black"/>
<path d="M208 325.809L208 158.191C208 152.563 203.487 148 197.919 148L184.081 148C178.513 148 174 152.563 174 158.191L174 325.809C174 331.437 178.513 336 184.081 336L197.919 336C203.487 336 208 331.437 208 325.809Z" fill="#EA008B"/>
<path d="M200 233.513L200 163.487C200 160.457 197.538 158 194.5 158C191.462 158 189 160.457 189 163.487L189 233.513C189 236.543 191.462 239 194.5 239C197.538 239 200 236.543 200 233.513Z" fill="#EF73C3"/>
<path d="M158.534 361.561C158.06 363.448 155.581 365.336 154.306 366.853L149.55 372.146C147.727 374.298 150.862 377.438 152.775 375.268L158.716 368.582C160.265 366.818 162.36 365.054 162.925 362.76C163.618 359.99 159.281 358.808 158.534 361.578L158.534 361.561Z" fill="#FFD900"/>
<path d="M162.927 371.647C158.535 369.149 154.269 366.394 150.148 363.396C147.84 361.724 145.687 365.783 147.978 367.456C152.099 370.454 156.365 373.208 160.757 375.707C163.203 377.117 165.373 373.057 162.927 371.647Z" fill="#FFD900"/>
<path d="M129.796 158L127.204 158C126.619 158 126.059 158.263 125.646 158.732C125.232 159.201 125 159.837 125 160.5C125 161.163 125.232 161.799 125.646 162.268C126.059 162.737 126.619 163 127.204 163L129.796 163C130.379 162.995 130.937 162.73 131.349 162.262C131.762 161.794 131.995 161.161 132 160.5C131.987 159.842 131.75 159.215 131.34 158.749C130.929 158.284 130.376 158.015 129.796 158Z" fill="#FFD900"/>
<path d="M144.301 163.066L140.197 164.278C139.43 164.449 138.78 164.857 138.388 165.412C137.997 165.967 137.896 166.625 138.11 167.239C138.323 167.854 138.832 168.375 139.525 168.689C140.218 169.003 141.038 169.083 141.805 168.912L145.884 167.701C146.629 167.517 147.255 167.108 147.63 166.561C148.005 166.014 148.099 165.371 147.893 164.769C147.688 164.167 147.198 163.652 146.527 163.335C145.857 163.017 145.058 162.921 144.301 163.066Z" fill="#FFD900"/>
<path d="M132.549 176L129.451 176.265C128.801 176.265 128.178 176.515 127.718 176.959C127.258 177.403 127 178.005 127 178.633C127 179.26 127.258 179.863 127.718 180.307C128.178 180.751 128.801 181 129.451 181L132.549 180.735C133.199 180.735 133.822 180.485 134.282 180.041C134.742 179.597 135 178.995 135 178.367C135 177.74 134.742 177.137 134.282 176.693C133.822 176.249 133.199 176 132.549 176Z" fill="#FFD900"/>
<path d="M129.563 199L127.438 199.283C126.792 199.31 126.177 199.557 125.702 199.981C125.475 200.198 125.296 200.457 125.176 200.742C125.055 201.027 124.995 201.333 125 201.642C124.999 202.263 125.251 202.859 125.702 203.302C125.927 203.526 126.197 203.704 126.496 203.824C126.794 203.944 127.114 204.004 127.438 204L129.563 203.717C130.201 203.698 130.81 203.456 131.279 203.038C131.733 202.588 131.991 201.987 132 201.359C131.994 200.735 131.735 200.139 131.279 199.698C131.059 199.473 130.792 199.294 130.497 199.174C130.201 199.054 129.883 198.995 129.563 199Z" fill="#FFD900"/>
<path d="M138.8 205.066L135.847 205.572C135.204 205.737 134.659 206.121 134.33 206.642C134 207.163 133.914 207.779 134.088 208.356C134.281 208.926 134.712 209.408 135.292 209.701C135.872 209.994 136.557 210.075 137.202 209.929L140.134 209.423C140.78 209.266 141.33 208.887 141.663 208.369C141.997 207.85 142.087 207.235 141.914 206.657C141.721 206.086 141.29 205.603 140.711 205.307C140.132 205.011 139.448 204.925 138.8 205.066Z" fill="#FFD900"/>
<path d="M143.501 259L141.501 259.229C140.84 259.249 140.209 259.493 139.72 259.916C139.26 260.373 139.002 260.981 139 261.614C138.999 262.243 139.258 262.846 139.72 263.294C139.95 263.522 140.226 263.703 140.533 263.825C140.839 263.946 141.169 264.006 141.501 264L143.501 263.771C144.161 263.747 144.791 263.504 145.282 263.084C145.742 262.631 146 262.026 146 261.395C146 260.764 145.742 260.158 145.282 259.706C144.81 259.255 144.169 259.001 143.501 259Z" fill="#FFD900"/>
<path d="M132.165 268C131.039 268.073 129.934 268.394 128.906 268.945C128.488 269.241 128.185 269.72 128.061 270.28C127.937 270.84 128.003 271.436 128.245 271.938C128.501 272.426 128.903 272.779 129.369 272.926C129.836 273.072 130.332 273.001 130.755 272.726C130.432 272.901 130.932 272.726 130.961 272.726C131.125 272.657 131.291 272.599 131.46 272.551C131.622 272.551 131.798 272.463 131.959 272.446C131.636 272.446 132.062 272.446 132.165 272.446C132.652 272.446 133.118 272.215 133.463 271.805C133.807 271.395 134 270.838 134 270.258C134 269.678 133.807 269.121 133.463 268.711C133.118 268.3 132.652 268.07 132.165 268.07L132.165 268Z" fill="#FFD900"/>
<path d="M140.448 283.067L138.478 283.491C138.223 283.572 137.984 283.709 137.775 283.896C137.566 284.082 137.391 284.313 137.261 284.577C137.131 284.84 137.047 285.13 137.015 285.43C136.983 285.73 137.003 286.035 137.074 286.326C137.225 286.905 137.566 287.396 138.026 287.694C138.487 287.993 139.03 288.077 139.544 287.928L141.529 287.505C142.039 287.337 142.472 286.949 142.734 286.422C142.997 285.896 143.068 285.273 142.934 284.688C142.779 284.106 142.436 283.614 141.974 283.313C141.511 283.012 140.965 282.924 140.448 283.067Z" fill="#FFD900"/>
<path d="M131.768 297L130.232 297C129.64 297 129.072 297.263 128.654 297.732C128.235 298.201 128 298.837 128 299.5C128 300.163 128.235 300.799 128.654 301.268C129.072 301.737 129.64 302 130.232 302L131.768 302C132.36 302 132.928 301.737 133.346 301.268C133.765 300.799 134 300.163 134 299.5C134 298.837 133.765 298.201 133.346 297.732C132.928 297.263 132.36 297 131.768 297Z" fill="#FFD900"/>
<path d="M146.984 305.014L145.016 305.296C144.485 305.313 143.979 305.561 143.597 305.99C143.219 306.428 143.005 307.021 143 307.641C143 308.785 143.903 310.155 145.016 309.986L146.984 309.704C147.515 309.687 148.021 309.439 148.403 309.01C148.781 308.572 148.995 307.979 149 307.359C149 306.215 148.097 304.845 146.984 305.014Z" fill="#FFD900"/>
<path d="M138.169 191.126L135.73 191.616C135.147 191.762 134.645 192.129 134.332 192.638C134.02 193.147 133.923 193.758 134.062 194.337C134.233 194.909 134.62 195.394 135.142 195.691C135.664 195.988 136.282 196.075 136.867 195.934L139.325 195.444C139.908 195.279 140.403 194.893 140.701 194.371C141 193.848 141.078 193.23 140.92 192.65C140.745 192.078 140.354 191.594 139.828 191.3C139.302 191.006 138.682 190.924 138.096 191.071L138.169 191.126Z" fill="#FFD900"/>
<path d="M133.089 314.194L132.367 314.357C132.2 314.357 132.052 314.357 131.886 314.448C131.719 314.539 131.571 314.448 131.719 314.448C131.867 314.448 131.719 314.448 131.534 314.448C131.349 314.448 131.294 314.448 131.164 314.448C131.035 314.448 130.609 314.448 130.313 314.448C129.704 314.462 129.124 314.707 128.693 315.13C128.262 315.554 128.014 316.125 128 316.724C128.005 317.326 128.25 317.902 128.683 318.328C129.116 318.754 129.701 318.995 130.313 319C131.662 318.964 133.002 318.781 134.31 318.454C134.897 318.292 135.396 317.909 135.698 317.387C135.999 316.865 136.079 316.248 135.92 315.668C135.747 315.095 135.357 314.609 134.83 314.31C134.303 314.012 133.679 313.925 133.089 314.066L133.089 314.194Z" fill="#FFD900"/>
<path d="M134.56 217.038C133.893 217.315 133.204 217.523 132.501 217.659C132.241 217.735 131.998 217.866 131.785 218.045C131.572 218.224 131.394 218.447 131.262 218.702C131.13 218.956 131.045 219.236 131.014 219.526C130.982 219.816 131.004 220.11 131.079 220.391C131.235 220.947 131.581 221.416 132.046 221.703C132.511 221.99 133.06 222.073 133.58 221.934C134.286 221.798 134.981 221.596 135.655 221.331C136.139 221.137 136.539 220.752 136.774 220.254C137.009 219.755 137.063 219.179 136.925 218.639C136.788 218.099 136.468 217.635 136.03 217.338C135.592 217.042 135.068 216.935 134.56 217.038Z" fill="#FFD900"/>
<path d="M268.931 275.844C262.179 274.529 256.16 270.767 252.044 265.288C246.859 258.704 239.442 250.08 239.442 241.331C239.442 227.483 261.784 219.039 271.182 211.918C277.987 206.747 271.182 195.082 264.358 200.324C249.308 211.757 223.905 221.329 226.138 244.122C227.254 255.537 235.031 265.395 241.927 274.162C247.719 281.657 256.022 286.843 265.331 288.779C273.774 290.837 277.375 277.901 268.931 275.844Z" fill="#0058AF"/>
<path d="M264.542 217.777C268.979 214.424 274.428 210.382 280.321 210.559C288.131 210.806 294.005 221.342 284.244 224.678C280.445 225.948 279.611 232.355 284.244 233.202C287.953 233.873 295.408 233.308 297.981 235.408C305.436 241.444 295.372 244.903 289.746 245.856C284.741 246.685 286.036 254.521 290.935 254.521C298.66 254.268 306.188 256.971 311.967 262.075C314.967 264.828 319.387 270.37 317.629 274.888C316.405 277.994 310.938 279.424 308.08 279.953C294.908 282.222 281.351 280.009 269.601 273.67C258.241 267.634 243.882 255.227 243.847 241.232C243.847 227.713 260.708 221.607 269.849 214.759C274.34 211.371 269.849 203.711 265.359 207.135C251.159 217.812 230.482 226.284 235.878 247.921C240.617 266.928 259.945 281.171 277.925 286.642C290.598 290.507 321.055 294.496 326.184 277.271C331.917 257.998 306.075 245.715 290.935 245.732L292.106 254.398C300.626 252.951 312.074 248.486 310.672 237.738C309.128 225.948 295.425 226.319 286.604 224.713L286.604 233.237C296.739 229.831 302.578 217.495 295.159 208.529C285.646 196.934 269.92 202.864 260.052 210.294C255.561 213.682 260.052 221.342 264.542 217.918L264.542 217.777Z" fill="#FFD900"/>
<path d="M266.183 215.128C278.055 220.98 287.959 230.119 294.695 241.437L299.686 235C285.828 231.492 274.59 222.091 259.953 221.109C256.414 220.863 253.812 226.248 256.821 228.598C273.139 241.332 290.111 253.575 304.5 268.519L306.446 261.187C302.323 262.468 295.828 257.258 292.43 255.487C288.111 253.259 283.74 251.084 279.351 248.98C271.174 245.086 262.874 241.543 254.379 238.456C249.476 236.702 246.998 243.875 250.981 246.471C260.155 252.107 268.86 258.459 277.014 265.467C278.006 266.397 280.094 269.326 281.351 269.676C286.483 269.255 287.504 268.671 284.412 267.922C283.35 267.589 282.306 267.221 281.28 266.835C274.874 264.51 268.636 261.756 262.608 258.591C257.564 255.995 253.087 263.555 258.148 266.169C263.21 268.782 292.695 285.953 292.182 270.869C291.969 264.625 282.908 258.591 278.678 255.189C271.236 249.3 263.479 243.814 255.44 238.754L252.025 246.77C263.319 251.06 274.357 255.985 285.085 261.52C292.164 265.028 300.518 272.15 308.8 269.571C309.537 269.354 310.204 268.952 310.739 268.405C311.274 267.858 311.657 267.184 311.853 266.448C312.048 265.711 312.049 264.937 311.856 264.2C311.662 263.463 311.28 262.788 310.747 262.24C296.376 247.296 279.404 235.053 263.086 222.319L259.953 229.809C273.404 230.721 284.465 240.087 297.332 243.384C298.177 243.591 299.065 243.549 299.887 243.263C300.708 242.977 301.428 242.46 301.958 241.775C302.487 241.09 302.804 240.267 302.869 239.406C302.934 238.546 302.744 237.685 302.323 236.93C294.82 224.329 283.833 214.122 270.661 207.516C265.581 204.972 261.104 212.532 266.183 215.093L266.183 215.128Z" fill="#FFD900"/>
</svg>
