<svg width="138" height="156" viewBox="0 0 138 156" fill="none" xmlns="http://www.w3.org/2000/svg">
<path d="M46.3473 139.321C72.4113 139.321 87.3873 118.009 87.3873 86.9047C87.3873 55.8007 72.4113 34.4887 46.3473 34.4887C20.2833 34.4887 5.3073 55.8007 5.3073 86.9047C5.3073 118.009 20.2833 139.321 46.3473 139.321ZM46.3473 116.857C34.2513 116.857 28.3473 106.345 28.3473 86.9047C28.3473 67.4647 34.2513 56.9527 46.3473 56.9527C58.4433 56.9527 64.3473 67.4647 64.3473 86.9047C64.3473 106.345 58.4433 116.857 46.3473 116.857Z" fill="#F6CF00"/>
<path d="M137.947 115.985H122.587V100.625H109.147V115.985H93.7873V129.425H109.147V144.785H122.587V129.425H137.947V115.985Z" fill="#F6CF00"/>
</svg>
