<svg width="1008" height="466" viewBox="0 0 1008 466" fill="none" xmlns="http://www.w3.org/2000/svg">
<path d="M486.616 77.9204C497.686 63.635 505.514 48.1143 509.79 31.971H505.619L515.178 69.9422C515.252 70.145 515.379 70.335 515.554 70.501C515.728 70.667 515.946 70.8057 516.194 70.909C516.442 71.0123 516.716 71.0781 516.999 71.1025C517.282 71.127 517.569 71.1096 517.843 71.0515C571.566 58.2634 626.133 47.4841 681.334 38.7546L679.191 36.0668C645.718 57.805 610.633 78.1587 574.097 97.034C573.6 97.21 573.214 97.5205 573.02 97.9009C572.825 98.2813 572.838 98.7022 573.054 99.0761C573.271 99.4499 573.675 99.7479 574.182 99.9079C574.689 100.068 575.261 100.078 575.778 99.9352C682.085 86.1129 790.369 82.4419 897.951 89.0131L897.372 85.8559C812.401 101.215 727.894 118.281 643.851 137.053C643.381 137.135 642.963 137.331 642.664 137.61C642.365 137.889 642.202 138.234 642.202 138.589C642.202 138.944 642.365 139.289 642.664 139.568C642.963 139.847 643.381 140.043 643.851 140.125L845.694 181.595L846.274 178.48C801.172 178.634 756.274 182.934 712.619 191.279C710.359 191.706 710.823 193.796 712.619 194.351C814.989 225.923 910.233 268.246 1005.01 310.398L1007.22 307.625C928.657 279.253 839.206 276.864 757.17 257.11C733.178 251.531 710.141 243.929 688.518 234.456C686.722 233.645 684.289 235.266 685.505 236.631C721.077 275.584 756.649 315.006 779.823 358.992L783.009 357.2C732.842 334.68 685.186 309.257 640.49 281.173C640.147 280.937 639.71 280.789 639.244 280.749C638.777 280.709 638.306 280.78 637.898 280.952C637.49 281.123 637.168 281.386 636.978 281.702C636.787 282.019 636.739 282.371 636.841 282.709C641.599 300.288 648.862 317.448 658.508 333.906L661.463 331.73C637.502 321.627 611.572 314.303 584.584 310.014C584.264 309.956 583.931 309.952 583.609 310.002C583.287 310.052 582.984 310.154 582.723 310.302C582.462 310.449 582.249 310.638 582.099 310.854C581.95 311.07 581.869 311.308 581.861 311.55C578.732 338.002 575.642 364.439 572.591 390.863L576.647 390.052C562.606 369.185 542.227 350.98 517.09 336.85C515.642 336.039 513.961 337.191 513.846 338.258L496.813 464.245L501.042 463.818C485.772 414.745 458.441 368.142 420.397 326.312C420.17 326.055 419.85 325.851 419.472 325.723C419.094 325.595 418.675 325.548 418.263 325.588C417.851 325.629 417.462 325.754 417.143 325.95C416.824 326.146 416.586 326.404 416.458 326.696C400.584 357.983 384.748 389.27 368.951 420.557L373.181 420.984C371.649 407.365 368.979 393.829 365.186 380.453C363.1 373.2 360.686 365.989 357.944 358.822C356.322 354.555 355.163 347.9 350.238 344.871C347.992 343.779 345.325 343.255 342.639 343.378C339.953 343.501 337.394 344.265 335.349 345.553C327.007 349.308 319.301 354.086 311.364 358.352L261.715 384.847L264.669 387.023L292.883 343.463C293.083 343.188 293.172 342.877 293.138 342.567C293.104 342.256 292.95 341.96 292.693 341.712C292.436 341.465 292.088 341.277 291.691 341.171C291.293 341.065 290.862 341.046 290.45 341.116L1.00921 400.462L2.68932 403.363L224.868 313.768C225.193 313.63 225.462 313.43 225.65 313.191C225.837 312.951 225.936 312.68 225.936 312.403C225.936 312.127 225.837 311.855 225.65 311.615C225.462 311.376 225.193 311.177 224.868 311.038C210.92 305.892 195.511 303.26 179.911 303.358C161.082 302.846 142.138 303.102 123.309 303.06L6.16538 302.718V305.918C57.0602 302.268 106.984 293.274 154.42 279.21C154.786 279.134 155.12 278.989 155.388 278.79C155.656 278.59 155.849 278.343 155.948 278.072C156.047 277.801 156.049 277.516 155.954 277.244C155.859 276.973 155.67 276.724 155.405 276.522C121.745 249.047 62.7095 263.041 22.6767 244.78L22.1553 247.681C74.3624 239.438 127.322 234.033 180.606 231.512C182.286 231.512 183.677 229.762 182.113 228.781L45.9664 142.77L43.8228 145.458C97.1204 160.891 152.21 172.729 208.415 180.827C208.827 180.896 209.258 180.877 209.655 180.772C210.053 180.666 210.401 180.478 210.658 180.23C210.914 179.983 211.069 179.686 211.103 179.376C211.136 179.065 211.048 178.754 210.848 178.48C181.765 139.912 151.137 102.011 118.964 64.7798L115.546 66.6997C153.546 91.412 195.513 112.603 240.51 129.8C240.883 129.947 241.305 130.012 241.727 129.988C242.148 129.963 242.551 129.849 242.887 129.66C243.224 129.471 243.479 129.215 243.622 128.922C243.766 128.629 243.792 128.312 243.697 128.008C237.672 109.151 231.685 90.3073 225.737 71.4781L222.551 73.3127C253.501 85.3371 283.344 98.8482 311.886 113.758C312.17 113.886 312.491 113.963 312.823 113.984C313.155 114.004 313.489 113.967 313.798 113.876C314.107 113.785 314.383 113.642 314.605 113.459C314.826 113.275 314.986 113.057 315.072 112.82C320.868 95.3787 320.228 77.1138 313.218 59.9161L309.626 61.452L372.254 112.649C372.564 112.864 372.953 113.008 373.372 113.063C373.791 113.118 374.223 113.083 374.616 112.961C375.008 112.839 375.345 112.636 375.583 112.376C375.822 112.116 375.953 111.811 375.961 111.497C378.81 74.5588 375.464 37.5026 365.997 1.16743L361.825 2.02072C381.716 38.1122 404.386 73.339 429.725 107.529C429.913 107.769 430.184 107.967 430.509 108.105C430.834 108.243 431.203 108.316 431.579 108.316C431.954 108.316 432.323 108.243 432.648 108.105C432.974 107.967 433.244 107.769 433.432 107.529L447.626 84.2347H443.919C448.892 90.5401 452.784 97.2756 455.505 104.287C456.896 107.231 459.155 115.721 463.906 117.086C464.643 117.295 465.458 117.302 466.202 117.107C466.946 116.911 467.57 116.525 467.961 116.02C468.61 115.084 469.041 114.074 469.236 113.033C470.295 110.024 471.69 107.084 473.407 104.244C479.201 95.2421 486.327 87.4345 487.138 77.2804C487.138 75.1899 482.966 75.2326 482.793 77.2804C482.04 86.4959 475.319 93.7915 470.105 101.898C468.127 104.93 466.518 108.085 465.296 111.327L464.601 113.673C464.022 114.356 464.601 114.484 465.644 114.1C465.065 113.417 464.543 112.734 464.022 112.009C457.707 102.623 455.911 91.573 447.858 82.7415C447.047 81.8455 444.846 81.5469 444.15 82.7415L429.725 105.908H433.432C408.295 71.9569 385.781 36.9877 365.997 1.16743C365.843 0.76008 365.476 0.414364 364.976 0.206335C364.476 -0.0016932 363.885 -0.0549941 363.332 0.0581585C362.779 0.171311 362.309 0.441652 362.027 0.809703C361.744 1.17775 361.672 1.61337 361.825 2.02072C371.217 38.0176 374.563 74.7282 371.79 111.327L375.498 110.217L312.871 59.0201C312.524 58.7774 312.08 58.6242 311.605 58.5838C311.13 58.5435 310.65 58.6181 310.238 58.7964C309.826 58.9747 309.503 59.2471 309.32 59.5722C309.136 59.8974 309.102 60.2577 309.221 60.5987C315.999 77.2407 316.638 94.9115 311.075 111.796L314.261 110.815C285.72 95.9043 255.877 82.3932 224.926 70.3688C224.553 70.2216 224.131 70.1565 223.71 70.1813C223.288 70.2062 222.885 70.3199 222.549 70.5089C222.213 70.6979 221.958 70.9542 221.814 71.2471C221.671 71.5401 221.645 71.8572 221.74 72.1607L239.641 128.691L242.828 126.856C198.123 109.858 156.41 88.8961 118.616 64.4385C116.82 63.2866 113.808 64.7798 115.198 66.3584C147.217 103.59 177.864 141.504 207.14 180.101L209.573 177.755C153.369 169.657 98.279 157.819 44.9815 142.386C42.9538 141.789 41.2737 144.05 42.8959 145.031L178.984 231.042L180.548 228.312C126.888 230.867 73.5589 236.343 20.9966 244.695C20.6011 244.789 20.25 244.964 19.984 245.2C19.7179 245.435 19.5478 245.721 19.4932 246.024C19.4387 246.328 19.502 246.637 19.6757 246.915C19.8495 247.193 20.1267 247.429 20.4752 247.596C40.2309 256.598 63.5785 258.305 86.115 260.395C109.926 262.529 135.417 265.174 152.334 278.954L153.261 276.309C106.189 290.231 56.6561 299.124 6.16538 302.718C3.44246 302.718 3.32659 305.918 6.16538 305.918L117.805 306.302C135.649 306.302 153.551 306.302 171.395 306.302C189.238 306.302 207.082 307.241 222.898 313.64V311.251L1.00921 400.59C0.574082 400.797 0.251639 401.109 0.0985253 401.473C-0.0545882 401.837 -0.0285898 402.23 0.171964 402.581C0.372519 402.932 0.734815 403.221 1.19518 403.395C1.65555 403.569 2.18457 403.618 2.68932 403.534L291.435 344.188L288.944 341.841L260.788 385.402C259.919 386.681 261.83 388.644 263.742 387.62L303.138 366.288L322.835 355.75C329.208 352.294 343.576 341.329 350.296 350.801C353.161 356.058 355.277 361.52 356.611 367.099C358.581 372.688 360.319 378.277 361.825 383.908C365.117 396.029 367.458 408.28 368.835 420.6C368.874 420.974 369.087 421.327 369.439 421.598C369.79 421.869 370.259 422.042 370.765 422.088C371.271 422.133 371.782 422.048 372.212 421.846C372.642 421.645 372.964 421.34 373.123 420.984C388.919 389.696 404.755 358.409 420.629 327.122L416.631 327.464C454.572 369.253 481.769 415.818 496.871 464.842C497.45 466.72 500.926 466.122 501.158 464.416L518.191 338.428L514.888 339.794C539.358 353.577 559.183 371.33 572.823 391.673C573.866 393.209 576.704 392.313 576.878 390.863C579.929 364.411 583.019 337.973 586.148 311.55L583.367 313.086C609.997 317.299 635.592 324.493 659.261 334.418C661.289 335.271 663.027 333.607 662.216 332.242C652.743 316.033 645.635 299.128 641.012 281.813L637.362 283.391C682.307 311.669 730.257 337.25 780.75 359.888C782.256 360.571 784.631 359.419 783.936 358.096C760.762 313.854 725.017 274.176 689.213 234.967L686.259 237.143C761.168 270.763 850.851 274.517 933.697 291.199C958.228 295.946 982.089 302.403 1004.96 310.483C1005.45 310.633 1006 310.647 1006.5 310.522C1007 310.397 1007.43 310.142 1007.7 309.803C1007.97 309.465 1008.06 309.067 1007.96 308.682C1007.86 308.297 1007.58 307.952 1007.16 307.71C912.087 265.344 816.495 223.021 713.604 191.407V194.479C756.876 186.178 801.384 181.878 846.1 181.68C846.612 181.66 847.099 181.509 847.476 181.253C847.853 180.997 848.097 180.652 848.165 180.278C848.234 179.904 848.123 179.524 847.852 179.203C847.581 178.883 847.166 178.642 846.679 178.523L644.836 137.053V140.125C728.686 121.324 813.193 104.258 898.357 88.9278C900.848 88.5011 900.095 85.9413 897.777 85.8133C789.841 79.2708 681.21 82.9847 574.561 96.8633L576.241 99.7645C613.094 80.7156 648.471 60.162 682.203 38.2C683.941 37.0907 682.203 35.2135 680.118 35.5548C624.904 44.3343 570.336 55.1852 516.626 68.065L519.291 69.1742L509.732 31.2031C509.621 30.8574 509.354 30.5495 508.976 30.3292C508.597 30.1089 508.129 29.989 507.647 29.989C507.164 29.989 506.696 30.1089 506.317 30.3292C505.939 30.5495 505.672 30.8574 505.561 31.2031C501.376 47.0861 493.706 62.3609 482.851 76.4272C482.566 76.7949 482.492 77.2307 482.644 77.6388C482.796 78.0469 483.162 78.3937 483.662 78.603C484.161 78.8124 484.753 78.867 485.307 78.755C485.861 78.643 486.332 78.3735 486.616 78.0057V77.9204Z" fill="#EA008B"/>
</svg>
