<svg id="Layer_1" data-name="Layer 1" xmlns="http://www.w3.org/2000/svg" viewBox="0 0 344.69 502.31"><defs><style>.cls-1{fill:#ea008b;}.cls-2{fill:#ffd900;}.cls-3{fill:#0058af;}.cls-4{fill:#015cca;}.cls-5{fill:#025193;}</style></defs><title>7777</title><path class="cls-1" d="M637.65,175.63A563.27,563.27,0,0,1,555,191a2.67,2.67,0,0,0-2.41,1.84c-2.22,5.77-1,11.5.47,17.3A83,83,0,0,1,555.41,232c-.16,13.77-.1,26.84,3.67,40.21a2.54,2.54,0,0,0,3.08,1.74,79.24,79.24,0,0,1,31.8-3.31c3.2.31,3.18-4.69,0-5a83,83,0,0,0-33.13,3.49l3.07,1.75c-3.65-12.93-3.65-25.57-3.49-38.88a88.12,88.12,0,0,0-1.14-17.17c-1.28-6.92-4.58-13.74-1.9-20.72L555,196a572,572,0,0,0,84-15.51c3.11-.82,1.79-5.64-1.33-4.82Z" transform="translate(-434.78 -38.16)"/><path class="cls-1" d="M444.94,277c21.44-48.13,61.26-84,99.87-118.41,2.41-2.15-1.14-5.67-3.53-3.54-38.91,34.67-79,70.93-100.66,119.43-1.29,2.92,3,5.46,4.32,2.52Z" transform="translate(-434.78 -38.16)"/><path class="cls-2" d="M522.06,517.89a71.76,71.76,0,0,0-31.22,4c-4.95,1.82-16.44,5.52-10.62,12.66,5.26,6.44,15.47,6.48,22.89,5.47,8.12-1.12,20.32-3.19,26.21-9.53,5-5.4.39-11.76-5.69-13.19-8.81-2.06-19.15.06-27.26,3.67-4.56,2-15.45,7.32-8.93,13.5,5.5,5.23,18.66,1.36,24.8-.74,2.71-.92,8.79-2.44,9.8-5.41s-2.24-4.24-4.47-4.65c-11.72-2.16-24.33.27-35.14,4.86a1.25,1.25,0,0,0-.25,2c3.29,2.64,8,2.44,12.07,2.44a64.26,64.26,0,0,0,16.37-2.27c1.13-.3,1.26-2.2,0-2.41a46.5,46.5,0,0,0-16.84.18c-1.57.3-.91,2.71.67,2.41a42.56,42.56,0,0,1,15.51-.18v-2.41a61.53,61.53,0,0,1-13,2.1c-3.69.18-10,.77-13-1.62l-.26,2a63.15,63.15,0,0,1,25.09-5.18,26.56,26.56,0,0,1,5.28.24q3-.4,3.44,3.09l-1.52.73c-2.66,2.15-8.43,3.05-11.76,3.68-2.76.51-11.75,2.32-14.27,0-5.43-5,6.58-9.69,8.91-10.63,7.05-2.85,15.84-4.62,23.41-3.06,3,.62,7.79,2.38,6.61,7-.61,2.4-3,3.73-5,4.82A52.5,52.5,0,0,1,512,535.63c-7.12,1.89-15.4,3.58-22.66,1.46-1.64-.47-4-1.07-5.17-2.38-5.14-5.57-1.18-6.69,2-8.2a68.07,68.07,0,0,1,12-4.32,70.64,70.64,0,0,1,23.89-1.8c1.6.14,1.59-2.36,0-2.5Z" transform="translate(-434.78 -38.16)"/><path class="cls-2" d="M497.11,209.07c-1.9-2.5-4.19-5.58-4.09-8.89.14-4.41,6.11-7.72,8-2.21.72,2.14,4.35,2.61,4.82,0,.39-2.09.07-6.3,1.26-7.75,3.41-4.19,5.38,1.48,5.91,4.64.48,2.83,4.92,2.09,4.92-.66a17.07,17.07,0,0,1,4.28-11.86c1.56-1.68,4.7-4.17,7.25-3.18,1.77.68,2.58,3.76,2.88,5.38a33.45,33.45,0,0,1-3.56,21.67c-3.42,6.4-10.45,14.5-18.38,14.51-7.66,0-11.12-9.49-15-14.64-1.92-2.53-6.26,0-4.32,2.52,6.05,8,10.85,19.65,23.11,16.62,10.77-2.67,18.84-13.57,21.94-23.69,2.19-7.14,4.45-24.3-5.32-27.19-10.91-3.23-17.87,11.33-17.86,19.86l4.91-.66c-.82-4.8-3.35-11.26-9.44-10.46-6.68.86-6.47,8.59-7.38,13.56h4.82c-1.92-5.71-8.91-9-14-4.82-6.56,5.35-3.2,14.22,1,19.77,1.92,2.54,6.26,0,4.32-2.52Z" transform="translate(-434.78 -38.16)"/><path class="cls-2" d="M495.48,208.76a38.77,38.77,0,0,1,15-16.1l-3.68-2.82c-2,7.83-7.35,14.18-7.91,22.45-.14,2,2.93,3.46,4.26,1.76,7.27-9.22,14.25-18.8,22.76-26.93l-4.17-1.1c.73,2.33-2.24,6-3.25,7.91-1.27,2.45-2.51,4.91-3.71,7.4q-3.33,6.91-6,14.1c-1,2.77,3.09,4.18,4.57,1.93,3.35-5.08,6.7-10.22,10.83-14.71.53-.57,2.2-1.74,2.4-2.45-.24-2.91-.56-3.48-1-1.73-.19.59-.4,1.18-.62,1.77a84.18,84.18,0,0,1-4.7,10.54c-1.48,2.85,2.83,5.38,4.32,2.53s11.31-19.52,2.73-19.23c-3.56.12-7,5.24-8.94,7.62A151.29,151.29,0,0,0,509,214.84l4.57,1.92A180.56,180.56,0,0,1,522,198.09c2-4,6.06-8.73,4.59-13.4a2.53,2.53,0,0,0-4.18-1.11c-8.52,8.13-15.5,17.72-22.76,26.94l4.27,1.77c.52-7.61,5.86-13.85,7.74-21.12a2.54,2.54,0,0,0-3.68-2.83,43.76,43.76,0,0,0-16.77,17.9c-1.45,2.86,2.86,5.4,4.32,2.52Z" transform="translate(-434.78 -38.16)"/><path class="cls-1" d="M583.88,277c17.84-41.83,51.12-73.52,83.79-104,2.36-2.19-1.18-5.72-3.53-3.53-33,30.73-66.58,62.81-84.58,105-1.25,2.93,3.06,5.48,4.32,2.52Z" transform="translate(-434.78 -38.16)"/><path class="cls-1" d="M664.53,172.06c2.84,10.53,10.66,19.9,21.21,23.37,4.51,1.49,10.23,1.67,13.87-1.86,3.8-3.69,1.59-8.42-.54-12.42-3.49-6.54-15.92-22.55-24.5-15.56s.61,20.85,7.88,24.68c3.23,1.7,9.61,3.06,8.79-2.8s-7.62-11-12.52-13.33c-2-.94-5.08,1.22-3.42,3.43A25.39,25.39,0,0,0,688.48,187a2.54,2.54,0,0,0,3.07-1.75c2.31-6.54-7.43-12.36-12.08-15.08-2.79-1.63-5.31,2.69-2.53,4.32,2.11,1.22,10.95,6.15,9.79,9.43l3.08-1.74A19.52,19.52,0,0,1,679.62,175l-3.42,3.42a21.56,21.56,0,0,1,5.91,3.87c.51.49,3.69,3.54,3.44,4.33-.08.24-6.73-6.24-7.16-7a14.75,14.75,0,0,1-1.78-4.59q-1.53-4.61,4.53-5.47c.88.5,1.73,1,2.56,1.6a35.12,35.12,0,0,1,8,7.66c1.87,2.47,7.66,9.73,2.57,12.22-3.51,1.71-8.77-.87-11.79-2.67a29.2,29.2,0,0,1-13.09-17.69c-.84-3.1-5.66-1.78-4.83,1.33Z" transform="translate(-434.78 -38.16)"/><path class="cls-1" d="M672.75,165.89a16.83,16.83,0,0,1,3.72-6.16,8.41,8.41,0,0,1,2.77-1.79c.43-.17,3-1,3.21-.36.12.28-1.27,1.65-1.59,2a10.43,10.43,0,0,1-2.91,2.05,11,11,0,0,1-6.13.85l2.16,3.77a5.47,5.47,0,0,1,4.5-2.23,2.53,2.53,0,0,0,1.77-4.27,5.28,5.28,0,0,0-5.59-1.58c-3.1.84-1.78,5.66,1.33,4.82l.72.3,1.77-4.27a10.78,10.78,0,0,0-8.82,4.7c-1.25,1.71.51,3.57,2.16,3.76a15.24,15.24,0,0,0,11.31-3.26c2.73-2.18,6.13-6.57,3.18-9.92-2.56-2.89-7.5-1.89-10.46-.26-4.06,2.24-6.28,6.37-7.92,10.54-1.18,3,3.65,4.29,4.82,1.33Z" transform="translate(-434.78 -38.16)"/><path class="cls-1" d="M543.18,152.18a29.17,29.17,0,0,1-18.4-8.71c-2.66-2.77-5.53-6.61-5.75-10.61-.32-5.82,5.47-4.18,8.9-2.89,3.59,1.35,17.7,8.58,15.31,13.79-1.09,2.36-5.79,2.14-7.7,1.77a15.59,15.59,0,0,1-3.66-1.22c-3.21-1.49-6.94-4.43-7.77-8.07l-.65,2.43c.6-.76,4.55,1.74,5.24,2.19a20.49,20.49,0,0,1,5.68,5.57L537.8,143a20.16,20.16,0,0,1-9.23-9.2l-.89,3.43c2.81-1.58,9.37,6.43,10.93,8.27,2.08,2.46,5.6-1.09,3.53-3.54-3.57-4.23-10.81-12.52-17-9.05a2.55,2.55,0,0,0-.89,3.42,24.72,24.72,0,0,0,11,11c2,1,5-1.22,3.42-3.42-3.13-4.42-10-11.34-16.1-10.33-7.13,1.16-.87,9.36,1.85,11.79,4.72,4.21,12.3,7,18.51,4.64,5.92-2.23,7-8.37,3.21-13-5.35-6.58-29.55-23.4-32-6.39-1,7.09,4.23,14.12,9.31,18.46a34.79,34.79,0,0,0,19.72,8.1c3.2.3,3.18-4.71,0-5Z" transform="translate(-434.78 -38.16)"/><path class="cls-1" d="M549.94,152.44c3.78-2.31,7.37-5.26,8.85-9.59,1.1-3.21,1.18-8.44-2.28-10.31-3.64-2-7.14,1.69-8.83,4.58a15.58,15.58,0,0,0-1.41,12.32,2.53,2.53,0,0,0,4.18,1.1,10.81,10.81,0,0,0,2.91-9.59l-3.68,2.82.23.79c-.29,3.2,4.71,3.18,5,0a5.24,5.24,0,0,0-2.7-5.1c-2-1.27-4,.81-3.68,2.82a5.45,5.45,0,0,1-1.62,4.72l4.18,1.11a10.5,10.5,0,0,1-.08-6.18c.22-.73,1.91-5,3.22-4.65,1.47.4-1,5.66-1.31,6.18a17.51,17.51,0,0,1-5.5,4.66c-2.74,1.67-.23,6,2.52,4.32Z" transform="translate(-434.78 -38.16)"/><path class="cls-3" d="M447.28,352.44h-7.66c-2.67,0-4.84-1.87-4.84-4.17V337.83c0-2.31,2.17-4.18,4.84-4.18h7.66" transform="translate(-434.78 -38.16)"/><path class="cls-3" d="M577,352.44h7.66c2.67,0,4.84-1.87,4.84-4.17V337.83c0-2.31-2.17-4.18-4.84-4.18H577" transform="translate(-434.78 -38.16)"/><path class="cls-3" d="M574.25,263.41l7.57.11c4.29.06,7.71,4.22,7.64,9.29v.89c-.07,5.07-3.61,9.13-7.9,9.07l-7.57-.1Z" transform="translate(-434.78 -38.16)"/><path class="cls-3" d="M450,263.41l-7.57.11c-4.29.06-7.71,4.22-7.64,9.29v.89c.07,5.07,3.61,9.13,7.9,9.07l7.57-.1Z" transform="translate(-434.78 -38.16)"/><path class="cls-4" d="M577.61,359.1V280.94c0-44.31-27.84-80.24-62.19-80.24h-6c-34.35,0-62.19,35.93-62.19,80.24V359.1Z" transform="translate(-434.78 -38.16)"/><rect class="cls-3" x="43.62" y="335.94" width="22.84" height="163.28" rx="11.42"/><rect class="cls-3" x="86.27" y="335.94" width="22.84" height="163.28" rx="11.42"/><rect class="cls-3" x="37.36" y="320.94" width="35.62" height="27.11"/><rect class="cls-5" x="37.36" y="320.94" width="35.62" height="27.11"/><rect class="cls-3" x="82.26" y="320.94" width="35.62" height="27.11"/><rect class="cls-5" x="82.26" y="320.94" width="35.62" height="27.11"/><path class="cls-2" d="M530.47,525.2a70.05,70.05,0,0,1,22.74-7.58,67.55,67.55,0,0,1,12.71-.64c3.57.16,6.78,2.95,4.84,6.81a14.13,14.13,0,0,1-3.55,4c-5.74,4.76-13.81,6.49-21,7.57a64,64,0,0,1-12.13.8,16.68,16.68,0,0,1-4.55-.65c-5.25-1.74-4.26-7.12-.88-10,5.9-5.07,15.65-6.92,23.17-7.15a46.31,46.31,0,0,1,5.27.13,42.59,42.59,0,0,1,4.89.68q3.13,0,1.19,3.74c.82,2.25.29,3.63-1.59,4.12a45.9,45.9,0,0,1-4.53,1.73,52.78,52.78,0,0,1-5.24,1.45c-3.54.78-8.73,2.25-12.25,1.19q-2.84.7-2.72-2.59c.75-.46,1.51-.9,2.29-1.32a60.73,60.73,0,0,1,6.88-3.24,63.79,63.79,0,0,1,23.81-4.35L568.74,518c-2.11,3.88-9,5.95-13,7.26a64.49,64.49,0,0,1-11.42,2.6l1,2.28a43.59,43.59,0,0,1,14.68-6c1.57-.33.91-2.74-.67-2.41A45.11,45.11,0,0,0,544,527.94a1.26,1.26,0,0,0,1,2.29,63.39,63.39,0,0,0,16.11-4.39c3.54-1.51,7.86-3.09,9.78-6.62a1.26,1.26,0,0,0-1.08-1.88,65.86,65.86,0,0,0-30.39,7.11c-2.13,1.08-6.67,2.8-6.78,5.86-.09,2.65,2,3.09,4.2,3.37a46.45,46.45,0,0,0,15.62-1.12c4.21-.94,9.89-2.23,13.24-5.23,1.88-1.68,3.19-4.4,2.27-6.94-1.27-3.51-5.66-3.84-8.81-4.24a49.31,49.31,0,0,0-28.26,4.92c-5,2.58-11.57,9.48-5.68,14.86,5.71,5.23,17.61,2.59,24.29,1.35,8.08-1.5,17.29-4.06,22.49-10.94,1.71-2.25,3.58-5.66,2.32-8.57-1.69-3.9-7.62-3.34-11-3.35A71.92,71.92,0,0,0,529.21,523c-1.43.76-.16,2.91,1.26,2.16Z" transform="translate(-434.78 -38.16)"/><circle class="cls-5" cx="55.17" cy="301.04" r="18.75"/><circle class="cls-5" cx="100.07" cy="301.04" r="18.75"/><path class="cls-1" d="M533.16,64.38q11.57,44.66,24.25,89c.88,3.09,5.71,1.78,4.82-1.33q-12.68-44.36-24.25-89c-.81-3.11-5.63-1.79-4.82,1.33Z" transform="translate(-434.78 -38.16)"/><path class="cls-1" d="M535.3,65q54.84-13.15,110.57-22l-3.16-2.41q1.51,51.76,1,103.58l1.83-2.41a335.7,335.7,0,0,1-84.74,15.71c-3.2.17-3.22,5.17,0,5a341.16,341.16,0,0,0,86.07-15.89,2.57,2.57,0,0,0,1.84-2.41q.55-51.79-1-103.58a2.55,2.55,0,0,0-3.17-2.41q-55.69,8.85-110.56,22c-3.13.75-1.81,5.58,1.32,4.83Z" transform="translate(-434.78 -38.16)"/><path class="cls-1" d="M663.32,96.11l4.89,79.51,2.39,38.76c.19,3.05-.71,9.89,2.88,11.59a3.49,3.49,0,0,0,4.92-3.4c-.12-3.21-5.12-3.22-5,0l0,.7,1.23-2.16-.22.07,2.16,1.24c-1.38-2-.91-6.66-1.06-9l-.49-8-1-15.9-1.9-30.81-3.85-62.61c-.2-3.2-5.2-3.22-5,0Z" transform="translate(-434.78 -38.16)"/><path class="cls-1" d="M664.5,100.05A340.21,340.21,0,0,1,725,85.7c10.67-1.51,21.42-2.47,32.19-2.92q3.76-.16,7.54-.24c3.22-.06,5.38-.64,7.83,1.61s1.81,4.07,1.78,7.11l-.1,10q-.35,32.84-.68,65.68l-.16,15.92c-.05,5,.66,10.69-.19,15.61-.8,4.62-3,5.16-6.84,6.62-2.33.89-4.68,1.72-7,2.53q-7.95,2.76-16,5.07a301.05,301.05,0,0,1-69.33,11.13c-3.21.14-3.23,5.14,0,5A306.44,306.44,0,0,0,742.78,218q8.1-2.25,16.07-5c4.8-1.62,10.65-2.95,14.88-5.83,3.08-2.12,4.19-5.13,4.44-8.75.46-6.48.16-13.09.23-19.59l.78-75.63c.05-5.76.52-11.68.14-17.42-.24-3.63-1.72-6.58-5.32-7.8-4.19-1.42-9.72-.47-14-.32q-9.42.31-18.82,1.16a343,343,0,0,0-78,16.4c-3,1-1.73,5.85,1.33,4.82Z" transform="translate(-434.78 -38.16)"/><path class="cls-1" d="M638.91,177.76a625.47,625.47,0,0,1,8,64.55c.17,2.38,1.1,5-1.26,6.37-2.07,1.23-5.21,1.66-7.51,2.39l-15,4.78L591.19,266c-3.05,1-1.75,5.8,1.33,4.82l35.68-11.35c6.24-2,12.66-3.69,18.78-6,2.88-1.07,4.75-2.42,5.16-5.62.71-5.39-.67-11.72-1.16-17.13q-.81-9.15-1.91-18.27-2.16-18.1-5.34-36c-.56-3.16-5.38-1.82-4.82,1.33Z" transform="translate(-434.78 -38.16)"/><path class="cls-1" d="M667.06,260.72l12.05,71.83c.53,3.17,5.35,1.82,4.82-1.33l-12-71.83c-.53-3.17-5.35-1.82-4.82,1.33Z" transform="translate(-434.78 -38.16)"/><path class="cls-1" d="M670.26,264.29c5.38-8.08,17.53-8.56,26.17-10.08,11.69-2.05,23.36-4.15,35.05-6.15,2-.34,2.93-1,4.33.47,1.12,1.16,1.07,2.69,1.3,4.21.45,2.88.86,5.77,1.27,8.66q1.33,9.3,2.47,18.63,2.21,17.87,3.75,35.81l2.5-2.5a447.48,447.48,0,0,0-69.28,14.51c-3.08.91-1.77,5.73,1.33,4.82a439,439,0,0,1,68-14.33c1.25-.16,2.63-1,2.5-2.5q-2-22.3-4.85-44.5c-.92-7-1.84-13.95-3-20.89-.64-3.9-2.1-8-6.75-8-6.21,0-13,2.19-19.1,3.26l-22.73,4c-9.93,1.74-21.21,2.94-27.27,12-1.78,2.69,2.55,5.19,4.32,2.52Z" transform="translate(-434.78 -38.16)"/><path class="cls-1" d="M685.22,127.18c1.84-12.52,13.9-.45,20.8-3.54a13.06,13.06,0,0,0,4.7-4.32c1-1.37,1.94-3.07,3.29-4.17,2.2-1.81,4.22-1.58,6.86-1.4,4.18.28,7.8-1.7,11.9-1.92,3.69-.19,4.47,1,6.85,4.25.92,1.24.74,1.73,2.25,2.29,5.09,1.89,12.44-5.86,15.55-9,1.14-1.15-.63-2.92-1.76-1.77a45.09,45.09,0,0,1-6.58,5.6c-2.7,1.85-4.75,2.87-7.75.35-2.13-1.8-2.48-3.42-5.65-4-3.57-.69-6.78.73-10.21,1.41-3.94.78-8.19-1-11.75,1.27-2.48,1.58-3.83,4.33-5.66,6.51-3.77,4.47-7.86,2.68-12.51.91-6.28-2.38-11.7-.15-12.74,6.9-.23,1.58,2.18,2.26,2.41.67Z" transform="translate(-434.78 -38.16)"/><path class="cls-1" d="M692.06,149.34c1.45-3.8,3.42-8.45,8.07-6.94,3,1,3.3,2.91,5.52,4.61a6.64,6.64,0,0,0,7.14.65c3.93-1.79,4.83-5.88,8.05-8.26,5.49-4.06,8,3.31,12.5,4.55,3.6,1,7.25-.56,10.18-2.57,3.71-2.55,8.36-9,13.33-8.36,3.23.43,3.84,4.39,7.43,3,2.79-1,3.18-4.28,3.34-6.84.09-1.61-2.41-1.6-2.5,0-.15,2.4,0,4.39-4,3.2-.39-.12-.65-.89-1.06-1.06a7.8,7.8,0,0,0-3.18-.85c-3.52-.06-6.75,2.21-9.34,4.33-2.2,1.79-4.22,3.87-6.69,5.3-4.82,2.76-8.47,1.18-11.65-2.68-1.54-1.87-3.13-3.42-5.76-2.81-3,.69-5,3.71-6.72,6a21.94,21.94,0,0,1-2.48,3c-2.36,2.22-6.1,1.68-8.41-.2-1.1-.9-1.68-2.35-2.89-3.2-6.43-4.54-11.31,3.27-13.26,8.39-.57,1.51,1.84,2.16,2.41.67Z" transform="translate(-434.78 -38.16)"/><path class="cls-1" d="M704.11,177.58a17,17,0,0,1,1.18-2.43l6-.79c.74.4,1.46,2.3,2,3a7.1,7.1,0,0,0,4.12,2.76c6,1.35,9.22-4.28,13.93-6.49,5.13-2.41,6.32,1.5,9.86,3.76a6.72,6.72,0,0,0,5.32.6c5.32-1.31,9.9-6.22,13.08-10.38,1-1.28-1.19-2.53-2.16-1.27-2.49,3.26-6.23,7.4-10.28,8.67-5.07,1.57-5.6-2.55-9-4.25-4.27-2.12-8.52.9-11.77,3.37-2.91,2.21-4.32,3.63-8,2.92-3.15-.61-3.21-1.63-4.94-3.94a7.38,7.38,0,0,0-3-2.73c-4.29-1.72-7.07,2.65-8.52,6-.64,1.46,1.52,2.74,2.16,1.26Z" transform="translate(-434.78 -38.16)"/><path class="cls-1" d="M711.21,204c2.41-2.53,6-6.58,9.35-7.67l1.35-.78a4.93,4.93,0,0,1,3.33,3c1,1.58,1.09,3.28,2,4.85,1.62,3,4.67,3.61,7.38,1.39,2.49-2.05,3.56-6.35,7.18-6.95,3.43-.56,5,3.28,8.17,3.09,4.68-.29,8-8.5,9.65-11.83.73-1.43-1.43-2.7-2.16-1.26-.89,1.76-1.83,3.5-2.87,5.18-1.58,2.53-1.95,4.27-5.2,4-2.53-.2-4.16-1.91-6.7-1.86a8.32,8.32,0,0,0-4.45,1.71c-2.21,1.55-6.11,8.57-9.21,4.23-2-2.74-2.34-8.71-6.88-8.31-4.22.38-10,6.59-12.66,9.4-1.11,1.17.66,2.94,1.77,1.77Z" transform="translate(-434.78 -38.16)"/><path class="cls-1" d="M690.36,279.63c.35-1.16.73-2.31,1.13-3.45.07-1.76,1-2.41,2.81-2,3.24-.38,2,.44,4,1.94a5,5,0,0,0,3.52,1.13c6.43-.57,6.92-11.32,12.42-11.81,3.06-.27,2.25,2.07,4.48,3.42a3.35,3.35,0,0,0,2.77.49c1.94-.49,3.35-3.24,4.3-4.73a57.68,57.68,0,0,0,4.48-8.79c.62-1.49-1.79-2.13-2.41-.67s-5.11,12.48-7.94,11.46c-1.27-.45-1.9-3.28-3.1-4.21-3.26-2.49-5.69.9-7.44,3.4-1,1.39-1.89,2.82-2.87,4.21a24.73,24.73,0,0,1-2.54,3.32l-5.31-.67c-1.9-1-1.93-3.38-4.71-3.38-4.13,0-5.09,6.84-6,9.65-.48,1.54,1.93,2.19,2.41.66Z" transform="translate(-434.78 -38.16)"/><path class="cls-1" d="M692.76,298c1.09-2.48,2.39-6.33,4.43-8.19,4.21-3.84,4.32,1.33,6.37,3.33s4.45,2.07,6.34,0a14.45,14.45,0,0,0,1.29-2.09c1.64-2.4-.26-1.08,3.28-3.44,4.21-2.81,1.71-.81,4.6-1,3.63-.25,4.82-7.45,5.2-9.89.25-1.58-2.16-2.26-2.41-.67-.44,2.83-1.28,6.65-4.18,7.22-1.45.29-2.44-.8-4.19,0a6.73,6.73,0,0,0-2.58,2.3c.1-.14-1.6,3.24-1.43,3.08l-4.68,2c-.37-.71-.72-1.43-1-2.16-5.1-9.82-11,3.26-13.16,8.25-.64,1.45,1.51,2.73,2.16,1.26Z" transform="translate(-434.78 -38.16)"/><path class="cls-1" d="M704.81,311.33l4.54-1.8c.4.48.79,1,1.18,1.46s.78,1,1.32,1.37a3.37,3.37,0,0,0,2.66.68,4.73,4.73,0,0,0,2.35-1.56c.67-.71,1.06-2,1.8-2.58l4.46-1.77a3.61,3.61,0,0,0,1.16.75c2.19.35,3.36.53,4.89-1.45,2.6-3.35,3.58-8.77,4.38-12.8.31-1.57-2.1-2.24-2.41-.66a54.58,54.58,0,0,1-2.15,7.95c-1.07,2.95-1,4.45-4.6,4.05-.54-.06-.95-.72-1.53-.73a5.85,5.85,0,0,0-3.56.58c-1.78,1-2.16,3-3.66,4.14-3.3,2.45-4.91-3.21-8.55-2.95a5.19,5.19,0,0,0-4.78,5.32,1.25,1.25,0,0,0,2.5,0Z" transform="translate(-434.78 -38.16)"/><path class="cls-1" d="M570.23,219.08c.39-2.36.89-5.9,2.47-7.78l.87-1.47q3.4.15,4.37,2.95c1.37,1.82,2,5.37,4.29,6.43,3.81,1.77,6.65-4.42,8.11-6.85,2.29-3.81,4.65-11.35,10.47-6.05,1.23,1.12,1.67,2.75,3.58,3.09,4.61.79,8.73-8.56,10.39-11.48a1.25,1.25,0,0,0-2.16-1.26c-1.08,1.91-2.21,3.79-3.46,5.6-2.34,3.38-2.92,5.12-6.94,1.56-1.68-1.5-2.25-2.84-4.87-2.69-5.34.31-7.69,7.79-10.06,11.44-1.6,2.46-2.66,5.48-5.34,2.35-1.13-1.31-1.65-3.31-2.58-4.77s-2.25-3.43-4.25-3.69c-5-.67-6.78,8.8-7.3,12-.26,1.57,2.15,2.25,2.41.66Z" transform="translate(-434.78 -38.16)"/><path class="cls-1" d="M573.7,238a35.55,35.55,0,0,1,7.8-11.18c2.24-2.11,5.72-5.77,9.27-3,1.72,1.34,2.31,4,3.26,5.84,1,2,2.62,4.66,5.1,5.09s3.72-1.52,5.23-3.25c2.23-2.57,8.83-10.9,12.64-7.83,2.21,1.78,1.73,6.28,4.35,8.07,1.64,1.12,2.84,1,4.42-.13,3-2.14,5.47-7.34,7.67-10.33.95-1.29-1.22-2.54-2.16-1.26-1.41,1.91-2.79,4.62-4.55,6.19q-1.37,3.12-5.11,1.67l-1.23-2.73c-1-2.14-1.64-5-4.37-5.3-2.32-.24-4.64,1.86-6.31,3.14a44.78,44.78,0,0,0-4.92,4.31c-2.19,2.24-3.88,6.6-8,2.34-2.35-2.46-2.18-6.37-5.33-8.44a5.82,5.82,0,0,0-5.4-.69c-6.59,2.27-11.83,10.28-14.56,16.25-.66,1.45,1.49,2.72,2.16,1.26Z" transform="translate(-434.78 -38.16)"/><path class="cls-1" d="M582.31,252.63c2.51-5.13,7.16-11.85,12.28-3.9.94,1.47,1.17,2.63,2.87,3.48,3.73,1.84,7.57-.56,10-3.37,2.18-2.54,4-7,7.65-7.73,3-.61,5.31,2.39,8.24,1.67,4.24-1.06,5.88-9.26,7.28-12.58.62-1.48-1.8-2.13-2.41-.67-.73,1.72-1.44,3.44-2.17,5.15-1.39,3.23-1.59,5.89-6.1,4.84-1.8-.43-2.81-1.25-4.81-.93-6.45,1-7,8.74-12.27,11-6,2.6-5.74-3.8-8.29-5.94a6.72,6.72,0,0,0-4.43-1.39c-5.19.16-7.94,4.94-10,9.06-.71,1.44,1.45,2.71,2.16,1.27Z" transform="translate(-434.78 -38.16)"/><path class="cls-1" d="M561.68,90.78c2.31-5.56,5.44-12.71,9.93-16.88,6.64-6.18,8.85,2.09,13.57,5.14,8,5.21,14.85-3.59,18.3-9.83l-2,.25L613.4,80.31c2,1.79,4.14,4.47,7.14,3.68,6-1.56,8.23-12.31,8.84-17.29.19-1.6-2.31-1.58-2.5,0a29.09,29.09,0,0,1-2.79,9.52,12.65,12.65,0,0,1-2,3.2c-2,2-4.15,1.19-6.25-.24-4.54-3.09-8.53-7.79-12.58-11.48a1.26,1.26,0,0,0-2,.25c-3.6,6.49-10.24,14.37-17.25,6.64-2.2-2.43-4.36-5.67-8-5.7-4,0-6.66,3.57-8.75,6.47a74.31,74.31,0,0,0-8,14.76c-.62,1.48,1.8,2.13,2.41.66Z" transform="translate(-434.78 -38.16)"/><path class="cls-1" d="M572.23,109.8c.26-6.75,6.43-7.79,11-4.38a14.44,14.44,0,0,0,2.59,2.07,6.7,6.7,0,0,0,6-.21c3.32-1.55,5.11-4.74,7.51-7.31,2.06-2.21,4.38-4.51,8-2.9,1.61.72,2.68,2.36,4.32,3.05a5.11,5.11,0,0,0,4.48,0,9.19,9.19,0,0,0,2.49-2.2c1.63-1.76,2.48-1.86,4.83-1.78,4.89.17,6.22-3.09,6-7.81-.08-1.6-2.58-1.61-2.5,0,.47,2.28-.59,4-3.19,5.23L622.51,93c-.89.13-1.44-.16-2.34.16-1.87.66-2.51,2.7-4,3.73-4.09,2.77-6.85-2.75-10.68-3-2.44-.16-4.58,1.19-6.33,2.73-3,2.62-5.32,8-9.55,8.85-2.91.56-7-4.35-10.24-4.73-5.59-.65-9.42,3.82-9.62,9-.06,1.61,2.44,1.61,2.5,0Z" transform="translate(-434.78 -38.16)"/><path class="cls-1" d="M571.84,139.24l3.69-6.74c1-1.79,1.41-4.3,3.16-2.93,1.2.94,2.12,4.07,2.83,5.44l3.24,6.21a1.26,1.26,0,0,0,2.16,0l3.72-7.44c.53-1.08.83-2.63,2.19-2.83,1.82-.27.57,0,1.34,1.21,1.27,2,1.13,3.55,3.88,4.17,6.61,1.47,8.46-6.19,8.83-11,.13-1.6-2.37-1.59-2.5,0-.2,2.57-.62,9.34-5.11,8.66-3-.46-2.38-2.25-3.08-4-.5-1.26-1.1-2.43-2.59-2.67s-2.45.72-3.27,1.72c-2.44,2.95-3.86,7.54-5.57,11h2.16l-5.26-10.1c-.63-1.2-1.36-3.61-3-4a3.15,3.15,0,0,0-2.6.9c-2.77,2.15-4.76,8.25-6.39,11.24-.77,1.41,1.39,2.68,2.16,1.26Z" transform="translate(-434.78 -38.16)"/></svg>