<svg id="Layer_1" data-name="Layer 1" xmlns="http://www.w3.org/2000/svg" viewBox="0 0 61.81 39.86"><defs><style>.cls-1{fill:#ea008b;}</style></defs><title>srela4</title><path class="cls-1" d="M37.74,61.65c2-5.19,6-10.38,11.07-12.87,2.87-1.41,6.38-1.62,8.27,1.41a17.37,17.37,0,0,1,2.1,7.6A24.92,24.92,0,0,1,55.94,72a23.38,23.38,0,0,1-4.75,5.87c-1.06.94-3.1,2.64-3.75.37a9.94,9.94,0,0,1,.2-4.27A23.29,23.29,0,0,1,55.22,60.8c2-1.7,5.12-4.18,7.88-3.69,3.18.57,4.48,4.14,4.43,7,0,3.31-1,6.66-1.72,9.88-.52,2.53-1.29,5.13-1.22,7.73a5.38,5.38,0,0,0,2,4.54c2,1.35,4.45.36,6.3-.78a69.94,69.94,0,0,0,13.9-11.79,80,80,0,0,0,11-15,.38.38,0,0,0-.42-.55,12.15,12.15,0,0,0-7.34,4.75.38.38,0,0,0,.42.55,42.37,42.37,0,0,0,7.93-4.2L97.86,59a9.17,9.17,0,0,1-1.13,6.69.37.37,0,0,0,.64.38,10,10,0,0,0,1.21-7.27.38.38,0,0,0-.55-.22,41.46,41.46,0,0,1-7.75,4.13l.43.55a11.34,11.34,0,0,1,6.89-4.4l-.42-.55A80,80,0,0,1,85.67,73.73,79.33,79.33,0,0,1,79,79.93q-1.86,1.54-3.83,3a21,21,0,0,1-4.52,2.82c-1.63.63-3.55.55-4.59-1a6.48,6.48,0,0,1-.75-3.82c.13-3.29,1.16-6.62,1.83-9.84s1.7-6.72.75-10a6.66,6.66,0,0,0-4.3-4.62c-2.64-.71-5.38,1.1-7.41,2.59a23.75,23.75,0,0,0-5.45,5.6A24.29,24.29,0,0,0,47.33,72c-.55,2-1.39,5.12-.38,7.13,2.19,4.34,8.59-4.87,9.64-6.7a25.63,25.63,0,0,0,3.31-15c-.26-2.79-.87-6.06-2.65-8.31s-5-2.52-7.63-1.51C43.74,49.82,39.25,55.8,37,61.45c-.18.45.55.65.72.2Z" transform="translate(-36.99 -47.02)"/></svg>