<svg id="Layer_1" data-name="Layer 1" xmlns="http://www.w3.org/2000/svg" viewBox="0 0 59.2 41.87"><defs><style>.cls-1{fill:#015cca;}</style></defs><title>srela1</title><path class="cls-1" d="M15.6,112.18a28.71,28.71,0,0,0,6.12,15.62c3.48,4.38,8.71,8.49,14.53,8.61,6.15.13,12-3.91,16.41-7.77a73.41,73.41,0,0,0,12.57-14.45,64.35,64.35,0,0,0,8.93-19.14.38.38,0,0,0-.46-.46,8.57,8.57,0,0,0-4.22,3c-.26.35.3.77.59.46l1.37-1.49a3.43,3.43,0,0,1,.61-.65c.17-.29.44-.3.79,0,.52-.09.76.1.73.57a12.41,12.41,0,0,1,.48,4.38.38.38,0,0,0,.75,0,23.79,23.79,0,0,0-.3-3.47c-.12-.76-.19-2.07-.86-2.62a1.24,1.24,0,0,0-1.63.15,21.23,21.23,0,0,0-2.47,2.63l.59.45a7.66,7.66,0,0,1,3.77-2.71l-.46-.46c-3.11,11.44-9.77,21.81-18,30.2-4.18,4.23-9.27,8.44-15.1,10.06-6.29,1.75-12.11-1.45-16.38-5.93a27.9,27.9,0,0,1-7.56-17c0-.48-.78-.48-.75,0Z" transform="translate(-15.6 -94.55)"/></svg>