<svg id="Layer_1" data-name="Layer 1" xmlns="http://www.w3.org/2000/svg" viewBox="0 0 81.1 77.91"><defs><style>.cls-1{fill:#015cca;}</style></defs><title>srela3</title><path class="cls-1" d="M168.11,55.14c-.18-4.21-1.85-8.84-5.73-11-3.25-1.81-7.94-1.52-10.32,1.58-1.45,1.88-1.74,4.31-2.19,6.57a22.45,22.45,0,0,1-2.77,7.24,20.82,20.82,0,0,1-5.38,6c-2.27,1.67-5.73,2.87-8.11.68-1.94-1.78-1.26-4.91-3.11-6.8-1.41-1.43-3.21-1.12-4.48.31-3,3.37-4.22,8.29-5.11,12.58-1,4.78-1.55,9.69-3.25,14.3A20.68,20.68,0,0,1,107.5,98.2c-2.6,1.28-5.48,1.73-8.14,2.86a10.8,10.8,0,0,0-5.12,4.34c-2.58,4.2-2.81,9.6-6.29,13.27l.63.17a16.91,16.91,0,0,1,.31-8.18l-.73-.1A53.21,53.21,0,0,1,87,120.13a.39.39,0,0,0,.26.46,11.61,11.61,0,0,0,5.08.13c.47-.1.27-.82-.2-.73a10.42,10.42,0,0,1-4.68-.13l.26.47a53.54,53.54,0,0,0,1.17-9.77.38.38,0,0,0-.74-.1,17.68,17.68,0,0,0-.32,8.58.38.38,0,0,0,.63.16c2.81-3,3.6-7,5.07-10.7A12.65,12.65,0,0,1,97,103.27c2-1.64,4.64-2.23,7.07-3a21.51,21.51,0,0,0,11.13-7.53c2.74-3.65,4-8.09,4.94-12.49s1.48-9.18,3-13.57a19.35,19.35,0,0,1,3.38-6.41c1.33-1.5,3-1.2,4,.48.7,1.18.76,2.62,1.21,3.9,1.56,4.44,6.74,4,10,1.78a22.07,22.07,0,0,0,8-10.7c.93-2.66.95-5.64,2.13-8.21a6.54,6.54,0,0,1,6.25-3.76c6,.06,9,6.07,9.26,11.36,0,.48.77.48.75,0Z" transform="translate(-87.01 -43.03)"/></svg>