<svg id="Layer_1" data-name="Layer 1" xmlns="http://www.w3.org/2000/svg" viewBox="0 0 98.76 63.3"><defs><style>.cls-1{fill:#ffde2f;}</style></defs><title>srela2</title><path class="cls-1" d="M94.41,72.36c-.44-3.5.5-6.93,1.7-10.2a46.27,46.27,0,0,1,4-8.19,45.08,45.08,0,0,1,12.41-13.32c5.3-3.68,12.27-5.68,17.5-.77,4.63,4.34,6.19,11.25,6.15,17.37a44.83,44.83,0,0,1-4.39,18.5,32.36,32.36,0,0,1-10.64,13.17c-2.49,1.7-6.31,4-9.32,2.33-3.34-1.83-3-6.28-2.34-9.42,1.38-6.5,4.47-12.53,7.88-18.18,3.09-5.1,6.74-10.08,11.68-13.54,2.66-1.87,5.94-3.69,9.29-3.48s6.12,2.42,8.4,4.65a21.72,21.72,0,0,1,6.84,17.58c-.52,6.56-3.72,12.56-8,17.48a43.9,43.9,0,0,1-6.89,6.53c-2.43,1.81-5.78,4-8.93,3.94-3.89-.06-5.14-5-5.12-8.13a19.47,19.47,0,0,1,2.64-9.13,26.86,26.86,0,0,1,12-11.2c4.76-2.23,13.33-4.41,16.16,1.74,1.37,3,.77,6.31-.26,9.27-1.1,3.19-2.53,6.23-3.4,9.51-.64,2.4-1.83,5.84-.42,8.17,1.06,1.76,3.23,2.3,5.15,2.36a25.31,25.31,0,0,0,7.61-1.29,52.39,52.39,0,0,0,7.76-2.88,51.76,51.76,0,0,0,13.86-9.48,50.5,50.5,0,0,0,5.49-6.2c.18-.24-.07-.55-.32-.56a18.9,18.9,0,0,0-8,1.25c-.36.14-.36.79.1.74l2.77-.3c.83-.09,2.26-.59,2.16.8a10.86,10.86,0,0,1-.76,2.32l-.87,2.6c-.15.45.57.65.73.19l1.22-3.67c.23-.71.78-1.75.42-2.51-.29-.61-.92-.66-1.52-.63-1.38.07-2.77.3-4.15.45l.1.73A18.59,18.59,0,0,1,191,79.74l-.33-.57A50.83,50.83,0,0,1,167,96.45a36.24,36.24,0,0,1-9,2.18,8.65,8.65,0,0,1-4.22-.58c-2-1-2.31-2.93-2-4.93a48.14,48.14,0,0,1,3.14-10.59c1.27-3.14,2.56-6.41,2.15-9.85a8,8,0,0,0-3.86-6.25c-5-2.72-12-.17-16.42,2.48a27.14,27.14,0,0,0-11.22,12.71,17.3,17.3,0,0,0-1.4,9.22c.4,2.65,1.81,6.07,4.77,6.64s6.19-1.28,8.53-2.77a39.47,39.47,0,0,0,7.5-6.45c4.47-4.77,8.07-10.6,9.16-17.13a22.31,22.31,0,0,0-4.83-18.28,21.61,21.61,0,0,0-7.6-6.16,10.68,10.68,0,0,0-8.76.37c-5.79,2.56-10.23,7.39-13.76,12.52a70,70,0,0,0-9.42,18.57c-.94,3-2,6.66-1.1,9.84a5.76,5.76,0,0,0,5.79,4.54c2.93-.15,5.78-1.91,8.07-3.61a30.07,30.07,0,0,0,6.13-6.26A44.35,44.35,0,0,0,136,65.32c1.36-6.55,1.35-13.6-1.31-19.83-2.28-5.33-6.94-9.89-13.11-9.34-6.37.57-12,5.26-16.23,9.74A47.22,47.22,0,0,0,95.39,62c-1.22,3.32-2.18,6.84-1.73,10.4.06.47.81.48.75,0Z" transform="translate(-93.55 -36.11)"/><path class="cls-1" d="M187.27,86.44a30.27,30.27,0,0,0,3.85-4.38c.49-.68,1.25-1.52,1.18-2.43,0-.48-.37-.65-.8-.73a5.87,5.87,0,0,0-1.51-.07c-.47,0-.48.78,0,.75a5.14,5.14,0,0,1,1.24,0c.26,0,.34,0,.32.21a1.45,1.45,0,0,1-.18.53,15.93,15.93,0,0,1-1.38,2,29,29,0,0,1-3.25,3.58c-.35.33.18.86.53.53Z" transform="translate(-93.55 -36.11)"/><path class="cls-1" d="M188,80.26c1.18,0,2.37,0,3.56,0a.39.39,0,0,0,.36-.48.71.71,0,0,0-.77-.53,2.61,2.61,0,0,1-1.11-.08v.73a2.79,2.79,0,0,0,.58-.18.38.38,0,0,0,.08-.59.89.89,0,0,0-.33-.18.4.4,0,0,0-.43.18l-1.43,2.23.65.38.32-.67a.38.38,0,0,0-.59-.46l-.51.44.59.46a5.81,5.81,0,0,0,.32-.88.37.37,0,0,0-.36-.47h-.22l.36.48a.82.82,0,0,1,.2-.42c.2-.27-.14-.64-.43-.56a.56.56,0,0,0-.39.68.37.37,0,0,0,.36.27l.59,0,.3,0h.09c.09,0,.09,0,0-.06v-.2a6.77,6.77,0,0,1-.37,1.07c-.14.39.36.58.62.37l1.15-1-.59-.46-.41.83c-.18.37.28.78.59.46a4.19,4.19,0,0,0,.67-1c.13-.26-.09-.68-.42-.55l-.62.25.46.46.18-.64a.38.38,0,0,0-.55-.42,1.85,1.85,0,0,0-.77,1,.38.38,0,0,0,.55.42l.91-.58-.45-.59-2.11,2.48c-.31.36.2.88.53.53l.66-.7-.53-.54a22.66,22.66,0,0,1-1.52,1.73l.59.45a5.8,5.8,0,0,1,1.43-1.65l-.59-.46a10.87,10.87,0,0,1-.92,1.3c-.3.37.22.9.53.53a7,7,0,0,1,1-1l-.59-.45A12.6,12.6,0,0,1,188,84l.53.53,1.09-1.25-.53-.53a9.32,9.32,0,0,1-1.61,1.59l.45.59,1-1.26c.29-.37-.18-.88-.53-.53a4.5,4.5,0,0,0-.87,1.12c-.18.37.28.79.59.46l2.72-3-.59-.45-.23.45c-.18.36.3.8.59.46l.25-.3-.59-.45a2.9,2.9,0,0,1-.49.5c-.37.31.16.84.53.53a3.19,3.19,0,0,0,.61-.66c.25-.34-.32-.78-.59-.45l-.25.3.59.45.23-.45c.18-.37-.29-.79-.59-.46l-2.72,3,.59.45a3.71,3.71,0,0,1,.75-1l-.53-.53-1,1.26a.38.38,0,0,0,0,.49.37.37,0,0,0,.49.1,10.17,10.17,0,0,0,1.76-1.71.39.39,0,0,0,0-.53.38.38,0,0,0-.53,0L188,84c-.32.36.2.89.53.53A14.37,14.37,0,0,0,190,82.7c.25-.38-.28-.69-.59-.45a7,7,0,0,0-1,1l.53.53a12.35,12.35,0,0,0,1-1.45c.23-.39-.28-.7-.59-.45a6.17,6.17,0,0,0-1.54,1.8.38.38,0,0,0,.59.46c.53-.55,1-1.13,1.51-1.72.3-.37-.19-.9-.53-.54l-.66.71.53.53,2.11-2.48c.26-.3-.07-.83-.46-.59l-.9.58.55.43a1,1,0,0,1,.42-.55l-.55-.42-.18.64c-.08.25.18.57.46.46l.62-.25-.42-.55a4.1,4.1,0,0,1-.56.8l.59.45.41-.83a.38.38,0,0,0-.59-.45l-1.15,1,.63.37.3-.85a.62.62,0,0,0-.07-.7.94.94,0,0,0-.64-.22,5.9,5.9,0,0,0-.94,0l.37.28v.14l-.13.11-.42-.55a1.5,1.5,0,0,0-.28.6.38.38,0,0,0,.37.47H189l-.36-.48c-.07.24-.15.47-.24.7a.37.37,0,0,0,.58.45l.51-.44-.59-.45-.32.67a.38.38,0,0,0,.65.38l1.43-2.24-.42.18v0l.07-.59a1.38,1.38,0,0,1-.4.1c-.4.07-.31.62,0,.73a2.69,2.69,0,0,0,.75.14,1.53,1.53,0,0,0,.37,0l.19,0c.1,0,.12,0,0,0l.37-.47c-1.19-.06-2.38-.08-3.56,0a.38.38,0,0,0,0,.75Z" transform="translate(-93.55 -36.11)"/></svg>