<svg width="522" height="1641" viewBox="0 0 522 1641" fill="none" xmlns="http://www.w3.org/2000/svg">
<path d="M300.006 1530.57C308.996 1566.53 299.452 1629.43 259.305 1639.85C212.139 1652.08 232.92 1563.21 244.794 1542.11C253.118 1527.41 269.321 1524.25 280.668 1537.23C294.014 1552.43 293.708 1578.63 286.661 1596.82C282.999 1606.31 270.597 1629.1 259.61 1614.89C248.623 1600.67 261.108 1570.2 269.071 1557.52C272.511 1552.01 282.943 1553.25 282 1561.32C280.457 1577.93 273.993 1593.56 263.578 1605.85C262.497 1607.01 261.099 1607.74 259.597 1607.96C258.095 1608.17 256.57 1607.84 255.254 1607.03C238.607 1593.45 254.006 1563.18 261.691 1548.22C266.047 1539.76 278.033 1547.32 273.677 1555.81C271.846 1559.39 256.752 1589.56 262.246 1594.02L253.922 1595.19C261.942 1585.87 266.982 1573.99 268.294 1561.32L281.223 1565.11C276.368 1572.88 267.85 1588.36 270.458 1598.24C270.458 1601.1 270.458 1601.25 270.181 1598.96C271.596 1596.74 272.76 1594.34 273.649 1591.82C275.699 1586.91 276.975 1581.66 277.422 1576.28C278.119 1569.76 277.474 1563.14 275.536 1556.92L272.567 1550.06C263.078 1544.82 257.113 1546.2 254.671 1554.21C248.845 1561.32 246.348 1577.16 245.155 1586.52C243.962 1595.89 239.606 1626.57 255.781 1625.31C265.797 1624.52 274.287 1611.33 278.809 1603.2C284.349 1592.94 287.914 1581.57 289.287 1569.76C290.661 1557.96 289.814 1545.98 286.8 1534.55C284.442 1525.18 297.898 1521.21 300.173 1530.54L300.006 1530.57Z" fill="#EA008B"/>
<path d="M270.402 1527.71C265.397 1523.51 259.766 1520.27 253.755 1518.14C250.315 1517.11 236.942 1515.4 235.249 1520.91C234.556 1523.07 237.191 1523.32 239.605 1523.92C242.441 1524.69 245.368 1525.01 248.289 1524.85C254.486 1524.47 260.403 1521.92 265.158 1517.59L268.21 1530.18C265.734 1529.03 263.033 1528.57 260.35 1528.83C257.667 1529.09 255.086 1530.07 252.84 1531.69C247.291 1535.36 241.603 1529.31 242.657 1523.19C243.136 1520.17 244.397 1517.36 246.293 1515.09C248.19 1512.82 250.643 1511.18 253.367 1510.37C261.69 1506.99 265.38 1521.54 257.057 1524.88L256.03 1527.2L245.82 1518.68C249.656 1516.02 254.008 1514.36 258.534 1513.84C263.059 1513.32 267.635 1513.94 271.9 1515.67C276.312 1517.41 279.336 1524.34 274.952 1528.25C270.593 1532.37 265.522 1535.51 260.034 1537.48C254.547 1539.45 248.753 1540.21 242.99 1539.73C234.251 1538.88 221.349 1534.79 220.101 1523.56C218.686 1510.88 232.447 1503.68 241.964 1502.3C255.004 1500.43 266.934 1506.69 277.394 1514.61C284.635 1520.15 277.699 1533.22 270.402 1527.62V1527.71Z" fill="#EA008B"/>
<path d="M117.05 133.061C123.886 133.833 130.802 133.5 137.531 132.073C140.988 131.326 139.535 126.035 136.077 126.759C129.83 128.067 123.41 128.349 117.072 127.594C113.548 127.198 113.57 132.688 117.072 133.083L117.05 133.061Z" fill="#015CCA"/>
<path d="M151.801 130.229C156.068 130.564 160.309 129.321 163.715 126.738C164.325 126.352 164.766 125.75 164.949 125.054C165.133 124.358 165.046 123.618 164.706 122.983C164.32 122.373 163.71 121.938 163.007 121.77C162.303 121.601 161.562 121.714 160.94 122.083C158.362 124.137 155.088 125.12 151.801 124.827C148.277 124.542 148.277 130.031 151.801 130.316V130.229Z" fill="#015CCA"/>
<path d="M34.6397 148.672C30.6279 155.142 27.4884 162.111 25.3022 169.398C24.4213 172.296 29.0901 174.426 30.3454 171.594C32.5781 166.297 35.5431 161.338 39.1543 156.861L34.7498 153.524L31.2483 158.376L36.3795 159.76C35.942 156.379 36.2272 152.944 37.2164 149.682L31.7988 148.957L32.2613 155.983C32.5476 159.496 38.0532 159.518 37.7669 155.983L37.2164 148.957C37.2061 148.3 36.9597 147.669 36.5221 147.177C36.0844 146.686 35.4845 146.368 34.8314 146.28C34.1782 146.192 33.5152 146.341 32.9627 146.699C32.4103 147.058 32.0051 147.602 31.8209 148.233C30.654 151.957 30.301 155.888 30.7858 159.76C30.8022 160.354 31.0104 160.928 31.3796 161.395C31.7488 161.863 32.2593 162.199 32.8353 162.354C33.4114 162.509 34.0223 162.475 34.5774 162.257C35.1325 162.039 35.6023 161.648 35.917 161.143L39.5507 156.225C41.3786 153.722 37.1943 150.472 35.1463 152.887C31.2571 157.705 28.0623 163.04 25.6546 168.74L30.6757 170.935C32.727 164.094 35.6898 157.559 39.4847 151.504C41.3566 148.496 36.5777 145.752 34.7278 148.738L34.6397 148.672Z" fill="#015CCA"/>
<path d="M64.4582 332.861C64.1399 333.739 64.0085 334.673 64.0723 335.604C64.1362 336.535 64.3938 337.443 64.8289 338.269C65.264 339.095 65.867 339.822 66.5994 340.403C67.3318 340.984 68.1776 341.407 69.0829 341.644C72.8487 342.346 77.1431 339.031 75.9539 335.057C75.7061 334.173 75.2322 333.369 74.5786 332.723C73.9251 332.078 73.1143 331.612 72.2259 331.373C71.3375 331.134 70.4021 331.129 69.5113 331.359C68.6205 331.589 67.805 332.047 67.1449 332.686C64.1939 335.869 66.8366 340.612 70.228 342.171C70.6499 342.414 71.1284 342.541 71.6154 342.541C72.1025 342.541 72.581 342.414 73.0029 342.171C74.0059 341.465 74.78 340.481 75.2299 339.342C75.6799 338.203 75.7861 336.958 75.5354 335.76C75.3292 334.621 74.8072 333.563 74.0287 332.706C73.2503 331.848 72.2464 331.225 71.131 330.907C70.4273 330.718 69.6771 330.812 69.0425 331.169C68.4079 331.527 67.9399 332.119 67.7395 332.817C67.3859 334.609 67.6015 336.467 68.3561 338.131C68.5383 338.442 68.7803 338.715 69.0681 338.933C69.356 339.151 69.6841 339.311 70.0338 339.402C70.3835 339.494 70.7479 339.516 71.1062 339.468C71.4645 339.419 71.8096 339.3 72.122 339.119C72.4343 338.937 72.7077 338.696 72.9265 338.409C73.1454 338.122 73.3054 337.795 73.3974 337.446C73.4894 337.098 73.5117 336.734 73.4629 336.377C73.4141 336.02 73.2952 335.676 73.113 335.364C73.0136 335.005 73.0136 334.626 73.113 334.267L69.7435 336.199C70.4703 336.418 69.7435 336.199 69.7435 336.199C69.7435 336.199 69.7435 336.199 69.8537 336.33V336.177C69.8537 336.177 70.206 336.813 70.0959 336.55C69.9858 336.286 70.206 336.989 70.206 336.989C70.206 337.758 70.206 336.748 70.206 337.187C70.206 337.626 70.206 337.67 70.206 337.384C70.206 337.582 69.9197 337.67 70.3161 337.384H73.0909C72.5677 337.193 72.1044 336.867 71.7476 336.44L71.4613 335.957C71.3231 336.198 71.1355 336.408 70.9107 336.572C70.4262 337.033 70.6465 336.089 70.7566 336.572C70.5363 336.572 70.5584 336.572 70.7566 336.572H70.6244C70.4923 336.352 70.5143 336.374 70.6244 336.572C70.5958 336.494 70.5958 336.408 70.6244 336.33C70.5998 336.185 70.5998 336.037 70.6244 335.891C70.6244 335.891 70.4703 335.891 70.3161 336.111C70.6024 335.891 69.8537 336.111 70.3161 336.111C69.9197 336.111 70.3161 336.265 69.8977 336.111C70.228 336.286 69.6334 335.672 69.6995 335.76C69.58 335.537 69.5174 335.288 69.5174 335.035C69.5174 334.782 69.58 334.533 69.6995 334.31C70.7345 330.929 65.4271 329.48 64.3921 332.861H64.4582Z" fill="#015CCA"/>
<path d="M122.333 408.171C119.118 413.857 117.136 423.891 125.46 426.482C133.146 428.875 140.105 420.883 142.836 414.757C144.157 411.793 146.095 407.358 143.893 404.372C142.855 403.267 141.526 402.476 140.058 402.087C138.59 401.699 137.042 401.73 135.591 402.176C127.2 403.735 122.928 411.749 120.77 419.214C120.574 419.916 120.666 420.667 121.025 421.301C121.385 421.935 121.982 422.401 122.686 422.596C123.389 422.791 124.142 422.699 124.778 422.341C125.414 421.983 125.881 421.387 126.077 420.685C126.91 416.673 128.882 412.985 131.759 410.059C133.221 408.575 135.164 407.657 137.242 407.468C140.039 407.731 138.894 410.125 138.123 411.991C136.842 415.562 134.36 418.58 131.098 420.532C128.566 421.849 125.923 421.674 124.998 418.731C124.183 416.141 125.879 413.22 127.2 411.047C127.583 410.403 127.693 409.635 127.507 408.91C127.322 408.185 126.855 407.564 126.209 407.182C125.564 406.801 124.793 406.691 124.066 406.876C123.339 407.061 122.716 407.527 122.333 408.171Z" fill="#015CCA"/>
<path d="M41.0708 390.935C38.6483 393.592 35.2789 399.871 39.2869 402.66C41.3432 403.662 43.7038 403.85 45.8937 403.187C48.5916 402.72 51.2045 401.854 53.6456 400.618C56.8168 399.059 54.042 394.338 50.8707 395.875C48.451 397.113 45.8085 397.86 43.0968 398.071C42.3921 398.071 41.7975 397.785 42.5242 398.598C43.251 399.41 43.0087 398.598 43.2069 397.873C43.5445 396.743 44.14 395.706 44.9467 394.843C47.3031 392.231 43.4272 388.256 41.0487 390.979L41.0708 390.935Z" fill="#015CCA"/>
<path d="M51.1128 426.306L52.6543 461.677C52.6639 462.098 52.7689 462.511 52.9614 462.885C53.1538 463.26 53.4288 463.586 53.7656 463.839C54.1024 464.093 54.4925 464.267 54.9064 464.349C55.3204 464.431 55.7475 464.418 56.1559 464.312C64.3356 461.295 71.5742 456.183 77.1433 449.492L72.7388 448.943L88.3747 476.388C88.6894 476.893 89.1592 477.284 89.7143 477.502C90.2695 477.72 90.8804 477.754 91.4564 477.599C92.0324 477.444 92.5429 477.108 92.9121 476.64C93.2813 476.173 93.4895 475.599 93.5059 475.005C94.238 467.13 96.0077 459.386 98.7693 451.973L93.7482 452.631C100.153 461.848 107.258 470.56 115 478.693C115.393 479.062 115.884 479.309 116.415 479.406C116.945 479.502 117.493 479.444 117.991 479.237C118.489 479.031 118.916 478.685 119.222 478.242C119.527 477.799 119.698 477.277 119.713 476.739C120.342 470.587 121.611 464.516 123.5 458.625L119.47 460.272C126.262 464.543 132.536 469.583 138.167 475.29C139.687 476.827 143.166 475.795 142.858 473.336L139.951 449.645L137.198 452.39C143.574 453.179 149.858 454.584 155.962 456.583C156.668 456.766 157.418 456.666 158.052 456.305C158.685 455.944 159.152 455.351 159.353 454.651C159.427 452.268 159.324 449.883 159.045 447.516C159.045 443.717 155.984 445.1 161.247 443.366C164.991 442.114 168.779 443.366 172.544 444.09C173.013 444.207 173.504 444.201 173.969 444.072C174.435 443.944 174.859 443.697 175.2 443.357C175.542 443.016 175.789 442.594 175.918 442.13C176.047 441.666 176.053 441.176 175.936 440.709C174.717 436.197 172.957 431.848 170.695 427.755L168.448 431.883L179.063 432.827C182.587 433.156 182.565 427.667 179.063 427.338L168.448 426.394C167.966 426.4 167.495 426.532 167.079 426.775C166.664 427.019 166.319 427.366 166.079 427.782C165.839 428.199 165.712 428.67 165.711 429.151C165.709 429.631 165.833 430.103 166.07 430.522C168.091 434.209 169.665 438.123 170.761 442.18L174.152 438.799C169.307 437.943 158.626 433.793 154.332 438.294C150.037 442.795 154.948 448.24 154.332 453.202L157.723 451.292C151.134 449.186 144.356 447.715 137.485 446.901C136.756 446.907 136.06 447.198 135.545 447.711C135.03 448.224 134.738 448.919 134.732 449.645L137.441 473.38L142.131 471.448C136.166 465.406 129.515 460.079 122.311 455.573C121.945 455.364 121.536 455.24 121.115 455.212C120.695 455.184 120.273 455.252 119.882 455.411C119.491 455.569 119.142 455.815 118.861 456.128C118.58 456.442 118.374 456.815 118.259 457.22C116.251 463.585 114.915 470.141 114.273 476.783L118.964 474.851C111.539 467.067 104.722 458.728 98.5711 449.909C98.2884 449.456 97.8813 449.093 97.398 448.864C96.9148 448.634 96.3757 448.548 95.8448 448.615C95.3138 448.682 94.8133 448.9 94.4026 449.242C93.992 449.584 93.6884 450.036 93.5279 450.546C90.6381 458.439 88.8018 466.677 88.0664 475.048L93.1976 473.665L77.5617 446.198C77.3448 445.829 77.0456 445.515 76.6873 445.279C76.3289 445.044 75.9211 444.894 75.4952 444.841C75.0694 444.788 74.6371 444.833 74.2316 444.973C73.8262 445.113 73.4586 445.345 73.1572 445.649C68.2653 451.677 61.86 456.305 54.5923 459.064L58.0718 461.721L56.5303 426.35C56.3761 422.837 50.8705 422.815 51.0247 426.35L51.1128 426.306Z" fill="#015CCA"/>
<path d="M43.0301 498.783C43.0301 492.196 50.4076 485.61 56.9703 491.428C60.4719 494.546 59.635 499.53 58.4899 503.306C57.3447 507.082 55.9132 510.112 56.2876 513.933C56.7941 520.52 62.3438 527.809 67.5191 531.673C76.8125 538.567 89.2552 528.885 85.9078 518.192C84.8727 514.833 79.5653 516.26 80.6004 519.641C82.5824 526.009 77.7815 528.138 73.2669 526.975C71.8242 526.736 70.4478 526.199 69.2263 525.397C68.0049 524.595 66.9657 523.547 66.1757 522.32C60.9344 515.733 62.2117 510.881 64.3258 503.46C66.1096 497.18 65.3609 491.164 59.9213 486.861C50.1434 478.913 37.4805 487.168 37.4805 498.783C37.4805 499.511 37.7705 500.209 38.2867 500.724C38.803 501.238 39.5032 501.528 40.2333 501.528C40.9634 501.528 41.6635 501.238 42.1798 500.724C42.696 500.209 42.9861 499.511 42.9861 498.783H43.0301Z" fill="#015CCA"/>
<path d="M121.496 508.641L131.604 501C133.673 501.638 135.503 502.881 136.854 504.569C138.205 506.256 139.015 508.31 139.18 510.463C140.167 514.523 139.772 518.794 138.057 522.605C135.871 527.651 132.963 532.355 129.424 536.569C125.834 541.334 117.796 548.996 120.262 555.781C124.909 568.603 143.87 559.93 148.892 552.575C150.874 549.633 146.117 546.867 144.135 549.787C141.932 553.08 126.517 563.312 126.517 550.314C126.517 548.382 130.15 544.803 131.208 543.354C135.13 538.577 138.665 533.496 141.778 528.16C145.544 520.805 147.328 511.803 143.188 504.206C136.405 491.757 116.519 492.986 116.078 508.597C116.078 509.325 116.368 510.023 116.884 510.538C117.401 511.053 118.101 511.342 118.831 511.342C119.561 511.342 120.261 511.053 120.777 510.538C121.294 510.023 121.584 509.325 121.584 508.597L121.496 508.641Z" fill="#015CCA"/>
<path d="M54.4601 557.34C62.6965 551.346 64.2161 562.697 63.0929 567.571C62.0988 570.36 60.8454 573.051 59.3491 575.607C57.8132 578.755 56.7024 582.092 56.0457 585.531C55.0988 591.657 56.6183 598.551 61.6835 602.591C74.3464 612.713 84.6749 596.004 87.758 585.729C87.9537 585.027 87.8618 584.277 87.5025 583.643C87.1431 583.009 86.5459 582.543 85.8421 582.348C85.1383 582.153 84.3856 582.244 83.7496 582.602C83.1135 582.961 82.6463 583.556 82.4506 584.258C81.2174 588.429 78.839 597.431 74.016 598.573C69.8758 599.605 62.6965 596.707 61.5954 592.36C61.0238 589.359 61.2207 586.262 62.168 583.358C64.3702 575.98 70.4264 569.306 70.1621 561.402C70.1555 559.267 69.5439 557.177 68.3978 555.373C67.2516 553.57 65.6177 552.126 63.6842 551.208C61.7507 550.29 59.5964 549.935 57.4696 550.185C55.3428 550.435 53.33 551.279 51.6633 552.619C48.8444 554.683 51.6633 559.448 54.4601 557.34Z" fill="#015CCA"/>
<path d="M104.539 582.589C103.594 588.416 104.008 594.381 105.75 600.022C106.808 603.403 112.115 601.954 111.058 598.573C109.547 593.891 109.133 588.926 109.847 584.06C110.353 580.591 105.068 579.098 104.539 582.589Z" fill="#015CCA"/>
<path d="M39.903 590.868C38.3337 595.419 35.9786 599.662 32.9439 603.404C30.7417 606.127 34.6176 609.991 36.8419 607.269C40.5046 602.823 43.3389 597.759 45.2104 592.317C46.3776 588.979 41.0702 587.53 39.903 590.868Z" fill="#015CCA"/>
<path d="M51.5525 630.322L49.8787 641.431C49.3502 644.901 54.6576 646.394 55.1862 642.903L56.9039 631.771C57.4545 628.324 52.1471 626.831 51.5965 630.322H51.5525Z" fill="#015CCA"/>
<path d="M86.7228 639.017L96.5889 657.987C98.2186 661.127 102.975 658.338 101.346 655.221L91.4797 636.251C89.85 633.111 85.0932 635.899 86.7228 639.017Z" fill="#015CCA"/>
<path d="M140.766 606.434C143.753 608.687 146.235 611.536 148.055 614.799C148.452 615.365 149.047 615.761 149.723 615.908C150.399 616.056 151.106 615.944 151.703 615.595C152.3 615.246 152.744 614.686 152.945 614.026C153.147 613.366 153.091 612.654 152.79 612.033C150.477 607.971 147.325 604.446 143.541 601.691C142.909 601.33 142.159 601.231 141.455 601.416C140.75 601.601 140.147 602.055 139.775 602.679C139.424 603.312 139.331 604.056 139.516 604.755C139.7 605.454 140.148 606.056 140.766 606.434Z" fill="#015CCA"/>
<path d="M47.985 537.47C42.5434 537.475 37.3048 539.53 33.318 543.222C30.6973 545.615 34.5953 549.48 37.216 547.109C40.1456 544.41 43.9966 542.926 47.985 542.959C48.715 542.959 49.4152 542.67 49.9315 542.155C50.4477 541.64 50.7378 540.942 50.7378 540.214C50.7378 539.486 50.4477 538.788 49.9315 538.274C49.4152 537.759 48.715 537.47 47.985 537.47Z" fill="#015CCA"/>
<path d="M92.9991 552.268L96.3025 561.775C97.4477 565.112 102.755 563.685 101.61 560.326L98.3286 550.797C97.1834 547.482 91.876 548.909 93.0212 552.268H92.9991Z" fill="#015CCA"/>
<path d="M115.264 528.271L120.043 531.454C120.674 531.821 121.425 531.923 122.131 531.738C122.837 531.552 123.441 531.095 123.809 530.466C124.177 529.837 124.279 529.088 124.093 528.384C123.907 527.68 123.449 527.078 122.818 526.712L118.149 523.616C117.843 523.392 117.493 523.233 117.122 523.15C116.752 523.068 116.368 523.062 115.995 523.134C115.622 523.207 115.268 523.355 114.955 523.571C114.643 523.786 114.378 524.064 114.179 524.386C113.979 524.708 113.848 525.068 113.795 525.443C113.742 525.818 113.767 526.2 113.869 526.565C113.971 526.93 114.147 527.27 114.387 527.563C114.627 527.857 114.926 528.098 115.264 528.271Z" fill="#015CCA"/>
<path d="M158.935 583.006L174.901 589.374C178.182 590.691 179.614 585.378 176.354 584.082L160.388 577.715C157.107 576.398 155.675 581.711 158.935 583.006Z" fill="#015CCA"/>
<path d="M167.743 551.017H177.323C178.053 551.017 178.753 550.727 179.269 550.213C179.786 549.698 180.076 549 180.076 548.272C180.076 547.544 179.786 546.846 179.269 546.331C178.753 545.817 178.053 545.527 177.323 545.527H167.743C167.013 545.527 166.313 545.817 165.797 546.331C165.28 546.846 164.99 547.544 164.99 548.272C164.99 549 165.28 549.698 165.797 550.213C166.313 550.727 167.013 551.017 167.743 551.017Z" fill="#015CCA"/>
<path d="M167.545 514.021L175.517 509.256C176.148 508.889 176.607 508.288 176.793 507.583C176.979 506.879 176.876 506.131 176.508 505.502C176.14 504.873 175.537 504.415 174.831 504.23C174.124 504.045 173.373 504.147 172.743 504.514L164.748 509.278C164.118 509.648 163.66 510.252 163.476 510.958C163.292 511.665 163.397 512.415 163.768 513.043C164.139 513.672 164.746 514.129 165.454 514.312C166.162 514.495 166.914 514.39 167.545 514.021Z" fill="#015CCA"/>
<path d="M161.4 487.871L168.007 480.011C168.504 479.485 168.781 478.79 168.781 478.068C168.781 477.345 168.504 476.65 168.007 476.124C167.485 475.619 166.786 475.336 166.058 475.336C165.33 475.336 164.631 475.619 164.109 476.124L157.502 483.985C157.005 484.51 156.729 485.205 156.729 485.928C156.729 486.65 157.005 487.345 157.502 487.871C158.024 488.377 158.724 488.659 159.451 488.659C160.179 488.659 160.878 488.377 161.4 487.871Z" fill="#015CCA"/>
<path d="M112.335 624.702C112.391 627.434 113.101 630.113 114.408 632.516C115.714 634.918 117.578 636.974 119.845 638.512C122.752 640.554 125.504 635.789 122.619 633.77C121.163 632.74 119.971 631.382 119.141 629.806C118.311 628.23 117.865 626.481 117.841 624.702C117.841 623.974 117.551 623.276 117.034 622.761C116.518 622.246 115.818 621.957 115.088 621.957C114.358 621.957 113.657 622.246 113.141 622.761C112.625 623.276 112.335 623.974 112.335 624.702Z" fill="#015CCA"/>
<path d="M257.767 633.253C300.78 632.091 298.787 736.871 301.001 790.827C304.378 872.402 306.832 954.111 308.364 1035.95C311.353 1200.15 311.132 1365.7 300.06 1528.99C298.981 1544.9 285.142 1545.1 286.221 1528.99C296.019 1383.13 297.126 1235.51 295.272 1088.75C294.312 1013.88 292.513 939.039 289.875 864.234C288.657 829.24 287.282 794.263 285.75 759.302C284.256 724.999 284.726 657.755 257.684 658.26C248.772 658.513 248.772 633.253 257.684 633L257.767 633.253Z" fill="#EA008B"/>
<path d="M279.765 361.102L349.46 363.739L347.712 370.206L308.62 342.449C308.048 342.091 307.591 341.575 307.303 340.965C307.015 340.354 306.909 339.673 306.996 339.004C307.084 338.334 307.362 337.704 307.797 337.188C308.233 336.672 308.807 336.292 309.452 336.093L406.559 302.784L405.727 309.113C384.224 299.609 361.459 293.27 338.14 290.293C337.389 290.273 336.664 290.01 336.073 289.545C335.483 289.08 335.058 288.436 334.862 287.71C334.665 286.984 334.708 286.214 334.984 285.515C335.26 284.815 335.754 284.223 336.392 283.826C368.281 265.049 398.52 243.599 426.785 219.707L429.226 225.647L355.009 232.864C351.902 233.169 350.57 228.922 352.568 226.952C374.65 204.972 389.779 176.977 396.071 146.456L401.176 150.37L344.66 185.122C341.886 186.87 339.111 183.984 339.555 181.208L354.787 82.1983L360.558 85.5569L306.955 152.452C306.465 152.92 305.85 153.235 305.185 153.36C304.519 153.485 303.831 153.414 303.205 153.155C302.579 152.896 302.042 152.461 301.659 151.903C301.275 151.344 301.062 150.686 301.046 150.009C302.572 115.118 298.631 80.2023 289.365 46.5304H296.051C285.049 74.2976 275.474 102.61 267.363 131.356C267.193 131.931 266.877 132.452 266.446 132.87C266.016 133.287 265.486 133.587 264.906 133.74C264.327 133.893 263.718 133.895 263.137 133.745C262.557 133.595 262.025 133.298 261.592 132.883C251.493 122.446 247.137 107.901 241.616 94.8C234.218 77.35 226.819 59.8815 219.42 42.3946L225.746 41.5618L216.563 102.461C216.008 106.125 210.847 105.237 209.876 102.461C203.439 83.4911 195.072 65.233 184.906 47.9737C184.442 47.1787 184.314 46.2319 184.548 45.3418C184.782 44.4517 185.36 43.691 186.155 43.2273C186.949 42.7635 187.896 42.6345 188.785 42.8688C189.675 43.103 190.435 43.6813 190.899 44.4763C201.423 62.2365 210.088 81.0349 216.757 100.573H210.071L219.254 39.5078C219.446 38.8559 219.824 38.2741 220.342 37.8336C220.859 37.3932 221.494 37.1131 222.168 37.0277C222.842 36.9423 223.526 37.0553 224.137 37.3528C224.748 37.6503 225.259 38.1194 225.608 38.7029L245.612 86.112C251.41 99.9906 255.988 116.645 266.587 127.748L260.788 129.274C268.898 100.537 278.473 72.2342 289.476 44.4763C289.695 43.7599 290.138 43.1327 290.74 42.6871C291.341 42.2415 292.07 42.001 292.819 42.001C293.568 42.001 294.297 42.2415 294.899 42.6871C295.501 43.1327 295.944 43.7599 296.163 44.4763C305.609 78.7418 309.634 114.276 308.093 149.787L302.155 147.316L355.758 80.4218C358.2 77.3963 362.001 80.8382 361.557 83.8082L346.325 182.818L341.137 179.126L397.653 144.374C398.249 144.046 398.928 143.899 399.606 143.951C400.285 144.003 400.934 144.252 401.473 144.667C402.012 145.083 402.418 145.647 402.641 146.29C402.865 146.933 402.896 147.628 402.73 148.288C396.138 179.978 380.383 209.031 357.423 231.837L354.981 225.925L429.143 218.486C429.82 218.502 430.478 218.716 431.036 219.099C431.594 219.483 432.029 220.02 432.288 220.647C432.546 221.273 432.618 221.961 432.493 222.627C432.368 223.293 432.053 223.908 431.585 224.398C402.89 248.689 372.186 270.501 339.805 289.6L338.057 283.132C362.583 286.241 386.527 292.898 409.139 302.895C412.108 304.2 410.832 308.447 408.307 309.252L311.2 342.56L312.005 336.231L351.097 363.989C353.677 365.848 353.067 370.595 349.349 370.456L279.654 367.819C275.215 367.653 275.187 360.713 279.654 360.88L279.765 361.102Z" fill="#039BEF"/>
<path d="M28.3152 214.156L35.1404 240.414C35.3506 241.291 35.2118 242.214 34.7533 242.99C34.2949 243.766 33.5529 244.332 32.6842 244.57C31.8154 244.809 30.8882 244.699 30.0987 244.265C29.3092 243.831 28.7192 243.107 28.4539 242.246C19.7161 218.906 12.3056 195.089 6.25806 170.91C5.56442 168.135 8.72739 165.22 11.3354 166.997C38.0813 185.15 54.8669 212.102 61.6367 243.495C61.8832 244.382 61.7672 245.331 61.3146 246.133C60.8619 246.934 60.1096 247.523 59.2229 247.77C58.3362 248.017 57.3879 247.901 56.5866 247.448C55.7853 246.995 55.1966 246.242 54.9501 245.355L21.6564 152.341C20.3801 148.816 25.0413 146.789 27.4273 148.955C51.6079 169.949 70.7778 196.099 83.5273 225.481C85.303 229.534 79.421 233.086 77.5621 229.006C65.8581 203.556 57.4662 176.708 52.5919 149.121C52.4165 148.389 52.4822 147.619 52.7791 146.927C53.0761 146.235 53.5885 145.657 54.24 145.28C54.8916 144.902 55.6474 144.745 56.3952 144.832C57.1431 144.919 57.843 145.246 58.3906 145.762C80.1473 163.637 96.7845 186.957 106.611 213.351L99.9244 215.183C93.8933 184.748 91.7213 153.675 93.4598 122.696C93.4805 121.944 93.7429 121.219 94.208 120.628C94.6731 120.038 95.3162 119.612 96.0419 119.416C96.7677 119.22 97.5372 119.263 98.2366 119.539C98.936 119.815 99.5279 120.309 99.9244 120.948C120.32 150.37 137.5 181.898 151.169 214.989H144.482L165.041 125.194C165.268 124.482 165.716 123.86 166.319 123.419C166.923 122.978 167.651 122.74 168.398 122.74C169.146 122.74 169.874 122.978 170.477 123.419C171.081 123.86 171.529 124.482 171.756 125.194C180.122 159.466 182.423 194.939 178.553 230.005L173.337 227.008C195.62 210.1 216.48 191.394 235.707 171.077C237.982 168.662 242.754 171.077 241.506 174.436C232.092 199.229 219.761 222.813 204.772 244.689L200.028 239.942C229.049 225.139 257.441 209.188 285.204 192.089C287.645 190.59 291.391 193.116 290.309 196.003C279.632 225.03 263.783 251.88 243.531 275.249L240.146 269.448C270.055 261.954 300.103 255.264 330.844 261.704C331.355 261.845 331.826 262.101 332.223 262.453C332.619 262.805 332.93 263.242 333.131 263.733C333.332 264.223 333.417 264.753 333.382 265.282C333.346 265.811 333.19 266.325 332.925 266.784L304.265 309.502C301.768 313.194 295.775 309.724 298.272 306.004L326.932 263.286L328.985 268.394C299.52 262.204 270.721 268.949 241.978 276.138C241.245 276.313 240.476 276.247 239.784 275.95C239.093 275.653 238.515 275.141 238.138 274.489C237.761 273.837 237.604 273.081 237.691 272.333C237.778 271.584 238.104 270.884 238.62 270.337C258.093 247.863 273.339 222.049 283.622 194.143L288.728 198.085C260.983 215.165 232.581 231.106 203.523 245.91C200.749 247.381 196.67 244.245 198.779 241.164C213.493 219.832 225.602 196.815 234.847 172.604L240.646 175.962C221.018 196.644 199.731 215.684 176.999 232.892C176.471 233.191 175.874 233.347 175.267 233.345C174.66 233.343 174.064 233.183 173.537 232.88C173.011 232.578 172.573 232.143 172.265 231.62C171.957 231.096 171.792 230.502 171.783 229.894C175.628 195.447 173.403 160.593 165.208 126.915H171.894C165.014 156.875 158.151 186.806 151.308 216.71C150.448 220.401 145.759 219.485 144.621 216.71C131.119 184.199 114.172 153.23 94.0703 124.334L100.535 122.585C98.8118 152.945 100.9 183.4 106.75 213.24C106.96 214.116 106.821 215.04 106.363 215.816C105.904 216.591 105.162 217.158 104.293 217.396C103.425 217.634 102.497 217.525 101.708 217.091C100.918 216.657 100.328 215.933 100.063 215.072C90.5449 189.837 74.5209 167.571 53.6184 150.537L59.4171 147.15C64.0635 174.187 72.1667 200.513 83.5273 225.481L77.5621 229.006C65.0649 200.239 46.2953 174.633 22.6275 154.062L28.4261 150.537L61.7198 243.551L55.0334 245.411C48.6521 215.821 33.1983 190.202 7.86728 173.02L12.9722 169.106C19.0197 193.294 26.4302 217.12 35.1681 240.47L28.4816 242.302L21.6564 216.044C21.4461 215.167 21.5851 214.244 22.0435 213.468C22.5019 212.692 23.2439 212.125 24.1126 211.887C24.9814 211.649 25.9086 211.759 26.6982 212.193C27.4876 212.626 28.0776 213.35 28.343 214.212L28.3152 214.156Z" fill="#039BEF"/>
<path d="M195.117 367.042C211.369 340.885 230.862 316.888 253.131 295.623V300.536C243.809 290.876 214.787 313.11 205.798 318.134L162.211 342.477C161.548 342.839 160.786 342.977 160.038 342.87C159.29 342.763 158.597 342.416 158.062 341.881C157.528 341.346 157.181 340.653 157.074 339.905C156.966 339.156 157.104 338.394 157.467 337.73C172.386 310.817 179.731 280.36 178.719 249.601L185.184 251.35C165.529 276.959 144.271 301.296 121.537 324.213C121.105 324.634 120.571 324.937 119.988 325.091C119.404 325.245 118.79 325.246 118.206 325.092C117.622 324.938 117.088 324.636 116.656 324.214C116.223 323.792 115.907 323.266 115.739 322.686C110.542 295.649 99.2926 270.14 82.8335 248.075L89.2979 246.326V321.909C89.2773 322.66 89.0151 323.386 88.55 323.976C88.0848 324.567 87.4417 324.992 86.716 325.189C85.9903 325.385 85.2206 325.342 84.5212 325.066C83.8218 324.79 83.2301 324.296 82.8335 323.657C64.4576 296.261 40.3567 273.182 12.1953 256.013L16.9397 251.267C26.5822 270.183 37.2043 288.583 48.7629 306.392C49.1254 307.056 49.2632 307.819 49.1559 308.567C49.0486 309.315 48.7018 310.009 48.1675 310.543C47.6332 311.078 46.9401 311.425 46.1921 311.532C45.4441 311.64 44.6815 311.502 44.0185 311.139C21.8575 296.059 -3.26562 285.886 -29.6716 281.3L-26.2867 275.499L14.6369 322.63C15.3727 323.186 15.8577 324.012 15.9851 324.925C16.1126 325.839 15.8721 326.766 15.3166 327.502C14.761 328.238 13.9359 328.723 13.0227 328.851C12.1095 328.978 11.1832 328.738 10.4474 328.182L-55.1135 298.926L-50.924 293.374L-22.763 322.63C-22.2464 323.178 -21.9205 323.878 -21.8335 324.626C-21.7466 325.375 -21.9034 326.131 -22.2806 326.783C-22.6578 327.435 -23.2353 327.947 -23.9271 328.244C-24.6189 328.541 -25.3881 328.607 -26.1202 328.432L-68.7361 318.772L-64.8242 313.665C-53.0334 329.826 -39.5874 344.71 -24.7052 358.076C-21.3758 361.074 -26.2867 365.959 -29.5883 362.989C-44.8995 349.172 -58.7181 333.784 -70.817 317.079C-72.7036 314.303 -69.5685 311.361 -66.9051 311.972L-24.2891 321.631L-27.6461 327.405L-55.8349 298.204C-56.4904 297.618 -56.9012 296.806 -56.9853 295.931C-57.0693 295.055 -56.8205 294.18 -56.2886 293.48C-55.7566 292.78 -54.9806 292.306 -54.1149 292.152C-53.2493 291.999 -52.3576 292.178 -51.6176 292.653L13.9432 321.881L9.75374 327.432L-31.1975 280.523C-31.719 279.974 -32.0481 279.27 -32.1355 278.518C-32.2229 277.765 -32.0639 277.005 -31.6822 276.351C-31.3005 275.697 -30.7169 275.184 -30.0191 274.89C-29.3213 274.596 -28.5469 274.537 -27.8126 274.722C-0.820221 279.429 24.8592 289.837 47.5143 305.254L42.7701 310.001C31.2141 292.186 20.601 273.776 10.9745 254.847C9.4763 251.877 12.6115 248.186 15.7189 250.101C44.807 267.942 69.6903 291.871 88.6599 320.243L82.1953 321.992V246.409C82.2159 245.657 82.4783 244.932 82.9434 244.341C83.4086 243.75 84.0517 243.325 84.7774 243.129C85.5031 242.933 86.2727 242.976 86.972 243.252C87.6714 243.527 88.2633 244.022 88.6599 244.661C105.462 267.228 116.948 293.303 122.259 320.937L116.46 319.383C138.81 296.92 159.707 273.056 179.025 247.936C179.421 247.297 180.013 246.803 180.712 246.527C181.412 246.251 182.181 246.208 182.907 246.404C183.633 246.601 184.276 247.026 184.741 247.617C185.206 248.208 185.469 248.933 185.489 249.685C186.483 281.661 178.814 313.312 163.293 341.283L158.549 336.537L222.944 300.702C233.238 294.956 247.693 284.992 258.042 295.706C258.681 296.364 259.038 297.245 259.038 298.162C259.038 299.08 258.681 299.961 258.042 300.619C236.181 321.45 217.051 344.973 201.109 370.622C198.751 374.397 192.786 370.928 195.117 367.125V367.042Z" fill="#039BEF"/>
<path d="M-100.226 305.033C-106.497 232.115 -79.3623 165.664 -23.3457 134.66L-8.69653 126.554C47.3479 95.522 118.042 107.874 176.444 151.952" fill="#015CCA"/>
<path d="M-50.4253 169.161C-43.1796 177.698 -32.9461 183.139 -21.8204 184.372C-9.25209 186.177 7.42255 189.674 18.9921 182.762C37.4978 171.66 32.3373 134.132 35.0562 115.618C37.0261 102.406 57.0578 108.04 55.1156 121.169C50.8984 149.843 56.6417 190.562 23.5145 203.553C7.33933 209.937 -11.1109 206.994 -27.841 204.413C-42.3355 202.257 -55.5711 194.957 -65.1299 183.845C-74.2025 174.019 -59.581 159.252 -50.4253 169.106V169.161Z" fill="#0058AF"/>
<path d="M160.519 156.56C127.143 131.206 86.166 117.91 44.2686 118.838C35.3347 119.033 35.3347 105.154 44.2686 104.96C88.6135 103.967 132.003 117.928 167.456 144.597C174.503 149.898 167.594 161.945 160.464 156.56H160.519Z" fill="#02569B"/>
<path d="M35.9445 127.47C18.8792 115.701 -1.21389 109.1 -21.931 108.456L-17.0203 96.6042C-1.70517 112.925 19.9913 121.086 32.3377 140.405C35.3341 145.124 30.2013 153.007 24.4859 150.592C-5.53388 137.962 -35.3595 124.056 -67.0717 115.757L-58.3043 109.067C-57.7216 113.758 -43.6829 119.837 -40.0206 122.279C-33.667 126.526 -27.3134 130.829 -21.0709 135.27C-9.51058 143.486 1.689 152.183 12.5279 161.361C18.7428 166.691 10.8078 175.795 4.20452 172.27C-11.4712 163.943 -27.2024 155.616 -44.099 150.37C-46.2076 149.704 -59.3586 147.15 -52.9773 141.016L-44.321 148.704C-37.0909 154.779 -29.5029 160.415 -21.598 165.581C-14.1625 170.494 -21.1264 182.512 -28.5898 177.572C-36.497 172.326 -80.6944 146.845 -62.1054 134.909C-53.9762 129.718 -38.9662 137.268 -31.4474 140.127C-16.8453 145.991 -2.60551 152.72 11.1962 160.279L2.87283 171.188C-12.9623 157.905 -29.5738 145.578 -46.8734 134.271C-57.0003 127.498 -70.3455 122.335 -72.0101 109.067C-72.565 104.432 -67.1271 101.351 -63.2151 102.378C-31.6416 110.705 -1.81605 124.583 28.3425 137.213L20.5184 147.427C9.11535 129.524 -12.3591 121.669 -26.6476 106.43C-30.5873 102.211 -27.9515 94.3558 -21.7367 94.5779C1.43676 95.2064 23.946 102.459 43.1305 115.479C50.5106 120.447 43.5743 132.494 36.1387 127.47H35.9445Z" fill="#FFD900"/>
<path d="M243.558 666.486H264.839C272.246 666.486 278.239 661.323 278.239 654.911V625.933C278.239 619.521 272.246 614.33 264.839 614.33H243.558" fill="#0058AF"/>
<path d="M236.04 419.393L257.042 419.67C268.945 419.837 278.461 431.384 278.239 445.457V447.955C278.045 462.027 268.223 473.297 256.321 473.13L235.318 472.825L236.04 419.393Z" fill="#0058AF"/>
<path d="M220.974 357.188C236.254 392.138 244.042 429.904 243.836 468.051L243.836 684.973H-118.039V468.051C-118.245 429.904 -110.457 392.138 -95.1774 357.188" fill="#015CCA"/>
<path d="M-65.9342 369.929H196.004C204.8 369.929 211.93 377.062 211.93 385.861V449.231C211.93 458.03 204.8 465.163 196.004 465.163H-65.9342C-74.7296 465.163 -81.8596 458.03 -81.8596 449.231V385.861C-81.8596 377.062 -74.7296 369.929 -65.9342 369.929Z" fill="#02569B"/>
<path d="M130.499 457.947C106.196 457.947 86.4956 438.237 86.4956 413.924C86.4956 389.611 106.196 369.901 130.499 369.901C154.801 369.901 174.502 389.611 174.502 413.924C174.502 438.237 154.801 457.947 130.499 457.947Z" fill="white"/>
<path d="M2.31812 457.947C-21.9842 457.947 -41.6851 438.237 -41.6851 413.924C-41.6851 389.611 -21.9842 369.901 2.31812 369.901C26.6204 369.901 46.3213 389.611 46.3213 413.924C46.3213 438.237 26.6204 457.947 2.31812 457.947Z" fill="white"/>
<path d="M130.499 437.129C119.144 437.129 109.94 427.921 109.94 416.561C109.94 405.202 119.144 395.993 130.499 395.993C141.853 395.993 151.058 405.202 151.058 416.561C151.058 427.921 141.853 437.129 130.499 437.129Z" fill="black"/>
<path d="M2.31807 437.129C-9.03628 437.129 -18.2408 427.921 -18.2408 416.561C-18.2408 405.202 -9.03628 395.993 2.31807 395.993C13.6724 395.993 22.877 405.202 22.877 416.561C22.877 427.921 13.6724 437.129 2.31807 437.129Z" fill="black"/>
<path d="M269 439.211C262.628 442.034 256.65 445.673 251.216 450.037C247.664 452.812 244.224 446.706 247.72 444.041C253.658 439.362 260.189 435.489 267.141 432.522C271.303 430.857 273.079 437.574 269 439.211Z" fill="#FFD900"/>
<path d="M253.713 425.471C259.9 433.326 262.036 443.069 267.03 451.507C267.494 452.302 267.623 453.249 267.389 454.139C267.155 455.029 266.577 455.79 265.782 456.254C264.987 456.718 264.041 456.847 263.151 456.612C262.261 456.378 261.501 455.8 261.038 455.005C256.293 447.177 254.545 437.656 248.802 430.384C246.028 426.914 250.938 422.057 253.713 425.471Z" fill="#FFD900"/>
<path d="M208.711 454.838V458.89C208.711 459.81 208.345 460.693 207.695 461.344C207.045 461.994 206.163 462.36 205.243 462.36C204.323 462.36 203.441 461.994 202.79 461.344C202.14 460.693 201.775 459.81 201.775 458.89V454.838C201.775 453.918 202.14 453.035 202.79 452.384C203.441 451.734 204.323 451.368 205.243 451.368C206.163 451.368 207.045 451.734 207.695 452.384C208.345 453.035 208.711 453.918 208.711 454.838Z" fill="#FFD900"/>
<path d="M186.987 473.352L185.266 478.071C185.158 478.523 184.96 478.949 184.684 479.323C184.408 479.697 184.059 480.011 183.659 480.248C183.259 480.484 182.816 480.638 182.355 480.7C181.894 480.762 181.426 480.73 180.978 480.608C180.53 480.485 180.111 480.273 179.746 479.985C179.381 479.697 179.078 479.339 178.854 478.931C178.63 478.524 178.491 478.075 178.444 477.613C178.397 477.15 178.443 476.683 178.58 476.239L180.3 471.52C180.565 470.645 181.157 469.905 181.952 469.456C182.748 469.006 183.687 468.88 184.573 469.105C185.449 469.358 186.193 469.944 186.644 470.737C187.095 471.531 187.218 472.469 186.987 473.352Z" fill="#FFD900"/>
<path d="M160.796 459.918L160.435 464.304C160.414 465.217 160.042 466.087 159.396 466.734C158.75 467.38 157.88 467.752 156.967 467.773C156.05 467.766 155.172 467.398 154.523 466.749C153.874 466.1 153.506 465.222 153.499 464.304L153.86 459.918C153.881 459.004 154.253 458.134 154.899 457.488C155.545 456.842 156.415 456.469 157.328 456.448C158.245 456.455 159.123 456.823 159.772 457.473C160.421 458.122 160.789 459 160.796 459.918Z" fill="#FFD900"/>
<path d="M142.512 474.463L142.096 477.488C142.08 478.407 141.724 479.287 141.097 479.958C140.44 480.598 139.559 480.955 138.642 480.955C137.725 480.955 136.844 480.598 136.187 479.958C135.857 479.638 135.596 479.254 135.419 478.829C135.243 478.404 135.155 477.948 135.16 477.488L135.576 474.463C135.615 473.552 135.979 472.685 136.603 472.02C137.251 471.371 138.127 471.002 139.044 470.993C139.968 471.006 140.852 471.374 141.514 472.02C141.836 472.339 142.091 472.719 142.263 473.139C142.435 473.559 142.519 474.009 142.512 474.463Z" fill="#FFD900"/>
<path d="M119.429 464.914L118.652 468.967C118.399 469.844 117.814 470.588 117.021 471.039C116.228 471.49 115.289 471.613 114.407 471.382C113.531 471.117 112.789 470.526 112.335 469.731C111.881 468.936 111.749 467.997 111.965 467.107L112.742 463.054C112.995 462.171 113.584 461.423 114.384 460.971C115.183 460.519 116.128 460.4 117.015 460.64C117.886 460.91 118.621 461.503 119.069 462.298C119.518 463.092 119.646 464.028 119.429 464.914Z" fill="#FFD900"/>
<path d="M41.1335 458.919L40.8284 461.695C40.7893 462.614 40.4255 463.489 39.8018 464.165C39.1442 464.804 38.2633 465.162 37.3464 465.162C36.4294 465.162 35.5486 464.804 34.8909 464.165C34.5648 463.843 34.3079 463.458 34.1362 463.033C33.9644 462.608 33.8813 462.153 33.8921 461.695L34.1973 458.919C34.2291 457.998 34.5939 457.12 35.2238 456.448C35.8768 455.811 36.753 455.454 37.6654 455.454C38.5778 455.454 39.454 455.811 40.107 456.448C40.4368 456.769 40.698 457.153 40.8744 457.578C41.0509 458.003 41.1391 458.459 41.1335 458.919Z" fill="#FFD900"/>
<path d="M25.208 475.462C25.0794 477.592 24.5623 479.68 23.6821 481.624C23.2135 482.414 22.4533 482.987 21.5656 483.221C20.678 483.455 19.734 483.33 18.9376 482.873C18.1695 482.385 17.6141 481.625 17.3825 480.745C17.151 479.865 17.2604 478.929 17.6891 478.127C17.4116 478.737 17.689 477.793 17.8277 477.738L18.0775 476.794C18.0775 476.489 18.2163 476.156 18.2718 475.85C18.2718 476.461 18.2718 475.656 18.2718 475.462C18.2861 474.546 18.6561 473.672 19.3034 473.024C19.9507 472.377 20.8245 472.006 21.7399 471.992C22.653 472.013 23.5229 472.386 24.1688 473.032C24.8146 473.678 25.1868 474.548 25.208 475.462Z" fill="#FFD900"/>
<path d="M2.15163 464.581L1.51355 467.967C1.26721 468.849 0.682908 469.597 -0.112115 470.049C-0.907138 470.501 -1.8486 470.621 -2.73147 470.382C-3.60547 470.123 -4.34632 469.538 -4.80081 468.747C-5.2553 467.957 -5.38863 467.022 -5.17302 466.136L-4.53495 462.721C-4.28249 461.838 -3.69268 461.09 -2.89319 460.638C-2.0937 460.186 -1.14863 460.067 -0.262151 460.307C0.612727 460.571 1.35184 461.163 1.80143 461.96C2.25102 462.756 2.37646 463.695 2.15163 464.581Z" fill="#FFD900"/>
<path d="M105.057 473.574C104.633 474.708 104.317 475.879 104.114 477.072C103.861 477.955 103.271 478.703 102.472 479.155C101.672 479.607 100.727 479.726 99.8409 479.487C98.9648 479.222 98.2233 478.631 97.7692 477.836C97.3151 477.041 97.1828 476.102 97.3994 475.212C97.6252 474.021 97.9499 472.851 98.3704 471.714C98.6351 470.839 99.227 470.1 100.023 469.65C100.819 469.2 101.757 469.075 102.643 469.3C103.526 469.552 104.274 470.142 104.726 470.942C105.177 471.742 105.296 472.687 105.057 473.574Z" fill="#FFD900"/>
<path d="M140.543 424.75C133.122 413.531 123.163 404.219 111.474 397.569C99.7845 390.918 86.6934 387.117 73.2616 386.473C41.3829 384.669 10.17 396.188 -6.31038 424.639C-24.2058 455.533 -72.1765 427.609 -54.2257 396.604C-28.3675 351.999 22.3222 328.072 73.4003 330.959C96.4233 332.026 118.865 338.543 138.881 349.974C158.897 361.406 175.916 377.425 188.541 396.715C208.379 426.554 160.325 454.395 140.626 424.75H140.543Z" fill="#EA008B"/>
<path d="M-25.7043 550.85H102.504C107.821 550.85 112.132 555.162 112.132 560.481V580.272C112.132 585.592 107.821 589.904 102.504 589.904H-25.7043C-31.0214 589.904 -35.3317 585.592 -35.3317 580.272V560.481C-35.3317 555.162 -31.0214 550.85 -25.7043 550.85Z" fill="#02569B"/>
<path d="M-16.77 554.903L-16.0486 578.33C-16.0486 579.803 -15.4641 581.215 -14.4235 582.256C-13.3828 583.297 -11.9713 583.882 -10.4997 583.882L2.95649 583.493C4.39906 583.386 5.74286 582.72 6.70163 581.636C7.66039 580.553 8.15842 579.137 8.08937 577.692L7.36798 554.265" fill="white"/>
<path d="M26.3171 559.122L26.7331 580.773C26.7403 581.176 26.8274 581.574 26.9892 581.944C27.151 582.313 27.3843 582.647 27.6759 582.926C27.9674 583.204 28.3114 583.423 28.6877 583.568C29.064 583.713 29.4652 583.782 29.8683 583.771L115.211 582.188C115.615 582.181 116.012 582.094 116.382 581.932C116.751 581.77 117.085 581.537 117.363 581.245C117.642 580.954 117.86 580.61 118.005 580.233C118.15 579.857 118.219 579.455 118.208 579.052L117.819 557.401" fill="white"/>
<path d="M111.216 580.522C89.6862 560.537 55.7266 547.63 26.0952 550.989C-1.03917 554.042 -34.4439 572.834 -42.1015 600.341C-46.9013 617.523 -73.6751 610.223 -68.8752 592.958C-58.1935 554.625 -16.9092 529.116 21.0456 523.815C59.5276 518.263 102.865 534.917 130.832 560.898C143.955 573.084 124.284 592.68 111.216 580.522Z" fill="#039BEF"/>
<path d="M99.508 587.684C81.3906 571.391 57.5025 559.122 32.6987 561.648C5.7308 564.424 -19.2951 580.745 -27.4243 607.364C-31.3086 620.16 -51.4235 614.692 -47.4837 601.812C-37.1349 567.949 -7.1983 546.298 27.2607 541.468C59.8053 537 90.3246 551.433 114.213 572.917C124.201 581.911 109.441 596.594 99.508 587.656V587.684Z" fill="#0058AF"/>
<path d="M160.796 414.618C152.411 401.737 141.237 390.908 128.102 382.932C114.966 374.956 100.207 370.038 84.9144 368.541C71.7079 367.264 71.5691 346.335 84.9144 347.723C103.812 349.369 122.087 355.301 138.35 365.07C154.614 374.838 168.438 388.185 178.775 404.098C186.127 415.34 168.121 425.776 160.796 414.618Z" fill="#EF73C3"/>
<path d="M299.52 284.937C303.233 282.872 306.016 279.466 307.301 275.415C308.585 271.364 308.273 266.975 306.428 263.147C302.377 255.514 291.696 250.74 286.48 260.122C281.652 268.81 282.623 279.163 272.885 284.659C272.09 285.123 271.144 285.252 270.254 285.018C269.364 284.783 268.604 284.205 268.141 283.41C267.677 282.615 267.548 281.668 267.782 280.778C268.016 279.888 268.594 279.127 269.389 278.663C278.489 273.501 276.519 259.872 283.261 252.489C288.81 246.521 296.967 246.549 303.682 250.49C319.524 259.816 317.748 281.856 302.96 290.932C299.159 293.264 295.663 287.268 299.464 284.937H299.52Z" fill="#FFD900"/>
<path d="M256.155 292.82L252.964 295.984C252.306 296.623 251.426 296.981 250.509 296.981C249.592 296.981 248.711 296.623 248.053 295.984C247.427 295.32 247.078 294.441 247.078 293.528C247.078 292.615 247.427 291.736 248.053 291.071L251.244 287.907C251.902 287.268 252.782 286.91 253.699 286.91C254.616 286.91 255.497 287.268 256.155 287.907C256.781 288.571 257.13 289.45 257.13 290.363C257.13 291.277 256.781 292.156 256.155 292.82Z" fill="#FFD900"/>
<path d="M106.998 269.337C108.278 265.828 108.359 261.993 107.229 258.433C106.1 254.873 103.824 251.787 100.756 249.657C92.4325 244.411 79.1151 247.131 80.9185 259.095C82.4722 269.254 90.3794 275.416 86.8836 286.324C85.5241 290.544 78.8377 288.739 80.1971 284.465C83.6375 273.778 72.3454 264.785 73.6494 253.932C74.5928 246.188 81.0849 241.441 88.465 240.414C106.166 237.972 118.651 254.876 113.685 271.225C112.409 275.499 105.694 273.695 106.998 269.393V269.337Z" fill="#EA008B"/>
<path d="M79.5869 303.451L79.2818 307.92C79.2818 308.84 78.9164 309.723 78.266 310.373C77.6156 311.024 76.7334 311.39 75.8136 311.39C74.8938 311.39 74.0118 311.024 73.3614 310.373C72.711 309.723 72.3455 308.84 72.3455 307.92L72.6507 303.451C72.6507 302.531 73.0162 301.648 73.6666 300.998C74.317 300.347 75.199 299.981 76.1188 299.981C77.0386 299.981 77.9208 300.347 78.5712 300.998C79.2216 301.648 79.5869 302.531 79.5869 303.451Z" fill="#EA008B"/>
<path d="M414.859 66.0614C416.131 62.5556 416.209 58.7273 415.079 55.1728C413.95 51.6182 411.678 48.5371 408.616 46.4093C400.293 41.1355 386.975 43.8834 388.779 55.819C390.305 65.9781 398.24 72.1402 394.744 83.0487C393.384 87.2678 386.67 85.4636 388.057 81.189C391.47 70.5303 380.178 61.5092 381.509 50.6561C382.425 42.9119 388.917 38.1654 396.297 37.1384C413.999 34.6958 426.511 51.5999 421.545 67.9766C420.241 72.2234 413.555 70.4192 414.859 66.1169V66.0614Z" fill="#FFD900"/>
<path d="M415.676 100.573L415.371 105.042C415.371 105.962 415.005 106.845 414.355 107.495C413.704 108.146 412.822 108.512 411.903 108.512C410.983 108.512 410.101 108.146 409.45 107.495C408.8 106.845 408.434 105.962 408.434 105.042L408.656 100.573C408.678 99.6596 409.05 98.7893 409.696 98.1432C410.341 97.497 411.211 97.1247 412.124 97.1035C413.042 97.1108 413.92 97.4786 414.569 98.1278C415.218 98.7769 415.585 99.6552 415.593 100.573H415.676Z" fill="#FFD900"/>
<path d="M306.955 135.964C310.562 126.526 309.729 116.312 301.156 109.706C293.97 104.154 276.186 101.378 274.826 114.896C274.022 122.196 279.155 129.829 281.097 136.547C283.609 143.612 283.55 151.338 280.93 158.364C277.629 166.691 264.283 162.999 267.53 154.7C273.384 140.127 258.624 126.082 261.37 110.788C263.451 99.2133 273.717 92.274 285.009 91.3581C311.311 89.2208 329.567 115.507 320.328 139.655C317.165 147.983 303.681 144.346 306.955 135.964Z" fill="#EA008B"/>
<path d="M268.612 183.151L267.724 189.452C267.253 191.2 266.118 192.694 264.561 193.616C262.933 194.532 261.014 194.781 259.206 194.31C257.462 193.818 255.972 192.676 255.045 191.118C254.225 189.459 253.981 187.574 254.351 185.761L255.239 179.46C255.712 177.712 256.86 176.225 258.43 175.324C259.227 174.859 260.107 174.556 261.021 174.433C261.935 174.309 262.865 174.366 263.757 174.602C265.496 175.104 266.982 176.244 267.918 177.794C268.738 179.453 268.982 181.338 268.612 183.151Z" fill="#EA008B"/>
<path d="M496.163 209.187C505.763 203.442 511.007 191.895 505.68 181.264C500.741 171.438 487.923 165.054 480.959 176.489C473.357 188.98 475.105 203.775 460.567 211.797C452.743 216.099 445.723 204.108 453.547 199.805C465.894 193.005 463.952 173.353 473.357 163.277C481.681 154.256 494.61 154.256 504.764 160.501C528.32 174.741 525.601 207.855 503.155 221.262C495.47 225.869 488.478 213.851 496.163 209.271V209.187Z" fill="#EA008B"/>
<path d="M437.067 222.706L432.489 227.147C431.167 228.329 429.444 228.96 427.672 228.91C425.9 228.86 424.215 228.134 422.961 226.88C421.708 225.626 420.982 223.94 420.933 222.167C420.883 220.395 421.514 218.671 422.695 217.349L427.245 212.907C427.884 212.244 428.648 211.714 429.494 211.349C430.34 210.985 431.25 210.792 432.171 210.783C433.092 210.773 434.005 210.948 434.858 211.295C435.711 211.643 436.486 212.157 437.138 212.808C437.79 213.458 438.306 214.232 438.656 215.085C439.006 215.937 439.183 216.85 439.177 217.772C439.17 218.693 438.98 219.604 438.618 220.451C438.255 221.298 437.728 222.065 437.067 222.706Z" fill="#EA008B"/>
<path d="M396.31 391.58C404.439 393.523 413.096 391.024 417.257 383.252C421.669 375.092 419.311 361.935 408.074 364.377C400.694 365.987 394.202 371.9 387.099 374.287C380.666 376.503 373.717 376.735 367.15 374.953C354.194 371.622 359.687 351.526 372.699 354.885C381.189 357.05 389.152 349.944 396.449 346.696C402.573 343.657 409.427 342.397 416.231 343.06C429.548 344.864 437.816 356.356 439.703 369.041C443.976 397.492 417.507 418.004 390.817 411.62C377.804 408.484 383.326 388.415 396.366 391.552L396.31 391.58Z" fill="#EA008B"/>
<path d="M306.761 366.348H300.38C297.63 366.305 295 365.213 293.027 363.295C291.574 361.839 290.585 359.985 290.184 357.967C289.783 355.95 289.989 353.858 290.776 351.957C291.563 350.056 292.895 348.431 294.604 347.287C296.314 346.144 298.323 345.532 300.38 345.53H306.761C309.511 345.574 312.141 346.666 314.114 348.584C315.567 350.039 316.556 351.893 316.957 353.911C317.358 355.929 317.152 358.021 316.365 359.921C315.578 361.822 314.246 363.447 312.537 364.591C310.827 365.735 308.818 366.347 306.761 366.348Z" fill="#EA008B"/>
<path d="M180.082 30.8377C175.394 22.7603 166.21 17.9306 157.027 22.1219C149.452 25.6193 143.154 35.1123 151.838 40.7747C164.74 49.1019 179.888 47.3254 188.184 62.8139C194.482 74.6384 176.531 85.0196 170.205 73.3338C164.129 61.9812 143.931 62.8416 134.498 53.9039C124.426 44.2721 124.343 29.7274 131.335 18.2637C147.011 -7.43941 183.634 -4.38613 197.922 20.4287C204.664 32.0312 186.824 42.6345 179.944 30.9487L180.082 30.8377Z" fill="#FFD900"/>
<path d="M226.511 86.1675L230.923 90.7752C232.83 92.7547 233.92 95.3818 233.975 98.1308C233.954 100.887 232.859 103.526 230.923 105.487C228.972 107.437 226.328 108.534 223.57 108.54C220.807 108.521 218.16 107.426 216.19 105.487L211.807 100.879C209.892 98.904 208.801 96.274 208.755 93.5232C208.762 90.7648 209.861 88.1215 211.81 86.171C213.76 84.2206 216.402 83.1216 219.159 83.1143C221.911 83.1462 224.545 84.24 226.511 86.1675Z" fill="#FFD900"/>
<path d="M32.6156 128.692C33.8086 120.364 34.7519 110.566 30.1463 102.988C23.6817 92.302 5.17597 92.9959 7.95045 108.401C9.06024 114.452 1.20849 121.058 -3.64684 115.146C-7.50337 110.427 -11.1656 102.239 -16.1874 99.158C-18.1295 95.3275 -20.7098 94.9944 -23.8727 98.2142C-28.2287 98.5473 -29.6714 100.657 -28.2009 104.515C-28.1771 108.82 -27.231 113.07 -25.4264 116.978C-22.8184 124.445 -34.3603 129.136 -38.1058 122.307C-43.627 111.517 -53.0531 103.238 -64.4633 99.158C-69.7071 97.4093 -76.3658 96.188 -81.7483 98.4363C-91.0428 102.322 -88.3517 110.067 -86.2153 117.866C-80.6664 138.046 -64.1859 156.171 -46.7622 166.969C-30.3928 177.1 -5.14503 185.844 13.5549 177.35C34.6132 167.801 30.0353 138.073 32.7543 119.06C34.0028 110.261 47.3758 114.008 46.1273 122.752C41.8823 152.452 44.7124 187.842 6.6743 193.588C-22.5132 198.001 -53.5596 183.345 -73.7856 163.055C-88.3793 148.427 -117.095 108.068 -94.2057 89.6928C-70.8723 70.9845 -37.6618 94.2727 -26.0645 115.313L-38.7439 120.67C-43.2108 107.901 -45.8743 88.8046 -30.0598 82.4204C-12.6083 75.3979 -2.7589 94.467 6.00845 105.348L-5.58884 112.093C-8.61302 95.4385 4.01084 77.7295 22.3224 81.3657C46.1274 86.1121 48.5966 112.926 45.7944 132.383C44.5181 141.182 31.1451 137.435 32.4214 128.692H32.6156Z" fill="#FFD900"/>
<path d="M170.036 154.561C169.446 154.65 168.868 154.808 168.316 155.033L169.148 154.672C168.755 154.918 168.306 155.061 167.844 155.089C167.389 155.206 166.911 155.206 166.457 155.089C165.59 154.837 164.855 154.26 164.403 153.479C164.152 153.067 163.991 152.607 163.928 152.129C163.866 151.651 163.905 151.165 164.043 150.703C164.152 150.267 164.349 149.858 164.621 149.5C164.893 149.143 165.234 148.844 165.624 148.621C166.508 148.216 167.441 147.927 168.399 147.761C168.843 147.636 169.314 147.636 169.758 147.761C170.224 147.771 170.677 147.915 171.062 148.177C171.837 148.629 172.404 149.366 172.644 150.231C172.78 150.692 172.821 151.176 172.764 151.653C172.707 152.131 172.553 152.591 172.311 153.007C172.086 153.395 171.786 153.735 171.429 154.007C171.072 154.279 170.664 154.476 170.23 154.589L170.036 154.561Z" fill="#02569B"/>
<path d="M165.651 154.894C165.311 154.588 165.062 154.194 164.93 153.756C164.699 153.352 164.593 152.888 164.625 152.424C164.599 151.96 164.705 151.498 164.93 151.091C165.062 150.661 165.312 150.277 165.651 149.981L166.345 149.426C166.875 149.115 167.479 148.952 168.093 148.954L169.009 149.093C169.589 149.244 170.117 149.551 170.535 149.981C171.036 150.461 171.375 151.085 171.504 151.767C171.633 152.449 171.547 153.154 171.256 153.784C171.12 154.212 170.871 154.596 170.535 154.894L169.841 155.449C169.308 155.754 168.706 155.916 168.093 155.921L167.15 155.782C166.572 155.625 166.046 155.319 165.624 154.894H165.651Z" fill="#02569B"/>
<path d="M165.707 153.951C165.38 153.644 165.133 153.263 164.985 152.84C164.784 152.426 164.688 151.968 164.708 151.508C164.683 151.039 164.779 150.571 164.985 150.148C165.133 149.725 165.38 149.344 165.707 149.038L166.428 148.51C166.953 148.188 167.56 148.024 168.176 148.039H169.091C169.664 148.207 170.188 148.511 170.617 148.927C170.939 149.232 171.178 149.614 171.311 150.037C171.53 150.467 171.645 150.942 171.645 151.425C171.645 151.907 171.53 152.383 171.311 152.813C171.176 153.243 170.937 153.633 170.617 153.951L169.896 154.478C169.366 154.789 168.762 154.952 168.148 154.95H167.232C166.657 154.788 166.132 154.483 165.707 154.062V153.951Z" fill="#02569B"/>
<path d="M168.204 154.2C167.284 154.2 166.402 153.834 165.751 153.184C165.101 152.533 164.736 151.651 164.736 150.73C164.736 149.81 165.101 148.928 165.751 148.277C166.402 147.626 167.284 147.261 168.204 147.261C169.124 147.261 170.006 147.626 170.656 148.277C171.307 148.928 171.672 149.81 171.672 150.73C171.672 151.651 171.307 152.533 170.656 153.184C170.006 153.834 169.124 154.2 168.204 154.2Z" fill="#02569B"/>
<path d="M166.345 153.701C165.955 153.487 165.622 153.182 165.374 152.813C165.058 152.483 164.846 152.068 164.763 151.619C164.638 151.165 164.638 150.685 164.763 150.231C164.795 149.778 164.938 149.339 165.18 148.954L165.734 148.26C166.145 147.82 166.675 147.511 167.26 147.372L168.176 147.233C168.79 147.232 169.394 147.395 169.924 147.705C170.326 147.902 170.663 148.21 170.895 148.594C171.199 148.925 171.418 149.325 171.533 149.759C171.65 150.214 171.65 150.692 171.533 151.147C171.505 151.61 171.362 152.058 171.117 152.452L170.59 153.146C170.168 153.571 169.641 153.877 169.064 154.034L168.12 154.173C167.507 154.168 166.905 154.005 166.373 153.701H166.345Z" fill="#02569B"/>
<path d="M168.065 154.006C167.145 154.006 166.263 153.64 165.613 152.989C164.963 152.339 164.597 151.456 164.597 150.536C164.597 149.616 164.963 148.733 165.613 148.083C166.263 147.432 167.145 147.066 168.065 147.066C168.985 147.066 169.867 147.432 170.518 148.083C171.168 148.733 171.533 149.616 171.533 150.536C171.533 151.456 171.168 152.339 170.518 152.989C169.867 153.64 168.985 154.006 168.065 154.006Z" fill="#02569B"/>
<path d="M168.01 154.006C167.547 154.017 167.09 153.912 166.678 153.701C166.25 153.564 165.867 153.315 165.568 152.979C165.229 152.683 164.979 152.299 164.847 151.869C164.622 151.462 164.516 151 164.542 150.536V149.593C164.709 149.013 165.025 148.486 165.457 148.066L166.151 147.538C166.676 147.216 167.283 147.052 167.899 147.067C168.369 147.029 168.84 147.125 169.258 147.344C169.675 147.505 170.053 147.75 170.368 148.066C170.683 148.382 170.929 148.76 171.09 149.176C171.309 149.594 171.405 150.066 171.367 150.536V151.452C171.199 152.026 170.894 152.549 170.479 152.979L169.785 153.506C169.246 153.823 168.635 153.995 168.01 154.006Z" fill="#02569B"/>
<path d="M164.542 150.537C164.531 150.074 164.636 149.616 164.847 149.204C165.007 148.788 165.253 148.41 165.568 148.094C165.884 147.779 166.262 147.533 166.678 147.373C167.089 147.161 167.547 147.056 168.01 147.067H168.953C169.531 147.224 170.057 147.531 170.479 147.955L171.006 148.649C171.323 149.177 171.486 149.783 171.478 150.398C171.512 150.859 171.416 151.321 171.2 151.73C171.064 152.159 170.815 152.542 170.479 152.841C170.183 153.18 169.799 153.43 169.369 153.562C168.954 153.79 168.482 153.895 168.01 153.868H167.094C166.512 153.723 165.982 153.414 165.568 152.979L165.041 152.286C164.726 151.756 164.554 151.153 164.542 150.537Z" fill="#02569B"/>
<path d="M168.01 147.011C168.473 146.986 168.935 147.091 169.341 147.316C169.758 147.477 170.136 147.723 170.451 148.038C170.767 148.354 171.012 148.732 171.173 149.148C171.398 149.555 171.503 150.017 171.478 150.481V151.397C171.317 151.979 171 152.507 170.562 152.923L169.869 153.479C169.338 153.789 168.735 153.952 168.121 153.95C167.657 153.976 167.195 153.87 166.789 153.645C166.359 153.513 165.974 153.263 165.679 152.923C165.343 152.625 165.094 152.241 164.958 151.813C164.746 151.401 164.642 150.943 164.652 150.481V149.565C164.814 148.989 165.12 148.463 165.54 148.038L166.234 147.483C166.767 147.178 167.368 147.016 167.982 147.011H168.01Z" fill="#02569B"/>
<path d="M169.425 154.866C168.961 154.892 168.499 154.786 168.093 154.561C167.663 154.429 167.278 154.179 166.983 153.839C166.647 153.541 166.398 153.157 166.262 152.729C166.05 152.317 165.946 151.859 165.956 151.397V150.481C166.107 149.9 166.414 149.372 166.844 148.954L167.538 148.399C168.07 148.094 168.672 147.932 169.286 147.927C169.75 147.902 170.211 148.007 170.618 148.232C171.051 148.358 171.437 148.609 171.727 148.954C172.347 149.622 172.711 150.487 172.754 151.397L172.615 152.313C172.476 152.898 172.167 153.429 171.727 153.839L171.034 154.394C170.502 154.701 169.9 154.864 169.286 154.866H169.425Z" fill="#02569B"/>
<path d="M168.065 155.699C167.601 155.725 167.14 155.619 166.733 155.394C166.304 155.262 165.919 155.012 165.624 154.672C165.288 154.374 165.038 153.99 164.902 153.562C164.691 153.15 164.586 152.692 164.597 152.23V151.314C164.759 150.738 165.064 150.212 165.485 149.787L166.179 149.232C166.711 148.927 167.313 148.765 167.927 148.76C168.39 148.735 168.852 148.84 169.258 149.065C169.675 149.226 170.053 149.472 170.368 149.787C170.683 150.103 170.929 150.481 171.09 150.897C171.315 151.304 171.42 151.766 171.395 152.23V153.146C171.234 153.728 170.917 154.256 170.479 154.672L169.785 155.228C169.255 155.538 168.652 155.701 168.037 155.699H168.065Z" fill="#02569B"/>
<path d="M169.952 155.117C169.734 155.349 169.482 155.546 169.203 155.699L168.371 156.06C168.048 156.103 167.722 156.103 167.4 156.06H166.928H166.456C166.022 155.945 165.622 155.726 165.291 155.422C164.914 155.174 164.601 154.841 164.374 154.451C164.148 154.061 164.016 153.624 163.987 153.174C163.862 152.719 163.862 152.24 163.987 151.786L164.32 150.953C164.617 150.433 165.048 150.001 165.568 149.704L166.401 149.371C167.009 149.204 167.651 149.204 168.26 149.371H167.344H166.429L165.596 149.704L164.902 150.231C165.208 149.891 165.602 149.641 166.04 149.51C166.445 149.282 166.908 149.176 167.372 149.204C167.836 149.179 168.297 149.285 168.703 149.51C169.133 149.642 169.518 149.892 169.813 150.231L170.368 150.925C170.679 151.456 170.841 152.059 170.84 152.674V153.59C170.689 154.171 170.382 154.699 169.952 155.117Z" fill="#02569B"/>
<path d="M167.01 156.476C166.541 156.501 166.073 156.405 165.651 156.199C165.235 156.038 164.857 155.793 164.541 155.477C164.226 155.162 163.98 154.783 163.82 154.367C163.614 153.944 163.518 153.476 163.542 153.007V152.091C163.71 151.518 164.015 150.994 164.43 150.564L165.151 150.009C165.682 149.698 166.285 149.535 166.899 149.537C167.815 149.588 168.687 149.95 169.369 150.564C169.69 150.869 169.929 151.251 170.062 151.674C170.287 152.081 170.393 152.543 170.367 153.007V153.95C170.199 154.524 169.895 155.048 169.48 155.477L168.758 156.005C168.233 156.327 167.626 156.491 167.01 156.476Z" fill="#02569B"/>
</svg>
