<svg width="619" height="95" viewBox="0 0 619 95" fill="none" xmlns="http://www.w3.org/2000/svg">
<g clip-path="url(#clip0)">
<path d="M17.104 28.3181C21.0546 37.8391 26.1195 46.8961 32.2005 55.3139C33.0059 56.4537 34.9545 56.089 34.9604 54.5959C34.9604 44.8013 34.9979 35.0068 35.0729 25.2122C35.0729 23.3772 32.1116 23.3772 32.1116 25.2122C32.0524 35.0068 32.0149 44.8013 31.9991 54.5959L34.759 53.8778C28.7989 45.676 23.8313 36.8463 19.9527 27.5602C19.2479 25.879 16.3992 26.6085 17.0921 28.3181H17.104Z" fill="#015CCA"/>
<path d="M42.754 25.1265L51.9043 61.1494L54.7589 60.3915L54.0778 58.4937C53.4856 56.7841 50.6013 57.5078 51.2232 59.2517L51.9043 61.1722C52.4965 62.8819 55.215 62.2094 54.7589 60.4143L45.6264 24.3686C45.1763 22.5905 42.3157 23.3428 42.7717 25.1265H42.754Z" fill="#015CCA"/>
<path d="M53.6639 23.3021C52.4054 29.8969 50.4875 36.3591 47.9368 42.5987C47.8516 42.9016 47.8714 43.223 47.9933 43.514C48.1152 43.8051 48.3324 44.05 48.6119 44.2115L68.1563 57.131C69.7317 58.1682 71.2123 55.7005 69.6547 54.669L50.1104 41.7496L50.7914 43.3567C53.3421 37.1171 55.2601 30.6548 56.5185 24.0601C56.862 22.2649 54.0074 21.4956 53.6639 23.3021Z" fill="#015CCA"/>
<path d="M53.7704 0.0236086C33.7464 -0.489295 13.7282 9.02791 4.66086 26.706C-3.75505 43.1075 -0.817476 63.5609 13.8289 75.8136C21.925 82.5839 32.2776 84.835 42.6242 86.311C53.5572 87.8668 65.0232 88.3512 75.4824 84.3392C79.8922 82.6979 83.8935 80.1816 87.2261 76.9542C90.5587 73.7268 93.1479 69.8605 94.8254 65.6068C98.3433 56.8818 98.6987 46.9656 97.0463 37.8189C95.2281 27.7261 90.3775 17.8726 82.3644 10.9541C73.9066 3.73882 62.8585 -0.0188653 51.5672 0.47952C49.672 0.559305 49.6602 3.41447 51.5672 3.32898C70.8273 2.47984 87.0432 14.6129 92.6103 32.0744C97.7037 48.0598 95.8144 69.9209 79.4919 79.307C70.7444 84.3392 60.2971 85.1484 50.3413 84.3449C40.3855 83.5413 29.2275 82.0653 20.5688 77.0332C5.1702 68.0574 -0.580577 49.2281 5.06359 33.2084C12.0285 13.4503 32.781 2.33737 53.8 2.87307C55.7012 2.91866 55.7012 0.0692 53.8 0.0236086H53.7704Z" fill="#015CCA"/>
</g>
<path d="M129.744 62C129.504 62 129.312 61.928 129.168 61.784C129.024 61.64 128.952 61.448 128.952 61.208V37.232C128.952 36.992 129.024 36.8 129.168 36.656C129.312 36.512 129.504 36.44 129.744 36.44H130.356C130.596 36.44 130.788 36.512 130.932 36.656C131.076 36.8 131.148 36.992 131.148 37.232V45.764C131.868 44.828 132.684 44.12 133.596 43.64C134.532 43.16 135.732 42.92 137.196 42.92C139.548 42.92 141.36 43.676 142.632 45.188C143.904 46.676 144.54 48.608 144.54 50.984V61.208C144.54 61.448 144.468 61.64 144.324 61.784C144.18 61.928 143.988 62 143.748 62H143.136C142.896 62 142.704 61.928 142.56 61.784C142.416 61.64 142.344 61.448 142.344 61.208V51.164C142.344 49.22 141.864 47.708 140.904 46.628C139.968 45.548 138.612 45.008 136.836 45.008C135.108 45.008 133.728 45.56 132.696 46.664C131.664 47.744 131.148 49.244 131.148 51.164V61.208C131.148 61.448 131.076 61.64 130.932 61.784C130.788 61.928 130.596 62 130.356 62H129.744ZM156.204 62C154.428 62 153.168 61.472 152.424 60.416C151.68 59.336 151.308 57.86 151.308 55.988V45.368H148.5C148.26 45.368 148.068 45.296 147.924 45.152C147.78 45.008 147.708 44.816 147.708 44.576V44.072C147.708 43.832 147.78 43.64 147.924 43.496C148.068 43.352 148.26 43.28 148.5 43.28H151.308V37.232C151.308 36.992 151.38 36.8 151.524 36.656C151.668 36.512 151.86 36.44 152.1 36.44H152.712C152.952 36.44 153.144 36.512 153.288 36.656C153.432 36.8 153.504 36.992 153.504 37.232V43.28H157.968C158.208 43.28 158.4 43.352 158.544 43.496C158.688 43.64 158.76 43.832 158.76 44.072V44.576C158.76 44.816 158.688 45.008 158.544 45.152C158.4 45.296 158.208 45.368 157.968 45.368H153.504V55.844C153.504 57.188 153.72 58.208 154.152 58.904C154.608 59.576 155.352 59.912 156.384 59.912H158.328C158.568 59.912 158.76 59.984 158.904 60.128C159.048 60.272 159.12 60.464 159.12 60.704V61.208C159.12 61.448 159.048 61.64 158.904 61.784C158.76 61.928 158.568 62 158.328 62H156.204ZM169.142 62C167.366 62 166.106 61.472 165.362 60.416C164.618 59.336 164.246 57.86 164.246 55.988V45.368H161.438C161.198 45.368 161.006 45.296 160.862 45.152C160.718 45.008 160.646 44.816 160.646 44.576V44.072C160.646 43.832 160.718 43.64 160.862 43.496C161.006 43.352 161.198 43.28 161.438 43.28H164.246V37.232C164.246 36.992 164.318 36.8 164.462 36.656C164.606 36.512 164.798 36.44 165.038 36.44H165.65C165.89 36.44 166.082 36.512 166.226 36.656C166.37 36.8 166.442 36.992 166.442 37.232V43.28H170.906C171.146 43.28 171.338 43.352 171.482 43.496C171.626 43.64 171.698 43.832 171.698 44.072V44.576C171.698 44.816 171.626 45.008 171.482 45.152C171.338 45.296 171.146 45.368 170.906 45.368H166.442V55.844C166.442 57.188 166.658 58.208 167.09 58.904C167.546 59.576 168.29 59.912 169.322 59.912H171.266C171.506 59.912 171.698 59.984 171.842 60.128C171.986 60.272 172.058 60.464 172.058 60.704V61.208C172.058 61.448 171.986 61.64 171.842 61.784C171.698 61.928 171.506 62 171.266 62H169.142ZM176.607 68.84C176.367 68.84 176.175 68.768 176.031 68.624C175.887 68.48 175.815 68.288 175.815 68.048V44.072C175.815 43.832 175.887 43.64 176.031 43.496C176.175 43.352 176.367 43.28 176.607 43.28H177.219C177.459 43.28 177.651 43.352 177.795 43.496C177.939 43.64 178.011 43.832 178.011 44.072V45.764C179.403 43.868 181.419 42.92 184.059 42.92C186.651 42.92 188.559 43.748 189.783 45.404C191.031 47.036 191.691 49.052 191.763 51.452C191.787 51.692 191.799 52.088 191.799 52.64C191.799 53.192 191.787 53.588 191.763 53.828C191.691 56.228 191.031 58.256 189.783 59.912C188.559 61.544 186.651 62.36 184.059 62.36C181.443 62.36 179.427 61.412 178.011 59.516V68.048C178.011 68.288 177.939 68.48 177.795 68.624C177.651 68.768 177.459 68.84 177.219 68.84H176.607ZM183.843 60.272C185.787 60.272 187.203 59.66 188.091 58.436C189.003 57.188 189.495 55.592 189.567 53.648C189.591 53.408 189.603 53.072 189.603 52.64C189.603 50.408 189.171 48.584 188.307 47.168C187.443 45.728 185.955 45.008 183.843 45.008C181.947 45.008 180.519 45.644 179.559 46.916C178.599 48.164 178.083 49.64 178.011 51.344L177.975 52.748L178.011 54.152C178.035 55.184 178.263 56.168 178.695 57.104C179.127 58.016 179.775 58.772 180.639 59.372C181.503 59.972 182.571 60.272 183.843 60.272ZM202.637 62.36C201.077 62.36 199.757 62.096 198.677 61.568C197.621 61.04 196.817 60.44 196.265 59.768C195.737 59.096 195.473 58.556 195.473 58.148C195.473 57.932 195.557 57.764 195.725 57.644C195.893 57.5 196.073 57.428 196.265 57.428H196.805C196.973 57.428 197.105 57.464 197.201 57.536C197.321 57.584 197.453 57.704 197.597 57.896C198.125 58.64 198.761 59.228 199.505 59.66C200.273 60.068 201.317 60.272 202.637 60.272C204.125 60.272 205.325 59.996 206.237 59.444C207.149 58.868 207.605 58.052 207.605 56.996C207.605 56.348 207.413 55.82 207.029 55.412C206.669 55.004 206.069 54.656 205.229 54.368C204.413 54.056 203.189 53.708 201.557 53.324C199.421 52.844 197.957 52.184 197.165 51.344C196.397 50.504 196.013 49.436 196.013 48.14C196.013 47.252 196.253 46.412 196.733 45.62C197.237 44.828 197.969 44.18 198.929 43.676C199.913 43.172 201.089 42.92 202.457 42.92C203.897 42.92 205.109 43.172 206.093 43.676C207.101 44.156 207.845 44.72 208.325 45.368C208.829 46.016 209.081 46.544 209.081 46.952C209.081 47.168 208.997 47.348 208.829 47.492C208.685 47.612 208.505 47.672 208.289 47.672H207.749C207.413 47.672 207.149 47.516 206.957 47.204C206.477 46.484 205.925 45.944 205.301 45.584C204.701 45.2 203.753 45.008 202.457 45.008C201.065 45.008 200.009 45.296 199.289 45.872C198.569 46.448 198.209 47.204 198.209 48.14C198.209 48.716 198.353 49.196 198.641 49.58C198.929 49.964 199.469 50.324 200.261 50.66C201.053 50.972 202.205 51.296 203.717 51.632C205.949 52.136 207.521 52.808 208.433 53.648C209.345 54.488 209.801 55.604 209.801 56.996C209.801 57.98 209.525 58.88 208.973 59.696C208.421 60.512 207.605 61.16 206.525 61.64C205.445 62.12 204.149 62.36 202.637 62.36ZM214.956 49.4C214.716 49.4 214.524 49.328 214.38 49.184C214.236 49.04 214.164 48.848 214.164 48.608V46.88C214.164 46.64 214.236 46.448 214.38 46.304C214.524 46.136 214.716 46.052 214.956 46.052H216.684C216.924 46.052 217.116 46.136 217.26 46.304C217.428 46.448 217.512 46.64 217.512 46.88V48.608C217.512 48.848 217.428 49.04 217.26 49.184C217.116 49.328 216.924 49.4 216.684 49.4H214.956ZM214.956 62C214.716 62 214.524 61.928 214.38 61.784C214.236 61.64 214.164 61.448 214.164 61.208V59.48C214.164 59.24 214.236 59.048 214.38 58.904C214.524 58.736 214.716 58.652 214.956 58.652H216.684C216.924 58.652 217.116 58.736 217.26 58.904C217.428 59.048 217.512 59.24 217.512 59.48V61.208C217.512 61.448 217.428 61.64 217.26 61.784C217.116 61.928 216.924 62 216.684 62H214.956ZM221.876 65.024C221.684 65.024 221.516 64.952 221.372 64.808C221.228 64.664 221.156 64.496 221.156 64.304C221.156 64.208 221.192 64.064 221.264 63.872L233.648 34.244C233.696 34.124 233.78 34.004 233.9 33.884C234.044 33.764 234.224 33.704 234.44 33.704H235.052C235.244 33.704 235.412 33.776 235.556 33.92C235.7 34.064 235.772 34.232 235.772 34.424C235.772 34.52 235.736 34.664 235.664 34.856L223.28 64.484C223.232 64.604 223.136 64.724 222.992 64.844C222.872 64.964 222.704 65.024 222.488 65.024H221.876ZM231.403 65.024C231.211 65.024 231.043 64.952 230.899 64.808C230.755 64.664 230.683 64.496 230.683 64.304C230.683 64.208 230.719 64.064 230.791 63.872L243.175 34.244C243.223 34.124 243.307 34.004 243.427 33.884C243.571 33.764 243.751 33.704 243.967 33.704H244.579C244.771 33.704 244.939 33.776 245.083 33.92C245.227 34.064 245.299 34.232 245.299 34.424C245.299 34.52 245.263 34.664 245.191 34.856L232.807 64.484C232.759 64.604 232.663 64.724 232.519 64.844C232.399 64.964 232.231 65.024 232.015 65.024H231.403ZM254.645 62C253.973 62 253.517 61.7 253.277 61.1L246.653 44.396L246.581 44C246.581 43.808 246.653 43.64 246.797 43.496C246.941 43.352 247.109 43.28 247.301 43.28H248.057C248.273 43.28 248.441 43.34 248.561 43.46C248.705 43.58 248.801 43.7 248.849 43.82L254.933 59.372L261.017 43.82C261.065 43.7 261.149 43.58 261.269 43.46C261.413 43.34 261.593 43.28 261.809 43.28H262.565C262.757 43.28 262.925 43.352 263.069 43.496C263.213 43.64 263.285 43.808 263.285 44L263.213 44.396L256.589 61.1C256.349 61.7 255.893 62 255.221 62H254.645ZM268.33 62C268.09 62 267.898 61.928 267.754 61.784C267.61 61.64 267.538 61.448 267.538 61.208V37.232C267.538 36.992 267.61 36.8 267.754 36.656C267.898 36.512 268.09 36.44 268.33 36.44H268.942C269.182 36.44 269.374 36.512 269.518 36.656C269.662 36.8 269.734 36.992 269.734 37.232V49.976L277.762 43.892C278.146 43.604 278.41 43.436 278.554 43.388C278.698 43.316 278.938 43.28 279.274 43.28H279.958C280.174 43.28 280.342 43.352 280.462 43.496C280.606 43.616 280.678 43.784 280.678 44C280.678 44.264 280.522 44.504 280.21 44.72L271.102 51.632L281.11 60.56C281.422 60.848 281.578 61.088 281.578 61.28C281.578 61.496 281.506 61.676 281.362 61.82C281.242 61.94 281.074 62 280.858 62H280.282C279.922 62 279.658 61.976 279.49 61.928C279.322 61.856 279.082 61.676 278.77 61.388L269.734 53.36V61.208C269.734 61.448 269.662 61.64 269.518 61.784C269.374 61.928 269.182 62 268.942 62H268.33ZM285.549 62C285.309 62 285.117 61.928 284.973 61.784C284.829 61.64 284.757 61.448 284.757 61.208V59.48C284.757 59.24 284.829 59.048 284.973 58.904C285.117 58.736 285.309 58.652 285.549 58.652H287.277C287.517 58.652 287.709 58.736 287.853 58.904C288.021 59.048 288.105 59.24 288.105 59.48V61.208C288.105 61.448 288.021 61.64 287.853 61.784C287.709 61.928 287.517 62 287.277 62H285.549ZM300.293 62.36C297.797 62.36 295.865 61.64 294.497 60.2C293.129 58.736 292.409 56.696 292.337 54.08L292.301 52.64L292.337 51.2C292.409 48.584 293.129 46.556 294.497 45.116C295.865 43.652 297.797 42.92 300.293 42.92C301.877 42.92 303.221 43.208 304.325 43.784C305.453 44.336 306.293 45.056 306.845 45.944C307.397 46.808 307.697 47.708 307.745 48.644C307.769 48.86 307.697 49.052 307.529 49.22C307.361 49.364 307.169 49.436 306.953 49.436H306.449C306.209 49.436 306.029 49.388 305.909 49.292C305.813 49.172 305.705 48.968 305.585 48.68C305.105 47.36 304.433 46.424 303.569 45.872C302.705 45.296 301.613 45.008 300.293 45.008C298.565 45.008 297.185 45.536 296.153 46.592C295.145 47.624 294.605 49.22 294.533 51.38L294.497 52.64L294.533 53.9C294.605 56.06 295.145 57.668 296.153 58.724C297.185 59.756 298.565 60.272 300.293 60.272C301.613 60.272 302.705 59.996 303.569 59.444C304.433 58.868 305.105 57.92 305.585 56.6C305.705 56.312 305.813 56.12 305.909 56.024C306.029 55.904 306.209 55.844 306.449 55.844H306.953C307.169 55.844 307.361 55.928 307.529 56.096C307.697 56.24 307.769 56.42 307.745 56.636C307.697 57.572 307.397 58.484 306.845 59.372C306.293 60.236 305.453 60.956 304.325 61.532C303.221 62.084 301.877 62.36 300.293 62.36ZM319.63 62.36C317.134 62.36 315.19 61.604 313.798 60.092C312.43 58.556 311.71 56.576 311.638 54.152L311.602 52.64L311.638 51.128C311.71 48.704 312.43 46.736 313.798 45.224C315.19 43.688 317.134 42.92 319.63 42.92C322.126 42.92 324.058 43.688 325.426 45.224C326.818 46.736 327.55 48.704 327.622 51.128C327.646 51.368 327.658 51.872 327.658 52.64C327.658 53.408 327.646 53.912 327.622 54.152C327.55 56.576 326.818 58.556 325.426 60.092C324.058 61.604 322.126 62.36 319.63 62.36ZM319.63 60.272C321.334 60.272 322.702 59.732 323.734 58.652C324.79 57.548 325.354 55.988 325.426 53.972C325.45 53.732 325.462 53.288 325.462 52.64C325.462 51.992 325.45 51.548 325.426 51.308C325.354 49.292 324.79 47.744 323.734 46.664C322.702 45.56 321.334 45.008 319.63 45.008C317.926 45.008 316.546 45.56 315.49 46.664C314.458 47.744 313.906 49.292 313.834 51.308L313.798 52.64L313.834 53.972C313.906 55.988 314.458 57.548 315.49 58.652C316.546 59.732 317.926 60.272 319.63 60.272ZM333.368 62C333.128 62 332.936 61.928 332.792 61.784C332.648 61.64 332.576 61.448 332.576 61.208V44.072C332.576 43.832 332.648 43.64 332.792 43.496C332.936 43.352 333.128 43.28 333.368 43.28H333.98C334.22 43.28 334.412 43.352 334.556 43.496C334.7 43.64 334.772 43.832 334.772 44.072V45.332C335.396 44.54 336.116 43.94 336.932 43.532C337.772 43.124 338.768 42.92 339.92 42.92C342.608 42.92 344.528 44.048 345.68 46.304C346.256 45.272 347.072 44.456 348.128 43.856C349.208 43.232 350.432 42.92 351.8 42.92C353.792 42.92 355.412 43.604 356.66 44.972C357.908 46.316 358.532 48.236 358.532 50.732V61.208C358.532 61.448 358.46 61.64 358.316 61.784C358.172 61.928 357.98 62 357.74 62H357.128C356.888 62 356.696 61.928 356.552 61.784C356.408 61.64 356.336 61.448 356.336 61.208V51.092C356.336 48.908 355.88 47.348 354.968 46.412C354.08 45.476 352.904 45.008 351.44 45.008C350.144 45.008 349.016 45.488 348.056 46.448C347.12 47.384 346.652 48.932 346.652 51.092V61.208C346.652 61.448 346.58 61.64 346.436 61.784C346.292 61.928 346.1 62 345.86 62H345.248C345.008 62 344.816 61.928 344.672 61.784C344.528 61.64 344.456 61.448 344.456 61.208V51.092C344.456 48.932 343.988 47.384 343.052 46.448C342.116 45.488 340.952 45.008 339.56 45.008C338.264 45.008 337.136 45.488 336.176 46.448C335.24 47.384 334.772 48.92 334.772 51.056V61.208C334.772 61.448 334.7 61.64 334.556 61.784C334.412 61.928 334.22 62 333.98 62H333.368ZM362.958 65.024C362.766 65.024 362.598 64.952 362.454 64.808C362.31 64.664 362.238 64.496 362.238 64.304C362.238 64.208 362.274 64.064 362.346 63.872L374.73 34.244C374.778 34.124 374.862 34.004 374.982 33.884C375.126 33.764 375.306 33.704 375.522 33.704H376.134C376.326 33.704 376.494 33.776 376.638 33.92C376.782 34.064 376.854 34.232 376.854 34.424C376.854 34.52 376.818 34.664 376.746 34.856L364.362 64.484C364.314 64.604 364.218 64.724 364.074 64.844C363.954 64.964 363.786 65.024 363.57 65.024H362.958ZM381.101 39.428C380.861 39.428 380.669 39.356 380.525 39.212C380.381 39.068 380.309 38.876 380.309 38.636V37.268C380.309 37.028 380.381 36.836 380.525 36.692C380.669 36.524 380.861 36.44 381.101 36.44H382.469C382.709 36.44 382.901 36.524 383.045 36.692C383.213 36.836 383.297 37.028 383.297 37.268V38.636C383.297 38.876 383.213 39.068 383.045 39.212C382.901 39.356 382.709 39.428 382.469 39.428H381.101ZM381.497 62C381.257 62 381.065 61.928 380.921 61.784C380.777 61.64 380.705 61.448 380.705 61.208V44.072C380.705 43.832 380.777 43.64 380.921 43.496C381.065 43.352 381.257 43.28 381.497 43.28H382.109C382.349 43.28 382.541 43.352 382.685 43.496C382.829 43.64 382.901 43.832 382.901 44.072V61.208C382.901 61.448 382.829 61.64 382.685 61.784C382.541 61.928 382.349 62 382.109 62H381.497ZM395.489 62.36C392.897 62.36 390.977 61.52 389.729 59.84C388.505 58.136 387.857 56.072 387.785 53.648L387.749 52.64L387.785 51.632C387.857 49.208 388.505 47.156 389.729 45.476C390.977 43.772 392.897 42.92 395.489 42.92C398.105 42.92 400.121 43.868 401.537 45.764V37.232C401.537 36.992 401.609 36.8 401.753 36.656C401.897 36.512 402.089 36.44 402.329 36.44H402.941C403.181 36.44 403.373 36.512 403.517 36.656C403.661 36.8 403.733 36.992 403.733 37.232V61.208C403.733 61.448 403.661 61.64 403.517 61.784C403.373 61.928 403.181 62 402.941 62H402.329C402.089 62 401.897 61.928 401.753 61.784C401.609 61.64 401.537 61.448 401.537 61.208V59.516C400.145 61.412 398.129 62.36 395.489 62.36ZM395.705 60.272C397.601 60.272 399.029 59.648 399.989 58.4C400.949 57.128 401.465 55.64 401.537 53.936C401.561 53.696 401.573 53.228 401.573 52.532C401.573 51.836 401.561 51.368 401.537 51.128C401.513 50.096 401.285 49.124 400.853 48.212C400.421 47.276 399.773 46.508 398.909 45.908C398.045 45.308 396.977 45.008 395.705 45.008C393.761 45.008 392.333 45.632 391.421 46.88C390.533 48.104 390.053 49.688 389.981 51.632L389.945 52.64C389.945 54.872 390.377 56.708 391.241 58.148C392.105 59.564 393.593 60.272 395.705 60.272ZM416.984 62.36C415.256 62.36 413.744 62.072 412.448 61.496C411.176 60.92 410.192 60.164 409.496 59.228C408.8 58.292 408.428 57.284 408.38 56.204C408.38 55.988 408.452 55.82 408.596 55.7C408.74 55.58 408.92 55.52 409.136 55.52H409.64C409.88 55.52 410.084 55.58 410.252 55.7C410.42 55.796 410.54 56.012 410.612 56.348C410.948 57.764 411.704 58.76 412.88 59.336C414.08 59.912 415.448 60.2 416.984 60.2C418.904 60.2 420.44 59.744 421.592 58.832C422.744 57.92 423.32 56.6 423.32 54.872C423.32 51.56 421.328 49.904 417.344 49.904H414.176C413.936 49.904 413.744 49.832 413.6 49.688C413.456 49.544 413.384 49.352 413.384 49.112V48.572C413.384 48.308 413.492 48.02 413.708 47.708L421.124 38.96H410.252C410.012 38.96 409.82 38.888 409.676 38.744C409.532 38.6 409.46 38.408 409.46 38.168V37.628C409.46 37.388 409.532 37.196 409.676 37.052C409.82 36.884 410.012 36.8 410.252 36.8H423.68C423.944 36.8 424.148 36.872 424.292 37.016C424.436 37.16 424.508 37.364 424.508 37.628V38.168C424.508 38.384 424.412 38.612 424.22 38.852L416.624 47.744H417.344C419.888 47.744 421.892 48.344 423.356 49.544C424.844 50.744 425.588 52.52 425.588 54.872C425.588 56.408 425.216 57.752 424.472 58.904C423.728 60.032 422.708 60.896 421.412 61.496C420.116 62.072 418.64 62.36 416.984 62.36ZM432.938 62C432.722 62 432.542 61.928 432.398 61.784C432.278 61.616 432.218 61.424 432.218 61.208L432.29 60.884L441.542 38.96H429.266C429.026 38.96 428.834 38.888 428.69 38.744C428.546 38.6 428.474 38.408 428.474 38.168V37.628C428.474 37.388 428.546 37.196 428.69 37.052C428.834 36.884 429.026 36.8 429.266 36.8H443.162C443.426 36.8 443.63 36.872 443.774 37.016C443.918 37.16 443.99 37.364 443.99 37.628V38.168C443.99 38.624 443.906 39.068 443.738 39.5L434.63 61.1C434.51 61.388 434.378 61.616 434.234 61.784C434.114 61.928 433.934 62 433.694 62H432.938ZM452.209 62C451.993 62 451.813 61.928 451.669 61.784C451.549 61.616 451.489 61.424 451.489 61.208C451.489 61.064 451.549 60.908 451.669 60.74L457.357 52.748C456.637 52.94 455.857 53.036 455.017 53.036C453.193 53.036 451.633 52.64 450.337 51.848C449.065 51.056 448.105 50.024 447.457 48.752C446.809 47.48 446.485 46.148 446.485 44.756C446.485 43.364 446.809 42.032 447.457 40.76C448.105 39.488 449.065 38.456 450.337 37.664C451.633 36.848 453.193 36.44 455.017 36.44C456.841 36.44 458.401 36.848 459.697 37.664C460.993 38.456 461.965 39.488 462.613 40.76C463.261 42.032 463.585 43.364 463.585 44.756C463.585 46.004 463.381 47.108 462.973 48.068C462.565 49.028 462.061 49.94 461.461 50.804L454.045 61.28C454.021 61.328 453.949 61.424 453.829 61.568C453.733 61.688 453.601 61.796 453.433 61.892C453.289 61.964 453.121 62 452.929 62H452.209ZM455.017 50.876C456.145 50.876 457.189 50.624 458.149 50.12C459.109 49.616 459.877 48.896 460.453 47.96C461.029 47.024 461.317 45.956 461.317 44.756C461.317 43.532 461.029 42.452 460.453 41.516C459.877 40.58 459.109 39.86 458.149 39.356C457.189 38.852 456.145 38.6 455.017 38.6C453.889 38.6 452.845 38.852 451.885 39.356C450.925 39.86 450.157 40.58 449.581 41.516C449.029 42.452 448.753 43.532 448.753 44.756C448.753 45.98 449.029 47.06 449.581 47.996C450.157 48.908 450.925 49.616 451.885 50.12C452.845 50.624 453.889 50.876 455.017 50.876ZM475.51 62C475.27 62 475.078 61.928 474.934 61.784C474.79 61.64 474.718 61.448 474.718 61.208V39.752L468.274 44.72C468.082 44.84 467.914 44.9 467.77 44.9C467.53 44.9 467.326 44.792 467.158 44.576L466.762 44.072C466.642 43.904 466.582 43.736 466.582 43.568C466.582 43.328 466.69 43.124 466.906 42.956L474.574 37.052C474.814 36.884 475.126 36.8 475.51 36.8H476.194C476.434 36.8 476.626 36.872 476.77 37.016C476.914 37.16 476.986 37.352 476.986 37.592V61.208C476.986 61.448 476.914 61.64 476.77 61.784C476.626 61.928 476.434 62 476.194 62H475.51ZM491.006 62.36C487.982 62.36 485.798 61.448 484.454 59.624C483.134 57.8 482.438 55.4 482.366 52.424L482.33 49.436L482.366 46.376C482.438 43.4 483.134 41 484.454 39.176C485.798 37.352 487.982 36.44 491.006 36.44C494.03 36.44 496.202 37.352 497.522 39.176C498.866 41 499.574 43.4 499.646 46.376C499.67 47.048 499.682 48.068 499.682 49.436C499.682 50.78 499.67 51.776 499.646 52.424C499.574 55.4 498.866 57.8 497.522 59.624C496.202 61.448 494.03 62.36 491.006 62.36ZM491.006 60.2C493.07 60.2 494.63 59.516 495.686 58.148C496.766 56.756 497.33 54.788 497.378 52.244C497.402 51.548 497.414 50.588 497.414 49.364C497.414 48.14 497.402 47.204 497.378 46.556C497.33 44.06 496.766 42.116 495.686 40.724C494.63 39.308 493.07 38.6 491.006 38.6C488.942 38.6 487.37 39.308 486.29 40.724C485.234 42.116 484.682 44.06 484.634 46.556L484.598 49.364L484.634 52.244C484.682 54.788 485.234 56.756 486.29 58.148C487.37 59.516 488.942 60.2 491.006 60.2ZM513.19 62.36C510.166 62.36 507.982 61.448 506.638 59.624C505.318 57.8 504.622 55.4 504.55 52.424L504.514 49.436L504.55 46.376C504.622 43.4 505.318 41 506.638 39.176C507.982 37.352 510.166 36.44 513.19 36.44C516.214 36.44 518.386 37.352 519.706 39.176C521.05 41 521.758 43.4 521.83 46.376C521.854 47.048 521.866 48.068 521.866 49.436C521.866 50.78 521.854 51.776 521.83 52.424C521.758 55.4 521.05 57.8 519.706 59.624C518.386 61.448 516.214 62.36 513.19 62.36ZM513.19 60.2C515.254 60.2 516.814 59.516 517.87 58.148C518.95 56.756 519.514 54.788 519.562 52.244C519.586 51.548 519.598 50.588 519.598 49.364C519.598 48.14 519.586 47.204 519.562 46.556C519.514 44.06 518.95 42.116 517.87 40.724C516.814 39.308 515.254 38.6 513.19 38.6C511.126 38.6 509.554 39.308 508.474 40.724C507.418 42.116 506.866 44.06 506.818 46.556L506.782 49.364L506.818 52.244C506.866 54.788 507.418 56.756 508.474 58.148C509.554 59.516 511.126 60.2 513.19 60.2ZM534.365 62.36C532.685 62.36 531.221 62.048 529.973 61.424C528.749 60.776 527.801 59.948 527.129 58.94C526.481 57.932 526.133 56.852 526.085 55.7V55.628C526.085 55.436 526.145 55.292 526.265 55.196C526.409 55.076 526.589 55.016 526.805 55.016H527.489C527.729 55.016 527.921 55.076 528.065 55.196C528.209 55.292 528.317 55.508 528.389 55.844C528.749 57.308 529.481 58.4 530.585 59.12C531.689 59.84 532.949 60.2 534.365 60.2C536.213 60.2 537.737 59.648 538.937 58.544C540.161 57.44 540.773 55.904 540.773 53.936C540.773 52.736 540.485 51.692 539.909 50.804C539.357 49.916 538.589 49.232 537.605 48.752C536.621 48.272 535.541 48.032 534.365 48.032C533.405 48.032 532.625 48.164 532.025 48.428C531.449 48.668 530.861 49.004 530.261 49.436C529.901 49.7 529.601 49.892 529.361 50.012C529.145 50.132 528.905 50.192 528.641 50.192H527.993C527.777 50.192 527.585 50.12 527.417 49.976C527.249 49.808 527.177 49.616 527.201 49.4L528.281 37.628C528.305 37.364 528.377 37.16 528.497 37.016C528.641 36.872 528.833 36.8 529.073 36.8H540.809C541.049 36.8 541.241 36.872 541.385 37.016C541.529 37.16 541.601 37.352 541.601 37.592V38.168C541.601 38.408 541.529 38.6 541.385 38.744C541.241 38.888 541.049 38.96 540.809 38.96H530.477L529.721 47.096C530.993 46.28 532.541 45.872 534.365 45.872C535.997 45.872 537.461 46.184 538.757 46.808C540.077 47.432 541.121 48.356 541.889 49.58C542.657 50.78 543.041 52.232 543.041 53.936C543.041 55.736 542.657 57.272 541.889 58.544C541.121 59.816 540.077 60.776 538.757 61.424C537.461 62.048 535.997 62.36 534.365 62.36ZM550.395 62C550.179 62 549.999 61.928 549.855 61.784C549.735 61.616 549.675 61.424 549.675 61.208L549.747 60.884L558.999 38.96H546.723C546.483 38.96 546.291 38.888 546.147 38.744C546.003 38.6 545.931 38.408 545.931 38.168V37.628C545.931 37.388 546.003 37.196 546.147 37.052C546.291 36.884 546.483 36.8 546.723 36.8H560.619C560.883 36.8 561.087 36.872 561.231 37.016C561.375 37.16 561.447 37.364 561.447 37.628V38.168C561.447 38.624 561.363 39.068 561.195 39.5L552.087 61.1C551.967 61.388 551.835 61.616 551.691 61.784C551.571 61.928 551.391 62 551.151 62H550.395ZM572.726 62.36C570.998 62.36 569.486 62.072 568.19 61.496C566.918 60.92 565.934 60.164 565.238 59.228C564.542 58.292 564.17 57.284 564.122 56.204C564.122 55.988 564.194 55.82 564.338 55.7C564.482 55.58 564.662 55.52 564.878 55.52H565.382C565.622 55.52 565.826 55.58 565.994 55.7C566.162 55.796 566.282 56.012 566.354 56.348C566.69 57.764 567.446 58.76 568.622 59.336C569.822 59.912 571.19 60.2 572.726 60.2C574.646 60.2 576.182 59.744 577.334 58.832C578.486 57.92 579.062 56.6 579.062 54.872C579.062 51.56 577.07 49.904 573.086 49.904H569.918C569.678 49.904 569.486 49.832 569.342 49.688C569.198 49.544 569.126 49.352 569.126 49.112V48.572C569.126 48.308 569.234 48.02 569.45 47.708L576.866 38.96H565.994C565.754 38.96 565.562 38.888 565.418 38.744C565.274 38.6 565.202 38.408 565.202 38.168V37.628C565.202 37.388 565.274 37.196 565.418 37.052C565.562 36.884 565.754 36.8 565.994 36.8H579.422C579.686 36.8 579.89 36.872 580.034 37.016C580.178 37.16 580.25 37.364 580.25 37.628V38.168C580.25 38.384 580.154 38.612 579.962 38.852L572.366 47.744H573.086C575.63 47.744 577.634 48.344 579.098 49.544C580.586 50.744 581.33 52.52 581.33 54.872C581.33 56.408 580.958 57.752 580.214 58.904C579.47 60.032 578.45 60.896 577.154 61.496C575.858 62.072 574.382 62.36 572.726 62.36Z" fill="#015CCA"/>
<defs>
<clipPath id="clip0">
<rect width="98" height="87.45" fill="white"/>
</clipPath>
</defs>
</svg>
