<svg width="645" height="390" viewBox="0 0 645 390" fill="none" xmlns="http://www.w3.org/2000/svg">
<path d="M193.857 355.818C175.522 353.958 162.393 339.034 161.046 320.717C159.84 304.362 164.444 287.578 157.689 271.918C144.6 241.559 107.427 242.725 80.4261 245.996C74.073 246.773 74.0127 256.994 80.4261 256.217C98.2992 254.05 118.344 251.331 134.709 261.042C153.447 272.204 151.537 291.217 150.974 310.352C150.572 324.54 152.421 338.073 161.71 349.297C169.847 358.965 181.406 364.981 193.877 366.04C200.311 366.674 200.27 356.452 193.877 355.818H193.857Z" fill="#EA008B"/>
<path d="M485.718 361.604C499.249 364.425 511.854 358.762 520.399 347.886C529.928 335.743 531.255 319.777 529.265 304.955C526.993 287.864 517.685 269.485 521.022 252.047C524.942 231.746 547.158 229.395 563.925 228.414C570.359 228.046 570.399 217.804 563.925 218.192C537.186 219.767 509.019 228.516 510.527 261.287C511.291 278.297 518.569 294.099 519.856 311.027C521.223 329.528 511.472 356.616 488.392 351.812C482.059 350.503 479.365 360.337 485.718 361.665V361.604Z" fill="#EA008B"/>
<path d="M211.691 376.384H196.29C190.902 376.384 186.56 372.561 186.56 367.859V346.475C186.56 341.773 190.902 337.95 196.29 337.95H211.691" fill="#0058AF"/>
<path d="M472.449 376.384H487.849C493.217 376.384 497.58 372.561 497.58 367.859V346.475C497.58 341.773 493.217 337.95 487.849 337.95H472.449" fill="#0058AF"/>
<path d="M467.021 194.375L482.24 194.6C490.865 194.723 497.741 203.228 497.6 213.592V215.412C497.459 225.777 490.342 234.077 481.717 233.954L466.498 233.729L467.021 194.375Z" fill="#0058AF"/>
<path d="M217.119 194.375L201.899 194.6C193.274 194.723 186.398 203.228 186.539 213.592V215.412C186.68 225.777 193.797 234.077 202.422 233.954L217.641 233.729L217.119 194.375Z" fill="#0058AF"/>
<path d="M473.695 390V230.213C473.695 139.628 417.724 66.1738 348.664 66.1738H336.601C267.541 66.1738 211.55 139.628 211.55 230.213V390H473.695Z" fill="#015CCA"/>
<path d="M435.918 157.945H246.109C239.736 157.945 234.569 163.199 234.569 169.679V216.352C234.569 222.833 239.736 228.087 246.109 228.087H435.918C442.292 228.087 447.458 222.833 447.458 216.352V169.679C447.458 163.199 442.292 157.945 435.918 157.945Z" fill="#02569B"/>
<path d="M293.597 222.792C311.207 222.792 325.483 208.276 325.483 190.369C325.483 172.462 311.207 157.945 293.597 157.945C275.987 157.945 261.711 172.462 261.711 190.369C261.711 208.276 275.987 222.792 293.597 222.792Z" fill="white"/>
<path d="M386.46 222.792C404.07 222.792 418.346 208.275 418.346 190.368C418.346 172.461 404.07 157.945 386.46 157.945C368.85 157.945 354.574 172.461 354.574 190.368C354.574 208.275 368.85 222.792 386.46 222.792Z" fill="white"/>
<path d="M293.597 207.439C301.824 207.439 308.494 200.657 308.494 192.29C308.494 183.924 301.824 177.142 293.597 177.142C285.369 177.142 278.699 183.924 278.699 192.29C278.699 200.657 285.369 207.439 293.597 207.439Z" fill="black"/>
<path d="M386.461 207.439C394.689 207.439 401.359 200.657 401.359 192.29C401.359 183.924 394.689 177.142 386.461 177.142C378.233 177.142 371.563 183.924 371.563 192.29C371.563 200.657 378.233 207.439 386.461 207.439Z" fill="black"/>
<path d="M435.919 170.457H246.13C243.3 170.481 240.505 169.829 237.967 168.555C237.05 168.168 236.252 167.536 235.658 166.727C235.063 165.917 234.694 164.96 234.59 163.956V155.063C234.59 151.464 239.757 148.562 246.13 148.562H435.919C442.292 148.562 447.459 151.464 447.459 155.063V163.956C447.459 167.554 442.292 170.457 435.919 170.457Z" fill="#EA008B"/>
<path d="M340.582 162.483H248.984C247.608 162.503 246.242 162.246 244.963 161.727C243.958 161.257 243.335 160.623 243.335 159.907V156.35C243.335 154.919 245.828 153.754 248.904 153.754H340.501C343.577 153.754 346.07 154.919 346.07 156.35V159.907C346.151 161.359 343.658 162.483 340.582 162.483Z" fill="#EF73C3"/>
<path d="M193.295 208.972C197.916 211.05 202.249 213.738 206.182 216.965C208.755 219.01 211.268 214.512 208.715 212.55C204.42 209.086 199.687 206.225 194.642 204.045C191.646 202.839 190.339 207.766 193.295 208.972Z" fill="#FFD900"/>
<path d="M204.312 198.873C199.828 204.638 198.28 211.834 194.661 218.049C192.973 220.87 197.315 223.425 199.004 220.625C202.442 214.839 203.708 207.827 207.87 202.491C209.881 199.936 206.322 196.358 204.312 198.873V198.873Z" fill="#FFD900"/>
<path d="M475.525 206.519C477.656 207.03 479.827 209.81 481.556 211.262L487.588 216.577C490.04 218.621 493.619 215.126 491.146 212.979L483.527 206.314C481.516 204.556 479.506 202.226 476.872 201.592C473.736 200.815 472.388 205.681 475.545 206.519H475.525Z" fill="#FFD900"/>
<path d="M486.562 200.202C483.882 205.404 480.936 210.461 477.736 215.35C475.947 218.09 480.29 220.666 482.079 217.926C485.283 213.039 488.229 207.983 490.905 202.778C492.413 199.875 488.07 197.278 486.562 200.202Z" fill="#FFD900"/>
<path d="M236.922 220.502V223.487C236.922 224.165 237.187 224.815 237.658 225.294C238.129 225.773 238.768 226.042 239.435 226.042C240.101 226.042 240.741 225.773 241.212 225.294C241.683 224.815 241.948 224.165 241.948 223.487V220.502C241.943 219.826 241.676 219.179 241.206 218.701C240.736 218.223 240.1 217.952 239.435 217.947C238.772 217.957 238.138 218.23 237.669 218.707C237.2 219.184 236.932 219.828 236.922 220.502Z" fill="#FFD900"/>
<path d="M252.664 234.138L253.911 237.614C254.102 238.258 254.531 238.803 255.108 239.134C255.685 239.465 256.365 239.558 257.007 239.392C257.646 239.21 258.189 238.781 258.52 238.196C258.851 237.611 258.943 236.917 258.776 236.264L257.509 232.769C257.421 232.445 257.271 232.142 257.067 231.878C256.864 231.613 256.611 231.392 256.324 231.227C256.036 231.062 255.719 230.956 255.392 230.915C255.064 230.875 254.731 230.9 254.413 230.99C254.095 231.08 253.797 231.233 253.537 231.44C253.277 231.646 253.06 231.903 252.897 232.196C252.735 232.488 252.631 232.81 252.591 233.143C252.551 233.477 252.576 233.815 252.664 234.138V234.138Z" fill="#FFD900"/>
<path d="M271.723 224.223L272.004 227.473C272.004 228.151 272.269 228.801 272.74 229.28C273.212 229.76 273.851 230.029 274.517 230.029C275.184 230.029 275.823 229.76 276.294 229.28C276.766 228.801 277.03 228.151 277.03 227.473L276.749 224.223C276.729 223.552 276.457 222.914 275.99 222.439C275.523 221.964 274.896 221.688 274.236 221.667C273.572 221.678 272.939 221.951 272.47 222.428C272.001 222.905 271.733 223.548 271.723 224.223V224.223Z" fill="#FFD900"/>
<path d="M284.892 234.956L285.193 237.184C285.21 237.853 285.468 238.493 285.917 238.983C286.396 239.459 287.037 239.73 287.706 239.739C288.036 239.741 288.363 239.674 288.667 239.545C288.971 239.415 289.246 239.224 289.476 238.983C289.716 238.752 289.906 238.473 290.034 238.163C290.163 237.854 290.226 237.52 290.22 237.184L289.918 234.956C289.89 234.279 289.626 233.634 289.174 233.136C288.701 232.667 288.066 232.404 287.405 232.404C286.744 232.404 286.109 232.667 285.636 233.136C285.397 233.372 285.207 233.655 285.08 233.968C284.952 234.281 284.888 234.617 284.892 234.956V234.956Z" fill="#FFD900"/>
<path d="M301.619 227.903L302.182 230.888C302.27 231.211 302.42 231.514 302.624 231.779C302.827 232.043 303.08 232.264 303.367 232.43C303.655 232.595 303.972 232.701 304.3 232.741C304.627 232.782 304.96 232.756 305.278 232.666C305.908 232.471 306.44 232.038 306.765 231.457C307.09 230.875 307.184 230.188 307.027 229.538L306.464 226.554C306.286 225.905 305.862 225.354 305.286 225.021C304.71 224.687 304.028 224.599 303.388 224.775C302.755 224.966 302.218 225.397 301.889 225.979C301.559 226.562 301.463 227.25 301.619 227.903V227.903Z" fill="#FFD900"/>
<path d="M358.455 223.487L358.697 225.531C358.717 226.2 358.974 226.839 359.42 227.33C359.899 227.806 360.54 228.077 361.21 228.087C361.874 228.08 362.51 227.809 362.979 227.33C363.214 227.096 363.402 226.816 363.529 226.507C363.657 226.198 363.723 225.867 363.723 225.531L363.481 223.487C363.461 222.818 363.204 222.18 362.758 221.688C362.279 221.212 361.638 220.941 360.968 220.932C360.304 220.938 359.669 221.21 359.199 221.688C358.96 221.919 358.77 222.199 358.642 222.508C358.514 222.818 358.45 223.151 358.455 223.487V223.487Z" fill="#FFD900"/>
<path d="M386.602 227.658L387.064 230.172C387.247 230.823 387.675 231.374 388.254 231.707C388.833 232.04 389.518 232.127 390.16 231.951C390.792 231.751 391.324 231.315 391.649 230.729C391.974 230.144 392.067 229.455 391.909 228.802L391.447 226.308C391.359 225.985 391.209 225.682 391.005 225.417C390.802 225.153 390.549 224.932 390.262 224.767C389.974 224.601 389.657 224.495 389.329 224.455C389.002 224.414 388.669 224.44 388.351 224.53C387.719 224.72 387.183 225.153 386.857 225.736C386.531 226.319 386.44 227.008 386.602 227.658V227.658Z" fill="#FFD900"/>
<path d="M402.686 235.692V237.429C402.691 238.105 402.957 238.752 403.427 239.23C403.898 239.709 404.534 239.979 405.199 239.985C405.86 239.969 406.491 239.695 406.959 239.219C407.427 238.743 407.696 238.102 407.712 237.429V235.692C407.712 235.014 407.447 234.364 406.976 233.885C406.504 233.405 405.865 233.136 405.199 233.136C404.532 233.136 403.893 233.405 403.422 233.885C402.95 234.364 402.686 235.014 402.686 235.692V235.692Z" fill="#FFD900"/>
<path d="M412.738 220.012L413.04 222.485C413.06 223.154 413.317 223.793 413.763 224.284C414.242 224.76 414.883 225.031 415.553 225.041C416.779 225.041 418.227 223.916 418.066 222.485L417.764 220.012C417.745 219.333 417.48 218.685 417.02 218.192C416.546 217.723 415.912 217.459 415.251 217.456C414.025 217.456 412.557 218.58 412.738 220.012Z" fill="#FFD900"/>
<path d="M433.224 213.449L433.767 216.189C433.95 216.839 434.377 217.391 434.956 217.723C435.536 218.056 436.221 218.144 436.863 217.967C437.498 217.772 438.035 217.337 438.364 216.752C438.693 216.166 438.789 215.474 438.632 214.819L438.069 212.1C437.895 211.447 437.474 210.891 436.897 210.554C436.32 210.217 435.636 210.126 434.993 210.301C434.358 210.496 433.821 210.931 433.492 211.517C433.163 212.103 433.067 212.794 433.224 213.449V213.449Z" fill="#FFD900"/>
<path d="M432.943 233.136L433.124 233.934C433.124 234.097 433.124 234.281 433.224 234.445C433.325 234.608 433.224 234.813 433.224 234.649C433.224 234.486 433.224 234.547 433.224 234.854C433.214 234.983 433.214 235.113 433.224 235.242C433.224 235.569 433.224 235.876 433.224 236.183C433.224 236.86 433.489 237.51 433.96 237.99C434.431 238.469 435.071 238.738 435.737 238.738C436.404 238.738 437.043 238.469 437.514 237.99C437.985 237.51 438.25 236.86 438.25 236.183C438.19 234.701 437.988 233.229 437.647 231.787C437.568 231.454 437.425 231.141 437.225 230.865C437.025 230.59 436.772 230.358 436.482 230.184C436.193 230.01 435.871 229.896 435.538 229.851C435.204 229.805 434.864 229.828 434.54 229.919C434.215 230.009 433.911 230.165 433.647 230.377C433.383 230.589 433.163 230.853 433.001 231.153C432.839 231.454 432.738 231.784 432.703 232.124C432.669 232.465 432.703 232.809 432.802 233.136H432.943Z" fill="#FFD900"/>
<path d="M312.033 234.281C312.338 235.118 312.573 235.98 312.737 236.857C312.911 237.51 313.333 238.066 313.909 238.403C314.486 238.74 315.171 238.831 315.813 238.656C316.448 238.461 316.985 238.026 317.314 237.44C317.643 236.855 317.739 236.163 317.582 235.508C317.428 234.629 317.193 233.766 316.879 232.932C316.686 232.298 316.259 231.764 315.687 231.445C315.115 231.125 314.443 231.045 313.813 231.22C313.184 231.395 312.646 231.813 312.314 232.384C311.982 232.956 311.881 233.636 312.033 234.281V234.281Z" fill="#FFD900"/>
<path d="M377.917 78.8488C376.436 86.5146 372.209 93.3482 366.055 98.0249C358.656 103.913 348.966 112.335 339.135 112.335C323.574 112.335 314.084 86.9649 306.082 76.2934C300.272 68.5453 287.164 76.1707 293.055 84.021C305.901 101.132 316.657 129.958 342.271 127.423C355.098 126.155 366.175 117.324 376.027 109.514C384.443 102.93 390.268 93.5044 392.452 82.9375C394.764 73.3699 380.229 69.2812 377.917 78.8488V78.8488Z" fill="#0058AF"/>
<path d="M311.852 83.285C308.032 78.1742 303.428 71.8776 303.629 65.0903C303.911 56.0951 315.913 49.3283 319.713 60.5927C321.16 64.9676 328.458 65.908 329.403 60.5927C330.187 56.32 329.544 47.7133 331.916 44.749C338.792 36.1627 342.753 47.7746 343.818 54.2348C344.783 60.0203 353.71 58.5075 353.69 52.8855C353.428 43.9822 356.512 35.312 362.315 28.6394C365.451 25.2049 371.764 20.1145 376.891 22.1384C380.449 23.5286 382.058 29.8252 382.681 33.137C385.266 48.3023 382.744 63.911 375.524 77.4382C368.648 90.5221 354.514 107.061 338.571 107.102C323.171 107.102 316.215 87.7009 308.414 77.1724C304.554 72.0002 295.828 77.1724 299.729 82.3242C311.792 98.679 321.542 122.496 346.191 116.281C367.844 110.823 384.068 88.5595 390.301 67.8706C394.703 53.2739 399.247 18.1928 379.605 12.2846C357.671 5.66089 343.678 35.4471 343.678 52.8855L353.569 51.5158C351.921 41.7029 346.834 28.5168 334.59 30.1318C321.16 31.9104 321.583 47.7133 319.753 57.8737H329.444C325.583 46.18 311.53 39.4745 301.297 48.0199C288.088 58.9572 294.863 77.0907 303.307 88.4368C307.168 93.609 315.893 88.539 311.993 83.285H311.852Z" fill="#FFD900"/>
<path d="M308.575 82.7536C315.29 69.0508 325.765 57.6189 338.732 49.8394L331.293 43.9108C327.272 59.9181 316.516 72.8998 315.391 89.8066C315.109 93.8953 321.281 96.8801 323.955 93.4047C338.571 74.5557 352.604 54.9708 369.714 38.3502L361.33 36.0809C362.798 40.8647 356.826 48.3471 354.796 52.2722C352.243 57.2809 349.729 62.31 347.337 67.4005C342.874 76.8181 338.853 86.4266 335.274 96.2259C333.264 101.889 341.466 104.771 344.462 100.171C350.911 89.5674 358.193 79.5105 366.235 70.099C367.281 68.9337 370.659 66.5418 371.061 65.0903C370.578 59.1413 369.935 57.976 369.05 61.5536C368.668 62.7598 368.246 63.9659 367.804 65.1721C365.139 72.5644 361.982 79.7636 358.354 86.7196C355.379 92.546 364.044 97.7183 367.04 91.8714C370.035 86.0245 389.758 52.0882 372.528 52.6402C365.371 52.8855 358.455 63.3322 354.555 68.2182C347.799 76.801 341.504 85.7478 335.696 95.0197L344.884 98.9653C349.806 85.9276 355.451 73.1844 361.792 60.7972C365.813 52.6198 373.976 42.95 371.02 33.4028C370.774 32.5505 370.315 31.7772 369.689 31.1574C369.063 30.5376 368.291 30.0922 367.446 29.8642C366.602 29.6361 365.714 29.6332 364.868 29.8555C364.022 30.0778 363.247 30.518 362.617 31.1336C345.487 47.7542 331.454 67.3596 316.858 86.2085L325.443 89.827C326.468 74.2695 337.204 61.5127 341.004 46.6502C341.236 45.6739 341.185 44.65 340.857 43.7026C340.528 42.7552 339.937 41.9251 339.154 41.3127C338.371 40.7003 337.43 40.3321 336.445 40.2526C335.46 40.173 334.474 40.3857 333.605 40.8647C319.162 49.5396 307.462 62.2379 299.89 77.4587C296.975 83.3055 305.64 88.4777 308.575 82.6104V82.7536Z" fill="#FFD900"/>
<path d="M78.3761 246.629C64.645 253.45 49.0097 255.206 34.1457 251.597C26.4456 249.696 17.0567 245.893 12.6538 238.656C5.71762 227.29 21.9824 225.245 29.6222 224.346C38.0612 223.223 46.6305 223.666 54.9139 225.654C58.5126 226.533 65.2477 227.699 66.0921 232.462C67.2582 238.861 57.2662 243.133 53.004 244.503C47.5355 246.261 33.6431 247.774 28.8783 242.643C31.311 245.26 36.0557 242.99 39.4131 243.174C44.7323 243.593 49.9347 244.978 54.7732 247.263L56.1001 237.225C47.1892 238.091 38.247 235.935 30.6676 231.092L32.477 238.084C35.352 231.951 55.135 239.004 59.8194 240.558C65.9916 242.602 68.6455 232.728 62.4934 230.704C52.6421 227.433 29.9237 220.032 23.7918 232.932C23.151 234.11 22.9814 235.495 23.3184 236.797C23.6554 238.099 24.473 239.219 25.6012 239.924C34.729 245.642 45.4156 248.242 56.1001 247.345C62.0108 246.875 62.5939 239.515 57.4471 237.287C48.5608 233.484 24.1134 227.596 17.8407 239.331C12.0908 250.084 31.13 255.011 37.9455 255.849C50.7321 257.485 68.5449 253.171 74.5562 240.128C80.5676 227.085 70.5353 219.276 59.3168 216.25C42.2479 211.671 -17.0811 212.775 4.89336 245.116C21.2586 269.24 60.7845 267.011 83.5229 255.584C89.3332 252.681 84.2467 243.849 78.4566 246.752L78.3761 246.629Z" fill="#EA008B"/>
<path d="M86.5986 238.615C90.2577 230.274 93.0321 221.258 90.6196 212.038C88.8503 205.149 82.8189 195.888 74.7167 197.053C66.6145 198.218 65.1066 208.256 65.6093 215.044C65.9307 219.314 67.1056 223.473 69.0622 227.266C71.0188 231.059 73.716 234.406 76.9885 237.102C79.5619 239.249 84.749 239.044 85.3923 234.853C86.0647 231.352 85.8988 227.737 84.9085 224.314C83.9183 220.891 82.1328 217.76 79.7027 215.187L76.1642 223.916L77.5917 224.652C80.9693 230.254 89.6545 225.122 86.2769 219.48C85.3103 217.648 83.853 216.132 82.0738 215.108C80.2947 214.084 78.2665 213.594 76.2246 213.694C75.2416 213.72 74.2872 214.035 73.4768 214.602C72.6663 215.168 72.0347 215.961 71.6582 216.884C71.2816 217.808 71.1764 218.823 71.3553 219.806C71.5342 220.789 71.9895 221.698 72.666 222.424C73.8995 223.678 74.8216 225.213 75.3565 226.902C75.8914 228.59 76.0235 230.384 75.7421 232.134L84.1458 229.886C80.7513 227.225 78.1826 223.627 76.7473 219.521C76.0637 217.476 74.2543 209.094 76.9684 208.706C80.346 208.236 81.5322 216.883 81.5925 219.275C81.4008 224.207 80.1665 229.039 77.9737 233.443C75.36 239.412 84.0051 244.605 86.6589 238.615H86.5986Z" fill="#EA008B"/>
<path d="M563.201 228.005C587.227 231.521 630.934 244.155 643.299 212.12C655.663 180.085 597.158 183.888 581.255 189.632C570.439 193.558 565.694 204.515 572.55 214.758C579.848 225.634 595.429 229.272 607.593 227.739C614.267 226.881 633.307 221.933 627.577 211.221C621.304 199.486 596.877 205.374 587.99 209.176C582.844 211.364 583.366 218.744 589.317 219.214C599.995 220.13 610.681 217.551 619.816 211.855C620.941 211.146 621.754 210.025 622.088 208.723C622.421 207.421 622.248 206.039 621.606 204.863C615.574 192.024 592.695 199.384 582.904 202.635C576.873 204.679 579.406 214.533 585.578 212.488C590.262 210.935 610.045 203.963 612.92 210.015L614.73 203.023C607.138 207.83 598.197 209.95 589.297 209.054L590.644 219.092C594.649 217.274 598.886 216.042 603.23 215.432C606.708 215.003 614.428 217.047 616.519 214.574C612.297 219.582 599.45 218.315 593.861 216.884C589.631 215.989 585.715 213.956 582.522 210.996C575.586 203.33 582.24 199.813 588.855 198.035C596.721 195.947 604.883 195.256 612.981 195.99C619.454 196.563 635.578 197.585 634.432 206.785C633.347 215.494 620.6 221.218 613.463 222.731C597.902 226.063 581.135 220.461 565.775 218.213C559.442 217.293 556.707 227.146 563.101 228.066L563.201 228.005Z" fill="#EA008B"/>
<path d="M567.544 205.415C565.369 201.006 564.142 196.176 563.945 191.248C563.945 188.897 565.151 180.208 568.549 180.678C571.243 181.067 569.434 189.449 568.77 191.493C567.344 195.604 564.774 199.205 561.372 201.858L569.775 204.107C569.494 202.356 569.626 200.562 570.161 198.874C570.696 197.185 571.618 195.65 572.852 194.396C573.528 193.67 573.983 192.761 574.162 191.778C574.341 190.795 574.236 189.78 573.859 188.856C573.483 187.933 572.851 187.14 572.041 186.574C571.23 186.008 570.276 185.693 569.293 185.667C567.251 185.569 565.224 186.06 563.446 187.084C561.667 188.108 560.209 189.622 559.241 191.452C555.863 197.094 564.548 202.226 567.926 196.624L569.353 195.888L565.815 187.159C563.384 189.732 561.6 192.863 560.613 196.287C559.626 199.71 559.465 203.325 560.145 206.826C560.789 211.017 565.976 211.221 568.529 209.074C571.787 206.385 574.472 203.05 576.421 199.272C578.371 195.494 579.543 191.351 579.868 187.098C580.371 180.331 578.843 170.232 570.761 169.107C562.679 167.983 556.687 177.285 554.858 184.092C552.486 193.231 555.26 202.246 558.879 210.669C561.513 216.659 570.178 211.466 567.564 205.497L567.544 205.415Z" fill="#EA008B"/>
<path d="M419.715 273.001H390.784C380.069 273.001 371.383 281.834 371.383 292.729V308.777C371.383 319.673 380.069 328.505 390.784 328.505H419.715C430.43 328.505 439.116 319.673 439.116 308.777V292.729C439.116 281.834 430.43 273.001 419.715 273.001Z" fill="#039BEF"/>
<path d="M415.392 281.015H395.106C388.322 281.015 382.822 286.608 382.822 293.506V305.282C382.822 312.18 388.322 317.773 395.106 317.773H415.392C422.176 317.773 427.676 312.18 427.676 305.282V293.506C427.676 286.608 422.176 281.015 415.392 281.015Z" fill="#0058AF"/>
<path d="M413.361 286.064H397.157C392.649 286.064 388.994 289.781 388.994 294.365V304.423C388.994 309.007 392.649 312.723 397.157 312.723H413.361C417.869 312.723 421.524 309.007 421.524 304.423V294.365C421.524 289.781 417.869 286.064 413.361 286.064Z" fill="#024F8E"/>
<path d="M135.714 99.8037C126.507 94.0591 121.782 82.5902 127.09 72.2867C132.035 62.7191 145.184 56.5451 151.597 68.3206C157.85 79.769 156.623 93.2413 169.229 100.478C174.858 103.729 179.925 94.8972 174.295 91.6672C162.836 85.0639 165.188 67.1349 156.583 57.69C149.406 49.7783 138.489 49.6965 129.723 54.9914C109.136 67.4415 111.267 96.5327 130.648 108.635C136.177 112.09 141.223 103.259 135.714 99.8037V99.8037Z" fill="#EA008B"/>
<path d="M190.581 110.986L194.602 115.074C195.551 116.004 196.821 116.518 198.139 116.504C199.457 116.491 200.717 115.951 201.648 115.002C202.578 114.053 203.105 112.771 203.115 111.43C203.124 110.09 202.616 108.8 201.699 107.837L197.678 103.749C196.72 102.878 195.471 102.414 194.187 102.45C192.904 102.487 191.682 103.022 190.774 103.945C189.866 104.869 189.34 106.111 189.304 107.416C189.268 108.722 189.725 109.992 190.581 110.965V110.986Z" fill="#EA008B"/>
<path d="M169.873 34.2621C166.958 27.0864 167.681 18.4592 174.617 13.8185C180.91 9.72984 192.209 9.52541 192.41 19.645C192.41 25.3896 188.872 31.0729 187.766 36.654C186.755 41.526 187.334 46.6002 189.415 51.1076C191.988 57.118 200.653 51.9254 198.1 45.9354C193.938 36.1634 204.594 24.8376 202.121 14.2479C200.11 5.70247 192.068 1.08221 183.785 0.959548C179.564 0.920821 175.4 1.95193 171.669 3.95975C167.938 5.96756 164.758 8.88882 162.415 12.4597C160.073 16.0306 158.642 20.1386 158.252 24.4126C157.862 28.6867 158.526 32.9922 160.182 36.9402C162.615 42.9302 172.346 40.3134 169.873 34.2212V34.2621Z" fill="#EA008B"/>
<path d="M198.26 67.8094L199.004 72.4092C199.35 73.6996 200.18 74.8006 201.316 75.4757C202.18 75.9895 203.175 76.2292 204.174 76.1643C205.173 76.0993 206.13 75.7326 206.923 75.1111C207.715 74.4896 208.307 73.6417 208.623 72.6759C208.939 71.7101 208.964 70.6705 208.695 69.6902L207.951 65.0904C207.596 63.7837 206.746 62.6738 205.586 62.0047C204.427 61.3357 203.054 61.1624 201.768 61.523C200.483 61.8836 199.392 62.7484 198.734 63.9273C198.076 65.1063 197.906 66.5027 198.26 67.8094V67.8094Z" fill="#EA008B"/>
</svg>
